<?xml version="1.0" encoding="UTF-8" standalone="no"?><!DOCTYPE svg PUBLIC "-//W3C//DTD SVG 1.1//EN" "http://www.w3.org/Graphics/SVG/1.1/DTD/svg11.dtd"><svg width="100%" height="100%" viewBox="0 0 61 64" version="1.1" xmlns="http://www.w3.org/2000/svg" xmlns:xlink="http://www.w3.org/1999/xlink" xml:space="preserve" xmlns:serif="http://www.serif.com/" style="fill-rule:evenodd;clip-rule:evenodd;stroke-linejoin:round;stroke-miterlimit:1.41421;"><g><path d="M25.297,15.3c2.652,0.041 9.914,3.428 12.689,5.304c2.081,1.388 3.998,2.857 5.753,4.57c0.489,0.49 0.693,0.857 1.183,1.387c0.938,0.898 3.998,4.978 3.998,6.447c0,2.448 -3.998,3.59 -5.997,3.998c-4.489,0.98 -2.979,1.02 -5.753,4.57c-0.735,0.979 -2.571,2.938 -3.999,2.938c-1.224,0 -1.632,-0.612 -2.244,-1.224c-1.918,-1.959 -2.897,-4.448 -3.998,-6.488c-0.612,0.327 -1.428,0.572 -2.081,0.898c0.081,1.265 3.672,10.445 7.874,10.445c2.326,0 3.795,-1.632 5.06,-3.264c0.652,-0.857 1.02,-1.673 1.469,-2.774c2.244,-5.59 1.672,-2 8.731,-3.958c1.754,-0.449 4.406,-1.918 4.406,-4.08c0,-2.775 -1.632,-4.937 -3.264,-6.855c0,-0.041 -0.04,-0.081 -0.081,-0.081c0,-0.041 -0.041,-0.082 -0.041,-0.123l-0.816,-0.857c-1.02,-0.979 -1.918,-1.795 -3.06,-2.692l-3.387,-2.53c-1.428,-1.061 -5.875,-3.631 -7.385,-4.243c-1.958,-0.776 -3.753,-1.714 -6.079,-2.571c-2.897,-1.102 -2.57,-0.979 -2.774,0.041c-0.123,0.449 -0.204,0.653 -0.204,1.142Z" style="fill:#1f293a;"/><path d="M22.114,19.829c0,4.325 0.531,9.833 1.51,13.954c0.285,-0.163 1.591,-0.53 1.958,-0.612c-0.53,-1.101 -1.02,-3.998 -1.265,-5.549c-1.101,-6.569 -0.53,-13.219 1.918,-19.054c1.632,-3.876 2.938,-6.65 6.61,-4.039c0.245,0.204 0.449,0.326 0.734,0.53l2.367,2.285c0.04,0.041 0.081,0.041 0.081,0.082l0.286,0.326c0.122,0.123 0.163,0.163 0.285,0.327c0.204,0.204 0.408,0.408 0.612,0.571c0.49,0.408 0.939,0.653 1.714,0.734c2.489,0.245 5.753,0.163 7.711,1.836c1.673,1.428 -0.448,5.304 -1.305,6.855c-0.694,1.224 -1.714,2.366 -1.877,2.978c0.408,0.123 0.612,0.327 0.938,0.571c0.327,0.286 0.572,0.409 0.898,0.653c0.816,-0.571 2.775,-3.427 3.387,-4.447c1.55,-2.53 3.1,-5.304 1.468,-7.875c-2.366,-3.794 -8.976,-2.08 -10.485,-2.08c-1.061,0 -1.469,0 -2.163,-1.143c-1.754,-2.897 -3.794,-6.365 -7.426,-6.732l-1.265,0c-1.305,0.204 -2.856,2.366 -3.427,3.427c-1.673,3.06 -2.081,5.386 -2.611,8.568c-0.367,2.204 -0.653,5.672 -0.653,7.834Z" style="fill:#1f293a;"/><path d="M8.16,15.749c0,2.367 0.367,3.55 1.551,5.467c0.652,1.061 2.162,2.653 2.529,3.469c1.061,2.162 -2.693,4.692 -2.693,8.935c0,1.591 -0.04,3.223 1.306,4.284c3.835,2.856 12.975,-0.612 16.81,-2.53c4.407,-2.203 5.223,-2.774 9.343,-5.63c1.469,-1.02 3.55,-2.938 4.774,-3.835c0.408,-0.286 0.49,-0.245 0.612,-0.776c-0.816,-0.204 -0.693,-0.816 -1.509,-1.06c-0.286,0.204 -2.857,2.856 -4.897,4.365c-5.875,4.407 -12.525,7.467 -20.237,7.467c-6.242,0 -1.836,-7.752 -1.836,-10.772c0,-1.305 -2.57,-3.917 -2.57,-7.997c0,-1.428 0.897,-1.917 2.04,-2.244c3.101,-0.897 5.426,-0.367 8.119,-0.367c0,-2.856 0.857,-2.162 -1.387,-2.53c-2.652,-0.448 -7.793,-0.734 -10.078,0.653c-1.02,0.612 -1.877,1.796 -1.877,3.101Z" style="fill:#1f293a;"/><path d="M29.377,60.426c-2.448,0 -0.694,-4.855 0.856,-5.63c0.857,-0.408 0.939,-0.123 1.877,-0.123c-0.081,0.898 -0.53,2.571 -0.816,3.428c-0.204,0.53 -0.326,1.06 -0.612,1.509c-0.244,0.367 -0.775,0.816 -1.305,0.816Zm-3.02,-1.509l0,0.734c0,1.142 1.265,2.122 2.408,2.122c1.02,0 1.673,-0.939 2.285,-1.347c0,1.224 0.734,1.347 1.468,1.02c0.694,-0.285 0.49,-0.775 0.653,-2.203c0.49,-4.325 1.795,-4.815 -0.285,-5.508c-3.836,-1.347 -6.529,2.529 -6.529,5.182Z" style="fill:#1f293a;"/><path d="M1.795,53.776c1.265,0 3.183,-1.469 3.183,1.06c0,1.551 -2.163,1.796 -3.468,2.122c0.04,1.959 3.182,-0.122 3.182,2.122c0,3.264 -4.162,1.958 -4.243,1.958c-0.204,0 -0.367,0.123 -0.449,0.327l0,0.367c0.163,0.408 0.857,0.816 2.734,0.816c4.569,0 5.63,-5.386 2.244,-5.467c0.449,-0.572 2.285,-0.857 2.407,-2.734c0.041,-0.694 -0.408,-1.306 -0.857,-1.673c-1.101,-0.816 -3.509,-0.694 -4.488,-0.204c-0.734,0.408 -0.775,1.306 -0.245,1.306Z" style="fill:#1f293a;"/><path d="M17.259,60.712c-2.326,0 -1.102,-6.202 1.795,-6.202c2.366,0 0.857,6.202 -1.795,6.202Zm-3.183,-1.959c0,3.672 5.631,4.611 7.63,-0.408c0.898,-2.244 0.163,-4.896 -2.326,-4.896c-1.795,0 -2.733,0.204 -4.039,1.714c-0.653,0.775 -1.265,2.244 -1.265,3.59Z" style="fill:#1f293a;"/><path d="M41.617,59.08c0,-1.02 0.408,-2.326 0.857,-2.979c1.061,-1.795 3.386,-2.611 3.386,0.245c0,2.122 -1.632,4.774 -3.182,4.284c-0.531,-0.204 -1.061,-0.938 -1.061,-1.55Zm-1.795,-1.061c0,1.02 -0.163,2.326 0.979,3.101c2.611,1.795 6.895,-0.123 6.895,-5.1c0,-3.06 -4.447,-3.305 -6.487,-1.184c-0.53,0.612 -1.387,2.122 -1.387,3.183Z" style="fill:#1f293a;"/><path d="M50.104,57.693c0.285,-3.346 3.549,-3.999 3.304,-2.163c-0.081,0.367 -0.448,0.938 -0.693,1.143c-0.531,0.53 -1.591,1.02 -2.611,1.02Zm-2.244,0.775c0,4.529 5.589,3.59 5.589,2.244c0,-0.898 -1.305,0 -1.958,0c-1.428,0 -1.387,-1.469 -1.387,-2.244c5.793,0 6.12,-5.019 2.896,-5.019c-1.754,0 -2.611,0.245 -3.835,1.632c-0.693,0.816 -1.305,2.448 -1.305,3.387Z" style="fill:#1f293a;"/><path d="M34.069,57.856l0,1.061c0,1.428 1.305,2.692 2.733,2.733c-0.652,1.224 -0.979,1.795 0,1.795c0.408,0 0.531,-0.326 0.735,-0.612c0.979,-1.387 0.408,-0.856 1.428,-1.305c0.449,-0.204 0.571,-0.327 0.694,-0.816c-0.857,-0.571 -0.653,-0.123 -2.122,-0.123c-1.673,0 -1.918,-4.08 0,-5.508c1.509,-1.142 3.182,0.286 3.182,-0.571c0,-1.754 -3.794,-1.224 -5.263,0.326c-0.571,0.612 -1.387,1.918 -1.387,3.02Z" style="fill:#1f293a;"/><path d="M54.51,60.712c0,1.265 5.467,2.244 5.467,-1.795c0,-1.224 -1.509,-1.632 -2.203,-2.244c-1.02,-0.939 -0.122,-2.163 1.143,-2.163c0.775,0 1.632,1.061 1.632,-0.122c0,-1.306 -4.04,-1.592 -4.978,0.734c-1.265,3.101 3.223,2.979 2.407,4.651c-0.897,1.877 -3.468,-0.53 -3.468,0.939Z" style="fill:#1f293a;"/><path d="M8.487,58.141l0,0.776c0,3.06 5.059,3.753 5.589,1.795c-1.224,-0.816 -2.081,0.653 -3.101,-0.816c-0.897,-1.347 -0.081,-3.999 0.939,-4.815c0.449,-0.285 1.061,-0.53 1.632,-0.489c0.571,0.081 1.591,0.612 1.591,-0.204c0,-1.836 -6.65,-1.224 -6.65,3.753Z" style="fill:#1f293a;"/><path d="M25.133,54.51c-0.081,-0.898 -0.408,-0.898 -1.224,-0.898c-0.856,0 -0.897,2 -1.142,3.387c-0.122,0.734 -0.245,1.224 -0.367,1.918c-0.163,1.428 -0.857,2.774 0.653,2.815c1.917,0 0.204,-4.407 2.652,-6.161c0.938,-0.735 1.836,-0.082 2.162,-1.51c-0.938,-1.428 -1.877,-0.122 -2.734,0.449Z" style="fill:#1f293a;"/><path d="M42.678,52.388c0,1.02 -0.041,0.327 0.163,0.776c1.102,-0.286 0.286,-0.98 2.122,-0.327c1.387,0.531 1.142,0.367 2.121,-0.285c0,-2 -0.653,-1.061 -0.734,-0.612c-1.673,0 -2.407,-1.184 -3.305,-0.245c-0.122,0.122 -0.367,0.53 -0.367,0.693Z" style="fill:#1f293a;"/></g></svg>