<?xml version="1.0" encoding="UTF-8" standalone="no"?><!DOCTYPE svg PUBLIC "-//W3C//DTD SVG 1.1//EN" "http://www.w3.org/Graphics/SVG/1.1/DTD/svg11.dtd"><svg width="100%" height="100%" viewBox="0 0 77 72" version="1.1" xmlns="http://www.w3.org/2000/svg" xmlns:xlink="http://www.w3.org/1999/xlink" xml:space="preserve" xmlns:serif="http://www.serif.com/" style="fill-rule:evenodd;clip-rule:evenodd;stroke-linejoin:round;stroke-miterlimit:1.41421;"><g><path d="M51.704,70.394c0.286,0.653 0.898,1.061 1.632,1.061c0.123,0 0.204,0 0.327,-0.041c0.897,-0.163 1.795,-0.816 2.652,-1.918l0.163,-0.204l0.041,0.245c0.204,0.612 0.612,1.469 1.469,1.836c0.775,0.326 1.836,0.163 2.57,-0.408c0.653,-0.449 1.183,-1.143 1.632,-2.122c0.327,-0.734 0.571,-1.469 0.735,-2.244l0.04,-0.122l0.123,0.041c0.245,0.04 0.489,0.081 0.693,0.122l0.164,0.041l-0.041,0.122c-0.367,1.061 -0.612,2.979 0.041,3.958c0.285,0.408 0.652,0.612 1.142,0.612c0.041,0.041 0.122,0.041 0.163,0.041c1.469,0 2.734,-1.224 3.795,-3.632l0.122,-0.204l0.082,0.204c1.224,2.285 3.59,3.673 6.161,3.713c0.081,0 0.244,-0.04 0.326,-0.04c0,-0.204 0,-0.939 -0.082,-1.388c-0.122,0 -0.285,0 -0.367,0c-0.53,0 -1.428,-0.122 -2.57,-0.693c-0.653,-0.368 -1.265,-0.898 -1.755,-1.592c-0.408,-0.53 -0.693,-1.101 -0.816,-1.632c-0.081,-0.204 -0.081,-0.326 -0.122,-0.489c0,-0.245 0.163,-0.367 0.326,-0.531l0.041,0c0.041,-0.04 0.082,-0.081 0.082,-0.081l0.081,-0.082c0.041,0 0.082,-0.041 0.082,-0.041c0.163,-0.122 0.571,-0.408 0.734,-0.53c0.041,-0.082 0.082,-0.082 0.082,-0.082l0.49,-0.367c1.224,-0.938 2.488,-1.877 3.672,-2.856c0.448,-0.408 0.897,-0.857 0.897,-1.306c0.041,-0.204 -0.041,-0.408 -0.204,-0.571c-0.367,-0.408 -0.897,-0.367 -1.55,0.123c-0.531,0.326 -0.979,0.734 -1.347,1.02c-0.938,0.816 -1.876,1.673 -2.57,2.325l-0.286,0.245l0.082,-0.367c0.367,-1.673 0.653,-3.264 0.816,-4.774c-0.449,-0.081 -1.183,-0.122 -1.428,-0.122c-0.082,0.489 -0.163,1.061 -0.245,1.632c-0.367,2.448 -0.897,5.263 -1.999,7.793c-0.327,0.775 -0.775,1.632 -1.428,2.285c-0.245,0.244 -0.49,0.408 -0.735,0.489c-0.081,0.041 -0.163,0.082 -0.244,0.082c-0.245,0 -0.286,-0.204 -0.327,-0.286c-0.122,-0.571 -0.041,-1.183 0.082,-1.754c0.041,-0.286 0.122,-0.612 0.204,-0.898l0.081,-0.204c0,-0.041 0.041,-0.041 0.082,-0.041c0.082,0 0.571,-0.081 0.694,-0.122c0.448,-0.122 0.775,-0.408 0.897,-0.734c0.163,-0.531 -0.122,-1.061 -0.449,-1.347c-0.408,-0.408 -1.02,-0.449 -1.468,-0.122c-0.204,0.122 -0.368,0.367 -0.572,0.612c-0.04,0.081 -0.04,0.122 -0.081,0.163l-0.041,0.082l-0.082,0c-0.326,0 -0.979,-0.164 -1.224,-0.245c-0.081,-0.041 -0.122,-0.123 -0.122,-0.327c0,-0.04 0,-0.081 -0.041,-0.122c-0.041,-0.326 -0.163,-0.571 -0.326,-0.775c-0.327,-0.367 -0.775,-0.531 -1.306,-0.367c-0.449,0.122 -0.979,0.448 -1.061,1.02c-0.081,0.367 0.082,0.734 0.408,1.06c0.204,0.204 0.531,0.368 0.694,0.449l0.163,0.082l-0.041,0.122c-0.04,0.163 -0.04,0.367 -0.081,0.531c-0.204,0.693 -0.449,1.346 -0.775,1.876c-0.286,0.572 -0.612,0.98 -0.98,1.224c-0.245,0.205 -0.53,0.286 -0.816,0.286c-0.245,0 -0.449,-0.081 -0.571,-0.245c-0.53,-0.53 -0.694,-1.469 -0.449,-2.856c0.041,-0.285 0.041,-0.53 -0.122,-0.734c-0.123,-0.204 -0.367,-0.327 -0.653,-0.327c-0.53,0 -0.694,0.49 -0.898,0.898c-0.04,0.122 -0.081,0.245 -0.122,0.326c-0.53,1.061 -1.102,1.836 -1.754,2.367c-0.286,0.245 -0.653,0.49 -0.98,0.49c-0.081,0 -0.163,-0.041 -0.204,-0.082c-0.163,-0.082 -0.204,-0.367 -0.244,-0.612c-0.041,-0.531 0.081,-1.102 0.204,-1.551c0.163,-0.693 0.489,-1.264 0.979,-1.713c0.204,-0.163 0.489,-0.327 0.775,-0.449c0.122,-0.041 0.286,-0.041 0.449,-0.041c0.285,0 0.612,0.082 0.816,0.123c0.122,0.04 0.285,-0.041 0.408,-0.204c0.204,-0.245 0.326,-0.653 0.245,-0.898c-0.082,-0.326 -0.857,-0.49 -1.265,-0.49c-0.123,0 -0.245,0 -0.327,0c-1.101,0.082 -2.121,0.694 -3.06,2.122c-0.244,0.367 -1.346,2.448 -0.408,4.162Z" style="fill:#1f293a;fill-rule:nonzero;"/><path d="M43.993,70.19c-0.245,0.245 -0.612,0.204 -0.694,0.041c-0.081,-0.082 -0.163,-0.164 0.164,-1.143c0,-0.041 0,-0.082 0,-0.122l0.04,0c0.082,-0.408 0.204,-0.857 0.204,-1.347c0.041,-1.142 -0.693,-2.121 -1.795,-2.407l-0.163,-0.041l0.081,-0.122c0.857,-1.224 1.51,-2.244 1.959,-3.223c0.286,-0.613 0.612,-1.306 0.734,-2.081c0.041,-0.408 0.041,-0.776 -0.081,-1.102c-0.245,-0.694 -0.898,-1.102 -1.795,-1.102c-0.857,0 -1.633,0.612 -2.367,1.836c-0.53,0.939 -0.979,2.041 -1.428,3.591c-0.367,1.346 -0.612,2.693 -0.775,4.08c-0.041,0.163 -0.041,0.326 -0.041,0.49c-0.041,0.122 -0.122,0.244 -0.245,0.326c0,0.041 -0.041,0.041 -0.041,0.082c-0.285,0.285 -0.489,0.53 -0.693,0.693c-0.49,0.49 -0.979,0.816 -1.469,1.102c-0.326,0.163 -0.857,0.408 -1.387,0.408c-0.286,0 -0.572,-0.082 -0.776,-0.204c-0.285,-0.204 -0.489,-0.49 -0.612,-0.898c-0.163,-0.693 0.082,-1.591 0.408,-2.121c0.368,-0.531 1.184,-1.428 2,-1.428c0.245,0 0.449,0.04 0.612,0.163c0.163,0.122 0.367,0.245 0.571,0.245c0.122,0 0.204,-0.082 0.286,-0.164c0.163,-0.204 0.204,-0.489 0.163,-0.775c0,-0.245 -0.123,-0.449 -0.286,-0.571c-0.367,-0.245 -0.816,-0.367 -1.305,-0.367c-0.694,0 -1.469,0.285 -2.081,0.775c-0.816,0.653 -1.469,1.591 -1.836,2.856c-0.082,0.245 -0.164,0.49 -0.204,0.734l0,0.082c-0.082,0.245 -0.123,0.49 -0.204,0.694c-0.123,0.367 -0.327,0.897 -0.735,1.02c-0.081,0 -0.163,0 -0.204,0c-0.449,0 -0.571,-0.449 -0.653,-0.816c-0.081,-0.408 -0.081,-0.816 -0.081,-1.143c0,-0.285 0,-0.571 0.041,-0.857c0,-0.081 0,-0.204 0.04,-0.326c0.041,-0.245 0.041,-0.449 0.041,-0.653c-0.081,-0.367 -0.408,-0.612 -0.775,-0.612c-0.122,0 -0.245,0 -0.367,0.082c-0.204,0.081 -0.327,0.245 -0.408,0.53c-0.082,0.327 -0.204,0.653 -0.327,0.979c-0.408,1.061 -0.938,1.836 -1.591,2.326c-0.204,0.204 -0.694,0.49 -1.183,0.49c-0.123,0 -0.286,-0.041 -0.367,-0.082c-0.49,-0.204 -0.653,-0.734 -0.572,-1.55c0.082,-0.572 0.286,-1.102 0.572,-1.632c0.367,-0.572 0.897,-1.02 1.469,-1.224c0.408,-0.164 0.816,-0.204 1.468,-0.041c0.286,0.041 0.449,-0.041 0.572,-0.327c0.122,-0.244 0.163,-0.652 0,-0.938c-0.082,-0.122 -0.816,-0.286 -1.265,-0.286c-0.49,0 -0.898,0.082 -1.265,0.204c-1.469,0.572 -2.571,2 -2.938,3.713c-0.081,0.449 -0.122,0.857 -0.081,1.224l0,0.041c-0.123,0.408 -0.368,0.571 -0.776,0.612c-0.734,0.041 -1.468,-0.122 -2.08,-0.53l-0.123,-0.123l0.123,-0.081c0.979,-0.653 2.121,-1.592 2.488,-2.816c0.286,-0.856 0,-1.754 -0.734,-2.203c-0.326,-0.245 -0.734,-0.367 -1.224,-0.367c-0.734,0 -1.55,0.326 -2.162,0.816c-0.857,0.694 -1.306,1.795 -1.143,2.938c0.082,0.408 0.204,0.816 0.408,1.224l0.041,0.122l-0.122,0.041c-1.021,0.489 -2.122,0.816 -3.265,0.938l-0.53,0.082l0.449,-0.286c1.02,-0.653 2.733,-2.081 2.407,-3.876c-0.286,-1.836 -2.285,-2.57 -3.142,-2.815l-0.122,-0.041l0.041,-0.122c0.367,-0.898 0.775,-2.204 0.408,-3.468c-0.245,-0.939 -0.898,-1.755 -1.795,-2.204c-0.653,-0.367 -1.428,-0.53 -2.204,-0.53c-1.713,0 -3.509,0.816 -4.651,2.122c-1.387,1.55 -1.714,3.549 -1.714,4.977c0.041,0.041 0.123,0.041 0.245,0.041c0.49,0 1.143,-0.081 1.51,-0.163c0,-0.326 0.041,-0.612 0.081,-0.938c0.082,-0.572 0.204,-1.102 0.368,-1.592c0.734,-1.877 2.488,-3.06 4.406,-2.978c0.898,0.041 2.081,0.489 2.367,1.632c0.122,0.53 0.122,1.101 -0.082,1.754c-0.082,0.327 -0.326,0.939 -0.449,1.143l0,0.081l-0.081,0c-0.204,-0.04 -0.694,-0.04 -0.857,-0.04l-0.163,0c-1.428,0 -2.489,0.244 -3.265,0.734c-0.897,0.612 -1.183,1.55 -0.652,2.407c0.448,0.735 1.183,1.183 1.958,1.183c0.286,0 0.571,-0.04 0.857,-0.163c0.938,-0.326 1.877,-1.101 2.734,-2.285c0.04,-0.04 0.081,-0.122 0.122,-0.163l0.041,-0.041l0.081,-0.04l0.123,0c0.163,0.04 0.326,0.081 0.449,0.122c0.326,0.122 0.612,0.245 0.856,0.367c0.531,0.245 0.857,0.531 1.02,0.898c0.531,1.101 -0.775,2.203 -1.591,2.733c-0.53,0.327 -1.101,0.612 -1.754,0.898c-0.163,0.082 -0.327,0.122 -0.49,0.204l-0.204,0.082c-0.081,0 -0.163,0 -0.245,-0.041l-0.04,0c-0.286,-0.123 -0.572,-0.286 -0.898,-0.49c-0.979,-0.612 -1.836,-1.346 -2.693,-2.081c-0.204,-0.163 -0.408,-0.326 -0.612,-0.489c-1.061,-0.898 -2.122,-1.714 -3.427,-1.836c-0.041,0 -0.123,0 -0.204,0c-1.02,0 -1.918,0.571 -2.244,1.469c-0.408,1.06 -0.082,2.284 0.857,3.345c0.734,0.898 1.836,1.592 3.019,1.918c1.183,0.367 2.529,0.408 4.08,0.245c0.694,-0.123 1.387,-0.245 2.081,-0.449c0.204,-0.082 0.449,0 0.693,0.082c0.123,0.04 0.245,0.04 0.327,0.081c0.326,0.041 0.693,0.082 1.061,0.082l0.04,0c1.388,0 2.734,-0.245 4.04,-0.694c0.326,-0.081 0.653,-0.204 0.897,-0.326c0.123,-0.041 0.368,-0.163 0.572,-0.245l0.163,-0.082l0.081,0c0,0.041 0,0.041 0.041,0.041c0.041,0.041 0.041,0.082 0.041,0.082c0.408,0.367 0.898,0.653 1.387,0.816c0.531,0.245 1.102,0.326 1.714,0.326c0.285,0 0.612,0 0.938,-0.081c0.123,-0.041 0.286,-0.082 0.408,-0.164c0.041,0 0.123,-0.04 0.163,-0.081c0.041,-0.041 0.041,-0.041 0.082,-0.041c0,-0.041 0.041,-0.082 0.122,-0.082l0.041,0l0.041,0.041c0.408,0.449 0.979,0.694 1.673,0.694c0.489,0 1.061,-0.163 1.51,-0.408c0.571,-0.327 1.101,-0.775 1.55,-1.388l0.122,-0.204l0.082,0.245c0.204,0.898 0.734,1.51 1.469,1.714c0.897,0.204 1.836,-0.163 2.366,-0.979l0.082,-0.123l0.122,0.123c0.531,0.612 1.306,0.938 2.204,0.938c0.204,0 0.448,0 0.652,-0.041c0.939,-0.204 1.918,-0.693 2.856,-1.55l0.204,-0.163l0,1.387c0.041,0.53 1.143,0.53 1.265,0.53c0.041,0 0.082,0 0.123,-0.04c0.04,-0.082 0.081,-0.204 0.081,-0.368c-0.081,-1.877 0.123,-3.141 0.612,-3.835c0.204,-0.326 0.775,-1.061 1.551,-0.816c1.02,0.286 0.693,1.387 0.448,2.203c-0.04,0.163 -0.081,0.327 -0.122,0.449c-0.122,0.53 -0.204,1.224 0.163,1.755c0.286,0.367 0.735,0.571 1.306,0.652c0.041,0 0.122,0 0.163,0c0.694,0.041 0.979,-0.204 1.347,-0.489c0.652,-0.571 -0.327,-1.428 -0.898,-1.02Zm-33.742,-5.916c-0.408,0.408 -0.98,1.02 -1.714,1.224c-0.082,0.04 -0.204,0.04 -0.286,0.04c-0.244,0 -0.449,-0.122 -0.612,-0.367c-0.081,-0.122 -0.122,-0.245 -0.081,-0.326c0,-0.123 0.122,-0.204 0.326,-0.327c0.694,-0.367 1.591,-0.448 2.285,-0.448l0.245,0l-0.163,0.204Zm-2.204,5.875c-0.571,0.082 -1.101,0.122 -1.591,0.122c-0.979,0 -1.836,-0.163 -2.57,-0.489l-0.041,0c-1.061,-0.49 -1.795,-1.143 -2.163,-1.877c-0.244,-0.49 -0.285,-1.061 -0.04,-1.428c0.122,-0.245 0.408,-0.408 0.775,-0.408l0.041,0c0.979,0.041 1.836,0.775 2.57,1.428l0.612,0.489c0.734,0.653 1.591,1.388 2.448,1.959l0.245,0.163l-0.286,0.041Zm10.364,-1.999l-0.082,-0.123c0,-0.041 -0.041,-0.081 -0.041,-0.163c-0.204,-0.449 -0.204,-0.938 -0.122,-1.346c0.245,-0.735 1.02,-1.184 1.673,-1.265c0.041,0 0.122,0 0.163,0c0.326,0 0.571,0.081 0.612,0.285c0.082,0.286 -0.082,0.572 -0.204,0.776c-0.449,0.734 -1.224,1.305 -1.877,1.754l-0.122,0.082Zm22.889,-4.896c-0.082,0.081 -0.122,0.163 -0.163,0.244l0,0.041c-0.367,0.49 -0.694,0.979 -1.061,1.469l-0.326,0.449l0.122,-0.531c0.286,-1.428 0.653,-2.652 1.142,-3.753c0.286,-0.735 0.653,-1.51 1.224,-2c0.204,-0.163 0.409,-0.204 0.653,-0.163c0.245,0.041 0.204,0.286 0.204,0.408c-0.04,0.653 -0.326,1.265 -0.612,1.755c-0.285,0.653 -0.653,1.305 -1.183,2.081Z" style="fill:#1f293a;fill-rule:nonzero;"/><path d="M53.5,58.317c-1.265,-1.388 -3.02,-1.877 -4.489,-1.265c-1.264,0.53 -3.427,2.325 -2.774,8.323c0.163,1.51 0.408,2.938 0.653,3.917c0.285,1.387 0.734,2.285 1.469,2.367c0.04,0 0.04,0 0.081,0c0.816,0 1.061,-0.939 1.143,-1.265c0.285,-1.102 0.53,-3.101 0.489,-4.978c1.632,-0.082 2.979,-0.898 3.713,-1.958c1.183,-1.592 1.061,-3.673 -0.285,-5.141Zm-0.735,4.365c-0.489,0.694 -1.55,1.265 -2.774,1.306c-0.041,-0.816 -0.082,-1.224 -0.408,-2.244c-0.286,-1.061 -1.673,-0.49 -1.428,0.449c0.163,0.449 0.285,0.979 0.326,1.591c0,0 -0.122,-0.082 -0.204,0c-0.204,0.204 -0.571,0.816 -0.571,1.306c0.245,0.122 0.653,0.163 0.897,0.204c0,1.183 -0.04,3.182 -0.204,4.202c-0.204,-0.326 -0.897,-4.57 -0.897,-5.794c0.041,-2.815 0.857,-4.937 2.121,-5.467c0.204,-0.082 0.449,-0.122 0.694,-0.122c0.694,0 1.591,0.408 2.203,1.06c1.102,1.184 0.857,2.693 0.245,3.509Z" style="fill:#1f293a;fill-rule:nonzero;"/><path d="M61.089,45.709c-0.572,-0.081 -1.714,0.163 -1.714,0.163c-1.02,0.368 -4.284,0.653 -4.203,0.653c-0.081,0 -0.122,0 -0.163,0c-1.999,0.123 -4.039,0.041 -5.59,-0.122c-0.081,0 -0.122,0 -0.163,0c-0.041,0 -0.122,-0.041 -0.163,-0.041c-0.082,0 -0.163,0 -0.245,0c-0.041,0 -0.041,-0.041 -0.081,-0.041c-0.082,0 -0.204,0 -0.286,0c0,-0.041 -0.041,-0.041 -0.041,-0.041c-0.122,0 -0.204,0 -0.326,-0.04c-0.245,-0.041 -0.531,-0.082 -0.775,-0.123c-0.041,0 -0.123,-0.041 -0.164,-0.041c-0.04,0 -0.122,0 -0.163,-0.04c-0.204,-0.041 -0.408,-0.082 -0.653,-0.123l-0.04,0c-0.245,-0.081 -0.531,-0.163 -0.816,-0.204c-0.327,-0.081 -0.612,-0.163 -0.898,-0.285c-0.979,-0.286 -1.999,-0.694 -2.979,-1.143c-0.122,-0.041 -0.285,-0.122 -0.408,-0.204l-0.04,0c-0.245,-0.122 -0.531,-0.245 -0.776,-0.408c-0.04,0 -0.081,-0.041 -0.122,-0.041c-0.204,-0.122 -0.408,-0.245 -0.653,-0.367c-0.041,-0.041 -0.122,-0.041 -0.163,-0.082c-0.204,-0.122 -0.408,-0.244 -0.653,-0.367c-0.081,-0.081 -0.204,-0.163 -0.326,-0.245c-0.123,-0.04 -0.204,-0.122 -0.286,-0.163c-0.285,-0.204 -0.571,-0.367 -0.857,-0.571l-0.04,0c-0.898,-0.653 -1.836,-1.346 -2.734,-2.122c-1.183,-0.979 -2.367,-2.08 -3.55,-3.304c-0.285,-0.245 -0.53,-0.531 -0.816,-0.816c-0.041,-0.041 -0.041,-0.041 -0.081,-0.082c-0.123,-0.163 -0.286,-0.286 -0.408,-0.449c-0.041,0 -0.082,-0.041 -0.123,-0.082c-0.122,-0.163 -0.245,-0.285 -0.408,-0.408c-0.041,-0.04 -0.041,-0.081 -0.081,-0.081c-0.694,-0.653 -1.428,-1.224 -2.122,-1.755c-0.122,-0.081 -0.286,-0.163 -0.408,-0.244c-0.938,-0.653 -1.877,-1.143 -2.815,-1.51c-0.204,-0.082 -0.368,-0.122 -0.572,-0.204c-0.612,-0.204 -1.264,-0.367 -1.917,-0.449c-1.591,-0.285 -3.101,-0.122 -4.529,0.408c-2.815,1.143 -4.611,3.713 -4.651,6.773c-0.041,4.447 3.508,8.609 9.547,11.18l0.041,0c2.611,1.101 5.508,1.876 8.609,2.366c0.367,0.041 0.693,0.122 1.061,0.163c0.122,0 0.285,0.041 0.408,0.041c0.204,0.041 0.408,0.041 0.612,0.082c0.204,0 0.367,0 0.53,0.04c0.163,0 0.326,0.041 0.49,0.041c0.204,0 0.408,0.041 0.612,0.041c0.122,0 0.245,0 0.408,0.041c0.204,0 0.449,0 0.653,0c0.081,0 0.163,0 0.204,0.041l2.692,0c-2.57,-1.184 -5.018,-2.734 -7.466,-4.652l-0.245,-0.204c-0.082,-0.081 -0.163,-0.122 -0.286,-0.204l-0.081,-0.081c-0.123,-0.123 -0.245,-0.204 -0.327,-0.286l-0.122,-0.081l-0.041,-0.041l-0.041,-0.041c-0.53,-0.449 -1.101,-0.938 -1.672,-1.428c-0.531,-0.53 -1.102,-1.061 -1.673,-1.591c-0.571,-0.204 -1.143,-0.408 -1.673,-0.653c-3.917,-1.632 -5.345,-3.713 -5.304,-4.692c0,-0.245 0.041,-0.286 0.245,-0.367c0.244,-0.123 0.571,-0.123 0.979,-0.041c0.53,0.081 1.836,0.408 3.59,1.917l0.041,0c0.082,0.082 0.122,0.123 0.163,0.164c0.041,0.04 0.082,0.04 0.082,0.081c0.081,0.082 0.163,0.163 0.285,0.245l0.49,0.49c0.082,0.04 0.122,0.122 0.204,0.204l0.041,0.04c1.142,1.224 2.244,2.326 3.346,3.305c0.53,0.49 1.06,0.98 1.632,1.428c0.04,0.041 0.04,0.041 0.081,0.041c0.041,0.041 0.082,0.082 0.123,0.123c0.122,0.081 0.244,0.204 0.408,0.326c0.081,0.082 0.204,0.163 0.285,0.245c0.082,0.041 0.123,0.081 0.204,0.163c3.06,2.366 6.161,4.202 9.425,5.426c1.51,0.572 3.02,1.061 4.611,1.388c0.081,0 0.122,0.041 0.245,0.041c0.04,0 0.081,0.04 0.122,0.04c0.082,0 0.122,0 0.204,0.041c0.122,0 0.245,0.041 0.367,0.041c0.082,0.041 0.163,0.041 0.245,0.082c0.204,0 0.408,0.04 0.653,0.081c0.081,0.041 0.204,0.041 0.285,0.041c0.082,0.041 0.204,0.041 0.286,0.041c1.877,0.245 4.937,0.449 7.997,0.285c2.203,-0.122 4.366,-0.448 6.079,-1.061c1.796,-0.652 2.734,-2.652 2.081,-4.447c-0.449,-1.183 -1.509,-2.04 -2.733,-2.244Z" style="fill:#1f293a;fill-rule:nonzero;"/><path d="M53.826,35.142l0,0.489c-0.041,0.082 -0.041,0.204 -0.041,0.327c0,0.041 0,0.081 -0.041,0.163c0,0.163 -0.04,0.326 -0.04,0.49c-0.327,2.121 -1.755,3.916 -4.244,5.304c-0.204,0.122 -0.449,0.244 -0.693,0.367c-0.082,0.041 -0.164,0.081 -0.245,0.122c-0.163,0.041 -0.327,0.123 -0.449,0.204c-0.122,0.041 -0.245,0.082 -0.367,0.123c-0.123,0.04 -0.245,0.122 -0.408,0.163c-0.123,0.041 -0.245,0.081 -0.367,0.163c-0.164,0.041 -0.286,0.082 -0.408,0.122c-0.164,0.041 -0.286,0.082 -0.449,0.123c-0.123,0.041 -0.245,0.081 -0.367,0.122c-0.164,0.041 -0.327,0.082 -0.49,0.163c-0.122,0 -0.245,0.041 -0.367,0.082c-0.163,0.041 -0.327,0.082 -0.49,0.122c-0.122,0.041 -0.245,0.041 -0.367,0.082c-0.041,0 -0.122,0 -0.163,0.041c0.367,0.122 0.734,0.245 1.101,0.367l0.082,0l0.041,0.041c0.245,0.082 0.489,0.163 0.734,0.204l0.041,0.041c0.245,0.041 0.49,0.122 0.734,0.163l0.082,0c0.204,0.082 0.408,0.122 0.571,0.163l0.327,0.041c0.244,0.041 0.53,0.082 0.775,0.122c0.081,0.041 0.122,0.041 0.204,0.041l0.367,0.041c0.041,0 0.082,0 0.122,0.041c0.041,0 0.245,0 0.245,0l0.123,0.041l0.163,0c1.713,0.163 3.672,0.204 5.426,0.122l0.164,0c0.53,-0.041 1.06,-0.122 1.468,-0.163c0.123,-0.082 0.204,-0.204 0.286,-0.286l0.408,-0.408c0.041,-0.041 0.082,-0.122 0.122,-0.163c0.082,-0.082 0.164,-0.204 0.245,-0.286c0.041,-0.04 0.082,-0.081 0.123,-0.163c0.081,-0.082 0.163,-0.204 0.244,-0.286c0.041,-0.04 0.082,-0.122 0.082,-0.163c0.082,-0.081 0.163,-0.204 0.245,-0.285c0.041,-0.082 0.081,-0.123 0.081,-0.164c0.082,-0.122 0.164,-0.204 0.245,-0.326c0,-0.041 0.041,-0.041 0.041,-0.082c0.367,-0.571 0.694,-1.183 0.938,-1.795c0,0 0.041,-0.041 0.041,-0.081c0.041,-0.123 0.082,-0.245 0.163,-0.368c0,-0.04 0,-0.122 0.041,-0.163c0.041,-0.122 0.082,-0.245 0.123,-0.367c0,-0.041 0.041,-0.082 0.041,-0.163c0.04,-0.123 0.081,-0.245 0.122,-0.367c0,-0.041 0.041,-0.123 0.041,-0.164c0.041,-0.122 0.081,-0.244 0.122,-0.367c0,-0.081 0,-0.122 0,-0.204c0.041,-0.122 0.082,-0.245 0.082,-0.367l0.041,0l0,-0.041c0,-0.081 0.04,-0.122 0.04,-0.204c0.041,-0.081 0.041,-0.204 0.041,-0.285c0.979,-6.447 -1.387,-10.241 -3.672,-12.322c-0.041,-0.041 -0.082,-0.082 -0.122,-0.082l0,-0.041c-0.041,-0.041 -0.123,-0.081 -0.204,-0.163c-0.123,-0.122 -0.245,-0.204 -0.368,-0.286c-0.816,2.041 -2.04,4.04 -3.672,5.957c-0.04,0 -0.04,0.041 -0.04,0.041c0.04,0 0.081,0.041 0.081,0.082c0.041,0 0.041,0 0.041,0.041c0.041,0.04 0.122,0.122 0.163,0.204l0.041,0.04c0.082,0.082 0.122,0.164 0.163,0.245c0,0.041 0.041,0.041 0.041,0.082c0.041,0.081 0.082,0.122 0.122,0.204c0.041,0.041 0.041,0.081 0.041,0.081c0.041,0.082 0.082,0.164 0.123,0.245c0.04,0.041 0.04,0.082 0.04,0.123c0.041,0.04 0.082,0.122 0.082,0.204c0.041,0.04 0.041,0.081 0.082,0.122c0,0.082 0.04,0.163 0.04,0.245c0.041,0.041 0.041,0.081 0.041,0.122c0.041,0.082 0.041,0.163 0.082,0.245c0,0.041 0,0.122 0.041,0.163c0,0.082 0,0.163 0.04,0.245c0,0.041 0,0.082 0,0.163c0.041,0.082 0.041,0.163 0.041,0.245c0,0.041 0,0.122 0.041,0.163l0,1.143Z" style="fill:#1f293a;fill-rule:nonzero;"/><path d="M50.399,10.131c-1.714,-1.102 -3.876,-1.877 -6.08,-2.204c-3.264,-0.489 -6.609,-0.04 -9.588,1.306c-4.121,1.877 -9.343,6.324 -11.057,16.688c-0.041,0.081 -0.041,0.163 -0.082,0.244l0,0.245c0,0 0,0.041 -0.04,0.041l0,0.204c0,0.041 0,0.041 -0.041,0.082l0,0.285c0,0.041 -0.041,0.041 -0.041,0.041l0,0.367l-0.041,0l0,0.327l-0.041,0.041l0,0.326c0,0.041 0,0.082 -0.04,0.122l0,0.408c-0.041,0.041 -0.041,0.082 -0.041,0.123l0,0.245c-0.041,0.163 -0.041,0.367 -0.041,0.53c0.082,0.041 0.204,0.082 0.326,0.082c0.204,0.081 0.408,0.163 0.572,0.244c1.02,0.408 2.081,0.939 3.06,1.592l0.041,0.04c0.122,0.082 0.244,0.164 0.367,0.245c0.775,0.531 1.509,1.143 2.285,1.836c0,0.041 0.081,0.082 0.081,0.123c0.041,0 0.082,0.04 0.082,0.04c0,-0.326 0,-0.652 0,-0.938c0,-0.041 0,-0.041 0,-0.082l0,-1.06c0.041,-0.041 0.041,-0.123 0.041,-0.204l0,-0.531c0,-0.081 0,-0.204 0.04,-0.285l0,-0.449c0,-0.082 0,-0.163 0.041,-0.245l0,-0.449c0,-0.041 0.041,-0.122 0.041,-0.163l0,-0.367c0.041,-0.082 0.041,-0.163 0.041,-0.204c0,-0.041 0,-0.082 0,-0.123c0,-0.081 0.041,-0.163 0.041,-0.204l0,-0.285c0.04,-0.041 0.04,-0.041 0.04,-0.082c0,-0.041 0,-0.122 0,-0.163l0,-0.041c0.041,-0.122 0.041,-0.245 0.041,-0.326l0,-0.041c0,-0.041 0.041,-0.041 0.041,-0.082l0,-0.04c0.898,-6.039 3.386,-10.119 7.14,-11.833c2.203,-1.02 4.366,-0.979 5.753,-0.775c1.265,0.204 2.448,0.653 3.346,1.224l0.041,0c2.04,1.265 2.733,2.734 2.284,4.733c-0.081,0.326 -0.163,0.694 -0.326,1.061c0,0.041 -0.041,0.122 -0.082,0.204c0,0.041 -0.04,0.122 -0.081,0.163l0,0.041c-1.02,2.285 -3.223,4.814 -5.916,6.732c-0.041,0.041 -0.123,0.082 -0.164,0.122c-0.04,0 -0.04,0 -0.081,0.041c-0.123,0.082 -0.286,0.163 -0.408,0.286c-0.082,0.041 -0.163,0.122 -0.245,0.163c0.082,-0.041 0.122,-0.122 0.204,-0.163c-0.163,0.122 -0.286,0.204 -0.408,0.285c-2.978,2.04 -4.162,1.959 -3.835,0.939c0.081,-0.327 3.509,-2.081 3.672,-2.163c0.122,-0.081 0.245,-0.204 0.408,-0.285l0.204,-0.163c0.653,-0.449 1.224,-0.898 1.795,-1.388c1.673,-1.509 3.019,-3.223 3.754,-4.855l0,-0.041c0,-0.041 0.041,-0.041 0.041,-0.041c-0.082,0 -0.164,0 -0.245,0c-0.163,-0.04 -0.367,-0.04 -0.531,-0.04l-1.632,0c-0.163,0 -0.367,0.04 -0.53,0.04c-0.204,0 -0.367,0 -0.571,0.041c-0.163,0 -0.367,0.041 -0.531,0.041c-0.204,0.041 -0.367,0.041 -0.53,0.082c-0.204,0 -0.367,0.04 -0.571,0.081c-0.164,0 -0.368,0.041 -0.531,0.082c-0.163,0.041 -0.367,0.081 -0.53,0.122c-0.204,0.041 -0.408,0.082 -0.612,0.123c-0.123,0.04 -0.286,0.081 -0.408,0.122c-0.367,0.082 -0.694,0.163 -1.061,0.286c-1.346,0.408 -2.53,0.979 -3.59,1.591c0,0 -0.041,0 -0.041,0.041c-0.123,0.04 -0.245,0.122 -0.327,0.204c-0.04,0 -0.04,0 -0.081,0.04c-0.204,0.123 -0.408,0.245 -0.612,0.408c-0.041,0.041 -0.082,0.041 -0.123,0.082c-0.081,0.082 -0.163,0.122 -0.244,0.204c-0.082,0.041 -0.123,0.082 -0.164,0.122c-0.081,0.082 -0.204,0.164 -0.285,0.245c-0.123,0.082 -0.204,0.163 -0.286,0.245c-0.041,0.082 -0.122,0.122 -0.163,0.204c-0.082,0.041 -0.123,0.122 -0.204,0.163c-0.041,0.082 -0.082,0.123 -0.163,0.163c-0.082,0.123 -0.164,0.205 -0.245,0.327c-0.041,0.041 -0.082,0.082 -0.123,0.122c-0.081,0.082 -0.163,0.204 -0.244,0.327c-0.041,0.041 -0.041,0.081 -0.082,0.122c-0.082,0.123 -0.163,0.204 -0.204,0.327c-0.041,0.04 -0.041,0.04 -0.082,0.081c-0.081,0.123 -0.163,0.286 -0.244,0.449l0,0.041c-0.082,0.122 -0.164,0.245 -0.204,0.408l-0.041,0.041l0.041,0c-0.082,0.163 -0.164,0.326 -0.204,0.489c-0.735,2.081 -0.408,4.325 0.897,6.284c0.571,0.816 1.836,2.203 4.244,2.611c0.979,0.122 2.08,0.081 3.223,-0.163c1.836,-0.368 3.876,-1.265 5.875,-2.571c0.041,0 0.082,-0.041 0.123,-0.082c0.652,-0.408 1.346,-0.897 2.04,-1.428c0,-0.04 0.04,-0.04 0.081,-0.081c0.163,-0.123 0.327,-0.286 0.49,-0.408c0.041,0 0.041,-0.041 0.081,-0.082c0.164,-0.122 0.327,-0.285 0.531,-0.449c0.041,0 0.081,-0.04 0.081,-0.081c0.204,-0.163 0.368,-0.327 0.572,-0.49c0,0 0.04,-0.041 0.081,-0.081c0.082,-0.082 0.123,-0.164 0.204,-0.204c0.123,-0.123 0.245,-0.245 0.367,-0.327c0.123,-0.122 0.245,-0.285 0.368,-0.408c0.04,-0.041 0.081,-0.081 0.122,-0.122c0.326,-0.327 0.612,-0.694 0.939,-1.02c1.509,-1.795 2.774,-3.795 3.59,-5.957c0.122,-0.327 0.245,-0.653 0.326,-0.979c0,-0.041 0,-0.041 0,-0.082c0.082,-0.204 0.123,-0.367 0.164,-0.571c0,-0.041 0,-0.041 0.04,-0.082l0,-0.041c0.041,-0.204 0.082,-0.367 0.123,-0.571c0,-0.041 0,-0.081 0,-0.163c0.041,-0.082 0.041,-0.204 0.081,-0.286c0,-0.04 0,-0.04 0,-0.081c0.572,-4.04 -0.979,-7.63 -4.406,-10.241c-0.041,0 -0.041,-0.041 -0.041,-0.041c-0.122,-0.082 -0.245,-0.163 -0.367,-0.245c0,-0.041 -0.041,-0.041 -0.123,-0.081c-0.081,-0.082 -0.163,-0.123 -0.244,-0.204c-0.082,-0.041 -0.204,-0.123 -0.286,-0.164c-0.041,-0.04 -0.082,-0.081 -0.122,-0.081Z" style="fill:#1f293a;fill-rule:nonzero;"/><path d="M60.273,23.024c-0.449,-0.204 -0.694,0.489 -0.327,0.816c2.693,2.285 5.59,6.977 2.775,16.198c-1.102,3.468 3.386,4.121 4.447,-0.653c0.938,-4.121 -0.041,-13.016 -6.895,-16.361Z" style="fill:#1f293a;fill-rule:nonzero;"/><path d="M53.622,8.499c5.222,3.509 4.978,8.078 3.917,11.179c-0.082,0.245 0.285,0.531 0.408,0.286c3.101,-6.406 -0.082,-13.016 -1.673,-14.158c-2.734,-2.203 -4.692,1.346 -2.652,2.693Z" style="fill:#1f293a;fill-rule:nonzero;"/><path d="M18.207,28.818c0.285,0 0.449,-0.408 0.163,-0.49c-7.467,-1.55 -12.608,2.081 -13.424,7.14c-0.938,5.875 4.733,5.916 5.101,2.407c0.856,-7.507 4.977,-9.057 8.16,-9.057Z" style="fill:#1f293a;fill-rule:nonzero;"/><path d="M21.471,23.677c0.571,-6.243 3.713,-17.83 18.768,-18.361c3.999,0.408 3.795,-5.957 -2.366,-5.263c-7.834,0.898 -19.911,10.323 -17.545,23.746c0.123,0.653 1.061,0.53 1.143,-0.122Z" style="fill:#1f293a;fill-rule:nonzero;"/><path d="M66.27,17.108c-1.958,-2.571 -4.937,0.816 -4.569,1.795c0.652,1.754 6.528,0.734 4.569,-1.795Z" style="fill:#1f293a;fill-rule:nonzero;"/><path d="M18.982,25.023c-0.734,-3.101 -1.918,-6.324 -4.611,-3.468c-2.978,3.142 5.386,6.528 4.611,3.468Z" style="fill:#1f293a;fill-rule:nonzero;"/></g></svg>