<?xml version="1.0" encoding="UTF-8" standalone="no"?><!DOCTYPE svg PUBLIC "-//W3C//DTD SVG 1.1//EN" "http://www.w3.org/Graphics/SVG/1.1/DTD/svg11.dtd"><svg width="100%" height="100%" viewBox="0 0 135 61" version="1.1" xmlns="http://www.w3.org/2000/svg" xmlns:xlink="http://www.w3.org/1999/xlink" xml:space="preserve" xmlns:serif="http://www.serif.com/" style="fill-rule:evenodd;clip-rule:evenodd;stroke-linejoin:round;stroke-miterlimit:1.41421;"><g><path d="M96.494,32.886c0,-1.184 0.204,-1.428 0.204,-2.653c-0.897,0.041 -2.162,0.327 -3.06,0.409c0,4.488 -1.387,8.323 -1.387,10.73l3.019,0c0,-2.57 1.551,-7.14 3.305,-8.242c3.346,-2.08 0.204,5.345 0.122,8.242l3.02,0c0.489,-2.04 0.734,-3.386 1.509,-5.182c0.653,-1.591 1.632,-3.304 3.55,-3.304c0.53,2.203 -1.02,4.12 -1.02,8.69c1.428,0 2.081,-0.204 3.264,-0.204c0,-2.366 0.123,-2.978 0.531,-4.937c0.204,-1.183 0.938,-3.427 0.53,-4.651c-0.694,-2.122 -3.713,-1.999 -5.386,-0.367c-0.53,0.489 -0.897,0.938 -1.346,1.469c-0.939,-3.958 -4.04,-2.857 -5.427,-1.592c-0.53,0.531 -0.979,1.02 -1.428,1.592Z" style="fill:#1f293a;"/><path d="M126.605,38.924c-0.285,0 -1.224,0.245 -1.224,-1.224c0,-1.224 0.367,-2.489 0.898,-3.346c1.102,-1.876 2.489,-1.876 4.162,-1.468c-0.164,1.999 -1.877,6.038 -3.836,6.038Zm-4.447,-1.224c0,2.326 0.938,4.203 3.305,3.958c2.652,-0.286 2.856,-1.999 4.162,-2.938c-0.204,0.979 -0.368,2.04 -0.204,2.856c1.142,0 1.55,-0.204 2.815,-0.204c0,-4.814 2.244,-11.995 2.244,-15.586c-0.694,0.327 -1.999,0.163 -2.611,0.449c-0.694,0.326 -0.327,-0.082 -0.49,0.938c-0.082,0.449 -0.082,0.776 -0.204,1.388c-0.204,1.387 0.204,1.713 -1.346,1.713c-2.693,0 -4.366,0.531 -6.121,2.938c-0.734,1.02 -1.55,2.856 -1.55,4.488Z" style="fill:#1f293a;"/><path d="M83.356,38.924c-0.734,-2.978 0.408,-6.242 3.224,-6.242l0.816,0c1.387,0 -0.245,3.386 -0.531,3.876c-0.408,0.693 -0.693,1.101 -1.224,1.632c-0.775,0.734 -0.897,0.734 -2.285,0.734Zm-3.672,-1.02c0,3.795 3.183,4.733 5.794,2.775c0.653,-0.49 0.775,-0.776 1.224,-1.388c0.204,-0.245 0.326,-0.408 0.49,-0.571c-0.123,1.387 -0.204,0.653 -0.204,2.856c0.734,0 1.142,-0.122 1.672,-0.163c1.265,-0.163 1.102,0.041 1.224,-0.408c0,-0.082 0.041,-1.428 0.082,-1.51l0.694,-4.733c0.163,-0.856 0.53,-2.448 0.571,-3.304c-1.265,-0.653 -1.918,-1.143 -3.754,-1.306c-2.937,-0.286 -5.222,1.469 -6.61,3.672c-0.571,0.898 -1.183,2.734 -1.183,4.08Z" style="fill:#1f293a;"/><path d="M68.178,35.701c0,4.284 2.856,6.324 6.896,5.875c0.653,-0.081 3.264,-0.693 3.223,-1.224l-0.245,-2.407c-1.183,0.081 -1.836,0.979 -3.386,0.979c-5.141,0 -3.224,-9.303 1.183,-9.303c3.55,0 1.754,0.49 3.468,0.612l1.183,-2.611c-2.081,-0.489 -0.326,-0.816 -4.651,-0.816c-4.651,0 -7.671,4.896 -7.671,8.895Z" style="fill:#1f293a;"/><path d="M114.447,35.497c0.856,-1.755 0.775,-3.019 3.264,-3.019c1.02,0 2.162,3.019 -3.264,3.019Zm-3.02,1.224c0,2.407 0.939,3.958 2.856,4.61c2.244,0.776 3.877,0.082 5.835,-0.367c0,-1.142 -0.163,-1.346 -0.204,-2.244c-1.428,0.122 -4.733,1.918 -5.467,-1.183c7.956,0 9.465,-7.304 3.06,-7.304c-3.346,0 -6.08,3.101 -6.08,6.488Z" style="fill:#1f293a;"/><path d="M109.428,60.345c0,-1.388 0.204,-2.04 0.204,-3.224c-0.857,0.98 -0.408,0.816 -1.877,2.163c-0.612,0.612 -1.183,0.979 -2.162,1.061l-0.979,0c-3.387,-0.408 -3.224,-6.569 0.816,-9.833c0.734,-0.653 1.509,-1.061 2.611,-1.265c1.591,-0.286 1.714,0.081 3.182,0.204c0,-1.061 0.245,-2 0.408,-2.856c0.204,-1.347 0.041,-1.592 1.632,-1.592c-0.244,2.979 -2.448,11.833 -2.448,15.138c-0.856,0.04 -0.612,0.163 -1.387,0.204Zm-4.243,-1.184c-2.775,0 -1.347,-8.69 3.835,-8.69c0.857,0 1.102,0.204 1.795,0.367c-0.04,2.326 -2.529,8.323 -5.63,8.323Z" style="fill:#1f293a;"/><path d="M81.928,59.161c-3.305,0 -1.428,-8.69 3.632,-8.69c0.856,0 1.101,0.204 1.836,0.367c-0.653,2.693 -1.388,5.182 -3.305,7.059c-0.408,0.408 -1.51,1.264 -2.163,1.264Zm4.04,1.184c0,-2.163 0.204,-2.285 0.204,-3.224c-0.572,0.408 -0.612,0.939 -1.673,1.959c-0.694,0.693 -1.551,1.142 -2.408,1.265l-1.06,0c-1.306,-0.204 -2.326,-1.265 -2.326,-3.428c0,-4.61 4.896,-10.159 10.078,-6.65c0,0.816 -0.245,1.591 -0.408,2.407c-0.408,2.53 -0.979,4.855 -0.979,7.467c-0.898,0.04 -0.653,0.163 -1.428,0.204Z" style="fill:#1f293a;"/><path d="M69.606,49.451c0,3.753 5.672,3.835 5.672,7.466c0,2.04 -2.734,2.04 -4.08,2.04c-1.755,0 -2.04,-0.734 -3.224,-0.816c-0.163,0.735 -0.326,0.572 -0.408,1.388c2.408,0.571 0.816,0.816 4.611,0.816l0.041,0c2.203,0 4.651,-1.224 4.651,-3.836c0,-4.08 -5.671,-3.917 -5.671,-7.262c0,-1.714 2.04,-2.04 3.468,-2.04c1.632,0 1.877,0.571 3.019,0.816c0.245,-0.49 0.449,-0.816 0.612,-1.428c-3.019,-1.592 -8.691,-0.98 -8.691,2.856Z" style="fill:#1f293a;"/><path d="M115.467,54.918c0.204,-2.244 2.285,-5.59 5.467,-4.08c0.898,3.958 -2.57,3.386 -5.467,4.08Zm3.06,5.427l-0.041,0c-2.938,0 -4.611,-0.98 -4.611,-4.652c0,-2.57 1.632,-4.937 3.346,-5.916c3.917,-2.203 7.222,1.469 4.57,4.162c-1.632,1.673 -3.754,2.162 -6.324,2.162c0,1.592 0.367,3.06 2.856,3.06c2.407,0 2.815,-2.08 2.815,0.572c-0.979,0.244 -1.265,0.612 -2.611,0.612Z" style="fill:#1f293a;"/><path d="M97.677,60.345c0,-1.347 0.204,-2.163 0.204,-3.224c-0.163,0.204 -0.163,0.204 -0.326,0.449c-0.938,1.224 -2.081,2.489 -3.55,2.775l-1.264,0c-0.164,-0.041 -0.368,-0.082 -0.531,-0.164c-0.816,-0.285 -1.102,-0.816 -1.265,-1.795c-0.163,-1.101 0.49,-3.631 0.816,-4.978c0.98,-4.447 -0.244,-4.161 1.877,-4.161c0,4.488 -1.754,7.956 -1.02,9.302c0.49,0.816 1.632,0.612 2.367,0.123c3.753,-2.489 3.998,-8.283 4.528,-9.425c1.796,0 1.225,-0.041 0.408,4.855c-0.326,1.836 -0.816,3.917 -0.816,6.039c-0.897,0.04 -0.612,0.163 -1.428,0.204Z" style="fill:#1f293a;"/><path d="M95.882,48.431c0.979,0 2.979,-2.693 3.631,-3.632c-1.02,0 -0.897,-0.204 -1.836,-0.204c-0.448,1.673 -3.468,3.836 -1.795,3.836Z" style="fill:#1f293a;"/><path d="M7.63,0l45.003,0c4.203,0 7.671,3.427 7.671,7.63l0,45.085c0,4.202 -3.468,7.63 -7.671,7.63l-45.003,0c-4.203,0 -7.63,-3.428 -7.63,-7.63l0,-45.085c0,-4.203 3.427,-7.63 7.63,-7.63Zm8.446,30.111l-0.041,0.041m0.122,-0.123m11.914,3.02c2.489,0 4.488,1.999 4.488,4.447c0,2.489 -1.999,4.488 -4.488,4.488c-2.448,0 -4.488,-1.999 -4.488,-4.488c0,-2.448 2.04,-4.447 4.488,-4.447Zm6.977,-25.786c3.835,0 6.936,3.1 6.936,6.936c0,3.794 -3.101,6.895 -6.936,6.895c-3.835,0 -6.936,-3.101 -6.936,-6.895c0,-3.836 3.101,-6.936 6.936,-6.936Zm-11.832,11.465c3.182,0 5.712,2.529 5.712,5.671c0,3.142 -2.53,5.712 -5.712,5.712c-3.142,0 -5.672,-2.57 -5.672,-5.712c0,-3.142 2.53,-5.671 5.672,-5.671Zm23.256,5.263c-1.387,-1.306 -3.223,-1.918 -5.345,-1.836c-0.204,0.041 -0.244,0.449 -0.04,0.49c0.734,0.326 1.346,0.775 1.917,1.305c4.039,4.08 1.795,13.301 -5.018,20.564c-3.55,3.754 -7.589,6.283 -11.221,7.262c-0.367,0.164 -0.244,0.776 0.164,0.857c4.406,0.163 10.2,-2.774 14.892,-7.997c6.691,-7.426 8.731,-16.687 4.651,-20.645Zm-30.437,6.161c-4.652,5.508 -5.876,12.24 -2.489,16.402c3.794,4.651 12.159,4.406 19.258,-0.408c0.122,-0.041 0.204,-0.123 0.326,-0.204c-0.081,0.081 -0.163,0.163 -0.326,0.245c0.163,-0.082 0.245,-0.164 0.326,-0.245l0.041,-0.041l0,-0.041l0.041,-0.041l0,-0.04l0,-0.041l0.041,0l0,-0.041l0,-0.041l0,-0.041l0,-0.04l0,-0.041l0,-0.041l0,-0.041l-0.041,0l0,-0.041l0,-0.04l-0.041,0l0,-0.041l0,-0.041l-0.041,0l0,-0.041l-0.04,0l0,-0.041l-0.041,0l-0.041,0l0,-0.04l-0.041,0l-0.041,0l-0.04,-0.041l-0.041,0l-0.041,0l-0.041,0l-0.041,0l-0.04,0l-0.041,0l-0.041,0l-0.041,0l-0.041,0c-0.04,0 -0.081,0.041 -0.122,0.041c0.041,0 0.082,-0.041 0.122,-0.041l-0.04,0.041c-6.202,3.509 -13.016,3.427 -16.239,-0.572c-2.815,-3.427 -2.163,-8.772 1.101,-13.505l0.041,0l0,-0.04l0.041,-0.041l0,-0.041l0.041,0l0,-0.041l0.041,-0.041l0,-0.04l0,-0.041l0.04,-0.041l0,-0.041l0,-0.041l0,-0.04c0.041,-0.041 0.041,-0.041 0.041,-0.082l0,-0.041l0,-0.041c0,-0.04 0,-0.04 0,-0.081l0,-0.041l0,-0.041l-0.041,-0.041l0,-0.041l0,-0.04l0,-0.041l-0.04,0l0,-0.041l0,-0.041l-0.041,-0.041l0,-0.04l-0.041,0l0,-0.041l-0.041,-0.041l-0.041,-0.041l-0.04,-0.041c-0.286,-0.204 -0.694,-0.204 -1.143,0.204l-0.041,0l0,0.041l-0.04,0l0,0.041l-0.041,0.041Zm1.509,0.53l0,-0.04l0,0.04Zm0,-0.04l0.041,-0.041l0,-0.041c0,0.041 0,0.041 -0.041,0.082Zm0.041,-0.082l0,-0.041l0,0.041Zm0,-0.041l0,-0.041l0,0.041Zm0,-0.041l0,-0.04l0,-0.041c0,0.041 0,0.041 0,0.081Zm0,-0.163l-0.041,-0.041l0.041,0.041Z" style="fill:#1f293a;"/></g></svg>