<?xml version="1.0" encoding="UTF-8" standalone="no"?><!DOCTYPE svg PUBLIC "-//W3C//DTD SVG 1.1//EN" "http://www.w3.org/Graphics/SVG/1.1/DTD/svg11.dtd"><svg width="100%" height="100%" viewBox="0 0 194 51" version="1.1" xmlns="http://www.w3.org/2000/svg" xmlns:xlink="http://www.w3.org/1999/xlink" xml:space="preserve" xmlns:serif="http://www.serif.com/" style="fill-rule:evenodd;clip-rule:evenodd;stroke-linejoin:round;stroke-miterlimit:1.41421;"><g><path d="M78.746,24.97l-0.082,0.408m0.082,-0.408l0,-2.04l-2.407,0.408c0,3.591 -0.776,5.386 -1.143,8.324c-0.163,0.938 0.041,0.734 2.285,0.734c0.408,-0.898 0.449,-4.162 2.326,-6.365c0.693,-0.816 0.856,-0.938 1.917,-0.694c0,2.081 -1.387,6.651 -1.101,6.896c0.122,0.163 2.121,0.449 2.489,-0.123c0.04,-0.04 0.448,-1.917 0.53,-2.244c0.571,-1.673 0.775,-2.366 1.795,-3.794c0.408,-0.571 1.143,-1.102 1.877,-0.735c0.408,0.857 -0.571,3.55 -0.734,4.652c-0.368,2.407 -0.776,3.019 2.57,2.203c0,-3.754 1.387,-6.61 0.816,-8.038c-0.612,-1.55 -2.897,-1.877 -4.937,0.367c-0.326,0.368 -0.326,0.408 -0.693,0.612c-0.041,-1.428 -0.898,-2.448 -2.571,-2.203c-1.632,0.286 -1.918,1.306 -3.019,2.04Z" style="fill:#1f293a;"/><path d="M103.634,30.356c-1.836,0 -0.326,-6.977 3.346,-5.019c-0.122,1.632 -1.714,5.019 -3.346,5.019Zm3.713,-7.263c-6.936,-1.591 -9.751,9.466 -4.651,9.466c1.591,0 2.693,-1.428 3.55,-2.407c0,0.734 -0.204,0.816 -0.204,2.244l2.448,-0.204c0,-2.04 1.509,-10.649 2.04,-12.812c-0.694,0 -1.061,0.082 -1.551,0.164c-1.713,0.204 -0.775,-0.164 -1.632,3.549Z" style="fill:#1f293a;"/><path d="M68.382,30.356c-1.591,0 -1.264,-6.283 3.305,-5.223c-0.326,1.51 -1.469,5.223 -3.305,5.223Zm-3.549,-1.51c0,1.551 0.204,3.713 2.244,3.713c2.448,0 3.06,-1.795 3.876,-2.407c-0.286,1.224 -0.163,0.816 -0.163,2.244l2.407,-0.204c0,-2.244 0.163,-2.489 0.489,-4.488c0.205,-1.143 0.613,-2.611 0.613,-3.672c-4.652,-3.101 -9.466,0.816 -9.466,4.814Z" style="fill:#1f293a;"/><path d="M55.163,27.173c0,5.549 4.447,6.488 8.568,4.285c-0.163,-0.327 -0.367,-1.51 -0.367,-2.041c-0.571,0.041 -5.386,2.693 -5.386,-2.244c0,-3.06 2.367,-6.12 6.283,-4.08l1.143,-2.203c-2.652,-1.428 -6.569,-0.816 -8.283,1.347c-1.061,1.346 -1.958,3.06 -1.958,4.936Z" style="fill:#1f293a;"/><path d="M93.801,27.377c0.123,-1.428 1.306,-2.611 2.244,-2.611c0.49,0 0.49,0.082 0.898,0.204c0.449,1.755 -0.49,2.407 -3.142,2.407Zm-2.611,0.572c0,2.448 0.612,4.61 4.08,4.61c1.143,0 2.407,-0.326 3.183,-0.734l-0.245,-1.836c-1.02,0.244 -4.203,1.591 -4.407,-0.939c6.896,0 7.345,-6.12 2.612,-6.12c-1.388,0 -2.816,0.775 -3.55,1.428c-0.734,0.653 -1.673,2.285 -1.673,3.591Z" style="fill:#1f293a;"/><path d="M161.776,45.575l0.081,-0.408m-0.816,-4.611l1.632,0.204c-0.163,2.203 -2.366,6.447 -4.325,5.794c-1.346,-0.408 -0.734,-2.775 -0.244,-3.713c0.571,-1.142 1.672,-2.285 2.937,-2.285Zm0.735,5.019c0,3.345 -2.285,5.671 -5.753,3.345c-0.163,0.572 -0.245,0.531 -0.367,1.102c2.611,1.387 5.345,1.02 6.487,-1.469c0.49,-1.061 0.653,-2.652 0.898,-3.917l0.775,-4.243c-1.469,-0.979 -2.611,-1.306 -4.407,-0.326c-1.224,0.652 -2.203,1.876 -2.733,3.223c-1.143,3.019 0.734,5.467 3.468,3.794c1.02,-0.612 0.897,-1.02 1.632,-1.509Z" style="fill:#1f293a;"/><path d="M123.872,46.88c-2.448,0 -0.572,-6.324 2.244,-6.324c1.387,0 1.02,0.123 1.836,0.204c-0.163,2.122 -2,6.12 -4.08,6.12Zm4.284,-7.058c-3.142,-1.51 -6.488,2.162 -6.488,4.814c0,1.265 -0.04,3.876 2.652,3.224c1.265,-0.286 1.755,-1.102 2.367,-1.877c0.122,-0.164 0.245,-0.286 0.367,-0.408c0,0.938 -0.204,1.142 -0.204,2.244l1.102,0c0.041,-1.796 1.55,-9.874 1.877,-11.343l-1.102,0c-0.041,1.142 -0.49,2.285 -0.571,3.346Z" style="fill:#1f293a;"/><path d="M111.795,46.88c-2.244,0 -1.061,-6.324 2.815,-6.324c0.612,0 0.693,0.123 1.305,0.204c-0.081,2.163 -2.08,6.12 -4.12,6.12Zm3.182,-1.305l-0.245,2.203c2.122,0.041 0.939,0.041 1.591,-3.264c0.204,-1.02 0.694,-3.223 0.694,-4.325c-1.224,-0.326 -2.122,-1.469 -4.651,0c-4.529,2.652 -3.183,10.2 1.142,7.058c0.612,-0.448 0.816,-0.938 1.469,-1.672Z" style="fill:#1f293a;"/><path d="M142.069,39.618c0,2.856 4.284,3.264 4.284,5.385c0,1.877 -2.489,2.081 -4.039,1.632c-0.572,-0.163 -0.735,-0.367 -1.347,-0.489c-0.122,0.571 -0.245,0.53 -0.367,1.101c0.734,0.164 0.898,0.408 1.836,0.572c0.898,0.163 1.306,0.122 2.244,0c3.264,-0.49 3.835,-3.632 1.306,-5.386c-1.347,-0.979 -2.612,-1.346 -2.612,-2.815c0,-1.632 1.796,-1.469 2.775,-1.469c1.061,0 1.265,0.367 2.04,0.571c0.245,-0.898 0.326,-0.163 0.408,-1.142c-1.265,-0.286 -3.468,-1.184 -5.345,0.081c-0.53,0.367 -1.183,1.224 -1.183,1.959Z" style="fill:#1f293a;"/><path d="M182.176,46.88c-3.59,0 -2.162,-6.324 1.143,-6.324c2.896,0 1.672,6.324 -1.143,6.324Zm3.917,-3.549c0,-1.224 0.082,-2 -0.775,-2.938c-3.101,-3.264 -8.16,2.407 -5.875,6.283c1.632,2.816 6.65,0.531 6.65,-3.345Z" style="fill:#1f293a;"/><path d="M99.187,46.88c-3.509,0 -2.244,-6.324 1.102,-6.324c2.937,0 1.713,6.324 -1.102,6.324Zm-3.142,-2.978c0,1.346 -0.122,2.162 0.776,3.141c2.366,2.489 6.283,-0.571 6.283,-3.508c0,-1.184 0.082,-2.408 -0.816,-3.305c-2.122,-2.122 -6.243,0.449 -6.243,3.672Z" style="fill:#1f293a;"/><path d="M150.27,43.698c0.938,-4.039 4.243,-3.509 4.243,-2.203c0,1.713 -2.448,2.203 -4.243,2.203Zm1.673,4.284c0.897,0 1.795,-0.367 2.57,-0.571c0,-0.531 -0.081,-0.653 -0.163,-1.102c-1.55,0.816 -4.08,1.224 -4.08,-1.673c7.018,0 6.079,-5.181 3.305,-5.181c-5.304,0 -6.039,8.527 -1.632,8.527Z" style="fill:#1f293a;"/><path d="M66.506,46.88c-2.775,0 -2.122,-6.324 1.468,-6.324c2.816,0 1.959,6.324 -1.468,6.324Zm-2.979,-2.407c0,5.182 7.263,4.57 7.263,-2.04c0,-2.938 -3.632,-4.203 -5.917,-1.469c-0.734,0.898 -1.346,2.367 -1.346,3.509Z" style="fill:#1f293a;"/><path d="M131.501,43.698c0.041,-2.897 4.081,-4.366 4.081,-2.04c0,1.673 -2.367,2.04 -4.081,2.04Zm-1.305,0.775c0,3.631 3.06,4.08 5.59,2.774c-0.245,-0.489 -0.204,-0.204 -0.204,-0.938c-0.939,0.204 -3.958,1.877 -4.285,-1.673c9.344,0 4.937,-8.69 0.245,-3.672c-0.734,0.775 -1.346,2.081 -1.346,3.509Z" style="fill:#1f293a;"/><path d="M166.59,39.618l-0.571,0c0,3.957 -1.754,6.528 -0.367,7.833c1.673,1.633 3.672,-0.734 4.651,-1.876c0,0.734 -0.163,0.816 -0.163,2.244l1.102,0c0,-2.938 1.101,-5.957 1.101,-8.201c-1.999,0 -0.285,0.571 -2.04,4.121c-0.571,1.101 -1.55,3.141 -3.142,3.141c-1.876,0 0,-3.427 0,-7.425c-0.244,0.122 -0.204,0.163 -0.571,0.163Z" style="fill:#1f293a;"/><path d="M84.132,43.698c0.081,-2.897 4.12,-4.366 4.12,-2.04c0,1.673 -2.407,2.04 -4.12,2.04Zm-1.265,0.775c0,3.631 3.06,4.08 5.549,2.774c-0.245,-0.489 -0.164,-0.204 -0.164,-0.938c-0.938,0.204 -3.998,1.877 -4.284,-1.673c3.632,0 6.202,-1.713 5.345,-3.835c-1.142,-2.856 -6.446,-0.857 -6.446,3.672Z" style="fill:#1f293a;"/><path d="M55.163,43.698c0,2.856 1.999,4.61 4.57,4.202c1.224,-0.204 1.428,-0.449 2.325,-0.653l-0.204,-1.101c-2.693,1.469 -5.386,0.571 -5.386,-1.673c0,-1.836 -0.04,-2.978 1.061,-4.57c1.918,-2.815 4.366,-1.509 5.631,-1.387c0.204,-0.367 0.245,-0.449 0.367,-0.938c-4.325,-2.081 -8.364,1.632 -8.364,6.12Z" style="fill:#1f293a;"/><path d="M187.929,41.291c0,1.387 0,1.672 1.51,2.611c0.816,0.53 1.673,0.734 1.673,1.673c0,2.407 -4.04,0.816 -4.285,0.734c-0.204,0.408 -0.244,0.449 -0.367,0.938c4.57,2.204 7.548,-1.632 4.856,-3.549c-0.612,-0.408 -2.244,-1.02 -2.244,-1.836c0,-1.918 2.692,-1.428 3.712,-0.735c0.204,-0.448 0.327,-0.489 0.368,-1.142c-0.368,-0.082 -3.387,-1.306 -4.774,0.449c-0.163,0.204 -0.449,0.612 -0.449,0.857Z" style="fill:#1f293a;"/><path d="M92.7,37.782c-0.041,0.571 -0.245,1.305 -0.367,1.836c-0.898,0 -0.776,0.122 -1.51,0.204c-0.082,1.183 -0.327,0.938 1.306,0.938l-0.939,5.386c0,1.754 1.755,2.04 2.775,1.632c0.693,-0.245 0.571,-0.163 0.571,-1.102c-1.959,0.163 -2.611,0.979 -1.877,-2.652c0.204,-1.101 0.326,-2.244 0.571,-3.264c1.551,0 2.407,0.367 2.448,-1.142l-2.244,0c0.041,-0.572 0.245,-1.469 0.367,-2.04c-0.448,0.122 -0.53,0.163 -1.101,0.204Z" style="fill:#1f293a;"/><path d="M79.684,41.658l0,-2.04c-1.591,0 -0.775,-0.245 -1.469,3.753c-0.204,1.428 -0.652,3.06 -0.734,4.448l1.102,0c0,-1.51 0.612,-3.468 1.101,-4.488c0.735,-1.469 1.51,-2.571 3.183,-2.571l0,-1.305c-1.347,0.285 -1.836,0.489 -2.53,1.387l-0.653,0.816Z" style="fill:#1f293a;"/><path d="M74.135,41.658l-0.122,0.408m0.122,-0.408c0,-0.857 -0.122,-1.428 0.164,-2.04c-1.388,0 -1.265,-0.082 -1.306,1.305c-0.041,1.592 -0.939,5.019 -1.102,6.896l1.102,0c0,-2.408 1.346,-7.059 4.284,-7.059c0,-0.285 0.612,-2.081 -1.428,-0.857c-0.204,0.123 -0.734,0.531 -0.898,0.735c-0.081,0.081 -0.326,0.408 -0.408,0.53c-0.04,0.041 -0.04,0.082 -0.081,0.082l-0.327,0.408Z" style="fill:#1f293a;"/><path d="M106.409,41.658c0,-0.939 0.204,-0.979 0.204,-2.04l-1.102,0c0,2.489 -1.142,5.997 -1.142,8.201l0.938,0c0.123,-1.592 0.571,-3.224 1.183,-4.407c0.408,-0.857 0.449,-1.061 1.102,-1.713c0.653,-0.694 0.734,-0.939 1.999,-0.939c0.041,-0.734 0.164,-0.489 0.164,-1.305c-2.122,0.163 -2.612,1.672 -3.346,2.203Z" style="fill:#1f293a;"/><path d="M175.689,41.658c0,-0.939 0.204,-0.979 0.204,-2.04l-1.143,0c0,2.57 -1.101,5.753 -1.101,8.201l0.938,0c0.163,-2.326 1.347,-7.059 4.244,-7.059c0.081,-0.734 0.204,-0.489 0.204,-1.305c-2.122,0.163 -2.612,1.672 -3.346,2.203Z" style="fill:#1f293a;"/><path d="M6.528,0l37.496,0c3.591,0 6.528,2.938 6.528,6.528l0,17.585c0,14.689 -12.036,26.725 -26.724,26.725c-13.097,0 -23.828,-10.731 -23.828,-23.828l0,-20.482c0,-3.59 2.938,-6.528 6.528,-6.528Zm30.152,10.567c0,-3.264 -2.611,-5.875 -5.834,-5.875c-3.265,0 -5.876,2.611 -5.876,5.875c0,3.224 2.611,5.876 5.876,5.876c3.223,0 5.834,-2.652 5.834,-5.876Zm-7.997,26.235c-5.345,2.979 -11.016,2.938 -13.791,-0.448c-2.366,-2.897 -1.836,-7.467 0.939,-11.465c0.122,-0.164 0.204,-0.368 0.204,-0.531l0,-0.041c-0.041,-0.571 -0.735,-0.938 -1.306,-0.244c-3.958,4.692 -5.018,10.404 -2.122,13.913c3.305,4.039 10.568,3.672 16.606,-0.49l0,-0.041c0.123,-0.122 0.123,-0.326 0,-0.53l-0.489,-0.123l-0.041,0Zm8.895,-17.952c3.427,3.468 1.509,11.261 -4.284,17.422c-2.979,3.183 -6.406,5.304 -9.507,6.12c-0.286,0.163 -0.163,0.694 0.163,0.775c3.754,0.123 8.609,-2.366 12.608,-6.813c5.671,-6.284 7.425,-14.117 3.917,-17.504c-1.143,-1.102 -2.693,-1.591 -4.489,-1.51c-0.204,0 -0.204,0.368 -0.04,0.408c0.612,0.245 1.142,0.612 1.632,1.102Zm-12.649,7.671c-2.121,0 -3.794,1.713 -3.794,3.794c0,2.081 1.673,3.795 3.794,3.795c2.081,0 3.795,-1.714 3.795,-3.795c0,-2.081 -1.714,-3.794 -3.795,-3.794Zm0.735,-7.304c0,-2.652 -2.163,-4.814 -4.856,-4.814c-2.652,0 -4.814,2.162 -4.814,4.814c0,2.693 2.162,4.856 4.814,4.856c2.693,0 4.856,-2.163 4.856,-4.856Z" style="fill:#1f293a;"/></g></svg>