<?xml version="1.0" encoding="UTF-8" standalone="no"?><!DOCTYPE svg PUBLIC "-//W3C//DTD SVG 1.1//EN" "http://www.w3.org/Graphics/SVG/1.1/DTD/svg11.dtd"><svg width="100%" height="100%" viewBox="0 0 170 44" version="1.1" xmlns="http://www.w3.org/2000/svg" xmlns:xlink="http://www.w3.org/1999/xlink" xml:space="preserve" xmlns:serif="http://www.serif.com/" style="fill-rule:evenodd;clip-rule:evenodd;stroke-linejoin:round;stroke-miterlimit:1.41421;"><g><path d="M8.093,19.584c1.795,2.857 4.856,3.469 7.14,1.714c0.368,0.367 0.776,0.694 1.143,1.02c-1.347,1.265 -2.897,2.081 -5.223,2.652c-1.142,0.204 -2.366,0.245 -3.59,0c-2.693,-0.653 -4.611,-2.04 -6.12,-4.202c-6.12,-10.16 8.813,-20.768 15.259,-11.629c0.531,0.694 0.408,2.489 -0.775,2.816c-5.059,1.224 -1.714,-4.692 -6.161,-3.713c-1.102,0.245 -2.203,1.061 -2.693,2.121c-1.387,3.183 -0.734,6.325 1.02,9.221Z" style="fill:#1f293a;"/><path d="M34.532,9.833c0,4.815 0,9.955 0,14.811c0.082,0.245 0.327,0.367 0.123,0.367c-2.285,0 -3.509,0 -5.794,0c-0.041,-0.163 0.041,-0.204 0.163,-0.326c0,-4.407 0,-8.854 0,-13.261c0,-1.183 -1.265,-2.121 -2.53,-2.121c-1.387,0.04 -2.774,1.06 -2.774,2.121c0,4.284 0,8.936 0,13.261c0.122,0.163 0.245,0.163 0.204,0.326c-1.999,0 -3.876,0 -5.916,0c-0.082,-0.082 0.122,-0.245 0.204,-0.326c0,-8.201 0,-16.321 0,-24.522c0,-0.081 -0.163,-0.081 -0.163,-0.163c1.999,0 3.876,0 5.875,0c0.082,0.082 -0.082,0.122 -0.245,0.204c0,2.57 0,5.386 0,7.915c3.713,-3.835 10.853,-2.325 10.853,1.714Z" style="fill:#1f293a;"/><path d="M43.957,20.604c1.795,2.857 5.06,2.449 7.344,0.694c0.368,0.367 0.776,0.694 1.143,1.02c-1.347,1.265 -2.897,2.081 -5.223,2.652c-1.142,0.204 -2.366,0.245 -3.59,0c-2.693,-0.653 -4.611,-2.04 -6.12,-4.202c-4.407,-7.263 1.632,-14.77 7.956,-15.097c2.53,-0.122 5.1,0.735 6.936,3.346c1.469,2.407 1.469,4.243 1.469,6.569l-11.343,0c0,1.836 0.571,3.631 1.428,5.018Zm1.224,-12.525c1.673,0 3.06,2.244 3.264,5.141l-6.487,0c0.204,-2.897 1.591,-5.141 3.223,-5.141Z" style="fill:#1f293a;"/><path d="M103.812,20.604c1.795,2.857 5.06,2.449 7.344,0.694c0.368,0.367 0.776,0.694 1.143,1.02c-1.347,1.265 -2.897,2.081 -5.223,2.652c-1.142,0.204 -2.366,0.245 -3.59,0c-2.693,-0.653 -4.611,-2.04 -6.12,-4.202c-4.407,-7.263 1.632,-14.77 7.956,-15.097c2.53,-0.122 5.1,0.735 6.936,3.346c1.469,2.407 1.469,4.243 1.469,6.569l-11.343,0c0,1.836 0.571,3.631 1.428,5.018Zm1.224,-12.525c1.673,0 3.06,2.244 3.264,5.141l-6.487,0c0.204,-2.897 1.55,-5.141 3.223,-5.141Z" style="fill:#1f293a;"/><path d="M122.744,19.584c1.795,2.857 4.814,3.469 7.14,1.714c0.367,0.367 0.734,0.694 1.142,1.02c-1.346,1.265 -2.896,2.081 -5.222,2.652c-1.143,0.204 -2.367,0.245 -3.591,0c-2.692,-0.653 -4.61,-2.04 -6.12,-4.202c-6.161,-10.16 8.813,-20.768 15.219,-11.629c0.571,0.694 0.449,2.489 -0.734,2.816c-5.06,1.224 -1.714,-4.692 -6.161,-3.713c-1.102,0.245 -2.204,1.061 -2.693,2.121c-1.387,3.183 -0.775,6.325 1.02,9.221Z" style="fill:#1f293a;"/><path d="M149.346,9.833c0,4.815 0,9.955 0,14.811c0.122,0.245 0.367,0.367 0.122,0.367c-2.284,0 -3.508,0 -5.793,0c-0.041,-0.163 0.041,-0.204 0.163,-0.326c0,-4.407 0,-8.854 0,-13.261c0,-1.183 -1.265,-2.121 -2.53,-2.121c-1.346,0.04 -2.774,1.06 -2.774,2.121c0,4.284 0,8.936 0,13.261c0.122,0.163 0.285,0.163 0.245,0.326c-2.04,0 -3.917,0 -5.917,0c-0.122,-0.082 0.082,-0.245 0.204,-0.326c0,-8.201 0,-16.321 0,-24.522c-0.04,-0.081 -0.204,-0.081 -0.163,-0.163c1.959,0 3.876,0 5.835,0c0.081,0.082 -0.041,0.122 -0.245,0.204c0,2.57 0,5.386 0,7.915c3.754,-3.835 10.853,-2.325 10.853,1.714Z" style="fill:#1f293a;"/><path d="M84.758,6.406l2.203,0l0,-1.836l5.468,-3.346l0,5.182l2.693,0l0,2.121l-2.693,0l0,13.506c-0.041,1.795 1.999,1.591 2.693,0.856c0,0.612 0,0.735 0,1.388c-1.02,0.979 -4.448,1.428 -6.488,0.326c-1.142,-0.571 -1.673,-2.081 -1.673,-3.305l0,-12.771l-2.203,0l0,-2.121Z" style="fill:#1f293a;"/><path d="M72.232,25.378l-0.122,0l-0.123,0l-0.081,0l-0.123,0l-0.081,0l-0.123,0l-5.263,0c-0.041,-0.163 0.041,-0.204 0.163,-0.326c0,-4.529 0,-9.017 0,-13.546c0,-1.183 -1.264,-2.122 -2.611,-2.122c-1.387,0 -2.774,1.061 -2.774,2.122c0,4.406 0,9.139 0,13.546c0.122,0.163 0.244,0.163 0.204,0.326c-2.04,0 -3.999,0 -6.039,0c-0.081,-0.081 0.123,-0.245 0.204,-0.326c0,-8.324 0,-10.486 0,-18.809c0,-0.123 -0.163,-0.082 -0.163,-0.204c1.999,0 3.958,0 5.957,0c0.081,0.081 -0.041,0.163 -0.245,0.244c0,2.571 0,-0.734 0,1.877c3.264,-3.305 8.976,-2.693 10.608,0.082l0.327,-0.449c3.794,-3.917 11.261,-1.999 11.261,2.081c0,4.978 0,10.2 0,15.137c0.122,0.245 0.367,0.367 0.122,0.367c-2.326,0 -3.55,0 -5.875,0c-0.041,-0.163 0.041,-0.204 0.163,-0.326c0,-4.529 0,-9.017 0,-13.546c0,-1.183 -1.306,-2.122 -2.611,-2.122c-1.387,0 -2.816,1.061 -2.816,2.122c0,4.406 0,9.139 0,13.546c0.123,0.163 0.286,0.163 0.245,0.326l-0.204,0Z" style="fill:#1f293a;"/><path d="M82.718,43.086l1.02,0l-2.366,-7.712l-1.143,0l-2.366,7.712l0.979,0l0.571,-1.959l2.734,0l0.571,1.959Zm-1.958,-6.692l1.142,3.836l-2.244,0l1.102,-3.836Zm11.302,4.611c0,-0.326 0,-0.571 -0.082,-0.816c-0.082,-0.245 -0.204,-0.449 -0.367,-0.653c-0.163,-0.163 -0.327,-0.326 -0.531,-0.449c-0.244,-0.163 -0.489,-0.285 -0.734,-0.367l-0.286,-0.122c-0.367,-0.164 -0.693,-0.327 -0.897,-0.531c-0.204,-0.204 -0.327,-0.449 -0.327,-0.775c0,-0.408 0.123,-0.694 0.367,-0.857c0.245,-0.204 0.572,-0.285 0.98,-0.285c0.285,0 0.571,0.04 0.816,0.122c0.245,0.122 0.489,0.204 0.734,0.326l0.041,-0.979c-0.204,-0.122 -0.449,-0.204 -0.734,-0.285c-0.245,-0.082 -0.572,-0.123 -0.898,-0.123c-0.735,0 -1.306,0.204 -1.673,0.571c-0.408,0.368 -0.612,0.857 -0.612,1.51c0,0.326 0.041,0.571 0.122,0.816c0.082,0.245 0.204,0.449 0.368,0.653c0.122,0.163 0.326,0.326 0.53,0.449c0.204,0.122 0.408,0.245 0.694,0.326l0.734,0.367c0.163,0.082 0.286,0.164 0.408,0.286c0.123,0.122 0.204,0.245 0.286,0.367c0.041,0.163 0.081,0.286 0.081,0.49c0,0.326 -0.122,0.612 -0.367,0.857c-0.204,0.244 -0.612,0.367 -1.102,0.367c-0.367,0 -0.652,-0.041 -0.938,-0.123c-0.286,-0.122 -0.571,-0.244 -0.816,-0.408l-0.041,1.02c0.245,0.123 0.531,0.245 0.857,0.327c0.286,0.081 0.612,0.122 0.979,0.122c0.408,0 0.735,-0.041 1.061,-0.163c0.286,-0.122 0.531,-0.245 0.735,-0.449c0.204,-0.204 0.367,-0.449 0.489,-0.734c0.082,-0.245 0.123,-0.571 0.123,-0.857Zm1.672,2.081l0.939,0l0,-5.794l-0.939,0l0,5.794Zm1.102,-7.426c0,-0.204 -0.082,-0.367 -0.163,-0.49c-0.123,-0.163 -0.286,-0.204 -0.49,-0.204c-0.163,0 -0.326,0.041 -0.449,0.204c-0.122,0.123 -0.163,0.286 -0.163,0.49c0,0.204 0.041,0.367 0.163,0.49c0.123,0.163 0.286,0.204 0.449,0.204c0.204,0 0.367,-0.041 0.49,-0.204c0.081,-0.123 0.163,-0.286 0.163,-0.49Zm5.671,4.243l0,-0.122c0,-0.49 -0.04,-0.939 -0.163,-1.265c-0.081,-0.326 -0.245,-0.612 -0.408,-0.816c-0.204,-0.204 -0.408,-0.326 -0.653,-0.408c-0.204,-0.082 -0.489,-0.163 -0.775,-0.163c-0.367,0 -0.734,0.081 -1.02,0.245c-0.286,0.163 -0.53,0.367 -0.694,0.612c-0.204,0.285 -0.326,0.612 -0.408,0.979c-0.081,0.367 -0.122,0.775 -0.122,1.224c0,0.449 0.041,0.857 0.082,1.224c0.081,0.367 0.204,0.694 0.367,0.979c0.163,0.245 0.408,0.449 0.693,0.612c0.286,0.123 0.653,0.204 1.143,0.204c0.326,0 0.653,-0.041 0.938,-0.122c0.327,-0.082 0.572,-0.163 0.776,-0.286l-0.041,-0.897c-0.245,0.122 -0.49,0.244 -0.775,0.326c-0.245,0.082 -0.531,0.122 -0.816,0.122c-0.245,0 -0.49,-0.04 -0.653,-0.163c-0.204,-0.081 -0.368,-0.204 -0.449,-0.367c-0.123,-0.163 -0.204,-0.326 -0.245,-0.53c-0.041,-0.204 -0.082,-0.408 -0.082,-0.612l0,-0.245l3.305,0l0,-0.531Zm-0.897,-0.244l-2.408,0c0,-0.204 0,-0.408 0.082,-0.613c0.041,-0.204 0.122,-0.408 0.204,-0.571c0.122,-0.163 0.245,-0.285 0.408,-0.367c0.163,-0.122 0.367,-0.163 0.612,-0.163c0.245,0 0.408,0.041 0.571,0.163c0.123,0.082 0.245,0.204 0.327,0.367c0.081,0.163 0.122,0.367 0.163,0.571c0.041,0.205 0.041,0.409 0.041,0.613Zm8.65,3.427l0.938,0l0,-3.999c0,-0.571 -0.122,-1.061 -0.367,-1.428c-0.245,-0.326 -0.653,-0.53 -1.224,-0.53c-0.245,0 -0.408,0.041 -0.612,0.122c-0.164,0.082 -0.327,0.163 -0.449,0.286c-0.163,0.122 -0.286,0.204 -0.367,0.326c-0.123,0.123 -0.164,0.245 -0.245,0.327c-0.082,-0.327 -0.245,-0.572 -0.49,-0.776c-0.204,-0.163 -0.53,-0.285 -0.938,-0.285c-0.204,0 -0.367,0.041 -0.531,0.122c-0.204,0.082 -0.326,0.163 -0.489,0.245c-0.123,0.122 -0.245,0.204 -0.327,0.326c-0.081,0.123 -0.163,0.204 -0.204,0.286l0,-0.816l-0.897,0l0,5.794l0.938,0l0,-3.672c0,-0.163 0.041,-0.327 0.082,-0.49c0.081,-0.163 0.163,-0.286 0.285,-0.408c0.123,-0.122 0.245,-0.245 0.408,-0.326c0.123,-0.041 0.286,-0.082 0.449,-0.082c0.204,0 0.367,0.041 0.49,0.122c0.122,0.041 0.204,0.164 0.285,0.286c0.041,0.122 0.123,0.245 0.123,0.408c0.041,0.163 0.041,0.327 0.041,0.49l0,3.672l0.938,0l0,-3.672c0,-0.163 0.041,-0.327 0.082,-0.49c0.081,-0.163 0.163,-0.286 0.285,-0.408c0.123,-0.122 0.245,-0.245 0.367,-0.326c0.164,-0.041 0.327,-0.082 0.49,-0.082c0.204,0 0.367,0.041 0.49,0.122c0.122,0.041 0.204,0.164 0.285,0.286c0.041,0.122 0.082,0.245 0.123,0.408c0,0.163 0.041,0.327 0.041,0.49l0,3.672Zm6.732,-3.183l0,-0.122c0,-0.49 -0.082,-0.939 -0.164,-1.265c-0.122,-0.326 -0.244,-0.612 -0.448,-0.816c-0.164,-0.204 -0.368,-0.326 -0.612,-0.408c-0.245,-0.082 -0.49,-0.163 -0.776,-0.163c-0.408,0 -0.734,0.081 -1.02,0.245c-0.285,0.163 -0.53,0.367 -0.734,0.612c-0.163,0.285 -0.286,0.612 -0.408,0.979c-0.082,0.367 -0.122,0.775 -0.122,1.224c0,0.449 0.04,0.857 0.122,1.224c0.041,0.367 0.163,0.694 0.367,0.979c0.163,0.245 0.408,0.449 0.694,0.612c0.285,0.123 0.653,0.204 1.101,0.204c0.368,0 0.694,-0.041 0.98,-0.122c0.285,-0.082 0.53,-0.163 0.734,-0.286l-0.041,-0.897c-0.204,0.122 -0.489,0.244 -0.734,0.326c-0.245,0.082 -0.531,0.122 -0.816,0.122c-0.286,0 -0.49,-0.04 -0.694,-0.163c-0.163,-0.081 -0.326,-0.204 -0.449,-0.367c-0.122,-0.163 -0.163,-0.326 -0.244,-0.53c-0.041,-0.204 -0.041,-0.408 -0.041,-0.612l0,-0.245l3.264,0l0,-0.327c0.041,-0.081 0.041,-0.163 0.041,-0.204Zm-0.898,-0.244l-2.448,0c0,-0.204 0.041,-0.408 0.082,-0.613c0.04,-0.204 0.122,-0.408 0.244,-0.571c0.123,-0.163 0.245,-0.285 0.408,-0.367c0.164,-0.122 0.368,-0.163 0.572,-0.163c0.244,0 0.448,0.041 0.571,0.163c0.163,0.082 0.285,0.204 0.367,0.367c0.082,0.163 0.122,0.367 0.163,0.571c0,0.205 0.041,0.409 0.041,0.613Zm5.753,3.427l0.938,0l0,-3.999c0,-0.612 -0.163,-1.101 -0.408,-1.428c-0.285,-0.326 -0.693,-0.53 -1.264,-0.53c-0.204,0 -0.408,0.041 -0.612,0.122c-0.164,0.082 -0.327,0.163 -0.49,0.245c-0.122,0.122 -0.245,0.204 -0.326,0.326c-0.123,0.123 -0.204,0.204 -0.245,0.286l0,-0.816l-0.898,0l0,5.794l0.939,0l0,-3.672c0,-0.163 0.04,-0.327 0.081,-0.49c0.082,-0.163 0.204,-0.286 0.327,-0.408c0.081,-0.122 0.244,-0.245 0.408,-0.326c0.163,-0.041 0.326,-0.082 0.489,-0.082c0.245,0 0.408,0.041 0.531,0.122c0.163,0.041 0.244,0.164 0.326,0.286c0.082,0.122 0.122,0.245 0.163,0.408c0,0.163 0.041,0.327 0.041,0.49l0,3.672Zm6.039,-1.632c0,-0.245 -0.041,-0.449 -0.123,-0.612c-0.041,-0.163 -0.122,-0.327 -0.245,-0.449c-0.122,-0.163 -0.244,-0.286 -0.408,-0.367c-0.122,-0.082 -0.326,-0.163 -0.489,-0.245l-0.327,-0.122c-0.326,-0.164 -0.571,-0.286 -0.734,-0.449c-0.163,-0.123 -0.245,-0.286 -0.245,-0.531c0,-0.204 0.082,-0.367 0.245,-0.489c0.122,-0.164 0.367,-0.204 0.693,-0.204c0.164,0 0.327,0.04 0.572,0.081c0.245,0.041 0.449,0.163 0.734,0.327l0.041,-0.857c-0.163,-0.123 -0.367,-0.204 -0.571,-0.286c-0.245,-0.081 -0.49,-0.122 -0.776,-0.122c-0.652,0 -1.101,0.163 -1.428,0.449c-0.285,0.326 -0.448,0.693 -0.448,1.183c0,0.204 0.04,0.408 0.081,0.612c0.082,0.163 0.163,0.326 0.286,0.449c0.122,0.122 0.245,0.245 0.408,0.326c0.122,0.123 0.285,0.204 0.449,0.286l0.367,0.122c0.285,0.123 0.53,0.286 0.693,0.408c0.164,0.123 0.245,0.327 0.245,0.571c0,0.245 -0.081,0.449 -0.245,0.612c-0.163,0.164 -0.448,0.245 -0.816,0.245c-0.285,0 -0.53,-0.041 -0.775,-0.122c-0.204,-0.082 -0.449,-0.204 -0.653,-0.327l-0.04,0.857c0.448,0.286 0.938,0.408 1.509,0.408c0.653,0 1.184,-0.163 1.51,-0.489c0.326,-0.286 0.49,-0.735 0.49,-1.265Zm8.853,-0.653c0,-0.326 -0.081,-0.612 -0.163,-0.857c-0.081,-0.204 -0.204,-0.408 -0.367,-0.53c-0.122,-0.123 -0.286,-0.245 -0.449,-0.286c-0.163,-0.082 -0.285,-0.122 -0.449,-0.163c0.164,-0.041 0.286,-0.123 0.408,-0.204c0.164,-0.041 0.286,-0.163 0.408,-0.286c0.123,-0.163 0.204,-0.326 0.286,-0.53c0.082,-0.204 0.122,-0.449 0.122,-0.735c0,-0.367 -0.081,-0.652 -0.204,-0.897c-0.122,-0.245 -0.285,-0.449 -0.489,-0.571c-0.204,-0.164 -0.408,-0.245 -0.694,-0.286c-0.245,-0.041 -0.53,-0.082 -0.816,-0.082l-2.04,0l0,7.712l1.999,0c0.816,0 1.428,-0.204 1.836,-0.571c0.408,-0.408 0.612,-0.98 0.612,-1.714Zm-0.979,0.041c0,0.489 -0.163,0.816 -0.408,1.02c-0.286,0.204 -0.653,0.326 -1.142,0.326l-0.98,0l0,-2.693l0.98,0c0.489,0 0.856,0.082 1.142,0.286c0.245,0.204 0.408,0.571 0.408,1.061Zm-0.204,-3.509c0,0.857 -0.49,1.265 -1.387,1.265l-0.939,0l0,-2.367l1.02,0c0.408,0 0.735,0.082 0.939,0.245c0.245,0.163 0.367,0.449 0.367,0.857Zm6.161,5.753l0.857,0c-0.041,-0.123 -0.041,-0.327 -0.041,-0.612c0,-0.286 0,-0.531 0,-0.816l0,-4.366l-0.938,0l0,3.672c0,0.163 -0.041,0.327 -0.123,0.49c-0.081,0.163 -0.163,0.285 -0.285,0.408c-0.123,0.122 -0.245,0.245 -0.408,0.285c-0.164,0.082 -0.286,0.123 -0.449,0.123c-0.204,0 -0.408,-0.041 -0.531,-0.123c-0.122,-0.081 -0.244,-0.163 -0.285,-0.285c-0.082,-0.123 -0.123,-0.286 -0.163,-0.408c-0.041,-0.163 -0.041,-0.327 -0.041,-0.49l0,-3.672l-0.939,0l0,3.999c0,0.612 0.123,1.101 0.408,1.428c0.245,0.326 0.653,0.489 1.224,0.489c0.204,0 0.408,-0.041 0.572,-0.081c0.163,-0.082 0.326,-0.164 0.448,-0.245c0.164,-0.123 0.286,-0.204 0.368,-0.327c0.081,-0.122 0.163,-0.204 0.204,-0.285l0.04,0l0.082,0.816Zm5.957,-1.632c0,-0.245 -0.041,-0.449 -0.082,-0.612c-0.081,-0.163 -0.163,-0.327 -0.285,-0.449c-0.123,-0.163 -0.245,-0.286 -0.408,-0.367c-0.123,-0.082 -0.286,-0.163 -0.49,-0.245l-0.326,-0.122c-0.327,-0.164 -0.571,-0.286 -0.735,-0.449c-0.163,-0.123 -0.204,-0.286 -0.204,-0.531c0,-0.204 0.041,-0.367 0.204,-0.489c0.123,-0.164 0.368,-0.204 0.735,-0.204c0.122,0 0.285,0.04 0.53,0.081c0.245,0.041 0.49,0.163 0.735,0.327l0.04,-0.857c-0.163,-0.123 -0.326,-0.204 -0.571,-0.286c-0.245,-0.081 -0.489,-0.122 -0.775,-0.122c-0.653,0 -1.102,0.163 -1.428,0.449c-0.286,0.326 -0.449,0.693 -0.449,1.183c0,0.204 0.041,0.408 0.082,0.612c0.081,0.163 0.163,0.326 0.285,0.449c0.123,0.122 0.245,0.245 0.408,0.326c0.123,0.123 0.286,0.204 0.49,0.286l0.326,0.122c0.286,0.123 0.531,0.286 0.694,0.408c0.163,0.123 0.245,0.327 0.245,0.571c0,0.245 -0.082,0.449 -0.245,0.612c-0.122,0.164 -0.408,0.245 -0.816,0.245c-0.286,0 -0.53,-0.041 -0.734,-0.122c-0.245,-0.082 -0.49,-0.204 -0.694,-0.327l-0.041,0.857c0.449,0.286 0.939,0.408 1.51,0.408c0.693,0 1.183,-0.163 1.509,-0.489c0.327,-0.286 0.49,-0.735 0.49,-1.265Zm1.632,1.632l0.938,0l0,-5.794l-0.938,0l0,5.794Zm1.102,-7.426c0,-0.204 -0.041,-0.367 -0.164,-0.49c-0.122,-0.163 -0.285,-0.204 -0.448,-0.204c-0.204,0 -0.368,0.041 -0.49,0.204c-0.122,0.123 -0.163,0.286 -0.163,0.49c0,0.204 0.041,0.367 0.163,0.49c0.122,0.163 0.286,0.204 0.49,0.204c0.163,0 0.326,-0.041 0.448,-0.204c0.123,-0.123 0.164,-0.286 0.164,-0.49Zm5.059,7.426l0.938,0l0,-3.999c0,-0.612 -0.122,-1.101 -0.408,-1.428c-0.285,-0.326 -0.693,-0.53 -1.264,-0.53c-0.204,0 -0.408,0.041 -0.612,0.122c-0.164,0.082 -0.327,0.163 -0.49,0.245c-0.122,0.122 -0.245,0.204 -0.326,0.326c-0.123,0.123 -0.204,0.204 -0.245,0.286l0,-0.816l-0.898,0l0,5.794l0.939,0l0,-3.672c0,-0.163 0.04,-0.327 0.081,-0.49c0.082,-0.163 0.204,-0.286 0.327,-0.408c0.122,-0.122 0.244,-0.245 0.408,-0.326c0.163,-0.041 0.326,-0.082 0.489,-0.082c0.245,0 0.408,0.041 0.531,0.122c0.163,0.041 0.244,0.164 0.326,0.286c0.082,0.122 0.122,0.245 0.163,0.408c0.041,0.163 0.041,0.327 0.041,0.49l0,3.672Zm6.732,-3.183l0,-0.122c0,-0.49 -0.081,-0.939 -0.163,-1.265c-0.122,-0.326 -0.245,-0.612 -0.408,-0.816c-0.204,-0.204 -0.408,-0.326 -0.653,-0.408c-0.245,-0.082 -0.49,-0.163 -0.775,-0.163c-0.408,0 -0.735,0.081 -1.02,0.245c-0.286,0.163 -0.531,0.367 -0.694,0.612c-0.204,0.285 -0.326,0.612 -0.408,0.979c-0.122,0.367 -0.163,0.775 -0.163,1.224c0,0.449 0.041,0.857 0.122,1.224c0.041,0.367 0.164,0.694 0.368,0.979c0.163,0.245 0.408,0.449 0.693,0.612c0.286,0.123 0.653,0.204 1.102,0.204c0.367,0 0.693,-0.041 0.979,-0.122c0.286,-0.082 0.531,-0.163 0.735,-0.286l-0.041,-0.897c-0.204,0.122 -0.449,0.244 -0.735,0.326c-0.245,0.082 -0.53,0.122 -0.816,0.122c-0.285,0 -0.489,-0.04 -0.693,-0.163c-0.164,-0.081 -0.327,-0.204 -0.449,-0.367c-0.082,-0.163 -0.163,-0.326 -0.245,-0.53c-0.041,-0.204 -0.041,-0.408 -0.041,-0.612l0,-0.245l3.264,0c0,-0.041 0,-0.082 0,-0.163c0,-0.041 0,-0.123 0.041,-0.164c0,-0.081 0,-0.163 0,-0.204Zm-0.898,-0.244l-2.448,0c0,-0.204 0.041,-0.408 0.082,-0.613c0.082,-0.204 0.163,-0.408 0.245,-0.571c0.122,-0.163 0.245,-0.285 0.408,-0.367c0.163,-0.122 0.367,-0.163 0.612,-0.163c0.204,0 0.408,0.041 0.53,0.163c0.163,0.082 0.286,0.204 0.367,0.367c0.082,0.163 0.123,0.367 0.164,0.571c0,0.205 0.04,0.409 0.04,0.613Zm5.672,1.795c0,-0.245 0,-0.449 -0.082,-0.612c-0.081,-0.163 -0.163,-0.327 -0.245,-0.449c-0.122,-0.163 -0.244,-0.286 -0.408,-0.367c-0.163,-0.082 -0.326,-0.163 -0.489,-0.245l-0.367,-0.122c-0.327,-0.164 -0.572,-0.286 -0.694,-0.449c-0.163,-0.123 -0.245,-0.286 -0.245,-0.531c0,-0.204 0.082,-0.367 0.204,-0.489c0.163,-0.164 0.408,-0.204 0.735,-0.204c0.122,0 0.326,0.04 0.53,0.081c0.245,0.041 0.49,0.163 0.734,0.327l0.082,-0.857c-0.163,-0.123 -0.367,-0.204 -0.612,-0.286c-0.204,-0.081 -0.49,-0.122 -0.775,-0.122c-0.612,0 -1.102,0.163 -1.387,0.449c-0.327,0.326 -0.49,0.693 -0.49,1.183c0,0.204 0.041,0.408 0.122,0.612c0.041,0.163 0.164,0.326 0.245,0.449c0.123,0.122 0.286,0.245 0.408,0.326c0.163,0.123 0.327,0.204 0.49,0.286l0.326,0.122c0.327,0.123 0.571,0.286 0.735,0.408c0.163,0.123 0.244,0.327 0.244,0.571c0,0.245 -0.081,0.449 -0.244,0.612c-0.164,0.164 -0.449,0.245 -0.857,0.245c-0.245,0 -0.49,-0.041 -0.735,-0.122c-0.244,-0.082 -0.448,-0.204 -0.693,-0.327l-0.041,0.857c0.449,0.286 0.979,0.408 1.51,0.408c0.693,0 1.183,-0.163 1.509,-0.489c0.327,-0.286 0.49,-0.735 0.49,-1.265Zm4.855,0c0,-0.245 -0.041,-0.449 -0.081,-0.612c-0.082,-0.163 -0.164,-0.327 -0.286,-0.449c-0.122,-0.163 -0.245,-0.286 -0.408,-0.367c-0.122,-0.082 -0.286,-0.163 -0.49,-0.245l-0.326,-0.122c-0.327,-0.164 -0.571,-0.286 -0.735,-0.449c-0.163,-0.123 -0.204,-0.286 -0.204,-0.531c0,-0.204 0.041,-0.367 0.204,-0.489c0.123,-0.164 0.368,-0.204 0.735,-0.204c0.122,0 0.286,0.04 0.53,0.081c0.245,0.041 0.49,0.163 0.735,0.327l0.041,-0.857c-0.164,-0.123 -0.327,-0.204 -0.572,-0.286c-0.244,-0.081 -0.489,-0.122 -0.775,-0.122c-0.653,0 -1.102,0.163 -1.428,0.449c-0.286,0.326 -0.449,0.693 -0.449,1.183c0,0.204 0.041,0.408 0.082,0.612c0.081,0.163 0.163,0.326 0.285,0.449c0.123,0.122 0.245,0.245 0.408,0.326c0.123,0.123 0.286,0.204 0.49,0.286l0.326,0.122c0.286,0.123 0.531,0.286 0.694,0.408c0.163,0.123 0.245,0.327 0.245,0.571c0,0.245 -0.082,0.449 -0.245,0.612c-0.122,0.164 -0.408,0.245 -0.816,0.245c-0.286,0 -0.53,-0.041 -0.734,-0.122c-0.245,-0.082 -0.49,-0.204 -0.694,-0.327l-0.041,0.857c0.449,0.286 0.939,0.408 1.51,0.408c0.694,0 1.183,-0.163 1.51,-0.489c0.326,-0.286 0.489,-0.735 0.489,-1.265Z" style="fill:#1f293a;fill-rule:nonzero;"/></g></svg>