<?xml version="1.0" encoding="UTF-8" standalone="no"?><!DOCTYPE svg PUBLIC "-//W3C//DTD SVG 1.1//EN" "http://www.w3.org/Graphics/SVG/1.1/DTD/svg11.dtd"><svg width="100%" height="100%" viewBox="0 0 143 55" version="1.1" xmlns="http://www.w3.org/2000/svg" xmlns:xlink="http://www.w3.org/1999/xlink" xml:space="preserve" xmlns:serif="http://www.serif.com/" style="fill-rule:evenodd;clip-rule:evenodd;stroke-miterlimit:1.41421;"><g><path d="M121.016,20.36l0,25.337l20.93,0l0,-6.12l-13.79,0l0,-3.999l9.384,0l0,-5.671l-9.384,0l0,-3.427c0,-0.327 0.081,-0.449 0.408,-0.449l13.26,0l0,-5.671c0,-0.327 -0.082,-0.449 -0.449,-0.449l-19.951,0c-0.327,0 -0.408,0.122 -0.408,0.449Z" style="fill:#1f293a;"/><path d="M18.972,20.645c-1.06,0 -2.08,-0.53 -2.774,-1.224c-2.326,-2.325 -0.694,-6.61 2.326,-6.61c1.591,0 2.203,0 3.386,1.306c1.51,1.591 1.224,4.08 -0.204,5.386c-0.694,0.653 -1.836,1.142 -2.734,1.142Zm23.094,-9.547c0,-3.387 4.08,-5.304 6.569,-2.897c2.733,2.652 0.571,6.732 -2.163,6.732c-1.428,0 -2.366,-0.041 -3.386,-1.183c-0.49,-0.53 -1.02,-1.714 -1.02,-2.652Zm-17.83,-0.449c0,-3.835 3.305,-7.385 7.14,-7.385c2.407,0 4.039,0.53 5.794,2.326c4.488,4.529 0.938,12.485 -4.937,12.485c-2.571,0 -4.203,-0.49 -5.876,-2.244c-1.06,-1.102 -2.121,-3.06 -2.121,-5.182Zm-14.974,16.524l2.611,-1.101c6.365,-2.693 12.526,-4.978 19.462,-6.488c1.959,-0.408 4.162,-0.816 6.202,-1.183c2.203,-0.408 4.243,-0.612 6.487,-0.938c2.04,-0.327 4.366,-0.571 6.569,-0.816l6.569,-0.857c-0.081,-1.02 -2.611,-4.692 -3.223,-5.467c-1.265,-1.714 -2.693,-3.02 -4.407,-4.284c-9.792,-7.345 -23.664,-4.774 -31.824,3.386c-0.572,0.571 -1.102,1.061 -1.592,1.673c-1.754,2.244 -2.57,3.101 -3.957,5.875c-1.265,2.53 -2.816,7.344 -2.897,10.2Z" style="fill:#1f293a;"/><path d="M60.712,32.437l-5.672,0l0,-7.263l5.957,0c5.386,0 5.509,7.263 -0.285,7.263Zm-11.384,13.26l5.712,0l0,-8.119c5.427,0 3.877,-0.857 7.059,3.917c0.49,0.734 0.898,1.305 1.346,2.04c0.49,0.734 1.02,1.428 1.428,2.162l6.692,0c-0.857,-1.591 -5.916,-8.405 -6.12,-9.262c5.263,-1.224 7.385,-9.588 3.141,-13.831c-1.713,-1.714 -1.836,-1.143 -2.57,-0.245c-0.082,0.122 -0.816,0.979 -0.857,0.979c-1.918,0 -0.938,-1.02 -3.019,0.245c-0.367,0.245 -0.531,0.367 -0.979,0.449c-0.857,-0.571 -1.51,-0.979 -2.244,-1.714c-0.368,-0.367 -0.612,-0.694 -0.857,-1.142c-0.245,-0.531 -0.245,-1.265 -0.735,-1.265l-7.997,0l0,25.786Z" style="fill:#1f293a;"/><path d="M94.944,32.151c0,2.775 0.122,4.039 1.224,6.61c1.02,2.407 3.101,4.488 5.345,5.753l1.142,0.571c4.611,2.203 11.343,1.306 14.974,-2.326c0.531,-0.53 1.755,-1.754 1.959,-2.488c-0.49,-0.245 -0.898,-0.531 -1.388,-0.898l-4.039,-2.775c-2.326,3.509 -7.507,4.244 -10.078,1.102c-3.509,-4.243 -1.591,-11.669 4.529,-11.669c2.326,0 4.978,1.918 5.263,3.019c0.612,-0.163 4.611,-3.509 5.59,-4.161c-2.162,-3.183 -5.957,-5.386 -10.118,-5.386c-3.632,0 -5.753,0.326 -8.773,2.366c-1.754,1.143 -3.59,3.224 -4.365,5.141c-0.612,1.428 -1.265,3.142 -1.265,5.141Z" style="fill:#1f293a;"/><path d="M22.808,31.866l0,1.999c0,6.283 5.957,12.24 12.281,12.24c2.733,0 5.059,-0.041 7.426,-1.346c1.305,-0.735 3.223,-2.081 3.957,-3.183c-0.122,-0.163 -3.468,-3.631 -3.549,-3.713c-0.694,0.449 -1.224,1.224 -2.612,1.959c-5.834,3.101 -11.506,-1.02 -11.506,-6.365c0,-2.122 0.204,-4.08 1.551,-5.712c0.857,-1.102 2.081,-2.122 3.55,-2.571c1.713,-0.53 3.427,-0.449 5.018,0.123c2.203,0.816 3.223,2.162 3.835,2.325l3.591,-4.121c-0.653,-0.448 -1.183,-1.305 -2.815,-2.203c-4.529,-2.489 -7.508,-1.754 -12.077,-0.734c-0.408,0.122 -0.531,0.122 -0.939,0.244c-3.672,0.898 -7.711,6.447 -7.711,11.058Z" style="fill:#1f293a;"/><path d="M74.135,20.36l0,25.337l5.835,0l0,-9.955l9.67,0l0,-5.141l-9.67,0l0,-5.427l13.831,0l0,-5.263l-19.258,0c-0.326,0 -0.408,0.122 -0.408,0.449Z" style="fill:#1f293a;"/><path d="M5.141,29.744l-0.122,0.285m30.886,-30.029l1.061,0c8.568,0.163 15.79,4.651 20.196,12.363c0.408,0.775 0.245,0.897 0.775,1.101c1.02,0.408 2.408,-0.163 3.958,1.428c2.611,2.612 2.366,1.836 5.263,1.755l0,0.571c-4.202,0.979 -4.325,-0.816 -5.875,-1.836c0.163,0.49 0.286,0.449 0.571,0.857c1.347,1.795 1.306,3.549 5.712,3.549c-0.081,0.816 -0.204,0.776 -1.142,0.735c-4.57,-0.327 -4.162,-3.06 -6.079,-4.774c-0.286,-0.245 -0.694,-0.571 -1.061,-0.653c0.449,0.612 0.775,0.612 1.305,1.836c0.939,2.122 0.49,3.754 4.57,4.692c-0.286,1.021 -1.306,0.368 -2.081,0.082c-2.815,-1.142 -2.366,-2.611 -3.305,-4.529l-0.612,-0.938c0,0.693 0.164,3.386 0.449,4.08c0.408,1.02 1.755,1.754 2.122,2.326c-0.531,0.326 -0.531,0.285 -1.02,-0.123c-3.101,-2.407 -1.673,-3.264 -2.163,-5.834c-0.244,-1.184 -0.693,-0.653 -1.142,-1.265l-1.387,-2.612c-0.408,-0.734 -0.735,-1.224 -1.224,-1.917c-0.49,-0.694 -0.816,-1.143 -1.388,-1.755c-0.897,-1.06 -1.224,-1.468 -2.407,-2.448c-0.326,-0.244 -0.489,-0.448 -0.816,-0.734c-1.877,-1.428 -3.876,-2.571 -6.161,-3.387c-6.365,-2.325 -14.729,-1.55 -20.767,2.122c-1.755,1.102 -2.122,1.306 -3.795,2.611l-1.673,1.469c-4.733,4.774 -7.589,9.956 -8.527,16.81c-0.286,2.081 0.041,1.632 -0.979,2.163c0.326,0.693 -0.082,1.428 0,2.448c0.04,0.897 0.326,1.387 0.571,2.081c0.775,2.284 -0.979,5.059 -1.591,4.488c-0.245,-0.286 0.04,-0.408 0.285,-0.735c1.877,-2.774 0.082,-3.794 -0.122,-6.12c-0.041,0 -0.041,0.041 -0.041,0.082c-0.612,1.591 0.122,3.264 -0.53,4.733c-0.449,1.02 -1.755,2.203 -2.693,2.733c-0.368,-0.245 -0.164,-0.204 -0.572,-0.285c0.286,-0.408 1.102,-0.898 1.51,-1.347c0.408,-0.408 0.939,-1.101 1.102,-1.754c0.204,-0.816 0.041,-1.877 0.081,-2.775c0,-0.979 0.368,-1.509 0.408,-2.244c-1.713,1.265 -0.244,4.488 -3.345,6.61c-0.449,0.286 -1.673,0.938 -2.163,1.061l-0.449,-0.571c2.04,-1.102 3.264,-1.224 3.836,-3.999c0.122,-0.653 0.367,-1.55 0.449,-2.122c-0.164,0.204 -0.082,0.041 -0.245,0.327c-0.082,0.122 -0.163,0.286 -0.204,0.367c-0.123,0.286 -0.204,0.49 -0.368,0.775c-0.734,1.347 -3.427,2.652 -4.202,1.51c0.367,-0.163 1.02,-0.204 1.51,-0.367c3.06,-0.898 1.876,-3.346 4.406,-4.815c1.714,-1.02 1.673,-0.653 1.836,-1.713c0.694,-4.529 1.551,-8.405 4.162,-12.363c0.285,-0.449 0.489,-0.694 0.734,-1.102c1.673,-2.529 3.876,-4.773 6.243,-6.609l3.264,-2.163c1.591,-0.898 3.142,-1.714 4.937,-2.326c3.06,-0.979 5.998,-1.509 8.813,-1.55Zm-29.05,28.601l0.04,0.041c0,0 -0.04,0 -0.04,-0.041Zm53.857,-13.668l0.041,0.041l-0.041,-0.041Zm-1.428,0.163l1.428,-0.163" style="fill:#1f293a;"/><path d="M32.804,8.813l0.163,0.163l0,0.123c0.163,0.367 0.163,0.489 0,0.856l0,0.123l-0.163,0.285l-0.163,0.286l-0.123,0.163l-0.163,0.204l-0.122,0l0.041,0.204l0,0.286c0.448,0.285 0.734,-0.082 1.06,-0.449c0.572,-0.571 0.368,-0.49 0.694,-1.265l0,-0.816c-0.979,-2.366 -3.427,-0.449 -4.57,-1.958c-0.489,-0.694 -0.122,-1.102 0.204,-1.632c2,0 0.816,0.449 1.265,1.305c0.082,0.245 0.531,0.612 0.735,0.408c0.244,-0.204 0.122,-0.897 0.122,-1.264c-0.775,-0.204 -0.653,-1.306 -1.918,-0.939c-0.734,0.163 -1.428,0.816 -1.183,1.877c0.408,1.999 3.223,1.265 4.121,2.04Z" style="fill:#1f293a;"/><path d="M31.498,11.383l0.041,0.408l0.123,0.735c0,0 0.04,0.041 0.04,0.081c0,0.041 0.041,0.082 0.041,0.082c0.041,0.204 0.041,0.204 0.041,0.408l0.163,0.041l0.286,-0.041c0.122,-0.286 0.122,-0.245 0.122,-0.734l-0.041,-0.408l-0.04,-0.449l0,-0.286c-0.286,-0.204 -0.204,0.245 -0.123,-0.122l0,-0.041c0,0 0.041,-0.041 0.082,-0.041l0.122,0c0,-0.245 -0.041,-0.204 0.163,-0.204l0.123,-0.163l0.163,-0.286c0,-0.489 -0.082,-0.163 0.163,-0.285l0,-0.123l0,-0.856l0,-0.123c-0.204,0 -0.163,0.041 -0.163,-0.163c-0.612,0 -0.938,0.122 -1.51,0.245c-0.571,0.081 -0.897,0.122 -1.469,0.204c-0.775,0.163 -2.08,0.489 -2.896,0.53c0.367,0.49 0.367,0.286 1.142,0.327c1.55,0.081 1.102,0.897 2.734,1.101c0.163,0.041 0.204,0 0.367,0.041c0.367,0.082 0.122,0 0.326,0.122Z" style="fill:#1f293a;"/><path d="M31.213,13.668c0.163,-0.163 0.571,0.204 0.163,0.082c0,-0.041 -0.408,0.163 -0.163,-0.082Zm1.02,1.388l0.571,0c0.49,-0.245 0.653,-0.082 1.142,0.04c-0.204,-0.775 -0.244,-0.326 -1.305,-0.448c-0.041,0 -0.082,0 -0.123,-0.041l-0.204,-0.041l-0.081,-0.041c-0.49,-0.163 -0.531,-0.163 -0.571,-0.734l0.408,0l0.285,-0.041c0.816,-0.367 1.551,-0.49 1.591,-1.673c-0.693,-0.449 -0.734,-0.49 -1.632,-0.122l0.041,0.408l0.571,0c-0.04,0.652 -0.122,0.571 -0.693,0.734l-0.286,0.041c-0.122,0.122 -0.041,0.122 -0.163,-0.041c0,-0.041 -0.041,-0.122 -0.041,-0.082c0,0 -0.041,-0.081 -0.041,-0.122c-0.04,-0.163 -0.04,-0.163 -0.04,-0.367c-0.286,0.081 -0.245,0 -0.449,0.122c0.081,-0.653 0.081,-0.245 0.326,-0.857l-0.041,-0.408c-0.856,0.082 -1.917,1.347 -0.408,2.122c-0.163,0.612 -0.326,1.347 1.143,1.551Z" style="fill:#1f293a;"/><path d="M36.639,14.525l0,-0.571l0.408,0.286c0,0 -0.041,0 -0.041,0.04c-0.04,0.041 -0.081,0.082 -0.081,0.082c-0.163,0.082 -0.123,0.082 -0.286,0.163Zm-1.265,1.428c0.939,0 1.143,0 1.551,-0.571c-0.449,-0.245 -0.49,-0.122 -0.979,0l0,-0.449c0.489,0.123 0.448,0.163 1.101,0.163c0.327,-0.489 0.408,-0.204 0.449,-0.856l-0.449,0c0.327,-0.245 0.816,-0.204 1.02,-1.02c-0.571,0.04 -0.53,0.081 -0.857,0.285l0,-0.408l-0.163,-0.286c-0.408,-0.244 -0.408,0.286 -0.408,0.857l-0.041,-0.04c-0.122,0.489 0.123,-0.449 -0.326,0.081c-0.122,0.163 -0.122,0.245 -0.204,0.367c-0.122,0.245 -0.041,0.164 -0.245,0.327c-0.53,0.612 -0.653,0.693 -0.449,1.55Z" style="fill:#1f293a;"/><path d="M28.928,16.524c0.122,-0.244 0.081,-0.163 0.163,-0.448l0.286,0.448l-0.449,0Zm0,0c0,0 -0.041,0 -0.082,0.041c0,0.082 -0.122,0.123 -0.122,0.123c-0.204,0.204 -0.082,0.081 -0.204,0.244c0.775,0.368 0.897,0.286 1.55,-0.163c-0.041,-0.408 -0.081,-0.653 -0.367,-0.897c-0.449,-0.368 -0.286,0 -0.816,-0.449c-0.734,-0.653 -0.49,-0.286 -0.734,-0.49l-0.041,-0.041c-0.041,-0.04 -0.163,-0.204 -0.163,-0.244c-0.245,-0.245 0,-0.164 -0.449,-0.286l0,0.857c-0.408,-0.082 -0.449,-0.204 -0.857,0c0.204,0.285 0.408,0.571 0.898,0.571c0.775,0 0.612,-0.734 0.816,0.163l-0.857,0c0.204,0.612 0.489,0.571 1.428,0.571Z" style="fill:#1f293a;"/><path d="M35.374,15.953c-0.489,-0.245 -1.305,-0.163 -1.999,-0.163l-0.571,-0.734l-0.571,0c-0.082,1.142 -1.02,1.346 -2,1.591l0,0.285c0.572,0 4.611,-0.53 5.141,-0.979Z" style="fill:#1f293a;"/><path d="M37.904,12.077l-0.367,0.49l-0.041,-0.49l0.408,0Zm-0.857,0.734l0.163,0.286c0.735,0 1.061,-0.286 1.143,-1.02l-0.449,0c0.326,-0.449 0.53,-0.367 0.571,-1.142c-0.408,0.04 -0.245,0 -0.571,0.163l0,0.285l-0.286,0l0,-0.285l-0.408,-0.327c-0.122,0.694 0.082,0.327 -0.04,0.98c-0.164,0.816 -0.286,0.204 -0.123,1.06Z" style="fill:#1f293a;"/><path d="M26.806,14.362c-0.408,-0.163 -0.285,-0.122 -0.857,-0.122c0.164,0.285 0.204,0.53 0.612,0.652c0.898,0.286 1.143,-0.489 0.49,-1.305c-0.204,-0.245 -0.122,-0.041 -0.245,-0.367c-0.081,-0.245 0.041,-0.205 -0.163,-0.572c-0.408,0.327 -0.245,0.123 -0.245,0.857c-0.408,-0.245 -0.449,-0.204 -0.857,-0.408c0.041,0.775 0.694,1.102 1.265,0.857l0,0.408Z" style="fill:#1f293a;"/><path d="M16.116,18.197c0.245,0.898 0.735,1.02 1.265,1.306c0.204,-0.367 0.531,-1.387 0.571,-1.877c-0.448,0.041 -1.468,0.408 -1.836,0.571Z" style="fill:#1f293a;"/><path d="M43.045,12.648c0.367,0.572 0.694,1.102 1.428,1.306c0.122,-0.49 0.367,-1.469 0.571,-1.877c-0.571,0.041 -1.591,0.408 -1.999,0.571Z" style="fill:#1f293a;"/><path d="M47.043,10.241c0.368,-0.163 1.388,-0.53 1.837,-0.571c-0.164,-0.816 -0.694,-1.02 -1.265,-1.428c-0.204,0.408 -0.572,1.428 -0.572,1.999Z" style="fill:#1f293a;"/><path d="M20.523,19.503c0.653,-0.163 1.142,-0.653 1.306,-1.306c-0.368,-0.163 -1.388,-0.53 -1.877,-0.571c0.081,0.367 0.448,1.591 0.571,1.877Z" style="fill:#1f293a;"/><path d="M47.451,13.954c0.776,-0.204 1.143,-0.694 1.429,-1.306c-0.327,-0.163 -1.388,-0.53 -1.837,-0.571c0.082,0.816 0.408,1.02 0.408,1.877Z" style="fill:#1f293a;"/><path d="M19.952,15.79c0.408,-0.204 1.387,-0.449 1.877,-0.571c-0.041,-0.531 -0.123,-0.531 -0.449,-0.816c-0.368,-0.327 -0.327,-0.327 -0.857,-0.449c-0.245,0.49 -0.408,1.224 -0.571,1.836Z" style="fill:#1f293a;"/><path d="M43.208,9.67c0.775,0.081 0.979,0.408 1.836,0.408c-0.245,-0.49 -0.408,-1.224 -0.571,-1.836c-0.694,0.367 -1.224,0.571 -1.265,1.428Z" style="fill:#1f293a;"/><path d="M16.116,15.219c0.449,0.041 1.51,0.408 1.836,0.571c-0.04,-0.775 -0.408,-0.979 -0.408,-1.836c-0.816,0.041 -1.264,0.571 -1.428,1.265Z" style="fill:#1f293a;"/><path d="M45.493,13.097c0,0.653 0.163,0.857 0.408,1.265c1.02,-0.694 0.449,-2.407 0.163,-2.407c-0.53,0 -0.571,0.612 -0.571,1.142Z" style="fill:#1f293a;"/><path d="M18.524,14.362c0,0.857 -0.082,1.346 0.734,1.428c0.041,-0.286 0.286,-0.816 0.286,-0.979c0,-1.836 -1.02,-1.469 -1.02,-0.449Z" style="fill:#1f293a;"/><path d="M19.829,16.361c0,0.041 -0.285,0.694 0.979,0.694c0.653,0 1.184,-0.286 1.429,-0.694c-0.898,-0.612 -1.592,-0.204 -2.408,0Z" style="fill:#1f293a;"/><path d="M42.759,11.383c0.939,0.612 1.632,0.164 2.448,0c0,0 0.245,-0.775 -1.142,-0.693c-0.694,0.041 -0.938,0.163 -1.306,0.693Z" style="fill:#1f293a;"/><path d="M46.921,10.935c0,0.734 2.244,0.816 2.244,-0.286c-0.897,-0.408 -2.244,-0.122 -2.244,0.286Z" style="fill:#1f293a;"/><path d="M46.064,10.241c0.531,-0.408 0.408,-0.653 0.408,-1.55c0,-0.653 -0.163,-0.653 -0.571,-0.857c-0.408,0.775 -0.694,1.836 0.163,2.407Z" style="fill:#1f293a;"/><path d="M15.831,16.769c0,0.735 2.285,0.816 2.285,-0.245c-0.49,-0.285 -2.285,-0.244 -2.285,0.245Z" style="fill:#1f293a;"/><path d="M18.972,19.911c0.612,-0.449 0.612,-1.959 0,-2.407c-0.816,0.571 -0.612,1.958 0,2.407Z" style="fill:#1f293a;"/><path d="M34.028,8.976l0,0.816l0.326,0c0.123,-1.346 0.98,-0.653 1.592,-1.55c-0.653,0 -1.265,0.245 -1.877,0.285l-0.041,0.449Z" style="fill:#1f293a;"/><path d="M37.618,11.098l0.286,0c0.204,-0.775 0.367,-1.265 -0.286,-1.714c-0.326,0.694 -0.04,1.02 0,1.714Z" style="fill:#1f293a;"/><path d="M26.235,13.097c0,-0.898 0,-1.387 -0.694,-1.591c0,0.571 -0.04,0.653 0.123,1.02c0.163,0.367 0.163,0.449 0.571,0.571Z" style="fill:#1f293a;"/><path d="M32.233,14.525l0.408,0c0,-0.775 0.122,-0.53 -0.286,-0.775l-0.285,0.041c-0.123,0.367 -0.082,0.285 0.163,0.734Z" style="fill:#1f293a;"/><path d="M26.357,52.021c-0.326,0.531 -0.816,0.694 -1.305,0.694c-1.183,0 -1.877,-0.939 -1.877,-1.959c0,-1.06 0.694,-1.999 1.877,-1.999c0.489,0 1.02,0.327 1.183,0.612l0.408,-0.326c-0.408,-0.49 -1.02,-0.694 -1.591,-0.694c-1.347,0 -2.367,1.02 -2.367,2.407c0,1.388 1.02,2.408 2.367,2.408c0.775,0 1.387,-0.368 1.713,-0.857l-0.408,-0.286Zm4.081,-0.489c0,-0.939 -0.653,-1.592 -1.592,-1.592c-0.938,0 -1.632,0.653 -1.632,1.592c0,0.897 0.694,1.591 1.632,1.591c0.939,0 1.592,-0.694 1.592,-1.591Zm-0.449,0c0,0.652 -0.449,1.183 -1.143,1.183c-0.734,0 -1.142,-0.531 -1.142,-1.183c0,-0.694 0.408,-1.224 1.142,-1.224c0.694,0 1.143,0.53 1.143,1.224Zm1.183,-1.51c0.041,0.204 0.041,0.49 0.041,0.653l0,2.366l0.449,0l0,-1.55c0,-1.102 0.816,-1.183 0.897,-1.183c0.653,0 0.816,0.367 0.816,1.06l0,1.673l0.449,0l0,-1.917c0,-0.776 -0.367,-1.184 -1.142,-1.184c-0.408,0 -0.816,0.204 -1.02,0.531c0,-0.123 0,-0.286 -0.041,-0.449l-0.449,0Zm5.63,0.449c-0.204,-0.408 -0.571,-0.531 -1.02,-0.531c-0.571,0 -1.101,0.286 -1.101,0.898c0,0.571 0.571,0.734 0.775,0.816l0.408,0.082c0.326,0.081 0.571,0.163 0.571,0.489c0,0.327 -0.367,0.49 -0.693,0.49c-0.368,0 -0.653,-0.163 -0.816,-0.449l-0.368,0.245c0.286,0.449 0.694,0.612 1.184,0.612c0.571,0 1.183,-0.286 1.183,-0.939c0,-0.448 -0.327,-0.734 -0.775,-0.816l-0.408,-0.122c-0.408,-0.082 -0.612,-0.204 -0.612,-0.49c0,-0.326 0.326,-0.448 0.652,-0.448c0.286,0 0.49,0.163 0.653,0.408l0.367,-0.245Zm3.591,1.183l0,-0.204c0,-0.857 -0.53,-1.51 -1.469,-1.51c-0.857,0 -1.51,0.653 -1.51,1.592c0,0.897 0.653,1.591 1.551,1.591c0.53,0 0.979,-0.204 1.306,-0.653l-0.327,-0.286c-0.163,0.286 -0.489,0.531 -0.979,0.531c-0.571,0 -1.061,-0.49 -1.102,-1.061l2.53,0Zm-2.53,-0.367c0,-0.49 0.531,-0.979 1.061,-0.979c0.653,0 1.02,0.408 1.02,0.979l-2.081,0Zm3.836,-3.142l-0.449,0l0,4.896l0.449,0l0,-4.896Zm1.02,4.896l0.448,0l0,-1.55c0,-1.102 0.816,-1.183 0.898,-1.183c0.653,0 0.816,0.367 0.816,1.06l0,1.673l0.449,0l0,-1.917c0,-0.776 -0.367,-1.184 -1.143,-1.184c-0.408,0 -0.856,0.204 -1.02,0.531l0,-2.326l-0.448,0l0,4.896Zm6.65,-1.509c0,-0.939 -0.653,-1.592 -1.591,-1.592c-0.939,0 -1.632,0.653 -1.632,1.592c0,0.897 0.693,1.591 1.632,1.591c0.938,0 1.591,-0.694 1.591,-1.591Zm-0.449,0c0,0.652 -0.448,1.183 -1.142,1.183c-0.694,0 -1.143,-0.531 -1.143,-1.183c0,-0.694 0.449,-1.224 1.143,-1.224c0.694,0 1.142,0.53 1.142,1.224Zm3.672,-0.612l0.776,0l1.224,2.121l0.571,0l-1.306,-2.162c0.735,-0.082 1.183,-0.571 1.183,-1.224c0,-0.816 -0.571,-1.183 -1.509,-1.183l-1.428,0l0,4.569l0.489,0l0,-2.121Zm0,-2.04l0.816,0c0.816,0 1.102,0.367 1.102,0.775c0,0.449 -0.286,0.816 -1.102,0.816l-0.816,0l0,-1.591Zm6.039,2.774l0,-0.204c0,-0.857 -0.53,-1.51 -1.469,-1.51c-0.857,0 -1.51,0.653 -1.51,1.592c0,0.897 0.653,1.591 1.551,1.591c0.49,0 0.938,-0.204 1.306,-0.653l-0.327,-0.286c-0.163,0.286 -0.53,0.531 -0.979,0.531c-0.612,0 -1.061,-0.49 -1.102,-1.061l2.53,0Zm-2.53,-0.367c0,-0.49 0.49,-0.979 1.061,-0.979c0.612,0 0.979,0.408 0.979,0.979l-2.04,0Zm3.183,2.693c0.408,0.408 0.857,0.612 1.469,0.612c1.346,0 1.632,-0.939 1.632,-1.592l0,-2.978l-0.408,0l0,0.49l-0.041,0c-0.327,-0.49 -0.816,-0.572 -1.183,-0.572c-0.857,0 -1.51,0.653 -1.51,1.551c0,0.897 0.694,1.55 1.55,1.55c0.449,0 0.898,-0.163 1.143,-0.571l0.041,0l0,0.53c0,0.653 -0.327,1.184 -1.184,1.184c-0.489,0 -0.938,-0.204 -1.183,-0.531l-0.326,0.327Zm0.408,-2.489c0,-0.653 0.489,-1.183 1.142,-1.183c0.694,0 1.143,0.53 1.143,1.183c0,0.693 -0.531,1.142 -1.143,1.142c-0.653,0 -1.142,-0.53 -1.142,-1.142Zm4.161,-1.469l-0.408,0l0,3.019l0.408,0l0,-3.019Zm0.123,-1.183c0,-0.163 -0.163,-0.327 -0.327,-0.327c-0.163,0 -0.326,0.164 -0.326,0.327c0,0.163 0.163,0.326 0.326,0.326c0.164,0 0.327,-0.163 0.327,-0.326Zm3.998,2.693c0,-0.939 -0.693,-1.592 -1.632,-1.592c-0.938,0 -1.591,0.653 -1.591,1.592c0,0.897 0.653,1.591 1.591,1.591c0.939,0 1.632,-0.694 1.632,-1.591Zm-0.489,0c0,0.652 -0.449,1.183 -1.143,1.183c-0.693,0 -1.142,-0.531 -1.142,-1.183c0,-0.694 0.449,-1.224 1.142,-1.224c0.694,0 1.143,0.53 1.143,1.224Zm1.224,-1.51c0,0.204 0.041,0.49 0.041,0.653l0,2.366l0.408,0l0,-1.55c0,-1.102 0.816,-1.183 0.938,-1.183c0.612,0 0.816,0.367 0.816,1.06l0,1.673l0.408,0l0,-1.917c0,-0.776 -0.367,-1.184 -1.142,-1.184c-0.408,0 -0.816,0.204 -1.02,0.531c0,-0.123 0,-0.286 0,-0.449l-0.449,0Zm5.345,1.142c-0.735,0 -1.877,0.082 -1.877,1.061c0,0.571 0.489,0.898 1.02,0.898c0.489,0 0.857,-0.163 1.102,-0.571c0,0.163 0,0.326 0.04,0.489l0.408,0c-0.04,-0.163 -0.04,-0.449 -0.04,-0.693l0,-1.347c0,-0.734 -0.531,-1.061 -1.102,-1.061c-0.571,0 -1.02,0.123 -1.306,0.408l0.286,0.327c0.245,-0.245 0.571,-0.367 0.897,-0.367c0.531,0 0.776,0.285 0.776,0.775l0,0.081l-0.204,0Zm0.204,0.368l0,0.204c0,0.53 -0.286,0.979 -0.898,0.979c-0.367,0 -0.734,-0.163 -0.734,-0.531c0,-0.612 0.979,-0.652 1.428,-0.652l0.204,0Zm1.958,-3.387l-0.449,0l0,4.896l0.449,0l0,-4.896Zm5.835,0l-0.408,0l0,2.367l-0.041,0c-0.245,-0.408 -0.775,-0.572 -1.143,-0.572c-0.979,0 -1.632,0.653 -1.632,1.592c0,0.897 0.653,1.591 1.632,1.591c0.368,0 0.898,-0.204 1.143,-0.612l0.041,0l0,0.53l0.408,0l0,-4.896Zm-2.775,3.387c0,-0.694 0.449,-1.224 1.183,-1.224c0.694,0 1.184,0.53 1.184,1.224c0,0.652 -0.49,1.183 -1.184,1.183c-0.734,0 -1.183,-0.531 -1.183,-1.183Zm6.528,0.122l0,-0.204c0,-0.857 -0.53,-1.51 -1.428,-1.51c-0.856,0 -1.55,0.653 -1.55,1.592c0,0.897 0.694,1.591 1.591,1.591c0.49,0 0.939,-0.204 1.265,-0.653l-0.326,-0.286c-0.164,0.286 -0.49,0.531 -0.939,0.531c-0.612,0 -1.061,-0.49 -1.142,-1.061l2.529,0Zm-2.488,-0.367c0,-0.49 0.489,-0.979 1.06,-0.979c0.612,0 0.98,0.408 0.98,0.979l-2.04,0Zm5.712,-0.408l2.121,0l0,-0.449l-2.121,0l0,-1.55l2.285,0l0,-0.408l-2.775,0l0,4.569l0.49,0l0,-2.162Zm4.692,0.285c-0.735,0 -1.877,0.082 -1.877,1.061c0,0.571 0.49,0.898 1.02,0.898c0.49,0 0.816,-0.163 1.061,-0.571l0.041,0c0,0.163 0,0.326 0.04,0.489l0.408,0c-0.04,-0.163 -0.081,-0.449 -0.081,-0.693l0,-1.347c0,-0.734 -0.49,-1.061 -1.102,-1.061c-0.571,0 -0.979,0.123 -1.265,0.408l0.245,0.327c0.286,-0.245 0.571,-0.367 0.939,-0.367c0.53,0 0.775,0.285 0.775,0.775l0,0.081l-0.204,0Zm0.204,0.368l0,0.204c0,0.53 -0.286,0.979 -0.898,0.979c-0.367,0 -0.734,-0.163 -0.734,-0.531c0,-0.612 0.979,-0.652 1.428,-0.652l0.204,0Zm1.469,1.509l0.408,0l0,-1.713c0,-0.408 0.285,-0.98 0.938,-0.98c0.122,0 0.204,0 0.245,0.041l0.081,-0.408c-0.081,-0.041 -0.163,-0.041 -0.285,-0.041c-0.531,0 -0.857,0.286 -0.979,0.612l0,-0.53l-0.449,0c0.041,0.408 0.041,0.653 0.041,0.938l0,2.081Zm2.203,0l0.449,0l0,-1.55c0,-1.102 0.734,-1.183 0.856,-1.183c0.572,0 0.735,0.326 0.735,0.938l0,1.795l0.449,0l0,-1.632c0,-0.53 0.204,-1.101 0.857,-1.101c0.571,0 0.734,0.326 0.734,0.938l0,1.795l0.449,0l0,-1.917c0,-0.776 -0.367,-1.184 -1.143,-1.184c-0.408,0 -0.816,0.245 -0.979,0.612c-0.204,-0.53 -0.653,-0.612 -0.979,-0.612c-0.367,0 -0.775,0.164 -0.979,0.531l0,-0.449l-0.49,0c0.041,0.204 0.041,0.449 0.041,0.653l0,2.366Zm7.262,-1.877c-0.734,0 -1.876,0.082 -1.876,1.061c0,0.571 0.489,0.898 1.02,0.898c0.489,0 0.816,-0.163 1.06,-0.571l0.041,0c0,0.163 0,0.326 0.041,0.489l0.408,0c-0.041,-0.163 -0.082,-0.449 -0.082,-0.693l0,-1.347c0,-0.734 -0.489,-1.061 -1.101,-1.061c-0.571,0 -0.979,0.123 -1.265,0.408l0.245,0.327c0.285,-0.245 0.571,-0.367 0.938,-0.367c0.531,0 0.775,0.285 0.775,0.775l0,0.081l-0.204,0Zm0.204,0.368l0,0.204c0,0.53 -0.285,0.979 -0.938,0.979c-0.326,0 -0.694,-0.163 -0.694,-0.531c0,-0.612 0.98,-0.652 1.428,-0.652l0.204,0Zm0.123,-3.06l-0.612,0l-0.653,0.897l0.408,0l0.857,-0.897Zm3.835,1.999c-0.285,-0.367 -0.694,-0.531 -1.102,-0.531c-0.979,-0.04 -1.591,0.653 -1.591,1.592c0,0.897 0.612,1.591 1.591,1.591c0.408,0 0.817,-0.204 1.102,-0.531l-0.326,-0.285c-0.164,0.245 -0.449,0.408 -0.776,0.408c-0.693,0 -1.142,-0.49 -1.142,-1.183c0,-0.694 0.449,-1.224 1.142,-1.224c0.327,0 0.612,0.204 0.776,0.408l0.326,-0.245Zm1.102,-0.449l-0.449,0l0,3.019l0.449,0l0,-3.019Zm0.081,-1.183c0,-0.163 -0.122,-0.327 -0.285,-0.327c-0.163,0 -0.327,0.164 -0.327,0.327c0,0.163 0.164,0.326 0.327,0.326c0.163,0 0.285,-0.163 0.285,-0.326Zm2.652,2.325c-0.693,0 -1.876,0.082 -1.876,1.061c0,0.571 0.53,0.898 1.06,0.898c0.49,0 0.816,-0.163 1.061,-0.571c0,0.163 0.041,0.326 0.041,0.489l0.408,0c0,-0.163 -0.041,-0.449 -0.041,-0.693l0,-1.347c0,-0.734 -0.489,-1.061 -1.101,-1.061c-0.572,0 -1.02,0.123 -1.265,0.408l0.245,0.327c0.244,-0.245 0.571,-0.367 0.938,-0.367c0.53,0 0.775,0.285 0.775,0.775l0,0.081l-0.245,0Zm0.245,0.368l0,0.204c0,0.53 -0.326,0.979 -0.938,0.979c-0.327,0 -0.694,-0.163 -0.694,-0.531c0,-0.612 0.979,-0.652 1.387,-0.652l0.245,0Zm6.243,-3.387l-0.449,0l0,2.367c-0.286,-0.408 -0.775,-0.572 -1.183,-0.572c-0.939,0 -1.632,0.653 -1.632,1.592c0,0.897 0.693,1.591 1.632,1.591c0.408,0 0.897,-0.204 1.183,-0.612l0,0.53l0.449,0l0,-4.896Zm-2.775,3.387c0,-0.694 0.449,-1.224 1.143,-1.224c0.693,0 1.224,0.53 1.224,1.224c0,0.652 -0.531,1.183 -1.224,1.183c-0.694,0 -1.143,-0.531 -1.143,-1.183Zm6.732,0c0,-0.939 -0.652,-1.592 -1.591,-1.592c-0.938,0 -1.591,0.653 -1.591,1.592c0,0.897 0.653,1.591 1.591,1.591c0.939,0 1.591,-0.694 1.591,-1.591Zm-0.448,0c0,0.652 -0.449,1.183 -1.143,1.183c-0.693,0 -1.142,-0.531 -1.142,-1.183c0,-0.694 0.449,-1.224 1.142,-1.224c0.694,0 1.143,0.53 1.143,1.224Zm6.569,0.489c-0.327,0.531 -0.816,0.694 -1.306,0.694c-1.183,0 -1.877,-0.939 -1.877,-1.959c0,-1.06 0.694,-1.999 1.877,-1.999c0.49,0 1.02,0.327 1.183,0.612l0.408,-0.326c-0.408,-0.49 -1.02,-0.694 -1.591,-0.694c-1.346,0 -2.367,1.02 -2.367,2.407c0,1.388 1.021,2.408 2.367,2.408c0.775,0 1.387,-0.368 1.714,-0.857l-0.408,-0.286Zm3.835,-0.367l0,-0.204c0,-0.857 -0.531,-1.51 -1.428,-1.51c-0.857,0 -1.551,0.653 -1.551,1.592c0,0.897 0.694,1.591 1.592,1.591c0.489,0 0.938,-0.204 1.305,-0.653l-0.326,-0.286c-0.204,0.286 -0.531,0.531 -0.979,0.531c-0.612,0 -1.061,-0.49 -1.143,-1.061l2.53,0Zm-2.489,-0.367c0,-0.49 0.49,-0.979 1.061,-0.979c0.612,0 0.979,0.408 0.979,0.979l-2.04,0Zm5.019,-0.123c-0.735,0 -1.877,0.082 -1.877,1.061c0,0.571 0.489,0.898 1.02,0.898c0.489,0 0.816,-0.163 1.061,-0.571l0.04,0c0,0.163 0,0.326 0.041,0.489l0.408,0c-0.041,-0.163 -0.081,-0.449 -0.081,-0.693l0,-1.347c0,-0.734 -0.49,-1.061 -1.102,-1.061c-0.571,0 -0.979,0.123 -1.265,0.408l0.245,0.327c0.285,-0.245 0.571,-0.367 0.938,-0.367c0.531,0 0.776,0.285 0.776,0.775l0,0.081l-0.204,0Zm0.204,0.368l0,0.204c0,0.53 -0.286,0.979 -0.939,0.979c-0.326,0 -0.694,-0.163 -0.694,-0.531c0,-0.612 0.98,-0.652 1.429,-0.652l0.204,0Zm1.468,1.509l0.408,0l0,-1.713c0,-0.408 0.286,-0.98 0.939,-0.98c0.122,0 0.204,0 0.245,0.041l0.081,-0.408c-0.081,-0.041 -0.163,-0.041 -0.285,-0.041c-0.531,0 -0.857,0.286 -0.98,0.612l-0.04,0l0,-0.53l-0.408,0c0,0.408 0.04,0.653 0.04,0.938l0,2.081Zm3.836,-1.877c-0.735,0 -1.918,0.082 -1.918,1.061c0,0.571 0.53,0.898 1.061,0.898c0.489,0 0.816,-0.163 1.061,-0.571l0.04,0c0,0.163 0,0.326 0,0.489l0.449,0c-0.041,-0.163 -0.081,-0.449 -0.081,-0.693l0,-1.347c0,-0.734 -0.49,-1.061 -1.102,-1.061c-0.571,0 -0.979,0.123 -1.265,0.408l0.245,0.327c0.286,-0.245 0.571,-0.367 0.938,-0.367c0.531,0 0.776,0.285 0.776,0.775l0,0.081l-0.204,0Zm0.204,0.368l0,0.204c0,0.53 -0.286,0.979 -0.939,0.979c-0.326,0 -0.693,-0.163 -0.693,-0.531c0,-0.612 0.979,-0.652 1.387,-0.652l0.245,0Zm0.122,-3.06l-0.612,0l-0.653,0.897l0.408,0l0.857,-0.897Z" style="fill:#1f293a;fill-rule:nonzero;stroke:#fefefe;stroke-width:0.33px;"/></g></svg>