<?xml version="1.0" encoding="UTF-8" standalone="no"?><!DOCTYPE svg PUBLIC "-//W3C//DTD SVG 1.1//EN" "http://www.w3.org/Graphics/SVG/1.1/DTD/svg11.dtd"><svg width="100%" height="100%" viewBox="0 0 104 59" version="1.1" xmlns="http://www.w3.org/2000/svg" xmlns:xlink="http://www.w3.org/1999/xlink" xml:space="preserve" xmlns:serif="http://www.serif.com/" style="fill-rule:evenodd;clip-rule:evenodd;stroke-linejoin:round;stroke-miterlimit:1.41421;"><g><path d="M81.683,42.351l14.118,-0.122l8.16,-42.229l-2.203,11.424l-13.628,0l2.611,-11.424l-33.416,0c-12.648,0 -21.298,25.133 -4.284,25.133c3.876,0 7.793,0 11.669,0c3.999,0 3.672,6.243 -3.386,6.243c-11.261,0 -22.522,0 -33.783,0c-9.017,0 -6.569,-19.829 1.917,-19.829c3.509,0 7.018,0 10.486,0c0.775,-6.202 3.672,-9.507 7.507,-11.547c-6.854,0 -13.709,0 -20.563,0c-18.524,0 -30.03,41.984 0,41.984c13.913,0.041 27.867,0.082 41.821,0.123c14.035,-3.754 13.995,-25.134 4.406,-25.134c-3.713,0 -7.425,0 -11.138,0c-4.733,0 -6.447,-1.673 -5.998,-3.182c0.408,-1.347 2.57,-2.571 5.998,-2.367l26.031,0c-2.122,10.282 -4.203,20.605 -6.325,30.927Z" style="fill:#1f293a;"/><path d="M101.758,11.424l2.203,-11.424l-13.22,0l-2.611,11.424l13.628,0Z" style="fill:#1f293a;"/><path d="M3.468,46.431l91.313,0l-2.489,12.526l-92.292,0l3.468,-12.526Zm6.977,9.997l1.142,-6.61l1.102,0l-0.938,5.508l2.774,0l-0.204,1.102l-3.876,0Zm9.507,-2.612c0,-0.571 0.081,-1.142 0.285,-1.754c0.245,-0.775 0.612,-1.346 1.061,-1.754c0.49,-0.408 1.061,-0.612 1.673,-0.612c0.653,0 1.183,0.244 1.632,0.734c0.408,0.49 0.612,1.183 0.612,2.04c0,0.775 -0.163,1.469 -0.449,2.122c-0.285,0.693 -0.693,1.142 -1.142,1.468c-0.449,0.327 -0.939,0.449 -1.469,0.449c-0.653,0 -1.143,-0.204 -1.51,-0.653c-0.489,-0.53 -0.693,-1.224 -0.693,-2.04Zm1.101,-0.04c0,0.489 0.123,0.897 0.367,1.183c0.245,0.285 0.531,0.449 0.857,0.449c0.286,0 0.572,-0.123 0.816,-0.327c0.286,-0.245 0.531,-0.571 0.694,-1.061c0.204,-0.53 0.326,-1.02 0.326,-1.509c0,-0.531 -0.122,-0.979 -0.367,-1.265c-0.245,-0.286 -0.489,-0.408 -0.857,-0.408c-0.285,0 -0.571,0.122 -0.856,0.326c-0.245,0.204 -0.49,0.572 -0.694,1.061c-0.163,0.49 -0.286,1.02 -0.286,1.551Zm12.934,0.244l1.102,0.204c-0.204,0.776 -0.571,1.347 -0.979,1.755c-0.449,0.367 -0.98,0.53 -1.551,0.53c-0.653,0 -1.142,-0.204 -1.55,-0.693c-0.367,-0.49 -0.571,-1.184 -0.571,-2.122c0,-0.816 0.163,-1.55 0.408,-2.162c0.285,-0.612 0.652,-1.102 1.06,-1.388c0.449,-0.285 0.898,-0.448 1.388,-0.448c0.571,0 1.06,0.204 1.428,0.571c0.367,0.367 0.571,0.897 0.652,1.591l-1.06,0.122c-0.041,-0.408 -0.164,-0.693 -0.368,-0.856c-0.163,-0.164 -0.367,-0.245 -0.652,-0.245c-0.286,0 -0.572,0.081 -0.816,0.285c-0.245,0.204 -0.49,0.531 -0.653,1.02c-0.204,0.49 -0.286,0.98 -0.286,1.551c0,0.53 0.123,0.938 0.327,1.224c0.204,0.285 0.448,0.449 0.775,0.449c0.285,0 0.53,-0.123 0.775,-0.368c0.245,-0.204 0.449,-0.53 0.571,-1.02Zm9.629,0.939l-2.162,0l-0.653,1.469l-1.142,0l3.06,-6.61l1.264,0l0.857,6.61l-1.061,0l-0.163,-1.469Zm-0.122,-1.102l-0.327,-2.652l-1.224,2.652l1.551,0Zm10.526,0.163l1.102,0.204c-0.204,0.776 -0.53,1.347 -0.979,1.755c-0.449,0.367 -0.979,0.53 -1.551,0.53c-0.652,0 -1.142,-0.204 -1.55,-0.693c-0.367,-0.49 -0.571,-1.184 -0.571,-2.122c0,-0.816 0.163,-1.55 0.449,-2.162c0.244,-0.612 0.612,-1.102 1.02,-1.388c0.448,-0.285 0.897,-0.448 1.428,-0.448c0.53,0 1.02,0.204 1.387,0.571c0.367,0.367 0.612,0.897 0.653,1.591l-1.061,0.122c-0.041,-0.408 -0.163,-0.693 -0.327,-0.856c-0.204,-0.164 -0.408,-0.245 -0.693,-0.245c-0.286,0 -0.531,0.081 -0.816,0.285c-0.245,0.204 -0.449,0.531 -0.653,1.02c-0.163,0.49 -0.286,0.98 -0.286,1.551c0,0.53 0.123,0.938 0.327,1.224c0.204,0.285 0.489,0.449 0.775,0.449c0.286,0 0.53,-0.123 0.775,-0.368c0.245,-0.204 0.449,-0.53 0.571,-1.02Zm-2.611,4.285l0.204,-0.531l0.204,0c0.245,0 0.449,-0.041 0.694,-0.122c0.163,-0.082 0.204,-0.204 0.204,-0.327c0,-0.122 0,-0.163 -0.082,-0.244c-0.081,-0.041 -0.204,-0.082 -0.326,-0.082c-0.082,0 -0.204,0 -0.327,0.041l0.123,-0.449c0.163,-0.041 0.326,-0.082 0.489,-0.082c0.245,0 0.449,0.082 0.572,0.204c0.163,0.123 0.244,0.327 0.244,0.531c0,0.285 -0.163,0.53 -0.448,0.734c-0.245,0.245 -0.653,0.327 -1.184,0.327c-0.163,0 -0.244,0 -0.367,0Zm9.058,-4.489c0,-0.571 0.082,-1.142 0.286,-1.754c0.244,-0.775 0.571,-1.346 1.06,-1.754c0.49,-0.408 1.02,-0.612 1.673,-0.612c0.653,0 1.183,0.244 1.591,0.734c0.449,0.49 0.653,1.183 0.653,2.04c0,0.775 -0.163,1.469 -0.448,2.122c-0.327,0.693 -0.694,1.142 -1.143,1.468c-0.449,0.327 -0.938,0.449 -1.469,0.449c-0.653,0 -1.142,-0.204 -1.55,-0.653c-0.449,-0.53 -0.653,-1.224 -0.653,-2.04Zm1.102,-0.04c0,0.489 0.122,0.897 0.367,1.183c0.245,0.285 0.53,0.449 0.857,0.449c0.285,0 0.53,-0.123 0.816,-0.327c0.285,-0.245 0.489,-0.571 0.693,-1.061c0.204,-0.53 0.286,-1.02 0.286,-1.509c0,-0.531 -0.123,-0.979 -0.367,-1.265c-0.204,-0.286 -0.49,-0.408 -0.816,-0.408c-0.286,0 -0.572,0.122 -0.857,0.326c-0.245,0.204 -0.49,0.572 -0.694,1.061c-0.204,0.49 -0.285,1.02 -0.285,1.551Zm1.509,-4.488l-0.449,0c0.041,-0.449 0.164,-0.735 0.286,-0.898c0.122,-0.122 0.245,-0.204 0.408,-0.204c0.163,0 0.367,0.082 0.694,0.204c0.204,0.082 0.326,0.122 0.408,0.122c0.081,0 0.122,0 0.163,-0.04c0.041,-0.041 0.081,-0.164 0.081,-0.286l0.49,0c-0.041,0.367 -0.122,0.653 -0.286,0.816c-0.122,0.163 -0.285,0.245 -0.448,0.245c-0.123,0 -0.286,-0.041 -0.531,-0.163c-0.245,-0.123 -0.408,-0.164 -0.489,-0.164c-0.164,0 -0.245,0.123 -0.327,0.368Zm7.467,7.14l1.142,-6.61l4.04,0l-0.204,1.102l-2.897,0l-0.245,1.509l2.774,0l-0.163,1.102l-2.815,0l-0.327,1.795l3.142,0l-0.204,1.102l-4.243,0Zm9.751,-2.163l1.102,-0.041c0,0.327 0.041,0.572 0.122,0.735c0.041,0.122 0.163,0.245 0.286,0.326c0.163,0.082 0.367,0.123 0.653,0.123c0.326,0 0.571,-0.082 0.775,-0.245c0.163,-0.163 0.245,-0.327 0.245,-0.571c0,-0.204 -0.041,-0.327 -0.163,-0.449c-0.082,-0.123 -0.327,-0.286 -0.735,-0.531c-0.53,-0.244 -0.898,-0.489 -1.061,-0.652c-0.163,-0.123 -0.326,-0.327 -0.408,-0.572c-0.081,-0.204 -0.122,-0.448 -0.122,-0.734c0,-0.612 0.163,-1.061 0.489,-1.428c0.368,-0.367 0.816,-0.53 1.429,-0.53c0.612,0 1.101,0.163 1.428,0.53c0.367,0.326 0.571,0.857 0.612,1.469l-1.061,0.041c-0.041,-0.653 -0.367,-0.98 -0.979,-0.98c-0.286,0 -0.531,0.082 -0.653,0.204c-0.164,0.123 -0.204,0.286 -0.204,0.531c0,0.163 0.04,0.326 0.204,0.449c0.122,0.163 0.367,0.326 0.775,0.53c0.53,0.286 0.857,0.49 1.02,0.612c0.163,0.163 0.326,0.367 0.408,0.571c0.082,0.245 0.122,0.49 0.122,0.735c0,0.652 -0.204,1.142 -0.571,1.55c-0.408,0.408 -0.938,0.571 -1.55,0.571c-0.49,0 -0.939,-0.081 -1.265,-0.285c-0.327,-0.204 -0.571,-0.49 -0.694,-0.816c-0.122,-0.368 -0.204,-0.735 -0.204,-1.143Z" style="fill:#1f293a;"/><path d="M100.982,10.649l1.877,-9.874l-11.383,0l-2.285,9.874l11.791,0Z" style="fill:#1f293a;"/></g></svg>