<?xml version="1.0" encoding="UTF-8" standalone="no"?><!DOCTYPE svg PUBLIC "-//W3C//DTD SVG 1.1//EN" "http://www.w3.org/Graphics/SVG/1.1/DTD/svg11.dtd"><svg width="100%" height="100%" viewBox="0 0 176 39" version="1.1" xmlns="http://www.w3.org/2000/svg" xmlns:xlink="http://www.w3.org/1999/xlink" xml:space="preserve" xmlns:serif="http://www.serif.com/" style="fill-rule:evenodd;clip-rule:evenodd;stroke-linejoin:round;stroke-miterlimit:1.41421;"><g><path d="M37.782,16.606c0.122,0.898 0.163,1.795 0.163,2.693c0,1.387 -0.123,2.774 -0.408,4.08c4.733,-0.979 8.323,-5.182 8.323,-10.2c0,-1.184 -0.204,-2.326 -0.571,-3.387c-1.142,3.387 -3.998,5.998 -7.507,6.814Z" style="fill:#1f293a;fill-rule:nonzero;"/><path d="M37.537,23.379c0.285,-1.306 0.408,-2.693 0.408,-4.08c0,-0.898 -0.041,-1.795 -0.163,-2.693c3.509,-0.816 6.365,-3.427 7.507,-6.814c0.367,1.061 0.571,2.203 0.571,3.387c0,5.018 -3.59,9.221 -8.323,10.2Z" style="fill:#1f293a;fill-rule:nonzero;"/><path d="M38.638,19.34c0,10.649 -8.649,19.298 -19.298,19.298c-10.69,0 -19.34,-8.649 -19.34,-19.298c0,-10.69 8.65,-19.34 19.34,-19.34c3.998,0 7.752,1.224 10.812,3.346c-0.49,0.163 -0.979,0.367 -1.469,0.612c-0.938,0.489 -2.244,1.346 -2.815,2.325l-0.163,0.204l0,8.895c-0.612,-0.286 -1.102,-0.612 -1.306,-1.02c-0.53,-0.979 -1.469,-1.142 -2.489,-2.081c-1.02,-0.938 -1.387,-0.775 -1.918,-1.02c-0.489,-0.245 -2.448,-0.245 -3.223,-0.286c0,0 -0.571,-1.02 -1.591,0c-1.02,1.02 -0.694,0.816 -1.02,1.02c-0.286,0.204 -1.265,-0.489 -1.714,-0.489c-0.449,0 -0.53,-1.224 -0.53,-1.469c0,-0.286 -0.286,0 -0.612,0c-0.286,-0.041 -1.183,-0.367 -0.49,-0.979c0.653,-0.571 -0.041,-1.102 -0.245,-0.694c-0.244,0.408 -0.571,0.694 -0.816,0.735c-0.244,0.081 -2.611,0.244 -0.571,-1.347c1.999,-1.55 2.571,-1.673 2.571,-1.673c0,0 0.571,-0.367 0.816,0c0.204,0.368 0.53,0.082 0.53,0.694c0,0.571 0.327,1.306 0.571,0.326c0.245,-0.979 0.776,-2.04 1.469,-2.203c0.735,-0.163 2.122,-0.938 2.856,-1.102c0.694,-0.163 1.591,-0.448 2.489,-0.489c0.857,-0.041 1.551,-1.428 -1.836,-1.102c-3.386,0.327 -7.63,1.102 -12.159,5.264c0,0 0.041,0.326 0,0.775c-0.04,0.408 -0.244,0.326 -0.285,0.816c-0.041,0.53 -0.163,0.612 0.408,0.734c0.53,0.123 0.245,0.408 0.653,0.694c0.408,0.245 1.917,-0.286 2.856,0.163c0.979,0.408 1.713,1.51 2.937,1.55c1.224,0.041 1.061,0.694 0.612,1.469c-0.408,0.776 -2.57,1.796 0,5.182c2.571,3.427 1.388,1.02 2.326,2.122c0.938,1.101 0.204,3.794 0.245,5.753c0.041,1.917 0.122,2.407 -0.163,2.692c-0.286,0.286 -0.408,2.285 0.326,3.142c0.775,0.898 0.775,0.816 1.346,0.898c0.612,0.081 0.776,0 0.776,0c0,0 -0.408,-3.183 0.204,-3.55c1.876,-1.102 5.385,-4.406 6.201,-5.794c0.857,-1.346 1.224,-0.734 2.04,-2.407c0.531,-1.183 0.245,-1.836 0.98,-2.04c0.571,-0.163 1.305,-1.591 0.693,-2.57c2.448,-2.285 5.468,-3.876 8.772,-4.57c0.776,2.122 1.224,4.406 1.224,6.814Z" style="fill:#1f293a;fill-rule:nonzero;"/><path d="M69.158,29.825c-0.98,0.49 -3.387,1.102 -6.406,1.102c-8.691,0 -13.179,-5.467 -13.179,-12.689c0,-8.609 6.12,-13.383 13.75,-13.383c2.938,0 5.182,0.572 6.202,1.143l-1.224,4.488c-1.102,-0.49 -2.693,-0.939 -4.774,-0.939c-4.488,0 -7.956,2.734 -7.956,8.365c0,5.059 2.978,8.241 7.997,8.241c1.754,0 3.631,-0.326 4.774,-0.816l0.816,4.488Z" style="fill:#1f293a;fill-rule:nonzero;"/><path d="M72.87,24.685c1.51,0.816 3.877,1.591 6.325,1.591c2.611,0 3.998,-1.102 3.998,-2.734c0,-1.591 -1.183,-2.489 -4.243,-3.55c-4.162,-1.509 -6.936,-3.835 -6.936,-7.548c0,-4.325 3.631,-7.589 9.547,-7.589c2.856,0 4.896,0.572 6.406,1.265l-1.265,4.611c-0.979,-0.49 -2.815,-1.224 -5.223,-1.224c-2.488,0 -3.672,1.183 -3.672,2.448c0,1.632 1.388,2.325 4.652,3.59c4.447,1.673 6.528,3.999 6.528,7.589c0,4.243 -3.223,7.834 -10.119,7.834c-2.897,0 -5.712,-0.775 -7.14,-1.551l1.142,-4.732Z" style="fill:#1f293a;fill-rule:nonzero;"/><path d="M107.429,7.548c-1.673,-1.305 -4.162,-1.999 -7.589,-1.999c-3.427,0 -5.875,0.245 -7.589,0.53l0,24.481l5.549,0l0,-20.523c0.408,-0.122 1.183,-0.204 2.285,-0.204c2.815,0 4.406,1.387 4.406,3.631c0,2.53 -1.836,4.04 -4.814,4.04c-0.082,0 -0.164,0 -0.245,0l0,4.284c0.081,0 0.163,0 0.285,0c3.305,0 6.161,-0.816 8.079,-2.612c1.51,-1.346 2.285,-3.427 2.285,-5.875c0,-2.448 -1.061,-4.488 -2.652,-5.753Z" style="fill:#1f293a;fill-rule:nonzero;"/><path d="M38.761,3.509c-9.588,-0.857 -12.118,3.264 -12.118,3.264l0,11.057c3.101,-3.55 7.426,-5.916 12.322,-6.487c0.49,-0.041 1.061,-0.082 1.55,-0.082c0.898,0 1.673,0.163 2.285,0.449c1.265,0.489 2.326,1.387 3.019,2.53c0.082,-0.612 0.164,-1.429 0.164,-2.367l0,-0.082c0,-3.264 -1.143,-7.752 -7.222,-8.282Zm2.122,7.752c0.04,0 0.081,0 0.081,0c0,0 -0.041,0 -0.081,0Z" style="fill:#1f293a;fill-rule:nonzero;"/><path d="M126.442,10.853c-0.367,0.163 -1.102,0.367 -2.04,0.367c-2.244,0 -3.917,-1.387 -3.917,-3.998c0,-2.448 1.673,-4.121 4.121,-4.121c0.979,0 1.591,0.204 1.877,0.367l-0.245,0.816c-0.408,-0.163 -0.938,-0.326 -1.591,-0.326c-1.836,0 -3.06,1.183 -3.06,3.264c0,1.917 1.101,3.141 3.019,3.141c0.612,0 1.224,-0.122 1.632,-0.326l0.204,0.816Z" style="fill:#1f293a;fill-rule:nonzero;"/><path d="M132.685,8.242c0,2.081 -1.469,2.978 -2.816,2.978c-1.55,0 -2.733,-1.101 -2.733,-2.897c0,-1.876 1.265,-2.978 2.815,-2.978c1.632,0 2.734,1.142 2.734,2.897Zm-4.488,0.041c0,1.224 0.693,2.162 1.713,2.162c0.979,0 1.714,-0.898 1.714,-2.162c0,-0.98 -0.49,-2.204 -1.714,-2.204c-1.183,0 -1.713,1.143 -1.713,2.204Z" style="fill:#1f293a;fill-rule:nonzero;"/><path d="M133.949,6.977c0,-0.571 0,-1.061 -0.04,-1.51l0.897,0l0.041,0.898l0.041,0c0.326,-0.53 0.857,-1.02 1.754,-1.02c0.776,0 1.388,0.449 1.632,1.102c0.164,-0.286 0.408,-0.531 0.653,-0.735c0.327,-0.245 0.694,-0.367 1.224,-0.367c0.735,0 1.877,0.49 1.877,2.448l0,3.305l-1.02,0l0,-3.183c0,-1.101 -0.408,-1.754 -1.224,-1.754c-0.571,0 -1.02,0.449 -1.224,0.938c-0.041,0.123 -0.082,0.327 -0.082,0.531l0,3.468l-0.979,0l0,-3.387c0,-0.897 -0.408,-1.55 -1.183,-1.55c-0.653,0 -1.102,0.53 -1.265,1.02c-0.081,0.163 -0.081,0.326 -0.081,0.53l0,3.387l-1.021,0l0,-4.121Z" style="fill:#1f293a;fill-rule:nonzero;"/><path d="M143.66,7.303c0,-0.734 0,-1.305 -0.041,-1.836l0.939,0l0.041,0.939c0.448,-0.653 1.101,-1.061 1.999,-1.061c1.387,0 2.407,1.142 2.407,2.856c0,2.04 -1.224,3.019 -2.57,3.019c-0.735,0 -1.388,-0.326 -1.714,-0.897l-0.041,0l0,3.101l-1.02,0l0,-6.121Zm1.02,1.51c0,0.122 0.041,0.286 0.041,0.408c0.204,0.694 0.816,1.183 1.55,1.183c1.061,0 1.714,-0.857 1.714,-2.162c0,-1.143 -0.612,-2.081 -1.673,-2.081c-0.693,0 -1.346,0.49 -1.55,1.265c-0.041,0.122 -0.082,0.285 -0.082,0.408l0,0.979Z" style="fill:#1f293a;fill-rule:nonzero;"/><path d="M153.412,11.098l-0.082,-0.694l-0.041,0c-0.285,0.408 -0.897,0.816 -1.714,0.816c-1.142,0 -1.713,-0.816 -1.713,-1.632c0,-1.346 1.183,-2.081 3.386,-2.081l0,-0.122c0,-0.449 -0.122,-1.306 -1.305,-1.306c-0.531,0 -1.061,0.164 -1.469,0.408l-0.204,-0.652c0.449,-0.327 1.142,-0.49 1.836,-0.49c1.714,0 2.162,1.142 2.162,2.285l0,2.121c0,0.49 0,0.98 0.082,1.347l-0.938,0Zm-0.164,-2.897c-1.101,0 -2.366,0.204 -2.366,1.306c0,0.652 0.449,0.979 0.979,0.979c0.735,0 1.183,-0.49 1.347,-0.979c0.04,-0.082 0.04,-0.204 0.04,-0.327l0,-0.979Z" style="fill:#1f293a;fill-rule:nonzero;"/><path d="M155.9,6.977c0,-0.571 0,-1.061 -0.04,-1.51l0.897,0l0.082,0.939c0.285,-0.571 0.938,-1.061 1.877,-1.061c0.775,0 1.999,0.449 1.999,2.366l0,3.387l-1.02,0l0,-3.264c0,-0.898 -0.367,-1.673 -1.306,-1.673c-0.693,0 -1.224,0.49 -1.387,1.061c-0.041,0.122 -0.082,0.326 -0.082,0.489l0,3.387l-1.02,0l0,-4.121Z" style="fill:#1f293a;fill-rule:nonzero;"/><path d="M162.347,2.815l1.061,0l0,3.509c0.163,-0.285 0.408,-0.53 0.734,-0.693c0.327,-0.204 0.653,-0.286 1.061,-0.286c0.734,0 1.958,0.449 1.958,2.407l0,3.346l-1.02,0l0,-3.223c0,-0.939 -0.326,-1.714 -1.305,-1.714c-0.653,0 -1.183,0.49 -1.387,1.061c-0.041,0.122 -0.041,0.285 -0.041,0.489l0,3.387l-1.061,0l0,-8.283Z" style="fill:#1f293a;fill-rule:nonzero;"/><path d="M169.977,3.876c0,0.326 -0.245,0.612 -0.653,0.612c-0.367,0 -0.612,-0.286 -0.612,-0.612c0,-0.367 0.245,-0.653 0.612,-0.653c0.408,0 0.653,0.286 0.653,0.653Zm-1.143,1.591l1.02,0l0,5.631l-1.02,0l0,-5.631Z" style="fill:#1f293a;fill-rule:nonzero;"/><path d="M174.669,11.098l-0.082,-0.694l-0.041,0c-0.285,0.408 -0.897,0.816 -1.713,0.816c-1.143,0 -1.714,-0.816 -1.714,-1.632c0,-1.346 1.183,-2.081 3.387,-2.081l0,-0.122c0,-0.449 -0.123,-1.306 -1.306,-1.306c-0.49,0 -1.061,0.164 -1.469,0.408l-0.204,-0.652c0.449,-0.327 1.143,-0.49 1.836,-0.49c1.714,0 2.163,1.142 2.163,2.285l0,2.121c0,0.49 0,0.98 0.081,1.347l-0.938,0Zm-0.163,-2.897c-1.102,0 -2.367,0.204 -2.367,1.306c0,0.652 0.449,0.979 0.979,0.979c0.735,0 1.184,-0.49 1.347,-0.979c0.041,-0.082 0.041,-0.204 0.041,-0.327l0,-0.979Z" style="fill:#1f293a;fill-rule:nonzero;"/><path d="M120.852,19.666c0.449,0.286 1.102,0.53 1.796,0.53c1.02,0 1.632,-0.571 1.632,-1.346c0,-0.734 -0.408,-1.183 -1.469,-1.591c-1.265,-0.449 -2.081,-1.102 -2.081,-2.203c0,-1.224 1.02,-2.122 2.53,-2.122c0.816,0 1.387,0.163 1.754,0.367l-0.286,0.816c-0.244,-0.122 -0.775,-0.367 -1.468,-0.367c-1.102,0 -1.51,0.653 -1.51,1.183c0,0.735 0.49,1.102 1.591,1.51c1.306,0.53 1.999,1.183 1.999,2.325c0,1.184 -0.897,2.244 -2.774,2.244c-0.734,0 -1.591,-0.204 -1.999,-0.489l0.285,-0.857Z" style="fill:#1f293a;fill-rule:nonzero;"/><path d="M127.829,13.668c0,0.368 -0.244,0.653 -0.652,0.653c-0.368,0 -0.612,-0.285 -0.612,-0.653c0,-0.367 0.244,-0.612 0.612,-0.612c0.408,0 0.652,0.245 0.652,0.612Zm-1.142,1.592l1.02,0l0,5.63l-1.02,0l0,-5.63Z" style="fill:#1f293a;fill-rule:nonzero;"/><path d="M134.276,12.648l0,6.814c0,0.49 0,1.061 0.041,1.428l-0.939,0l-0.041,-0.979c-0.326,0.653 -1.02,1.101 -1.917,1.101c-1.387,0 -2.407,-1.142 -2.407,-2.856c-0.041,-1.876 1.142,-3.019 2.529,-3.019c0.857,0 1.428,0.408 1.673,0.857l0.041,0l0,-3.346l1.02,0Zm-1.02,4.896c0,-0.122 0,-0.285 -0.041,-0.408c-0.163,-0.652 -0.734,-1.183 -1.51,-1.183c-1.06,0 -1.672,0.898 -1.672,2.163c0,1.142 0.571,2.08 1.672,2.08c0.694,0 1.306,-0.448 1.51,-1.224c0.041,-0.122 0.041,-0.285 0.041,-0.448l0,-0.98Z" style="fill:#1f293a;fill-rule:nonzero;"/><path d="M136.52,18.279c0.041,1.387 0.938,1.958 1.958,1.958c0.735,0 1.184,-0.122 1.551,-0.285l0.163,0.734c-0.326,0.163 -0.979,0.326 -1.877,0.326c-1.713,0 -2.774,-1.142 -2.774,-2.856c0,-1.672 1.02,-3.019 2.652,-3.019c1.836,0 2.325,1.632 2.325,2.652c0,0.204 0,0.367 0,0.49l-3.998,0Zm3.019,-0.735c0,-0.652 -0.245,-1.672 -1.428,-1.672c-1.02,0 -1.469,0.938 -1.55,1.672l2.978,0Z" style="fill:#1f293a;fill-rule:nonzero;"/><path d="M141.783,17.014c0,-0.653 0,-1.224 -0.041,-1.754l0.898,0l0.041,1.101l0.041,0c0.285,-0.734 0.897,-1.224 1.591,-1.224c0.082,0 0.163,0 0.286,0.041l0,0.938c-0.123,0 -0.204,0 -0.368,0c-0.734,0 -1.224,0.531 -1.387,1.306c0,0.122 -0.041,0.286 -0.041,0.49l0,2.978l-1.02,0l0,-3.876Z" style="fill:#1f293a;fill-rule:nonzero;"/><path d="M150.311,19.38c0,0.572 0.04,1.061 0.081,1.51l-0.938,0l-0.041,-0.898l-0.041,0c-0.245,0.449 -0.857,1.02 -1.836,1.02c-0.897,0 -1.958,-0.489 -1.958,-2.448l0,-3.304l1.02,0l0,3.141c0,1.061 0.326,1.795 1.265,1.795c0.693,0 1.142,-0.489 1.346,-0.938c0.041,-0.163 0.082,-0.367 0.082,-0.53l0,-3.468l1.02,0l0,4.12Zm-0.694,-6.569l-1.428,1.673l-0.734,0l1.06,-1.673l1.102,0Z" style="fill:#1f293a;fill-rule:nonzero;"/><path d="M152.024,17.014c0,-0.653 0,-1.224 -0.041,-1.754l0.898,0l0.041,1.101l0.041,0c0.245,-0.734 0.857,-1.224 1.55,-1.224c0.123,0 0.204,0 0.286,0.041l0,0.938c-0.082,0 -0.204,0 -0.327,0c-0.734,0 -1.264,0.531 -1.387,1.306c-0.041,0.122 -0.041,0.286 -0.041,0.49l0,2.978l-1.02,0l0,-3.876Z" style="fill:#1f293a;fill-rule:nonzero;"/><path d="M160.592,15.26c0,0.408 -0.04,0.856 -0.04,1.55l0,3.264c0,1.306 -0.245,2.081 -0.816,2.571c-0.531,0.53 -1.347,0.693 -2.04,0.693c-0.694,0 -1.428,-0.163 -1.877,-0.449l0.245,-0.816c0.367,0.245 0.979,0.449 1.672,0.449c1.061,0 1.796,-0.53 1.796,-1.958l0,-0.612c-0.327,0.489 -0.939,0.938 -1.796,0.938c-1.387,0 -2.407,-1.183 -2.407,-2.774c0,-1.918 1.265,-2.979 2.53,-2.979c0.979,0 1.509,0.531 1.754,0.979l0.041,0l0.041,-0.856l0.897,0Zm-1.06,2.244c0,-0.204 0,-0.327 -0.041,-0.49c-0.204,-0.571 -0.694,-1.061 -1.428,-1.061c-0.979,0 -1.714,0.816 -1.714,2.122c0,1.101 0.571,2.04 1.673,2.04c0.653,0 1.224,-0.408 1.428,-1.061c0.082,-0.163 0.082,-0.367 0.082,-0.571l0,-0.979Z" style="fill:#1f293a;fill-rule:nonzero;"/><path d="M163.326,13.668c0,0.368 -0.245,0.653 -0.653,0.653c-0.367,0 -0.612,-0.285 -0.612,-0.653c0,-0.367 0.245,-0.612 0.612,-0.612c0.408,0 0.653,0.245 0.653,0.612Zm-1.142,1.592l1.02,0l0,5.63l-1.02,0l0,-5.63Z" style="fill:#1f293a;fill-rule:nonzero;"/><path d="M168.916,20.686c-0.245,0.163 -0.857,0.326 -1.632,0.326c-1.673,0 -2.775,-1.142 -2.775,-2.856c0,-1.754 1.184,-3.019 3.02,-3.019c0.612,0 1.142,0.163 1.428,0.286l-0.245,0.816c-0.245,-0.163 -0.612,-0.286 -1.183,-0.286c-1.306,0 -2,0.979 -2,2.163c0,1.264 0.857,2.08 1.959,2.08c0.571,0 0.979,-0.163 1.265,-0.285l0.163,0.775Z" style="fill:#1f293a;fill-rule:nonzero;"/><path d="M173.241,20.89l-0.082,-0.694l-0.041,0c-0.326,0.449 -0.897,0.816 -1.713,0.816c-1.143,0 -1.714,-0.775 -1.714,-1.591c0,-1.387 1.183,-2.121 3.387,-2.121l0,-0.123c0,-0.449 -0.123,-1.265 -1.306,-1.265c-0.53,0 -1.061,0.123 -1.469,0.408l-0.204,-0.693c0.449,-0.286 1.143,-0.49 1.836,-0.49c1.714,0 2.163,1.183 2.163,2.285l0,2.122c0,0.489 0,0.979 0.081,1.346l-0.938,0Zm-0.163,-2.856c-1.102,-0.041 -2.367,0.163 -2.367,1.265c0,0.653 0.449,0.979 0.939,0.979c0.734,0 1.224,-0.49 1.387,-0.938c0.041,-0.123 0.041,-0.245 0.041,-0.327l0,-0.979Z" style="fill:#1f293a;fill-rule:nonzero;"/><path d="M125.789,22.441l0,6.813c0,0.49 0.041,1.061 0.082,1.469l-0.939,0l-0.04,-0.979l-0.041,0c-0.286,0.612 -0.979,1.102 -1.918,1.102c-1.346,0 -2.407,-1.143 -2.407,-2.857c0,-1.876 1.142,-3.06 2.53,-3.06c0.856,0 1.428,0.408 1.713,0.857l0,-3.345l1.02,0Zm-1.02,4.936c0,-0.122 0,-0.326 -0.041,-0.448c-0.163,-0.653 -0.693,-1.184 -1.468,-1.184c-1.061,0 -1.673,0.939 -1.673,2.163c0,1.142 0.53,2.081 1.632,2.081c0.693,0 1.346,-0.449 1.509,-1.224c0.041,-0.123 0.041,-0.245 0.041,-0.408l0,-0.98Z" style="fill:#1f293a;fill-rule:nonzero;"/><path d="M132.154,27.826c0,2.122 -1.469,3.02 -2.815,3.02c-1.55,0 -2.693,-1.143 -2.693,-2.897c0,-1.918 1.224,-3.02 2.775,-3.02c1.632,0 2.733,1.184 2.733,2.897Zm-4.488,0.082c0,1.224 0.694,2.162 1.714,2.162c0.979,0 1.713,-0.938 1.713,-2.203c0,-0.938 -0.489,-2.162 -1.672,-2.162c-1.224,0 -1.755,1.142 -1.755,2.203Z" style="fill:#1f293a;fill-rule:nonzero;"/><path d="M135.01,22.93c0.49,-0.081 1.102,-0.122 1.918,-0.122c1.02,0 1.754,0.204 2.203,0.653c0.449,0.367 0.694,0.938 0.694,1.632c0,0.693 -0.204,1.264 -0.612,1.672c-0.531,0.572 -1.387,0.857 -2.367,0.857c-0.326,0 -0.612,0 -0.816,-0.041l0,3.142l-1.02,0l0,-7.793Zm1.02,3.795c0.204,0.081 0.49,0.081 0.816,0.081c1.224,0 1.959,-0.571 1.959,-1.673c0,-1.02 -0.694,-1.55 -1.836,-1.55c-0.449,0 -0.775,0.041 -0.939,0.082l0,3.06Z" style="fill:#1f293a;fill-rule:nonzero;"/><path d="M140.967,28.071c0.041,1.387 0.898,1.958 1.959,1.958c0.734,0 1.142,-0.122 1.55,-0.285l0.163,0.734c-0.367,0.164 -0.979,0.327 -1.877,0.327c-1.713,0 -2.774,-1.102 -2.774,-2.816c0,-1.713 1.02,-3.06 2.652,-3.06c1.836,0 2.326,1.632 2.326,2.652c0,0.245 0,0.408 -0.041,0.49l-3.958,0Zm3.02,-0.734c0,-0.653 -0.286,-1.673 -1.429,-1.673c-1.02,0 -1.509,0.979 -1.591,1.673l3.02,0Z" style="fill:#1f293a;fill-rule:nonzero;"/><path d="M149.78,30.478c-0.245,0.164 -0.857,0.327 -1.591,0.327c-1.714,0 -2.815,-1.143 -2.815,-2.856c0,-1.755 1.183,-2.979 3.019,-2.979c0.612,0 1.142,0.123 1.428,0.286l-0.245,0.775c-0.245,-0.122 -0.612,-0.245 -1.183,-0.245c-1.306,0 -1.999,0.939 -1.999,2.122c0,1.305 0.857,2.081 1.958,2.081c0.571,0 0.979,-0.123 1.265,-0.245l0.163,0.734Z" style="fill:#1f293a;fill-rule:nonzero;"/><path d="M151.045,28.071c0,1.387 0.898,1.958 1.918,1.958c0.734,0 1.183,-0.122 1.55,-0.285l0.204,0.734c-0.367,0.164 -1.02,0.327 -1.917,0.327c-1.714,0 -2.734,-1.102 -2.734,-2.816c0,-1.713 0.979,-3.06 2.611,-3.06c1.836,0 2.326,1.632 2.326,2.652c0,0.245 0,0.408 0,0.49l-3.958,0Zm2.979,-0.734c0,-0.653 -0.245,-1.673 -1.428,-1.673c-1.021,0 -1.469,0.979 -1.551,1.673l2.979,0Zm0.244,-4.692l-1.428,1.672l-0.734,0l1.02,-1.672l1.142,0Z" style="fill:#1f293a;fill-rule:nonzero;"/><path d="M155.819,26.602c0,-0.571 0,-1.061 -0.041,-1.55l0.898,0l0.04,0.938l0.041,0c0.327,-0.53 0.816,-1.061 1.755,-1.061c0.775,0 1.346,0.49 1.591,1.143l0.041,0c0.163,-0.327 0.408,-0.571 0.612,-0.735c0.367,-0.244 0.734,-0.408 1.265,-0.408c0.734,0 1.836,0.49 1.836,2.448l0,3.346l-0.98,0l0,-3.223c0,-1.061 -0.408,-1.714 -1.224,-1.714c-0.571,0 -1.061,0.408 -1.224,0.939c-0.041,0.122 -0.081,0.326 -0.081,0.489l0,3.509l-0.98,0l0,-3.386c0,-0.898 -0.408,-1.551 -1.183,-1.551c-0.653,0 -1.101,0.49 -1.265,1.02c-0.081,0.163 -0.081,0.327 -0.081,0.49l0,3.427l-1.02,0l0,-4.121Z" style="fill:#1f293a;fill-rule:nonzero;"/><rect x="114.406" y="3.101" width="0.979" height="30.397" style="fill:#1f293a;fill-rule:nonzero;"/></g></svg>