<?xml version="1.0" encoding="UTF-8" standalone="no"?><!DOCTYPE svg PUBLIC "-//W3C//DTD SVG 1.1//EN" "http://www.w3.org/Graphics/SVG/1.1/DTD/svg11.dtd"><svg width="100%" height="100%" viewBox="0 0 143 45" version="1.1" xmlns="http://www.w3.org/2000/svg" xmlns:xlink="http://www.w3.org/1999/xlink" xml:space="preserve" xmlns:serif="http://www.serif.com/" style="fill-rule:evenodd;clip-rule:evenodd;stroke-linejoin:round;stroke-miterlimit:1.41421;"><g><path d="M0,0l142.722,0l0,44.636l-142.722,0l0,-44.636Zm37.374,29.785l0,-9.344l2.652,0l0,9.344l-2.652,0Zm-8.12,-12.608l8.446,-8.813c0.041,-0.041 0.041,-0.081 0,-0.081c-0.041,-0.041 -0.082,-0.041 -0.082,0l-9.098,8.69l0.041,0c0.326,0.082 0.448,0.123 0.693,0.204Zm0.979,0.367l8.813,-9.18c0.041,-0.041 0.041,-0.081 0,-0.081c-0.04,-0.041 -0.081,-0.041 -0.081,0l-9.384,8.976c0.244,0.081 0.408,0.163 0.652,0.285Zm0.817,0.49l9.343,-9.67c0.041,-0.041 0.041,-0.081 0,-0.081c-0.041,-0.041 -0.082,-0.041 -0.082,0l-0.04,0l-9.752,9.425c0.245,0.122 0.327,0.163 0.531,0.326Zm0.775,0.571l9.914,-10.241c0.041,-0.041 0.041,-0.081 0,-0.081c-0.04,-0.041 -0.081,-0.041 -0.122,0l-10.282,9.914c0.204,0.163 0.286,0.245 0.49,0.408Zm0.571,0.653l10.69,-10.894c0.041,-0.041 0.041,-0.081 0,-0.081c-0.041,-0.041 -0.082,-0.041 -0.123,0l-10.934,10.567c0.163,0.122 0.285,0.245 0.367,0.408Zm-9.67,8.854l-7.752,8.16c-0.041,0.041 -0.041,0.082 0,0.082c0.041,0.04 0.082,0.04 0.122,0l0,0.04l8.446,-8.282c-0.245,0 -0.53,0 -0.816,0Zm-1.306,0l-7.792,8.16c0,0.041 0,0.082 0,0.082c0.04,0.04 0.081,0.04 0.122,0l8.568,-8.242c-0.367,0 -0.53,0 -0.857,0l-0.041,0Zm-1.346,0l-7.793,8.16c0,0.041 0,0.082 0,0.082c0.041,0.04 0.082,0.04 0.122,0l8.569,-8.242l-0.041,0l-0.857,0Zm-0.898,-0.449l-8.241,8.609c0,0.041 0,0.082 0,0.082c0.04,0.04 0.081,0.04 0.122,0l0,0.04l8.609,-8.282l-0.449,0l-0.041,0l0,-0.449Zm0,-1.387l-9.588,9.996c0,0.041 0,0.082 0,0.082c0.041,0.04 0.082,0.04 0.123,0.04l9.465,-9.18l0,-0.938Zm6.121,1.754c0.856,-0.041 1.591,-0.081 2.08,-0.163c1.184,-0.163 2.163,-0.408 2.938,-0.816c1.02,-0.49 1.755,-1.142 2.285,-1.958c0.53,-0.816 0.816,-1.755 0.816,-2.775c0,-0.694 -0.122,-1.306 -0.326,-1.877c-0.123,-0.326 -0.286,-0.612 -0.449,-0.897l-0.041,-0.041l11.71,-11.22c0.041,-0.041 0.081,-0.041 0.122,0c0.041,0 0.041,0.04 0,0.081l-9.384,9.996c0.122,0.123 0.245,0.286 0.326,0.408c0.735,1.02 1.102,2.204 1.102,3.55c0,1.347 -0.367,2.53 -1.102,3.55c-0.693,1.02 -1.795,1.877 -3.223,2.529c-1.061,0.49 -2.285,0.857 -3.672,1.061c-1.142,0.204 -2.815,0.286 -5.059,0.327l-6.977,6.569c-0.041,0.04 -0.082,0.04 -0.123,0c-0.04,0 -0.04,-0.041 0,-0.082l7.671,-8.201c0.449,0 0.898,0 1.306,-0.041Zm2.896,-11.138l8.161,-8.487l0,-0.041c0.04,0 0.04,-0.041 0,-0.081c-0.041,-0.041 -0.082,-0.041 -0.123,0l-7.385,6.977c-0.163,-0.041 -0.285,-0.082 -0.449,-0.082c-1.428,-0.204 -3.916,-0.326 -7.425,-0.326l-4.733,0l0,12.933l-7.956,8.487l-0.041,0c0,0.041 0,0.082 0,0.082c0.041,0.04 0.081,0.04 0.122,0l10.812,-10.486l0,-9.384l3.265,0c2.203,0.04 3.794,0.122 4.814,0.244l0.082,0c0.367,0.082 0.53,0.082 0.856,0.164Zm95.556,12.893l0,-15.79l2.693,0l0,15.79l-2.693,0Zm-1.795,-9.344l0,9.344l-2.57,0l0,-1.673c-0.612,0.653 -1.388,1.183 -2.367,1.55c-0.938,0.327 -2.04,0.531 -3.223,0.531c-2.203,0 -3.999,-0.449 -5.345,-1.388c-1.347,-0.938 -2.04,-2.162 -2.04,-3.672c0,-1.509 0.653,-2.733 1.958,-3.672c1.347,-0.897 3.101,-1.346 5.304,-1.346c1.265,0 2.408,0.163 3.346,0.53c0.979,0.327 1.714,0.857 2.326,1.551l0,-1.755l2.611,0Zm-2.57,4.774c0,-1.061 -0.449,-1.918 -1.428,-2.57c-0.939,-0.612 -2.163,-0.939 -3.713,-0.939c-1.592,0 -2.816,0.286 -3.713,0.898c-0.898,0.571 -1.306,1.387 -1.306,2.448c0,1.142 0.449,1.999 1.306,2.611c0.897,0.612 2.203,0.938 3.835,0.938c1.55,0 2.815,-0.285 3.713,-0.897c0.857,-0.612 1.306,-1.428 1.306,-2.489Zm-27.908,4.57l0,-9.344l2.611,0l0,1.469c0.653,-0.612 1.469,-1.061 2.366,-1.346c0.939,-0.286 2.04,-0.449 3.264,-0.449c1.796,0 3.224,0.285 4.244,0.897c1.061,0.572 1.55,1.388 1.55,2.408l0,6.365l-2.693,0l0,-5.508c0,-0.939 -0.326,-1.632 -0.979,-2.081c-0.653,-0.449 -1.673,-0.694 -3.06,-0.694c-0.775,0 -1.51,0.082 -2.162,0.245c-0.612,0.163 -1.184,0.449 -1.592,0.734c-0.326,0.245 -0.571,0.531 -0.693,0.857c-0.163,0.327 -0.204,0.857 -0.204,1.632l0,4.815l-2.652,0Zm-17.667,-4.652c0,-0.652 0.204,-1.305 0.612,-1.917c0.449,-0.612 1.02,-1.143 1.836,-1.632c0.816,-0.49 1.714,-0.857 2.734,-1.102c0.979,-0.245 2.08,-0.367 3.223,-0.367c1.142,0 2.203,0.122 3.182,0.367c1.02,0.286 1.959,0.612 2.775,1.102c0.775,0.489 1.387,1.02 1.795,1.632c0.408,0.612 0.653,1.265 0.653,1.917c0,0.694 -0.245,1.347 -0.653,1.918c-0.408,0.612 -1.02,1.142 -1.795,1.632c-0.816,0.49 -1.755,0.857 -2.775,1.102c-1.02,0.285 -2.08,0.408 -3.182,0.408c-1.143,0 -2.203,-0.123 -3.223,-0.408c-1.02,-0.245 -1.918,-0.612 -2.734,-1.061c-0.816,-0.49 -1.387,-1.061 -1.836,-1.632c-0.408,-0.612 -0.612,-1.265 -0.612,-1.959Zm2.815,0c0,0.98 0.531,1.836 1.632,2.53c1.102,0.653 2.407,1.02 3.958,1.02c1.55,0 2.856,-0.367 3.917,-1.02c1.101,-0.694 1.632,-1.55 1.632,-2.53c0,-0.979 -0.531,-1.795 -1.632,-2.488c-1.061,-0.694 -2.367,-1.021 -3.917,-1.021c-1.551,0 -2.897,0.327 -3.958,1.021c-1.101,0.693 -1.632,1.509 -1.632,2.488Zm-3.713,-4.692l0,9.18c0,1.021 -0.081,1.755 -0.326,2.163c-0.204,0.449 -0.571,0.816 -1.102,1.142c-0.734,0.49 -1.591,0.857 -2.652,1.061c-1.02,0.245 -2.244,0.367 -3.59,0.367c-2.326,0 -4.162,-0.326 -5.468,-0.979c-1.305,-0.653 -1.999,-1.55 -2.04,-2.733l2.979,0l0,0.122c0,0.694 0.367,1.224 1.183,1.591c0.816,0.408 1.918,0.571 3.387,0.571c1.06,0 1.958,-0.081 2.692,-0.285c0.776,-0.204 1.347,-0.531 1.714,-0.939c0.245,-0.204 0.408,-0.489 0.53,-0.816c0.082,-0.285 0.164,-0.734 0.164,-1.305l0,-0.735l0,-0.816c-0.612,0.653 -1.388,1.183 -2.367,1.51c-0.979,0.367 -2.04,0.53 -3.264,0.53c-2.203,0 -3.998,-0.449 -5.345,-1.346c-1.346,-0.898 -2.04,-2.122 -2.04,-3.631c0,-1.551 0.653,-2.734 1.999,-3.632c1.306,-0.897 3.06,-1.346 5.264,-1.346c1.265,0 2.407,0.163 3.386,0.53c0.939,0.327 1.714,0.857 2.285,1.551l0,-1.755l2.611,0Zm-2.529,4.692c0,-1.02 -0.49,-1.876 -1.428,-2.529c-0.939,-0.612 -2.204,-0.939 -3.754,-0.939c-1.551,0 -2.815,0.286 -3.713,0.898c-0.857,0.571 -1.306,1.387 -1.306,2.448c0,1.142 0.449,1.999 1.347,2.611c0.857,0.612 2.162,0.939 3.794,0.939c1.551,0 2.816,-0.286 3.713,-0.898c0.898,-0.612 1.347,-1.428 1.347,-2.53Zm-13.914,-4.692l0,9.344l-2.529,0l0,-1.673c-0.653,0.653 -1.428,1.183 -2.407,1.55c-0.939,0.327 -2.04,0.531 -3.224,0.531c-2.203,0 -3.998,-0.449 -5.345,-1.388c-1.346,-0.938 -2.04,-2.162 -2.04,-3.672c0,-1.509 0.653,-2.733 2,-3.672c1.305,-0.897 3.06,-1.346 5.263,-1.346c1.306,0 2.407,0.163 3.346,0.53c0.979,0.327 1.754,0.857 2.325,1.551l0,-1.755l2.611,0Zm-2.529,4.774c0,-1.061 -0.49,-1.918 -1.428,-2.57c-0.979,-0.612 -2.203,-0.939 -3.754,-0.939c-1.55,0 -2.815,0.286 -3.713,0.898c-0.857,0.571 -1.305,1.387 -1.305,2.448c0,1.142 0.448,1.999 1.346,2.611c0.898,0.612 2.162,0.938 3.795,0.938c1.55,0 2.815,-0.285 3.712,-0.897c0.898,-0.612 1.347,-1.428 1.347,-2.489Zm-17.177,-7.018c0,-0.326 0.163,-0.612 0.571,-0.816c0.367,-0.245 0.816,-0.367 1.346,-0.367c0.531,0 0.98,0.122 1.388,0.367c0.367,0.204 0.53,0.49 0.53,0.816c0,0.327 -0.163,0.612 -0.53,0.816c-0.368,0.245 -0.816,0.327 -1.388,0.327c-0.53,0 -0.979,-0.082 -1.346,-0.327c-0.408,-0.204 -0.571,-0.489 -0.571,-0.816Z" style="fill:#1f293a;"/></g></svg>