<?xml version="1.0" encoding="UTF-8" standalone="no"?><!DOCTYPE svg PUBLIC "-//W3C//DTD SVG 1.1//EN" "http://www.w3.org/Graphics/SVG/1.1/DTD/svg11.dtd"><svg width="100%" height="100%" viewBox="0 0 61 63" version="1.1" xmlns="http://www.w3.org/2000/svg" xmlns:xlink="http://www.w3.org/1999/xlink" xml:space="preserve" xmlns:serif="http://www.serif.com/" style="fill-rule:evenodd;clip-rule:evenodd;stroke-miterlimit:1.41421;"><g><path d="M29.417,0.571l1.102,-0.571l11.302,0.041l11.914,13.954c-0.898,1.265 -1.918,4.569 -1.265,7.589c1.061,4.733 2.897,10.404 2.489,11.791c-0.367,5.508 -1.959,9.017 -7.916,13.954c-6.242,5.141 -12.77,5.916 -17.462,10.527l-0.164,0.163l-0.163,-0.163c-4.651,-4.611 -11.22,-5.386 -17.422,-10.527c-5.997,-4.937 -7.548,-8.446 -7.915,-13.954c-0.408,-1.387 1.428,-7.058 2.448,-11.791c0.653,-3.02 -0.326,-6.324 -1.265,-7.589l11.914,-13.954l11.302,-0.041l1.101,0.571Zm22.441,13.628l-10.731,-12.608l-10.241,0l-1.469,0.694l-1.468,-0.694l-10.201,0l-10.73,12.608c0.367,0.816 0.653,1.754 0.857,2.611c0.326,1.673 0.367,3.468 0,5.141c-0.204,0.938 -0.408,1.877 -0.653,2.815c-0.367,1.387 -0.735,2.775 -1.061,4.162c-0.204,0.693 -0.857,3.427 -0.775,3.998l0.081,0.204l0,0.164c0.123,1.591 0.327,3.223 0.857,4.732c1.183,3.346 3.835,5.917 6.487,8.12c2.204,1.795 4.652,3.182 7.222,4.406c2.448,1.143 4.937,2.204 7.181,3.713c0.775,0.49 1.51,1.02 2.203,1.632c0.694,-0.612 1.429,-1.142 2.204,-1.632c2.285,-1.509 4.773,-2.57 7.181,-3.713c2.57,-1.224 5.018,-2.611 7.221,-4.406c2.693,-2.203 5.305,-4.774 6.488,-8.12c0.53,-1.509 0.775,-3.141 0.897,-4.732l0,-0.164l0.041,-0.163c0.082,-0.612 -0.571,-3.346 -0.734,-4.039c-0.327,-1.387 -0.735,-2.775 -1.102,-4.162c-0.204,-0.938 -0.449,-1.877 -0.653,-2.815c-0.367,-1.673 -0.326,-3.468 0.041,-5.141c0.163,-0.857 0.449,-1.795 0.857,-2.611Zm-0.938,0.122l-10.16,-11.955l-9.71,0l-1.633,0.816l-1.632,-0.816l-9.669,0l-10.201,11.955c0.327,0.735 0.531,1.551 0.694,2.326c0.367,1.795 0.408,3.672 0.041,5.467c-0.204,0.939 -0.449,1.877 -0.694,2.815c-0.326,1.428 -0.734,2.816 -1.061,4.203c-0.163,0.653 -0.285,1.265 -0.448,1.918c-0.082,0.367 -0.286,1.346 -0.286,1.754l0.041,0.163l0.041,0.245c0.081,1.55 0.326,3.101 0.816,4.57c1.142,3.182 3.712,5.671 6.242,7.752c2.163,1.754 4.57,3.101 7.099,4.325c2.449,1.183 4.937,2.244 7.263,3.753c0.612,0.368 1.183,0.816 1.754,1.265c0.572,-0.449 1.184,-0.897 1.796,-1.265c2.285,-1.509 4.773,-2.57 7.262,-3.753c2.489,-1.224 4.896,-2.571 7.059,-4.325c2.57,-2.081 5.141,-4.57 6.242,-7.752c0.531,-1.469 0.735,-3.02 0.857,-4.57l0,-0.245l0.041,-0.163c0.041,-0.367 -0.204,-1.346 -0.286,-1.714c-0.122,-0.652 -0.285,-1.305 -0.448,-1.958c-0.327,-1.387 -0.694,-2.775 -1.061,-4.203c-0.245,-0.938 -0.449,-1.876 -0.694,-2.815c-0.367,-1.795 -0.326,-3.672 0.041,-5.467c0.163,-0.775 0.408,-1.591 0.694,-2.326Zm1.836,-0.245l-11.302,-13.26l-10.731,0l-1.306,0.612l-1.264,-0.612l-10.772,0l-11.302,13.26c0.49,0.898 0.816,2 1.02,2.897c0.327,1.551 0.368,3.223 0.041,4.815c-0.204,0.897 -0.449,1.836 -0.693,2.774c-0.286,1.265 -2.081,7.63 -1.796,8.609l0.041,0.082l0,0.081c0.123,1.673 0.327,3.387 0.898,4.978c1.224,3.468 3.917,6.12 6.732,8.405c2.285,1.918 4.733,3.264 7.385,4.529c2.407,1.142 4.855,2.203 7.099,3.672c0.939,0.571 1.795,1.265 2.611,1.999c0.816,-0.734 1.714,-1.428 2.612,-1.999c2.244,-1.469 4.733,-2.53 7.099,-3.672c2.652,-1.265 5.141,-2.611 7.385,-4.529c2.815,-2.285 5.508,-4.937 6.732,-8.405c0.571,-1.591 0.816,-3.305 0.939,-4.978l0,-0.081l0,-0.082c0.285,-0.979 -1.469,-7.344 -1.796,-8.609c-0.244,-0.938 -0.448,-1.877 -0.652,-2.774c-0.368,-1.592 -0.286,-3.264 0.04,-4.815c0.164,-0.897 0.49,-1.999 0.98,-2.897Z" style="fill:#1f293a;"/><path d="M0.53,38.394c-0.081,-0.041 -0.163,-0.123 -0.204,-0.245c-0.081,-0.123 -0.163,-0.245 -0.204,-0.367c-0.081,-0.204 -0.122,-0.408 -0.122,-0.572c0.041,-0.204 0.082,-0.367 0.122,-0.53c0.082,-0.163 0.204,-0.286 0.327,-0.408c0.122,-0.122 0.285,-0.204 0.449,-0.286c0.204,-0.081 0.367,-0.081 0.53,-0.122c0.163,0 0.326,0.041 0.449,0.122c0.122,0.041 0.245,0.123 0.367,0.245c0.122,0.123 0.204,0.286 0.245,0.49c0.041,0.122 0.081,0.245 0.081,0.326c0,0.123 0,0.245 -0.04,0.327c-0.041,0.122 -0.041,0.163 -0.123,0.244c-0.041,0.082 -0.081,0.123 -0.163,0.123l-0.122,-0.327c0.04,-0.04 0.081,-0.04 0.081,-0.081c0.041,-0.041 0.082,-0.082 0.082,-0.163c0.041,-0.041 0.041,-0.123 0.041,-0.164c0,-0.081 0,-0.163 -0.041,-0.244c-0.041,-0.082 -0.082,-0.123 -0.123,-0.204c-0.081,-0.082 -0.122,-0.164 -0.244,-0.245c-0.082,-0.041 -0.204,-0.082 -0.368,-0.082c-0.122,0 -0.285,0.041 -0.448,0.082c-0.164,0.081 -0.286,0.122 -0.408,0.245c-0.123,0.081 -0.204,0.163 -0.286,0.285c-0.082,0.123 -0.122,0.286 -0.122,0.408c-0.041,0.123 0,0.286 0.04,0.449c0.041,0.082 0.082,0.204 0.164,0.286c0.04,0.122 0.122,0.204 0.204,0.285c0,0.041 0,0.041 0,0.082c0,0 0,0.041 -0.041,0.041l-0.041,0.04c-0.041,0 -0.082,-0.04 -0.082,-0.04Zm0.245,1.183c-0.081,-0.245 -0.122,-0.49 -0.041,-0.735c0.082,-0.204 0.286,-0.367 0.531,-0.489c0.122,-0.041 0.245,-0.082 0.367,-0.082c0.082,-0.041 0.204,0 0.326,0.041c0.082,0 0.204,0.082 0.286,0.163c0.082,0.082 0.163,0.204 0.204,0.327c0.122,0.285 0.122,0.53 0,0.734c-0.082,0.245 -0.245,0.408 -0.49,0.49c-0.244,0.122 -0.489,0.163 -0.693,0.041c-0.245,-0.082 -0.367,-0.245 -0.49,-0.49Zm0.612,-0.898c-0.081,0.041 -0.163,0.082 -0.204,0.123c-0.081,0.081 -0.163,0.122 -0.204,0.204c-0.041,0.04 -0.041,0.122 -0.081,0.204c0,0.081 0.04,0.204 0.04,0.285c0.041,0.082 0.123,0.164 0.164,0.204c0.081,0.041 0.122,0.082 0.204,0.082c0.081,0.041 0.163,0.041 0.244,0c0.082,0 0.164,-0.041 0.245,-0.082c0.082,-0.04 0.163,-0.081 0.245,-0.122c0.082,-0.041 0.122,-0.122 0.163,-0.163c0.082,-0.082 0.082,-0.163 0.123,-0.245c0,-0.082 0,-0.163 -0.041,-0.286c-0.041,-0.081 -0.123,-0.163 -0.163,-0.204c-0.082,-0.041 -0.123,-0.081 -0.204,-0.081c-0.082,-0.041 -0.164,-0.041 -0.245,0c-0.123,0 -0.204,0.04 -0.286,0.081Zm1.51,1.592l-0.204,0.122c0.041,0 0.081,0 0.163,0c0.041,0 0.122,0 0.163,0.041c0.082,0.041 0.163,0.081 0.204,0.122c0.082,0.041 0.123,0.123 0.163,0.204c0.082,0.123 0.123,0.286 0.082,0.408c0,0.163 -0.082,0.245 -0.204,0.327l-1.142,0.693l-0.164,-0.285l1.02,-0.612c0.082,-0.041 0.123,-0.123 0.204,-0.204c0.041,-0.082 0,-0.164 -0.04,-0.286c-0.041,-0.082 -0.082,-0.122 -0.164,-0.163c-0.081,-0.041 -0.122,-0.041 -0.204,-0.082c-0.081,0 -0.163,0 -0.244,0c-0.082,0 -0.164,0.041 -0.245,0.082l-0.735,0.449l-0.163,-0.286l1.102,-0.653c0.041,-0.041 0.081,-0.041 0.081,-0.041c0.041,-0.04 0.041,-0.04 0.041,-0.081c0.041,0 0.041,0 0.082,-0.041c0,0 0,-0.041 0,-0.082l0,-0.04c0,-0.041 -0.041,-0.082 -0.041,-0.082c0,-0.041 0,-0.041 0,-0.082c0,-0.04 0,-0.04 0.041,-0.04c0,-0.041 0.041,-0.041 0.041,-0.041c0.04,0.041 0.04,0.041 0.04,0.081l0.204,0.327c0.041,0.041 0.041,0.081 0,0.122c0,0.041 -0.04,0.082 -0.081,0.123Zm1.469,2.162l-0.204,0.163c-0.041,-0.041 -0.041,-0.122 -0.041,-0.245c-0.041,-0.081 -0.082,-0.163 -0.123,-0.244c-0.04,-0.082 -0.122,-0.123 -0.163,-0.164c-0.081,-0.04 -0.122,-0.04 -0.204,0c0,0.041 -0.041,0.041 -0.041,0.082c-0.04,0 -0.04,0.041 -0.04,0.082c0,0.081 0,0.163 0,0.244c0,0.082 0.04,0.123 0.04,0.204c0.041,0.082 0.041,0.164 0.041,0.245c0,0.082 0,0.163 -0.041,0.286c0,0.041 -0.04,0.041 -0.04,0.081c-0.041,0.041 -0.041,0.082 -0.082,0.123c-0.082,0.041 -0.163,0.081 -0.245,0.081c-0.081,0 -0.163,0 -0.245,-0.04c-0.081,-0.041 -0.163,-0.082 -0.204,-0.123c-0.081,-0.081 -0.122,-0.122 -0.163,-0.204c-0.041,-0.081 -0.081,-0.163 -0.122,-0.204c-0.041,-0.081 -0.082,-0.163 -0.082,-0.245c0,-0.04 0,-0.081 0,-0.122c0.041,0 0.041,-0.041 0.082,-0.041c0.041,-0.041 0.041,-0.041 0.081,-0.041l0.082,0.164c0,0.04 0,0.081 0,0.122c0.041,0.041 0.041,0.041 0.041,0.082c0.041,0.04 0.041,0.081 0.081,0.122c0.041,0.122 0.123,0.163 0.204,0.245c0.082,0.041 0.164,0.041 0.245,-0.041c0.041,-0.041 0.082,-0.082 0.082,-0.122c0.041,-0.082 0.041,-0.123 0,-0.204c0,-0.082 0,-0.123 -0.041,-0.204c0,-0.041 0,-0.123 0,-0.164c-0.041,-0.081 -0.041,-0.163 -0.041,-0.204c0,-0.081 0,-0.163 0.041,-0.204c0,-0.081 0.041,-0.122 0.082,-0.163c0.081,-0.081 0.122,-0.081 0.204,-0.122c0.122,-0.041 0.244,0 0.326,0.041c0.122,0.081 0.204,0.163 0.245,0.244c0.041,0.041 0.041,0.082 0.081,0.123c0.041,0.041 0.041,0.081 0.082,0.122c0,0.041 0.041,0.123 0.041,0.163c0.041,0.041 0.041,0.082 0.041,0.082Zm-0.408,2.162l-0.164,0.123c-0.04,-0.041 -0.081,-0.082 -0.122,-0.123c-0.041,-0.04 -0.082,-0.081 -0.082,-0.122c-0.081,-0.122 -0.122,-0.204 -0.163,-0.245c0,-0.081 -0.041,-0.163 0,-0.204c0,-0.081 0.041,-0.122 0.082,-0.163c0.041,-0.082 0.122,-0.122 0.163,-0.163l0.857,-0.653l-0.163,-0.245l0.163,-0.163l0.163,0.245l0.245,-0.163l0.408,0.081l-0.49,0.367l0.286,0.408l-0.163,0.123l-0.286,-0.408l-0.898,0.693c-0.04,0.041 -0.081,0.082 -0.081,0.123c0,0 -0.041,0.041 -0.041,0.081c0.041,0.041 0.041,0.123 0.082,0.164c0.04,0.081 0.122,0.163 0.204,0.244Zm0.081,0.449l0.98,-0.857c0.04,-0.04 0.04,-0.04 0.081,-0.081l0.041,-0.041c0,-0.041 0.041,-0.041 0.041,-0.082l0,-0.04c0,-0.041 0,-0.041 0,-0.082c-0.041,-0.041 -0.041,-0.041 -0.041,-0.082c-0.041,0 -0.041,-0.04 -0.041,-0.04c0,-0.041 0,-0.082 0.041,-0.082l0.041,0c0.041,0 0.041,0 0.081,0.041l0.204,0.285c0.041,0.041 0.041,0.082 0.041,0.123c0,0.041 -0.041,0.081 -0.041,0.122l-0.163,0.123c0.041,0 0.082,-0.041 0.123,-0.041c0.04,0 0.122,0 0.163,0c0.081,0.041 0.122,0.041 0.204,0.081c0.041,0.041 0.122,0.082 0.163,0.164l0.122,0.122l-0.244,0.204c-0.123,-0.204 -0.286,-0.326 -0.408,-0.367c-0.164,-0.041 -0.327,0.041 -0.49,0.163l-0.694,0.612l-0.204,-0.245Zm3.224,1.183l-1.143,1.184l-0.204,-0.245l0.286,-0.286c-0.041,0.041 -0.123,0.041 -0.163,0.082c-0.041,0 -0.123,0 -0.164,0c-0.081,0 -0.163,-0.041 -0.204,-0.082c-0.081,0 -0.122,-0.081 -0.204,-0.122c-0.122,-0.163 -0.204,-0.286 -0.204,-0.449c0.041,-0.163 0.123,-0.326 0.286,-0.49l0.449,-0.489c0,-0.041 0.041,-0.041 0.041,-0.082c0.04,0 0.04,-0.041 0.04,-0.041c0.041,-0.04 0.041,-0.04 0.041,-0.081l0,-0.041c0,-0.041 0,-0.041 0,-0.082l-0.041,-0.04c-0.04,-0.041 -0.04,-0.082 -0.04,-0.082c0,-0.041 0,-0.041 0,-0.082c0.04,0 0.04,0 0.081,0c0,0 0.041,0 0.041,0.041l0.245,0.245c0.041,0.041 0.081,0.082 0.041,0.122c0,0.082 0,0.123 -0.041,0.123l-0.653,0.693c-0.041,0.041 -0.082,0.082 -0.122,0.123c0,0.041 -0.041,0.081 -0.041,0.122c0,0.082 0,0.123 0,0.163c0,0.082 0.041,0.123 0.081,0.164c0.082,0.081 0.164,0.122 0.204,0.163c0.082,0 0.164,0 0.245,0c0.082,-0.041 0.163,-0.041 0.204,-0.082c0.082,-0.041 0.163,-0.081 0.204,-0.163l0.286,-0.286c0.041,-0.04 0.041,-0.04 0.081,-0.081c0,0 0,-0.041 0.041,-0.041c0,-0.041 0,-0.041 0,-0.082c0.041,0 0.041,-0.04 0.041,-0.04c-0.041,-0.041 -0.041,-0.082 -0.041,-0.082c0,-0.041 -0.041,-0.041 -0.041,-0.041c-0.04,-0.041 -0.04,-0.081 -0.04,-0.081c0,-0.041 0,-0.041 0.04,-0.082l0.123,0l0.245,0.286c0.04,0.04 0.04,0.081 0.04,0.122c0,0.041 -0.04,0.082 -0.04,0.122Zm-0.49,1.796l1.102,-1.184c0,-0.04 0.04,-0.081 0.04,-0.122c0,-0.082 -0.04,-0.122 -0.081,-0.163l-0.245,-0.245c0,-0.041 -0.041,-0.041 -0.041,-0.041c-0.041,0 -0.041,0 -0.081,0.041l0,0.041c0,0.041 0,0.041 0.04,0.081c0,0 0,0.041 0.041,0.082l0,0.041c0.041,0.041 0,0.081 0,0.122c-0.041,0.041 -0.081,0.082 -0.122,0.163l-0.898,0.939l0.245,0.245Zm1.306,-2.081c0.04,-0.041 0.081,-0.041 0.122,-0.041c0.082,0 0.122,0 0.163,0.041c0.082,0.041 0.082,0.122 0.082,0.163c0,0.082 0,0.122 -0.041,0.204c-0.082,0.041 -0.122,0.041 -0.163,0.041c-0.082,0 -0.123,0 -0.163,-0.041c-0.041,-0.041 -0.082,-0.122 -0.082,-0.163c0,-0.082 0,-0.123 0.082,-0.204Zm0.326,1.428l-0.163,0.245c0.041,-0.041 0.081,-0.041 0.163,-0.082c0.041,0 0.122,-0.041 0.204,-0.041c0.041,0 0.122,0 0.204,0.041c0.082,0 0.163,0.041 0.245,0.122c0.122,0.123 0.204,0.245 0.204,0.368c0.041,0.122 0,0.245 -0.082,0.367l-0.857,1.061l-0.244,-0.204l0.734,-0.939c0.082,-0.081 0.122,-0.163 0.122,-0.244c0,-0.082 -0.04,-0.164 -0.122,-0.245c-0.041,-0.041 -0.122,-0.082 -0.204,-0.082c-0.082,-0.041 -0.122,-0.041 -0.204,0c-0.082,0 -0.163,0.041 -0.245,0.082c-0.081,0.041 -0.122,0.081 -0.163,0.122l-0.571,0.735l-0.245,-0.204l0.816,-1.061l0.041,-0.041c0.041,-0.041 0.041,-0.041 0.041,-0.082c0,0 0.04,-0.041 0.04,-0.081l0,-0.041c-0.04,-0.041 -0.04,-0.041 -0.04,-0.082l-0.041,-0.041c-0.041,-0.04 -0.041,-0.04 -0.041,-0.081c0,-0.041 0,-0.041 0,-0.082l0.122,0l0.286,0.245c0.041,0.041 0.041,0.082 0.041,0.122c0,0.082 0,0.123 -0.041,0.123Zm1.714,2.489c0.081,-0.082 0.122,-0.163 0.122,-0.204c0.041,-0.041 0.082,-0.082 0.082,-0.123c0.04,-0.081 0.081,-0.204 0.04,-0.326c0,-0.122 -0.04,-0.245 -0.163,-0.326c-0.041,-0.041 -0.122,-0.082 -0.204,-0.082c-0.041,0 -0.122,0 -0.204,0.041c-0.081,0.041 -0.122,0.081 -0.204,0.122c-0.081,0.082 -0.122,0.163 -0.204,0.245c-0.041,0.041 -0.081,0.122 -0.122,0.204c-0.041,0.082 -0.041,0.163 -0.041,0.245c-0.041,0.081 -0.041,0.163 0,0.245c0.041,0.04 0.082,0.122 0.122,0.204c0.082,0.04 0.123,0.04 0.204,0.04c0.082,0.041 0.164,0 0.204,0c0.082,-0.04 0.164,-0.081 0.204,-0.122c0.082,-0.041 0.123,-0.122 0.164,-0.163Zm1.183,-1.143l-1.428,2l-0.245,-0.204l0.163,-0.204c-0.041,0.04 -0.041,0.04 -0.081,0.04l-0.327,0c-0.041,-0.04 -0.122,-0.081 -0.204,-0.122c-0.081,-0.082 -0.122,-0.163 -0.163,-0.245c-0.082,-0.081 -0.082,-0.204 -0.082,-0.326c-0.04,-0.082 0,-0.204 0.041,-0.327c0.041,-0.122 0.082,-0.244 0.163,-0.367c0.082,-0.081 0.164,-0.163 0.245,-0.245c0.082,-0.081 0.204,-0.122 0.286,-0.163c0.122,0 0.204,-0.041 0.326,0c0.082,0 0.204,0.041 0.286,0.123c0.122,0.081 0.204,0.204 0.245,0.285c0.04,0.123 0.04,0.204 0.04,0.286l0.327,-0.49c0.041,-0.041 0.041,-0.041 0.041,-0.081c0.04,0 0.04,-0.041 0.04,-0.041c0,-0.041 0.041,-0.041 0.041,-0.082c0,-0.041 0,-0.041 0,-0.081c-0.041,0 -0.041,-0.041 -0.041,-0.041c-0.04,-0.041 -0.04,-0.041 -0.081,-0.082l-0.041,-0.041c0,-0.04 0,-0.04 0.041,-0.081l0.041,-0.041c0.04,0 0.04,0.041 0.081,0.041l0.286,0.204c0.041,0.041 0.041,0.081 0.041,0.163c0,0.041 0,0.082 -0.041,0.122Zm-0.408,2.816c-0.204,-0.164 -0.327,-0.327 -0.408,-0.572c-0.041,-0.244 0.041,-0.489 0.204,-0.734c0.081,-0.082 0.163,-0.204 0.245,-0.245c0.081,-0.081 0.204,-0.163 0.285,-0.163c0.123,-0.041 0.245,-0.041 0.327,-0.041c0.122,0.041 0.244,0.082 0.367,0.163c0.245,0.164 0.367,0.368 0.367,0.612c0.041,0.245 0,0.49 -0.163,0.735c-0.163,0.245 -0.327,0.367 -0.571,0.408c-0.204,0.081 -0.449,0 -0.653,-0.163Zm0.081,-1.102c-0.081,0.082 -0.122,0.163 -0.122,0.245c-0.041,0.081 -0.082,0.163 -0.082,0.245c0,0.081 0.041,0.163 0.041,0.244c0.041,0.082 0.123,0.164 0.204,0.204c0.082,0.041 0.123,0.082 0.204,0.082c0.082,0 0.163,0 0.245,-0.041c0.082,0 0.122,-0.081 0.204,-0.122c0.041,-0.082 0.122,-0.123 0.163,-0.204c0.041,-0.082 0.082,-0.163 0.123,-0.245c0.04,-0.082 0.04,-0.163 0.081,-0.245c0,-0.122 -0.041,-0.163 -0.081,-0.245c0,-0.081 -0.082,-0.163 -0.164,-0.204c-0.081,-0.081 -0.163,-0.122 -0.204,-0.122c-0.081,0 -0.163,0 -0.244,0.041c-0.082,0.041 -0.123,0.081 -0.204,0.163c-0.082,0.041 -0.123,0.122 -0.164,0.204Zm2.612,2.938c-0.204,-0.164 -0.367,-0.327 -0.408,-0.572c-0.082,-0.204 -0.041,-0.448 0.122,-0.734c0.082,-0.122 0.123,-0.204 0.245,-0.286c0.082,-0.081 0.163,-0.163 0.286,-0.163c0.081,-0.041 0.204,-0.081 0.326,-0.041c0.122,0 0.245,0.041 0.367,0.123c0.204,0.122 0.367,0.326 0.408,0.571c0.041,0.245 0,0.49 -0.122,0.734c-0.163,0.245 -0.327,0.408 -0.531,0.449c-0.244,0.082 -0.448,0.041 -0.693,-0.081Zm0,-1.102c-0.041,0.082 -0.082,0.163 -0.123,0.245c0,0.081 -0.04,0.163 0,0.245c0,0.081 0,0.163 0.041,0.244c0.041,0.041 0.123,0.123 0.204,0.164c0.082,0.04 0.163,0.081 0.245,0.081c0.041,0 0.122,0 0.204,-0.041c0.082,-0.04 0.122,-0.081 0.204,-0.163c0.041,-0.081 0.122,-0.163 0.163,-0.245c0.041,-0.081 0.082,-0.163 0.082,-0.244c0.041,-0.082 0.041,-0.164 0.041,-0.245c0,-0.082 0,-0.163 -0.041,-0.245c-0.041,-0.082 -0.123,-0.122 -0.204,-0.204c-0.082,-0.041 -0.163,-0.082 -0.245,-0.082c-0.082,0 -0.122,0.041 -0.204,0.082c-0.082,0.041 -0.163,0.082 -0.204,0.163c-0.041,0.082 -0.122,0.123 -0.163,0.245Zm4.406,0.653l-0.122,0.245c-0.041,-0.041 -0.041,-0.082 -0.082,-0.082c-0.041,-0.041 -0.041,-0.082 -0.081,-0.122c-0.041,-0.041 -0.082,-0.082 -0.123,-0.123c-0.081,-0.041 -0.122,-0.081 -0.163,-0.122c-0.122,-0.041 -0.245,-0.082 -0.326,-0.082c-0.123,0.041 -0.204,0.082 -0.245,0.204c-0.041,0.082 -0.041,0.163 -0.041,0.245c0,0.082 0.041,0.163 0.122,0.286c0.041,0.081 0.082,0.204 0.164,0.285c0.04,0.082 0.122,0.204 0.163,0.327c0.041,0.081 0.081,0.204 0.122,0.326c0,0.122 -0.041,0.245 -0.081,0.326c-0.082,0.164 -0.204,0.286 -0.327,0.368c-0.163,0.04 -0.326,0.04 -0.489,0c-0.082,0 -0.164,-0.041 -0.245,-0.082c-0.082,-0.041 -0.163,-0.082 -0.204,-0.122c-0.082,-0.041 -0.123,-0.082 -0.204,-0.164c-0.041,-0.04 -0.082,-0.081 -0.123,-0.081c-0.04,-0.041 -0.04,-0.082 -0.04,-0.123c0,-0.04 0,-0.081 0.04,-0.122c0.041,-0.041 0.041,-0.041 0.082,-0.041c0.041,0 0.082,0 0.082,0.041c0.04,0.041 0.081,0.082 0.163,0.163c0.041,0.041 0.122,0.123 0.204,0.163c0.041,0.041 0.122,0.082 0.204,0.123c0.081,0 0.163,0 0.245,0c0.04,0 0.081,-0.041 0.163,-0.082c0.041,-0.041 0.081,-0.081 0.122,-0.163c0.041,-0.082 0.082,-0.163 0.041,-0.245c0,-0.081 -0.041,-0.163 -0.082,-0.245c-0.081,-0.081 -0.122,-0.163 -0.204,-0.285c-0.04,-0.082 -0.122,-0.204 -0.163,-0.327c-0.041,-0.081 -0.081,-0.204 -0.081,-0.326c-0.041,-0.122 0,-0.245 0.04,-0.367c0.123,-0.163 0.245,-0.286 0.449,-0.327c0.163,0 0.367,0.041 0.571,0.164c0.041,0.04 0.123,0.04 0.164,0.081c0.04,0.041 0.081,0.082 0.122,0.123c0.041,0 0.041,0.04 0.082,0.081c0.04,0.041 0.081,0.041 0.081,0.082Zm0.245,3.06l0.122,-0.245c-0.122,0.041 -0.244,0.082 -0.367,0.082c-0.081,0 -0.204,-0.041 -0.326,-0.123c-0.123,-0.041 -0.204,-0.163 -0.245,-0.285c-0.041,-0.123 -0.041,-0.245 0,-0.368c0.082,-0.122 0.122,-0.204 0.245,-0.244c0.081,-0.041 0.163,-0.082 0.285,-0.082c0.082,0 0.204,0 0.286,0.041c0.122,0.041 0.204,0.081 0.286,0.122l0.04,0c0.041,0 0.041,0.041 0.082,0.041l0.041,0l0,0.041l0.081,-0.123c0,-0.04 0,-0.081 0.041,-0.122c0,-0.082 0,-0.122 0,-0.163c0,-0.041 -0.041,-0.123 -0.081,-0.163c-0.041,-0.041 -0.082,-0.082 -0.123,-0.123c-0.122,-0.041 -0.204,-0.081 -0.285,-0.041c-0.082,0.041 -0.164,0.082 -0.204,0.204l-0.286,-0.163c0,-0.081 0.041,-0.122 0.082,-0.163c0.081,-0.041 0.122,-0.082 0.204,-0.082c0.081,-0.04 0.163,-0.04 0.244,-0.04c0.123,0.04 0.204,0.04 0.327,0.122c0.204,0.082 0.326,0.204 0.367,0.367c0.082,0.163 0.041,0.327 -0.041,0.531l-0.489,1.101l-0.286,-0.122Zm0.286,-0.612l0.081,-0.245c-0.041,-0.041 -0.081,-0.041 -0.163,-0.082c-0.082,-0.04 -0.122,-0.04 -0.204,-0.081c-0.082,0 -0.204,0 -0.286,0c-0.081,0.041 -0.163,0.081 -0.204,0.204c0,0 0,0.041 0,0.081c-0.04,0.041 -0.04,0.082 -0.04,0.082c0.04,0.041 0.04,0.082 0.081,0.122c0,0.041 0.041,0.082 0.082,0.082c0.081,0.041 0.122,0.082 0.204,0.082c0.041,0 0.122,0 0.163,-0.041c0.041,0 0.122,-0.041 0.163,-0.082c0.041,0 0.082,-0.081 0.123,-0.122Zm1.264,0.163l-0.204,0.408c-0.04,0.041 -0.04,0.122 -0.04,0.163c-0.041,0.082 0,0.123 0,0.163c0,0.082 0.04,0.123 0.081,0.204c0.041,0.041 0.082,0.082 0.163,0.123c0.164,0.082 0.286,0.082 0.408,0c0.123,-0.123 0.245,-0.245 0.327,-0.449c0.041,-0.082 0.081,-0.163 0.081,-0.245c0.041,-0.081 0.041,-0.163 0.041,-0.245c0,-0.081 0,-0.163 -0.041,-0.244c-0.04,-0.041 -0.122,-0.123 -0.204,-0.164c-0.04,-0.04 -0.122,-0.04 -0.204,-0.04c-0.04,0 -0.122,0.04 -0.163,0.04c-0.041,0.041 -0.122,0.082 -0.163,0.123c-0.041,0.041 -0.082,0.122 -0.082,0.163Zm-0.775,0.857l0.939,-1.999c0.04,-0.041 0.04,-0.041 0.04,-0.082c0,-0.041 0,-0.041 0.041,-0.082l0,-0.04c0,-0.041 0,-0.041 -0.041,-0.082c0,0 0,-0.041 -0.04,-0.041c0,-0.041 -0.041,-0.041 -0.041,-0.041c-0.041,-0.04 -0.041,-0.04 -0.082,-0.081c0,0 0,-0.041 0,-0.082c0.041,0 0.041,0 0.082,-0.041c0,0 0.041,0 0.041,0.041l0.326,0.163c0.041,0 0.082,0.041 0.082,0.123c0.04,0.041 0.04,0.081 0,0.122l-0.368,0.816c0.041,-0.041 0.123,-0.081 0.245,-0.081c0.082,0 0.204,0 0.327,0.081c0.122,0.082 0.204,0.123 0.285,0.245c0.041,0.082 0.082,0.204 0.082,0.286c0.041,0.122 0.041,0.244 0,0.367c0,0.122 -0.041,0.204 -0.123,0.326c-0.04,0.082 -0.081,0.204 -0.163,0.286c-0.081,0.082 -0.163,0.163 -0.245,0.204c-0.122,0.041 -0.204,0.082 -0.326,0.082c-0.122,0 -0.204,-0.041 -0.326,-0.082c-0.123,-0.082 -0.204,-0.122 -0.286,-0.204c-0.041,-0.082 -0.082,-0.163 -0.122,-0.204c-0.041,0 -0.041,0 -0.082,0.041l-0.041,0c-0.041,0 -0.081,0 -0.081,0c-0.041,0 -0.041,0 -0.082,-0.041l-0.041,0Zm2.448,1.265c-0.081,-0.082 -0.204,-0.163 -0.285,-0.245c-0.082,-0.082 -0.123,-0.204 -0.164,-0.326c-0.04,-0.123 -0.04,-0.245 -0.04,-0.368c0,-0.122 0.04,-0.285 0.122,-0.408c0.041,-0.122 0.122,-0.245 0.204,-0.326c0.082,-0.082 0.163,-0.123 0.286,-0.163c0.081,-0.041 0.204,-0.041 0.326,-0.041c0.082,0.041 0.204,0.041 0.327,0.122c0.081,0.041 0.163,0.082 0.204,0.163c0.081,0.082 0.122,0.164 0.163,0.245c0.041,0.123 0.081,0.204 0.081,0.327c0,0.081 -0.04,0.204 -0.081,0.326l-0.082,0.204l-1.183,-0.612c-0.082,0.204 -0.082,0.367 -0.041,0.531c0.041,0.163 0.163,0.285 0.326,0.408c0.041,0 0.123,0.04 0.205,0.081c0.081,0.041 0.204,0.082 0.285,0.082c0.041,0 0.041,0 0.082,0c0,0.041 0,0.041 0,0.081c0,0 0,0.041 -0.041,0.041c0,0.041 -0.041,0.041 -0.041,0.041c-0.122,0 -0.204,0 -0.326,-0.041c-0.082,0 -0.204,-0.081 -0.327,-0.122Zm0.694,-1.592c-0.082,-0.04 -0.122,-0.04 -0.204,-0.04c-0.041,0 -0.122,0 -0.163,0c-0.082,0.04 -0.123,0.081 -0.204,0.122c-0.041,0.041 -0.123,0.122 -0.164,0.204l0.898,0.449c0.041,-0.082 0.041,-0.204 0.082,-0.286c0,-0.081 0,-0.122 -0.041,-0.204c0,-0.041 -0.041,-0.122 -0.082,-0.163c-0.04,-0.041 -0.081,-0.041 -0.122,-0.082Zm0.367,2.122l0.571,-1.224c0,-0.041 0,-0.081 0.041,-0.081c0,-0.041 0,-0.041 0,-0.082c0,0 0,-0.041 0,-0.082l0,-0.04c0,-0.041 -0.041,-0.041 -0.041,-0.082c-0.04,0 -0.04,0 -0.081,-0.041c-0.041,0 -0.041,0 -0.041,-0.041c0,-0.041 0,-0.041 0,-0.081l0.041,-0.041c0.041,0 0.041,0 0.081,0l0.327,0.204c0.041,0 0.081,0.041 0.081,0.082c0,0.04 0,0.081 0,0.122l-0.081,0.204c0,-0.041 0.041,-0.082 0.081,-0.082c0.041,-0.04 0.123,-0.081 0.164,-0.081c0.04,0 0.122,-0.041 0.204,0c0.04,0 0.122,0 0.204,0.041l0.163,0.081l-0.163,0.286c-0.164,-0.123 -0.368,-0.163 -0.49,-0.163c-0.163,0.04 -0.286,0.163 -0.367,0.367l-0.408,0.857l-0.286,-0.123Z" style="fill:#1f293a;fill-rule:nonzero;"/><path d="M23.624,59.325l-0.163,-0.123c0.04,0 0.081,0 0.122,-0.041c0.041,0 0.082,-0.04 0.122,-0.04c0.041,-0.041 0.082,-0.041 0.123,-0.082c0.041,-0.041 0.081,-0.082 0.081,-0.122l0,-0.041l0,-0.041c-0.04,0 -0.04,-0.041 -0.081,-0.041c0,-0.041 -0.041,-0.081 -0.041,-0.122c0,-0.041 0.041,-0.082 0.041,-0.123c0.041,-0.081 0.081,-0.122 0.163,-0.122c0.082,0 0.122,0 0.204,0.041c0.082,0.041 0.122,0.081 0.122,0.163c0,0.082 0,0.163 -0.04,0.245c-0.041,0.081 -0.082,0.122 -0.123,0.163c-0.081,0.041 -0.122,0.082 -0.204,0.122c-0.041,0.041 -0.122,0.082 -0.163,0.082c-0.082,0.041 -0.122,0.041 -0.163,0.082Zm2.733,1.428l0.164,-0.204c-0.123,0.04 -0.245,0.04 -0.368,0c-0.081,-0.041 -0.204,-0.082 -0.326,-0.204c-0.082,-0.082 -0.163,-0.204 -0.163,-0.327c0,-0.122 0.041,-0.245 0.122,-0.367c0.041,-0.082 0.123,-0.163 0.245,-0.163c0.082,-0.041 0.204,-0.041 0.286,-0.041c0.122,0.041 0.204,0.082 0.285,0.122c0.123,0.041 0.204,0.123 0.286,0.164c0,0 0,0.04 0.041,0.04l0.04,0.041l0.041,0l0,0.041l0.082,-0.082c0.041,-0.04 0.041,-0.081 0.081,-0.122c0,-0.082 0.041,-0.122 0.041,-0.163c0,-0.041 -0.041,-0.123 -0.041,-0.163c-0.04,-0.041 -0.081,-0.123 -0.122,-0.164c-0.082,-0.081 -0.163,-0.122 -0.286,-0.081c-0.081,0 -0.122,0.041 -0.204,0.122l-0.244,-0.245c0,-0.04 0.081,-0.081 0.122,-0.081c0.041,-0.041 0.122,-0.082 0.204,-0.082c0.082,0 0.163,0.041 0.245,0.041c0.081,0.041 0.204,0.082 0.285,0.163c0.164,0.163 0.286,0.327 0.286,0.49c0.041,0.163 0,0.326 -0.122,0.489l-0.735,0.98l-0.245,-0.204Zm0.408,-0.531l0.123,-0.204c-0.041,-0.041 -0.082,-0.081 -0.123,-0.122c-0.081,-0.041 -0.122,-0.082 -0.204,-0.123c-0.081,-0.04 -0.163,-0.081 -0.285,-0.081c-0.082,0 -0.163,0.041 -0.204,0.163c-0.041,0 -0.041,0.041 -0.082,0.082l0,0.204c0.041,0.04 0.041,0.081 0.123,0.122c0.04,0.041 0.081,0.041 0.163,0.082c0.041,0.04 0.081,0.04 0.163,0.04c0.041,0 0.122,-0.04 0.163,-0.04c0.082,-0.041 0.123,-0.082 0.163,-0.123Z" style="fill:#1f293a;fill-rule:nonzero;"/><path d="M32.682,60.875c0,0.082 -0.041,0.204 -0.082,0.326c-0.082,0.123 -0.122,0.245 -0.204,0.327c-0.163,0.163 -0.286,0.326 -0.449,0.408c-0.163,0.081 -0.326,0.122 -0.489,0.122c-0.164,0 -0.327,-0.041 -0.49,-0.081c-0.163,-0.082 -0.326,-0.164 -0.449,-0.286c-0.163,-0.122 -0.245,-0.286 -0.326,-0.408c-0.082,-0.163 -0.164,-0.326 -0.164,-0.49c0,-0.163 0,-0.285 0.041,-0.448c0.041,-0.164 0.163,-0.327 0.245,-0.49c0.082,-0.082 0.204,-0.163 0.286,-0.204c0.081,-0.082 0.204,-0.122 0.285,-0.122c0.082,-0.041 0.164,-0.041 0.245,-0.041c0.082,0.041 0.163,0.041 0.204,0.081l-0.245,0.327c-0.04,-0.041 -0.081,-0.041 -0.122,-0.082c-0.041,0 -0.082,0 -0.122,0c-0.082,0.041 -0.123,0.041 -0.204,0.082c-0.041,0.041 -0.082,0.081 -0.164,0.122c-0.04,0.082 -0.081,0.163 -0.122,0.245c-0.041,0.082 -0.041,0.204 -0.041,0.326c0,0.123 0.041,0.245 0.082,0.368c0.041,0.122 0.163,0.285 0.285,0.408c0.123,0.081 0.245,0.163 0.408,0.244c0.123,0.082 0.245,0.123 0.368,0.123c0.163,0 0.285,-0.041 0.408,-0.082c0.122,-0.041 0.244,-0.122 0.326,-0.245c0.082,-0.081 0.163,-0.204 0.204,-0.285c0.041,-0.123 0.082,-0.204 0.122,-0.327c0,-0.04 0,-0.04 0.041,-0.04c0,-0.041 0.041,-0.041 0.082,0l0.041,0.04c0,0.041 0,0.041 0,0.082Zm0.408,0.041l-0.939,-1.347c-0.041,-0.04 -0.081,-0.04 -0.122,-0.081c-0.041,0 -0.082,0 -0.123,0.041l-0.285,0.244c-0.041,0 -0.041,0.041 -0.041,0.041c0,0.041 0,0.041 0,0.082c0.041,0 0.041,0 0.082,0.041l0.04,-0.041c0.041,0 0.041,-0.041 0.082,-0.041c0.041,0 0.041,0 0.082,0c0.04,0 0.081,0 0.081,0.041c0.041,0 0.082,0.081 0.123,0.122l0.775,1.102l0.245,-0.204Zm-1.714,-1.714c-0.041,-0.041 -0.041,-0.081 -0.041,-0.163c0,-0.082 0.041,-0.122 0.082,-0.163c0.041,-0.041 0.122,-0.041 0.163,-0.041c0.082,0 0.122,0.041 0.163,0.082c0.041,0.081 0.041,0.122 0.041,0.204c0,0.04 -0.041,0.122 -0.082,0.163c-0.081,0.041 -0.122,0.041 -0.163,0.041c-0.081,0 -0.122,-0.041 -0.163,-0.123Zm2.57,-0.041c-0.04,-0.081 -0.122,-0.163 -0.122,-0.204c-0.041,-0.04 -0.082,-0.081 -0.082,-0.081c-0.081,-0.082 -0.204,-0.163 -0.285,-0.163c-0.123,-0.041 -0.245,0 -0.327,0.081c-0.081,0.041 -0.122,0.082 -0.163,0.163c0,0.082 -0.041,0.164 -0.041,0.245c0.041,0.082 0.041,0.163 0.082,0.245c0.041,0.082 0.082,0.163 0.122,0.245c0.041,0.081 0.123,0.122 0.164,0.204c0.081,0.041 0.122,0.081 0.204,0.122c0.081,0.041 0.163,0.041 0.204,0.041c0.081,0 0.163,0 0.244,-0.082c0.041,-0.04 0.082,-0.081 0.123,-0.163c0.041,-0.081 0.041,-0.122 0.041,-0.204c0,-0.081 -0.041,-0.163 -0.041,-0.245c-0.041,-0.081 -0.082,-0.163 -0.123,-0.204Zm-0.693,-1.55l1.428,2.04l-0.245,0.204l-0.163,-0.204l0,0.204c-0.041,0.082 -0.041,0.122 -0.082,0.163c-0.041,0.082 -0.122,0.123 -0.163,0.163c-0.082,0.082 -0.204,0.123 -0.286,0.164c-0.122,0 -0.204,0 -0.285,-0.041c-0.123,0 -0.204,-0.041 -0.327,-0.123c-0.081,-0.081 -0.163,-0.163 -0.244,-0.285c-0.082,-0.123 -0.123,-0.204 -0.164,-0.327c-0.04,-0.122 -0.081,-0.244 -0.04,-0.326c0,-0.122 0,-0.245 0.04,-0.326c0.041,-0.123 0.123,-0.204 0.204,-0.286c0.123,-0.082 0.245,-0.122 0.327,-0.122c0.122,-0.041 0.204,0 0.285,0l-0.367,-0.449c0,-0.041 0,-0.082 -0.041,-0.082c0,-0.041 -0.04,-0.041 -0.04,-0.041c0,-0.04 -0.041,-0.04 -0.041,-0.04c-0.041,-0.041 -0.041,-0.041 -0.082,-0.041c0,0 -0.041,0.041 -0.081,0.041c0,0 -0.041,0 -0.041,0.04c-0.041,0 -0.041,0 -0.082,0c-0.041,0 -0.041,0 -0.041,-0.04c-0.04,0 -0.04,-0.041 -0.04,-0.041c0.04,-0.041 0.04,-0.041 0.04,-0.082l0.286,-0.204c0.082,-0.041 0.122,-0.041 0.163,-0.041c0.041,0 0.082,0.041 0.082,0.082Zm2.733,1.102l-0.122,-0.204c-0.041,0.122 -0.082,0.244 -0.122,0.326c-0.041,0.122 -0.164,0.204 -0.286,0.286c-0.082,0.081 -0.204,0.122 -0.326,0.081c-0.123,-0.041 -0.245,-0.122 -0.327,-0.204c-0.041,-0.122 -0.081,-0.204 -0.081,-0.326c0,-0.123 0.04,-0.204 0.081,-0.286c0.082,-0.122 0.123,-0.204 0.204,-0.285c0.082,-0.082 0.163,-0.164 0.245,-0.204l0.041,-0.041l0.041,-0.041l0.04,0l0,-0.041l-0.04,-0.081c-0.041,-0.041 -0.041,-0.082 -0.082,-0.123c-0.041,-0.041 -0.082,-0.041 -0.122,-0.081c-0.082,0 -0.123,-0.041 -0.164,0c-0.081,0 -0.122,0 -0.204,0.04c-0.081,0.082 -0.122,0.164 -0.163,0.245c0,0.082 0,0.163 0.041,0.245l-0.245,0.204c-0.041,-0.041 -0.081,-0.082 -0.081,-0.163c0,-0.082 0,-0.123 0,-0.204c0.04,-0.082 0.081,-0.163 0.122,-0.245c0.041,-0.082 0.122,-0.163 0.245,-0.245c0.163,-0.122 0.367,-0.163 0.489,-0.122c0.164,0 0.327,0.122 0.408,0.285l0.653,1.02l-0.245,0.164Zm-0.367,-0.531l-0.122,-0.245c-0.041,0.041 -0.123,0.082 -0.163,0.123c-0.041,0.041 -0.123,0.122 -0.164,0.163c-0.081,0.082 -0.122,0.163 -0.122,0.245c-0.041,0.081 -0.041,0.204 0.041,0.285c0,0.041 0.041,0.041 0.041,0.082c0.04,0 0.04,0.041 0.081,0.041c0.041,0 0.082,0 0.123,0c0.04,0 0.081,0 0.122,-0.041c0.041,-0.041 0.082,-0.082 0.122,-0.122c0.041,-0.082 0.082,-0.123 0.082,-0.164c0.041,-0.081 0.041,-0.163 0.041,-0.204c0,-0.081 -0.041,-0.122 -0.082,-0.163Zm1.551,-1.265c-0.041,-0.122 -0.082,-0.163 -0.123,-0.204c-0.041,-0.04 -0.081,-0.081 -0.081,-0.122c-0.082,-0.082 -0.164,-0.123 -0.286,-0.163c-0.122,-0.041 -0.204,0 -0.326,0.081c-0.082,0.041 -0.123,0.082 -0.164,0.164c0,0.081 -0.04,0.122 -0.04,0.204c0,0.081 0.04,0.163 0.081,0.244c0,0.123 0.041,0.204 0.123,0.286c0.04,0.041 0.081,0.122 0.122,0.204c0.082,0.041 0.122,0.122 0.204,0.122c0.082,0.041 0.163,0.082 0.204,0.082c0.082,0 0.163,-0.041 0.245,-0.082c0.041,-0.04 0.122,-0.081 0.122,-0.163c0.041,-0.081 0.041,-0.122 0.041,-0.204c0,-0.081 0,-0.163 -0.041,-0.245c0,-0.081 -0.041,-0.163 -0.081,-0.204Zm-0.612,-1.591l1.305,2.122l-0.245,0.163l-0.122,-0.204c0,0 0,0.041 0,0.082c-0.041,0.04 -0.041,0.081 -0.041,0.163c-0.041,0.041 -0.041,0.081 -0.081,0.122c-0.041,0.082 -0.123,0.123 -0.164,0.163c-0.122,0.082 -0.204,0.123 -0.285,0.123c-0.123,0.041 -0.204,0 -0.327,0c-0.081,-0.041 -0.204,-0.082 -0.285,-0.163c-0.082,-0.082 -0.163,-0.204 -0.245,-0.327c-0.082,-0.081 -0.122,-0.204 -0.163,-0.326c0,-0.123 -0.041,-0.204 -0.041,-0.327c0.041,-0.122 0.041,-0.204 0.082,-0.326c0.081,-0.082 0.122,-0.163 0.244,-0.245c0.123,-0.082 0.245,-0.122 0.327,-0.122c0.122,0 0.204,0 0.245,0.04l-0.286,-0.489c-0.041,-0.041 -0.041,-0.082 -0.082,-0.082c0,-0.041 0,-0.041 -0.04,-0.081c0,0 -0.041,0 -0.041,-0.041c0,0 -0.041,0 -0.082,0l-0.041,0c-0.04,0.041 -0.04,0.041 -0.081,0.041c-0.041,0.04 -0.041,0.04 -0.082,0.04l-0.041,-0.04c0,-0.041 0,-0.041 0,-0.082c0,0 0,-0.041 0.041,-0.041l0.286,-0.204c0.041,-0.041 0.081,-0.041 0.122,-0.041c0.082,0 0.082,0.041 0.123,0.082Zm2.693,1.306l-0.123,-0.204c0,0.122 -0.082,0.245 -0.122,0.326c-0.082,0.082 -0.164,0.163 -0.327,0.245c-0.122,0.041 -0.245,0.082 -0.367,0.041c-0.082,-0.082 -0.204,-0.163 -0.245,-0.286c-0.041,-0.081 -0.081,-0.204 -0.041,-0.286c0,-0.122 0.041,-0.204 0.082,-0.326c0.082,-0.082 0.163,-0.163 0.245,-0.245c0.081,-0.041 0.163,-0.122 0.245,-0.163l0.04,0c0,-0.041 0.041,-0.041 0.041,-0.041l0.041,-0.041l0.041,0l-0.041,-0.122c-0.041,-0.041 -0.041,-0.082 -0.082,-0.122c-0.04,-0.041 -0.081,-0.082 -0.122,-0.082c-0.041,-0.041 -0.122,-0.041 -0.163,-0.041c-0.041,0 -0.123,0 -0.163,0.041c-0.123,0.082 -0.164,0.122 -0.204,0.204c-0.041,0.122 -0.041,0.204 0,0.286l-0.286,0.163c-0.041,-0.041 -0.041,-0.123 -0.041,-0.204c0,-0.041 0,-0.123 0.041,-0.204c0.041,-0.082 0.082,-0.123 0.122,-0.204c0.082,-0.082 0.164,-0.163 0.286,-0.204c0.163,-0.123 0.367,-0.163 0.53,-0.082c0.123,0.041 0.245,0.163 0.327,0.327l0.53,1.101l-0.244,0.123Zm-0.286,-0.572l-0.123,-0.244c-0.04,0.04 -0.122,0.081 -0.163,0.122c-0.081,0.041 -0.122,0.082 -0.163,0.122c-0.082,0.041 -0.163,0.123 -0.204,0.245c-0.041,0.082 -0.041,0.163 0.041,0.245c0,0.041 0,0.082 0.041,0.082c0,0.041 0.04,0.081 0.081,0.081c0.041,0 0.041,0.041 0.082,0.041c0.041,0 0.122,-0.041 0.163,-0.041c0.041,-0.04 0.082,-0.081 0.122,-0.122c0.041,-0.041 0.082,-0.123 0.123,-0.163c0,-0.082 0.041,-0.123 0.041,-0.204c0,-0.041 -0.041,-0.123 -0.041,-0.164Zm0.694,-1.428l0.081,0.245c0,-0.041 0,-0.081 0,-0.163c0.041,-0.082 0.041,-0.122 0.082,-0.204c0,-0.082 0.041,-0.122 0.122,-0.204c0.041,-0.041 0.123,-0.122 0.204,-0.163c0.123,-0.082 0.286,-0.082 0.408,-0.041c0.123,0.041 0.204,0.122 0.245,0.245l0.571,1.265l-0.285,0.122l-0.49,-1.102c-0.041,-0.081 -0.082,-0.163 -0.163,-0.204c-0.082,-0.04 -0.163,-0.04 -0.286,0c-0.041,0.041 -0.081,0.082 -0.122,0.164c-0.041,0.04 -0.082,0.122 -0.123,0.204c0,0.081 0,0.163 0,0.244c0,0.123 0,0.204 0.041,0.245l0.367,0.857l-0.285,0.122l-0.531,-1.224c-0.04,-0.04 -0.04,-0.04 -0.04,-0.081l-0.041,-0.041c0,-0.041 -0.041,-0.041 -0.041,-0.082c-0.041,0 -0.041,0 -0.082,0c0,0 -0.04,0 -0.081,0l-0.041,0c-0.041,0.041 -0.082,0.041 -0.082,0.041l-0.041,-0.041c-0.04,-0.04 -0.04,-0.04 0,-0.081c0,-0.041 0,-0.041 0.041,-0.041l0.327,-0.163c0.041,-0.041 0.081,-0.041 0.122,0c0.041,0 0.082,0.041 0.123,0.081Zm2.488,0.572l-0.693,-1.469c-0.041,-0.041 -0.082,-0.082 -0.123,-0.082c-0.04,-0.041 -0.081,-0.041 -0.122,0l-0.326,0.163c-0.041,0 -0.041,0 -0.041,0.041c0,0.041 0,0.041 0,0.082c0,0 0.041,0 0.041,0.041c0.04,0 0.04,0 0.081,-0.041l0.123,0c0.04,0 0.081,0 0.122,0.041c0,0.04 0.041,0.081 0.082,0.163l0.571,1.224l0.285,-0.163Zm-1.428,-1.959c0,-0.081 0,-0.122 0,-0.204c0.041,-0.041 0.041,-0.122 0.123,-0.122c0.041,-0.041 0.122,-0.041 0.163,-0.041c0.082,0.041 0.122,0.082 0.122,0.122c0.041,0.082 0.041,0.123 0.041,0.204c-0.041,0.041 -0.081,0.123 -0.122,0.123c-0.082,0.041 -0.123,0.041 -0.163,0.041c-0.082,-0.041 -0.123,-0.082 -0.164,-0.123Zm2.816,1.183l-0.082,-0.204c-0.041,0.123 -0.082,0.245 -0.163,0.327c-0.082,0.081 -0.163,0.163 -0.286,0.245c-0.122,0.04 -0.245,0.081 -0.367,0c-0.122,-0.041 -0.204,-0.123 -0.286,-0.245c-0.04,-0.123 -0.081,-0.204 -0.04,-0.327c0,-0.081 0.04,-0.204 0.122,-0.285c0.041,-0.082 0.122,-0.163 0.204,-0.245c0.082,-0.041 0.163,-0.122 0.245,-0.163c0.041,0 0.041,0 0.041,-0.041c0.04,0 0.04,0 0.081,0c0,0 0,-0.041 0.041,-0.041l-0.041,-0.122c0,-0.041 -0.041,-0.082 -0.081,-0.123c-0.041,-0.04 -0.082,-0.081 -0.123,-0.081c-0.041,-0.041 -0.081,-0.041 -0.122,-0.041c-0.082,0 -0.123,0 -0.204,0.041c-0.082,0.041 -0.163,0.122 -0.204,0.204c0,0.081 0,0.163 0.041,0.285l-0.327,0.164c0,-0.082 -0.041,-0.123 -0.041,-0.204c0,-0.082 0.041,-0.123 0.041,-0.204c0.041,-0.082 0.082,-0.164 0.163,-0.245c0.041,-0.041 0.123,-0.123 0.245,-0.204c0.204,-0.082 0.367,-0.123 0.531,-0.041c0.163,0.041 0.285,0.122 0.367,0.326l0.53,1.102l-0.285,0.122Zm-0.286,-0.571l-0.122,-0.245c-0.041,0.041 -0.082,0.041 -0.164,0.082c-0.04,0.041 -0.122,0.082 -0.163,0.163c-0.081,0.041 -0.122,0.123 -0.163,0.204c-0.041,0.082 -0.041,0.204 0,0.286c0,0.041 0.041,0.081 0.041,0.081c0.041,0.041 0.041,0.041 0.081,0.082c0.041,0 0.082,0 0.123,0c0.041,0.041 0.081,0 0.122,0c0.041,-0.041 0.123,-0.082 0.163,-0.122c0.041,-0.041 0.082,-0.123 0.082,-0.164c0.041,-0.081 0.041,-0.122 0.041,-0.204c0,-0.04 0,-0.122 -0.041,-0.163Zm2.693,-0.816c-0.082,0.082 -0.204,0.123 -0.327,0.123c-0.122,0 -0.204,0 -0.326,0c-0.122,-0.041 -0.245,-0.123 -0.326,-0.204c-0.123,-0.082 -0.204,-0.164 -0.286,-0.327c-0.041,-0.122 -0.122,-0.245 -0.122,-0.326c0,-0.123 0,-0.245 0,-0.367c0.04,-0.082 0.081,-0.204 0.163,-0.286c0.081,-0.082 0.163,-0.163 0.285,-0.245c0.082,-0.041 0.164,-0.081 0.245,-0.081c0.082,-0.041 0.204,-0.041 0.286,-0.041c0.081,0.041 0.204,0.081 0.285,0.122c0.082,0.082 0.164,0.163 0.204,0.245l0.123,0.204l-1.102,0.694c0.082,0.163 0.245,0.285 0.367,0.326c0.164,0.041 0.327,0.041 0.531,-0.082c0.041,0 0.081,-0.04 0.163,-0.081c0.082,-0.082 0.163,-0.163 0.204,-0.245c0.041,-0.041 0.041,-0.041 0.082,-0.041l0.04,0.041c0,0 0.041,0 0.041,0.041c0,0.041 0,0.041 -0.041,0.081c-0.04,0.082 -0.081,0.164 -0.163,0.245c-0.081,0.041 -0.204,0.123 -0.326,0.204Zm-0.857,-1.469c-0.082,0.041 -0.122,0.082 -0.163,0.123c-0.041,0.081 -0.041,0.122 -0.082,0.204c0,0.041 0,0.122 0,0.204c0,0.081 0.041,0.163 0.082,0.285l0.816,-0.53c-0.041,-0.122 -0.082,-0.204 -0.163,-0.245c-0.041,-0.041 -0.123,-0.081 -0.164,-0.081c-0.081,-0.041 -0.122,-0.041 -0.163,0c-0.081,0 -0.122,0.04 -0.163,0.04Zm3.672,-0.367l-0.122,-0.204c-0.041,0.123 -0.082,0.245 -0.123,0.327c-0.04,0.081 -0.163,0.204 -0.285,0.285c-0.123,0.082 -0.245,0.082 -0.367,0.041c-0.123,0 -0.205,-0.082 -0.286,-0.204c-0.041,-0.122 -0.082,-0.204 -0.082,-0.326c0,-0.082 0.041,-0.204 0.082,-0.286c0.081,-0.082 0.122,-0.204 0.204,-0.286c0.082,-0.081 0.163,-0.122 0.245,-0.204l0.041,0c0,-0.04 0.04,-0.04 0.04,-0.04l0.041,-0.041l0.041,0l-0.082,-0.082c0,-0.041 -0.04,-0.081 -0.081,-0.122c-0.041,-0.041 -0.082,-0.082 -0.123,-0.123c-0.04,0 -0.122,0 -0.163,0c-0.041,0 -0.122,0.041 -0.163,0.082c-0.123,0.041 -0.163,0.122 -0.204,0.204c0,0.122 0,0.204 0.081,0.286l-0.285,0.163c-0.041,-0.041 -0.082,-0.082 -0.082,-0.163c0,-0.082 0,-0.123 0.041,-0.204c0,-0.082 0.041,-0.164 0.082,-0.245c0.081,-0.082 0.163,-0.163 0.244,-0.245c0.204,-0.122 0.368,-0.163 0.531,-0.122c0.163,0.04 0.286,0.122 0.408,0.285l0.612,1.061l-0.245,0.163Zm-0.367,-0.571l-0.122,-0.204c-0.041,0.041 -0.082,0.082 -0.164,0.122c-0.04,0.041 -0.122,0.082 -0.163,0.123c-0.041,0.081 -0.122,0.163 -0.122,0.245c-0.041,0.122 -0.041,0.204 0.041,0.285c0,0.041 0,0.041 0.04,0.082c0.041,0.041 0.041,0.041 0.082,0.041c0.041,0.04 0.082,0.04 0.122,0.04c0.041,0 0.082,-0.04 0.123,-0.04c0.041,-0.041 0.081,-0.082 0.122,-0.164c0.041,-0.04 0.082,-0.081 0.082,-0.163c0.041,-0.041 0.041,-0.122 0.041,-0.163c0,-0.082 -0.041,-0.122 -0.082,-0.204Zm2.285,-0.938l-0.245,0.204l-1.265,-1.673c-0.081,-0.082 -0.122,-0.123 -0.204,-0.123c-0.041,-0.04 -0.122,0 -0.163,0.041c-0.041,0.041 -0.082,0.041 -0.082,0.041l-0.04,-0.041c-0.041,-0.041 -0.041,-0.041 -0.041,-0.081l0.041,-0.041l1.346,-1.143l0.286,0.367c0,0 0.04,0.041 0,0.041l0,0.041l-0.041,0.041c-0.041,0 -0.041,0 -0.082,-0.041l-0.041,-0.041c-0.04,-0.041 -0.081,-0.041 -0.122,-0.041c-0.041,0 -0.041,0 -0.082,0c-0.04,0 -0.081,0.041 -0.163,0.082l-0.367,0.326c-0.082,0.082 -0.122,0.123 -0.122,0.164c0.04,0.081 0.04,0.122 0.081,0.163l0.449,0.571l0.408,-0.367c0.041,-0.041 0.041,-0.041 0.082,-0.082c0,0 0,-0.04 0.04,-0.081c0,-0.041 0.041,-0.082 0.041,-0.123c0,-0.04 -0.041,-0.081 -0.081,-0.163l0,-0.041c0,0 0,-0.041 0.04,-0.041c0,0 0,-0.04 0.041,-0.04l0.041,0l0.449,0.653c0.041,0 0.041,0 0,0.04l0,0.041c-0.041,0 -0.041,0 -0.082,0l-0.041,0c0,0 0,-0.041 -0.04,-0.081c-0.041,0 -0.082,-0.041 -0.123,-0.041c-0.041,0 -0.081,0 -0.081,0c-0.041,0.041 -0.082,0.081 -0.164,0.122l-0.408,0.367l0.735,0.98Zm1.265,-1.061l-0.857,-1.02c-0.041,0 -0.041,-0.041 -0.082,-0.041c0,-0.041 -0.041,-0.041 -0.041,-0.082c-0.04,0 -0.04,0 -0.081,0c0,-0.041 -0.041,-0.041 -0.041,-0.041c-0.041,0.041 -0.041,0.041 -0.082,0.041l-0.04,0.041c-0.041,0.041 -0.041,0.041 -0.082,0.041c-0.041,0 -0.041,0 -0.082,-0.041l0,-0.041c0,-0.041 0,-0.041 0.041,-0.081l0.245,-0.245c0.041,-0.041 0.082,-0.041 0.163,-0.041c0.041,0 0.082,0 0.082,0.041l0.122,0.163c0,-0.041 0,-0.082 0,-0.122c-0.041,-0.082 -0.041,-0.123 0,-0.204c0,-0.041 0,-0.123 0.041,-0.164c0.041,-0.081 0.082,-0.163 0.122,-0.204l0.123,-0.122l0.204,0.245c-0.163,0.122 -0.286,0.285 -0.327,0.449c-0.04,0.163 0.041,0.326 0.204,0.489l0.572,0.735l-0.204,0.204Zm1.713,-1.673l-0.163,-0.204c0,0.163 0,0.285 -0.041,0.367c-0.041,0.122 -0.122,0.204 -0.245,0.326c-0.081,0.082 -0.204,0.123 -0.326,0.123c-0.122,0 -0.245,-0.082 -0.326,-0.163c-0.082,-0.082 -0.123,-0.204 -0.123,-0.286c-0.041,-0.122 0,-0.204 0.041,-0.326c0,-0.082 0.082,-0.204 0.122,-0.286c0.082,-0.082 0.123,-0.163 0.204,-0.245l0.041,-0.041l0.041,-0.04l0.041,-0.041l-0.041,-0.082c-0.041,-0.041 -0.082,-0.081 -0.122,-0.122c-0.041,-0.041 -0.082,-0.041 -0.164,-0.041c-0.04,-0.041 -0.081,-0.041 -0.122,0c-0.082,0 -0.122,0.041 -0.163,0.082c-0.082,0.081 -0.163,0.163 -0.163,0.285c0,0.082 0.04,0.163 0.081,0.245l-0.245,0.245c0,-0.041 -0.04,-0.123 -0.081,-0.163c0,-0.082 0,-0.164 0,-0.245c0,-0.041 0.041,-0.163 0.081,-0.245c0.041,-0.082 0.082,-0.163 0.204,-0.245c0.123,-0.163 0.286,-0.245 0.449,-0.245c0.163,0 0.327,0.082 0.449,0.204l0.816,0.898l-0.245,0.245Zm-0.408,-0.49l-0.204,-0.204c-0.041,0.041 -0.081,0.082 -0.122,0.163c-0.041,0.041 -0.082,0.082 -0.123,0.164c-0.081,0.081 -0.122,0.163 -0.122,0.285c0,0.082 0,0.163 0.082,0.245c0.04,0.041 0.04,0.041 0.081,0.082c0.041,0 0.041,0.04 0.082,0.04c0.041,0 0.081,0 0.122,0c0.041,-0.04 0.082,-0.04 0.123,-0.081c0.04,-0.041 0.081,-0.123 0.122,-0.163c0,-0.041 0.041,-0.123 0.041,-0.164c0,-0.081 0,-0.163 0,-0.204c-0.041,-0.081 -0.041,-0.122 -0.082,-0.163Zm1.428,-0.979l0.163,0.122c-0.04,0.041 -0.081,0.123 -0.122,0.164c-0.041,0.04 -0.041,0.081 -0.082,0.122c-0.081,0.082 -0.163,0.163 -0.204,0.163c-0.081,0.041 -0.122,0.082 -0.204,0.082c-0.04,0 -0.122,-0.041 -0.163,-0.082c-0.041,-0.041 -0.122,-0.081 -0.163,-0.163l-0.775,-0.734l-0.204,0.244l-0.163,-0.163l0.204,-0.245l-0.204,-0.204l0,-0.408l0.408,0.408l0.326,-0.408l0.163,0.164l-0.326,0.367l0.816,0.816c0.041,0.041 0.081,0.081 0.122,0.081c0.041,0 0.041,0 0.082,0c0.041,0 0.081,-0.04 0.163,-0.122c0.041,-0.041 0.122,-0.122 0.163,-0.204Zm0.857,-0.775c-0.082,0.081 -0.163,0.163 -0.286,0.245c-0.081,0.04 -0.204,0.081 -0.326,0.081c-0.122,0.041 -0.245,0 -0.367,-0.041c-0.123,-0.04 -0.245,-0.081 -0.327,-0.204c-0.122,-0.081 -0.204,-0.204 -0.244,-0.285c-0.082,-0.123 -0.082,-0.204 -0.123,-0.327c0,-0.122 0.041,-0.204 0.082,-0.326c0,-0.122 0.081,-0.204 0.163,-0.326c0.041,-0.082 0.122,-0.123 0.204,-0.204c0.082,-0.041 0.163,-0.082 0.286,-0.082c0.081,-0.041 0.163,-0.041 0.285,0c0.082,0.041 0.204,0.082 0.286,0.163l0.163,0.123l-0.816,1.06c0.163,0.123 0.286,0.164 0.449,0.164c0.163,0 0.326,-0.082 0.449,-0.245c0.04,-0.041 0.081,-0.082 0.122,-0.163c0.082,-0.082 0.122,-0.204 0.163,-0.286c0,-0.041 0,-0.041 0.041,-0.082l0.041,0l0.041,0.041c0.04,0.041 0.04,0.082 0.04,0.082c-0.04,0.122 -0.081,0.204 -0.122,0.285c-0.041,0.123 -0.122,0.204 -0.204,0.327Zm-1.306,-1.061c-0.04,0.041 -0.081,0.122 -0.081,0.163c-0.041,0.082 -0.041,0.123 -0.041,0.204c0.041,0.082 0.041,0.163 0.082,0.204c0.04,0.082 0.081,0.163 0.163,0.245l0.612,-0.816c-0.082,-0.041 -0.163,-0.122 -0.245,-0.122c-0.082,-0.041 -0.122,-0.041 -0.204,-0.041c-0.041,0 -0.122,0.041 -0.163,0.041c-0.041,0.04 -0.082,0.081 -0.123,0.122Zm2.04,0.082l-1.02,-0.816c-0.04,0 -0.081,-0.041 -0.081,-0.041c-0.041,0 -0.041,-0.041 -0.082,-0.041l-0.041,0c-0.04,0 -0.04,0 -0.081,0c0,0 -0.041,0 -0.041,0.041c-0.041,0 -0.041,0.041 -0.041,0.041c-0.041,0.04 -0.041,0.04 -0.081,0.04c-0.041,0 -0.041,0 -0.082,0l0,-0.04c0,-0.041 0,-0.082 0,-0.082l0.204,-0.326c0.041,-0.041 0.082,-0.041 0.122,-0.041c0.041,-0.041 0.082,0 0.123,0l0.163,0.122c-0.041,-0.041 -0.041,-0.081 -0.082,-0.122l0,-0.367c0,-0.082 0.041,-0.123 0.082,-0.204l0.122,-0.164l0.245,0.204c-0.163,0.164 -0.245,0.368 -0.245,0.531c0,0.163 0.082,0.285 0.286,0.449l0.694,0.53l-0.164,0.286Z" style="fill:#1f293a;fill-rule:nonzero;"/><path d="M55.856,41.413l0.204,0.163c0,-0.041 -0.04,-0.081 -0.04,-0.163c-0.041,-0.041 -0.041,-0.122 -0.082,-0.163c0,-0.082 0,-0.163 0,-0.245c0,-0.082 0.041,-0.163 0.082,-0.286c0.081,-0.122 0.204,-0.204 0.326,-0.244c0.122,-0.041 0.245,-0.041 0.367,0.04l1.102,0.735l-0.163,0.245l-0.979,-0.612c-0.082,-0.082 -0.164,-0.082 -0.245,-0.082c-0.082,0 -0.164,0.041 -0.245,0.163c0,0.041 -0.041,0.123 -0.041,0.204c0,0.082 0.041,0.163 0.041,0.245c0.041,0.082 0.081,0.163 0.122,0.245c0.041,0.041 0.082,0.122 0.163,0.163l0.735,0.49l-0.163,0.244l-1.102,-0.693l-0.041,-0.041c-0.041,0 -0.041,-0.041 -0.081,-0.041c-0.041,0 -0.041,0 -0.082,0l-0.041,0c-0.041,0.041 -0.041,0.041 -0.081,0.041c0,0.041 0,0.041 -0.041,0.082l-0.041,0.04c-0.041,0 -0.041,0 -0.082,0c0,0 0,-0.04 -0.04,-0.04c0,-0.041 0,-0.082 0.04,-0.082l0.164,-0.326c0.04,-0.041 0.081,-0.082 0.122,-0.082c0.041,0 0.082,0 0.122,0Zm2.367,-1.02l-1.428,-0.734c-0.041,-0.041 -0.082,-0.041 -0.122,-0.041c-0.041,0.041 -0.082,0.041 -0.082,0.122l-0.163,0.327c-0.041,0.04 -0.041,0.04 -0.041,0.081c0.041,0 0.041,0.041 0.041,0.041c0.04,0 0.04,0 0.081,0c0.041,0 0.041,-0.041 0.041,-0.041c0.041,-0.041 0.041,-0.041 0.041,-0.081c0.041,0 0.041,-0.041 0.082,-0.041c0.04,-0.041 0.081,-0.041 0.081,0c0.041,0 0.123,0.041 0.204,0.041l1.102,0.612l0.163,-0.286Zm-2.244,-0.694c-0.082,-0.04 -0.082,-0.081 -0.123,-0.163c0,-0.041 0,-0.122 0,-0.163c0.041,-0.082 0.082,-0.082 0.164,-0.122c0.04,0 0.122,0 0.163,0c0.041,0.04 0.081,0.081 0.122,0.163c0,0.041 0,0.122 -0.041,0.163c0,0.082 -0.081,0.122 -0.122,0.122c-0.041,0.041 -0.122,0.041 -0.163,0Zm2.203,-1.265c-0.081,-0.04 -0.163,-0.081 -0.204,-0.081c-0.041,-0.041 -0.081,-0.041 -0.122,-0.041c-0.123,-0.041 -0.204,-0.041 -0.327,0c-0.122,0.041 -0.204,0.122 -0.244,0.245c-0.041,0.081 -0.041,0.163 -0.041,0.245c0.041,0.04 0.041,0.122 0.081,0.204c0.041,0.04 0.123,0.122 0.164,0.163c0.081,0.041 0.163,0.122 0.244,0.163c0.082,0.041 0.164,0.041 0.245,0.082c0.082,0 0.163,0 0.245,0c0.082,0 0.163,-0.041 0.204,-0.082c0.082,-0.041 0.122,-0.081 0.163,-0.163c0.041,-0.082 0.041,-0.163 0.041,-0.245c-0.041,-0.041 -0.041,-0.122 -0.082,-0.204c-0.04,-0.041 -0.122,-0.122 -0.163,-0.163c-0.081,-0.041 -0.122,-0.082 -0.204,-0.123Zm-1.305,-0.979l2.162,1.02l-0.122,0.286l-0.204,-0.082c0,0 0.04,0.041 0.04,0.082c0,0.041 0.041,0.081 0.041,0.122c0,0.041 0,0.123 0,0.204c0,0.041 0,0.123 -0.041,0.204c-0.04,0.123 -0.122,0.204 -0.204,0.245c-0.04,0.082 -0.163,0.163 -0.244,0.163c-0.082,0.041 -0.204,0.041 -0.327,0.041c-0.122,0 -0.245,-0.041 -0.367,-0.122c-0.122,-0.041 -0.204,-0.082 -0.286,-0.163c-0.081,-0.082 -0.163,-0.164 -0.204,-0.286c-0.081,-0.082 -0.081,-0.204 -0.081,-0.327c-0.041,-0.081 0,-0.204 0.041,-0.326c0.04,-0.122 0.122,-0.245 0.204,-0.286c0.081,-0.081 0.163,-0.122 0.244,-0.122l-0.53,-0.245c-0.041,0 -0.041,0 -0.082,-0.041l-0.04,0c-0.041,0 -0.041,0 -0.082,0l-0.041,0c-0.041,0.041 -0.041,0.041 -0.081,0.082c0,0 0,0.041 -0.041,0.041c0,0.041 0,0.041 -0.041,0.081c-0.041,0 -0.041,0 -0.082,0c0,-0.04 0,-0.04 -0.041,-0.04c0,-0.041 0,-0.082 0.041,-0.082l0.123,-0.367c0.041,-0.041 0.081,-0.082 0.122,-0.082c0.041,0 0.082,0 0.123,0Zm2.652,-0.53l-0.204,-0.082c0.04,0.123 0.081,0.204 0.122,0.327c0,0.122 -0.041,0.244 -0.082,0.408c-0.04,0.122 -0.122,0.244 -0.244,0.285c-0.082,0.041 -0.204,0.041 -0.327,0c-0.122,-0.041 -0.204,-0.081 -0.285,-0.163c-0.041,-0.082 -0.082,-0.204 -0.082,-0.286c-0.041,-0.122 -0.041,-0.244 0,-0.326c0,-0.122 0,-0.245 0.041,-0.326l0,-0.041c0.041,-0.041 0.041,-0.041 0.041,-0.082l0,-0.041l0,-0.04l-0.082,-0.041l-0.286,0c-0.04,0 -0.081,0.041 -0.122,0.081c-0.041,0.041 -0.082,0.123 -0.122,0.164c-0.041,0.122 -0.041,0.244 0,0.326c0.04,0.082 0.122,0.122 0.204,0.163l-0.123,0.327c-0.041,0 -0.081,-0.041 -0.122,-0.082c-0.082,-0.041 -0.123,-0.122 -0.123,-0.204c-0.04,-0.041 -0.04,-0.163 -0.04,-0.245c-0.041,-0.122 0,-0.204 0.04,-0.326c0.082,-0.245 0.164,-0.367 0.327,-0.449c0.122,-0.082 0.285,-0.122 0.449,-0.041l1.142,0.367l-0.122,0.327Zm-0.572,-0.204l-0.244,-0.082c-0.041,0.041 -0.041,0.123 -0.082,0.204c0,0.041 0,0.123 0,0.204c-0.041,0.123 0,0.204 0,0.286c0.041,0.081 0.122,0.163 0.204,0.204l0.204,0c0.041,0 0.041,-0.041 0.082,-0.041c0.04,-0.041 0.04,-0.082 0.081,-0.163c0,-0.041 0.041,-0.123 0,-0.163c0,-0.082 0,-0.123 0,-0.204c-0.041,-0.041 -0.081,-0.123 -0.122,-0.164c-0.041,-0.04 -0.082,-0.081 -0.123,-0.081Zm0.164,-1.959c-0.123,-0.04 -0.204,-0.04 -0.245,-0.04c-0.041,0 -0.082,0 -0.123,0c-0.122,0 -0.204,0.04 -0.326,0.122c-0.082,0.082 -0.122,0.163 -0.163,0.326c0,0.082 0,0.164 0.041,0.204c0.04,0.082 0.081,0.123 0.163,0.164c0.041,0.081 0.122,0.122 0.204,0.122c0.081,0.041 0.163,0.082 0.245,0.082c0.081,0 0.163,0 0.244,0c0.082,0 0.164,-0.041 0.245,-0.041c0.082,-0.041 0.123,-0.082 0.204,-0.163c0.041,-0.041 0.082,-0.123 0.082,-0.204c0,-0.082 0,-0.164 -0.041,-0.245c-0.041,-0.041 -0.082,-0.123 -0.122,-0.163c-0.082,-0.041 -0.123,-0.082 -0.204,-0.123c-0.082,-0.041 -0.164,-0.041 -0.204,-0.041Zm-1.551,-0.53l2.367,0.286l-0.041,0.326l-0.245,-0.041c0.041,0.041 0.041,0.041 0.082,0.082c0.04,0.041 0.04,0.041 0.081,0.122c0.041,0.041 0.041,0.082 0.041,0.163c0.041,0.041 0.041,0.123 0,0.245c0,0.082 -0.041,0.204 -0.082,0.286c-0.04,0.081 -0.122,0.163 -0.204,0.245c-0.081,0.04 -0.163,0.081 -0.285,0.122c-0.123,0.041 -0.245,0.041 -0.408,0c-0.082,0 -0.204,-0.041 -0.327,-0.082c-0.081,-0.04 -0.204,-0.122 -0.244,-0.163c-0.082,-0.081 -0.164,-0.204 -0.204,-0.285c-0.041,-0.123 -0.041,-0.204 -0.041,-0.327c0.041,-0.163 0.081,-0.285 0.122,-0.367c0.082,-0.082 0.123,-0.163 0.204,-0.163l-0.571,-0.082c-0.041,0 -0.041,0 -0.082,0c-0.04,0 -0.04,0 -0.081,0l-0.041,0c-0.041,0 -0.041,0.041 -0.082,0.041c0,0.041 0,0.041 0,0.082c-0.04,0 -0.04,0.04 -0.04,0.081c0,0 0,0.041 -0.041,0.041c0,0.041 -0.041,0.041 -0.041,0.041c-0.041,0 -0.041,0 -0.082,-0.041c0,0 0,-0.041 0,-0.082l0.041,-0.367c0,-0.041 0.041,-0.081 0.082,-0.122c0.041,-0.041 0.081,-0.041 0.122,-0.041Zm2.448,-1.061c0,0.123 0,0.245 -0.041,0.367c-0.04,0.123 -0.122,0.245 -0.204,0.327c-0.081,0.081 -0.163,0.163 -0.285,0.204c-0.123,0.041 -0.245,0.081 -0.408,0.081c-0.123,0 -0.245,0 -0.367,-0.04c-0.082,-0.041 -0.204,-0.123 -0.245,-0.204c-0.082,-0.082 -0.163,-0.164 -0.204,-0.286c-0.041,-0.082 -0.041,-0.204 -0.041,-0.367c0,-0.082 0,-0.163 0.041,-0.286c0.041,-0.081 0.081,-0.163 0.122,-0.245c0.082,-0.081 0.163,-0.163 0.245,-0.204c0.082,-0.04 0.204,-0.081 0.326,-0.081l0.204,0l0.041,1.346c0.163,0 0.327,-0.081 0.449,-0.204c0.122,-0.122 0.163,-0.285 0.163,-0.489c0.041,-0.041 0,-0.123 0,-0.204c0,-0.123 -0.041,-0.204 -0.081,-0.327c0,0 0,-0.041 0,-0.081c0,0 0.04,0 0.04,-0.041c0.041,0 0.041,0 0.082,0c0,0.041 0.041,0.041 0.041,0.081c0.041,0.082 0.081,0.164 0.122,0.286c0,0.082 0,0.204 0,0.367Zm-1.632,0.082c0,0.081 0.041,0.163 0.041,0.204c0.041,0.081 0.082,0.122 0.122,0.163c0.041,0.041 0.082,0.082 0.164,0.122c0.081,0.041 0.163,0.041 0.244,0.082l0,-1.061c-0.122,0 -0.204,0.041 -0.285,0.082c-0.082,0 -0.123,0.041 -0.163,0.081c-0.041,0.082 -0.082,0.123 -0.082,0.164c-0.041,0.081 -0.041,0.122 -0.041,0.163Z" style="fill:#1f293a;fill-rule:nonzero;"/><path d="M29.417,13.383c8.65,0 15.668,7.017 15.668,15.667c0,8.609 -7.018,15.627 -15.668,15.627c-8.609,0 -15.626,-7.018 -15.626,-15.627c0,-8.65 7.017,-15.667 15.626,-15.667Zm0,0.693c8.283,0 15.015,6.692 15.015,14.974c0,8.242 -6.732,14.974 -15.015,14.974c-8.241,0 -14.973,-6.732 -14.973,-14.974c0,-8.282 6.732,-14.974 14.973,-14.974Z" style="fill:#1f293a;"/><path d="M11.751,31.539l-2.163,0.245l-0.081,-0.612l2.162,-0.245l0.082,0.612Zm-0.123,-1.101l-2.203,0.081l0,-0.612l1.102,-0.857c0,0 0.04,-0.041 0.122,-0.081c0.082,-0.041 0.163,-0.082 0.245,-0.123c-0.082,0.041 -0.163,0.041 -0.245,0.041c-0.082,0 -0.122,0 -0.204,0l-1.061,0.041l0,-0.571l2.163,-0.041l0.04,0.571l-1.101,0.857c-0.041,0 -0.082,0.041 -0.163,0.081c-0.082,0.041 -0.123,0.082 -0.245,0.123c0.081,-0.041 0.163,-0.041 0.245,-0.041c0.081,0 0.122,0 0.204,0l1.06,-0.041l0.041,0.572Zm-0.734,-2.816c0.122,-0.041 0.204,-0.122 0.285,-0.204c0.041,-0.081 0.082,-0.163 0.082,-0.245c0,-0.081 0,-0.163 -0.041,-0.204c-0.041,-0.081 -0.081,-0.081 -0.163,-0.122c-0.041,0 -0.122,0 -0.163,0.041c-0.041,0.041 -0.082,0.163 -0.163,0.285c-0.082,0.204 -0.164,0.368 -0.286,0.449c-0.082,0.082 -0.204,0.082 -0.367,0.082c-0.204,-0.041 -0.367,-0.123 -0.49,-0.286c-0.122,-0.163 -0.163,-0.326 -0.122,-0.571c0,-0.122 0.041,-0.204 0.081,-0.326c0.041,-0.082 0.123,-0.204 0.164,-0.286l0.408,0.245c-0.041,0.041 -0.123,0.122 -0.123,0.204c-0.041,0.041 -0.081,0.122 -0.081,0.204c0,0.041 0,0.122 0.04,0.163c0,0.041 0.041,0.082 0.123,0.082c0.041,0 0.081,0 0.122,-0.041c0.041,-0.041 0.082,-0.123 0.123,-0.204l0,-0.041c0.122,-0.245 0.204,-0.367 0.285,-0.449c0.041,-0.041 0.123,-0.081 0.204,-0.081c0.082,-0.041 0.163,-0.041 0.245,0c0.245,0 0.408,0.122 0.53,0.285c0.123,0.163 0.164,0.367 0.164,0.612c-0.041,0.163 -0.082,0.286 -0.164,0.408c-0.04,0.123 -0.163,0.245 -0.285,0.327l-0.408,-0.327Zm0.979,-1.877l-1.632,-0.285l-0.082,0.489l-0.53,-0.122l0.286,-1.55l0.53,0.081l-0.082,0.49l1.632,0.326l-0.122,0.571Zm0.326,-1.346l-2.121,-0.612l0.163,-0.571l2.122,0.571l-0.164,0.612Zm0.408,-1.346l-1.55,-0.612l-0.204,0.448l-0.49,-0.204l0.612,-1.469l0.49,0.204l-0.204,0.449l1.55,0.612l-0.204,0.572Zm-1.468,-2.285l0.285,-0.531l0.939,0.49c0.163,0.081 0.244,0.122 0.326,0.122c0.041,0.041 0.122,0.041 0.163,0.041c0.041,0.041 0.123,0 0.163,-0.041c0.041,-0.041 0.082,-0.081 0.123,-0.163c0.041,-0.082 0.082,-0.122 0.082,-0.204c0,-0.041 -0.041,-0.122 -0.082,-0.163c-0.041,-0.041 -0.082,-0.082 -0.123,-0.123c-0.081,-0.04 -0.163,-0.081 -0.285,-0.163l-0.163,-0.041l-0.816,-0.448l0.285,-0.531l1.02,0.531c0.245,0.122 0.368,0.204 0.449,0.285c0.123,0.082 0.163,0.163 0.204,0.286c0.041,0.081 0.082,0.204 0.041,0.367c0,0.122 -0.082,0.286 -0.163,0.449c-0.082,0.163 -0.163,0.285 -0.286,0.367c-0.081,0.122 -0.204,0.163 -0.286,0.204c-0.122,0.041 -0.244,0 -0.326,0c-0.122,-0.041 -0.286,-0.082 -0.49,-0.204l-0.204,-0.122l-0.856,-0.408Zm3.264,-1.388l-1.388,-0.897l-0.285,0.408l-0.408,-0.286l0.857,-1.346l0.408,0.285l-0.245,0.408l1.387,0.939l-0.326,0.489Zm1.387,-3.549c0.122,0.122 0.204,0.245 0.286,0.367c0.081,0.122 0.081,0.286 0.122,0.449c0,0.163 -0.041,0.285 -0.082,0.449c-0.04,0.163 -0.122,0.285 -0.204,0.408c-0.122,0.122 -0.244,0.204 -0.367,0.285c-0.163,0.041 -0.285,0.082 -0.449,0.123c-0.163,0 -0.285,0 -0.448,-0.082c-0.123,-0.041 -0.286,-0.122 -0.408,-0.204c-0.082,-0.122 -0.204,-0.204 -0.245,-0.367c-0.082,-0.123 -0.123,-0.286 -0.123,-0.408c0,-0.163 0,-0.327 0.041,-0.449c0.082,-0.163 0.123,-0.286 0.245,-0.408c0.082,-0.122 0.204,-0.204 0.367,-0.286c0.123,-0.081 0.286,-0.122 0.408,-0.122c0.163,-0.041 0.327,0 0.449,0.041c0.163,0.041 0.286,0.122 0.408,0.204Zm-0.286,1.346c0.123,-0.163 0.164,-0.285 0.123,-0.449c0,-0.163 -0.082,-0.285 -0.245,-0.408c-0.122,-0.122 -0.286,-0.204 -0.449,-0.204c-0.163,0 -0.285,0.082 -0.408,0.204c-0.081,0.123 -0.122,0.245 -0.122,0.408c0.041,0.164 0.122,0.327 0.245,0.449c0.163,0.123 0.285,0.163 0.448,0.163c0.164,0 0.327,-0.04 0.408,-0.163Zm2.122,-1.509l-1.469,-1.673l1.02,-0.857l0.327,0.367l-0.572,0.49l0.245,0.285l0.531,-0.489l0.326,0.367l-0.53,0.49l0.53,0.652l-0.408,0.368Zm1.265,-1.102l-1.183,-1.836l0.53,-0.327c0.204,-0.122 0.367,-0.204 0.449,-0.244c0.081,-0.041 0.163,-0.041 0.285,-0.041c0.082,0 0.164,0.041 0.245,0.081c0.082,0.082 0.163,0.123 0.245,0.245c0.082,0.123 0.122,0.286 0.122,0.408c-0.04,0.123 -0.081,0.245 -0.204,0.368l0.98,0.448l-0.572,0.327l-0.897,-0.449l0.489,0.734l-0.489,0.286Zm-0.163,-1.265l0.122,-0.041c0.082,-0.081 0.163,-0.163 0.204,-0.204c0,-0.081 0,-0.163 -0.041,-0.245c-0.081,-0.081 -0.122,-0.122 -0.204,-0.163c-0.081,0 -0.163,0.041 -0.285,0.123l-0.082,0.04l0.286,0.49Zm1.836,0.204l-1.02,-1.958l1.224,-0.572l0.204,0.408l-0.694,0.368l0.204,0.326l0.612,-0.326l0.204,0.408l-0.612,0.326l0.163,0.326l0.694,-0.326l0.204,0.449l-1.183,0.571Zm1.55,-0.775l-0.898,-1.999l0.572,-0.245l0.897,1.999l-0.571,0.245Zm1.755,-2.938l0.571,-0.163l0.367,1.346c0.041,0.164 0.082,0.286 0.082,0.368c0,0.081 0,0.163 -0.041,0.244c-0.041,0.082 -0.082,0.164 -0.163,0.245c-0.082,0.041 -0.164,0.082 -0.286,0.123c-0.122,0.04 -0.245,0.04 -0.367,0.04c-0.123,-0.04 -0.245,-0.122 -0.327,-0.204l0.245,-0.408c0.041,0.041 0.082,0.082 0.123,0.123c0.04,0.041 0.081,0.041 0.122,0c0.041,0 0.082,-0.041 0.082,-0.123c0,-0.04 -0.041,-0.204 -0.082,-0.448l-0.326,-1.143Zm3.59,0.327c0.041,0.163 0.041,0.326 0,0.448c-0.041,0.164 -0.082,0.286 -0.163,0.449c-0.123,0.123 -0.204,0.204 -0.367,0.286c-0.123,0.081 -0.245,0.163 -0.408,0.163c-0.164,0.041 -0.327,0.041 -0.449,0c-0.163,-0.041 -0.286,-0.082 -0.408,-0.163c-0.163,-0.082 -0.245,-0.204 -0.327,-0.327c-0.081,-0.122 -0.163,-0.285 -0.163,-0.408c-0.041,-0.163 -0.041,-0.326 0,-0.448c0.041,-0.164 0.082,-0.286 0.163,-0.408c0.123,-0.164 0.204,-0.245 0.327,-0.327c0.163,-0.081 0.285,-0.163 0.449,-0.163c0.163,-0.041 0.285,-0.041 0.448,0c0.164,0.041 0.286,0.082 0.408,0.163c0.164,0.082 0.245,0.204 0.327,0.327c0.081,0.122 0.163,0.285 0.163,0.408Zm-1.02,0.856c0.163,-0.04 0.286,-0.122 0.367,-0.244c0.082,-0.164 0.123,-0.327 0.082,-0.49c-0.041,-0.163 -0.123,-0.326 -0.245,-0.408c-0.122,-0.122 -0.286,-0.163 -0.449,-0.122c-0.163,0.04 -0.285,0.122 -0.367,0.244c-0.082,0.164 -0.122,0.327 -0.082,0.49c0.041,0.204 0.123,0.326 0.245,0.449c0.123,0.081 0.286,0.122 0.449,0.081Zm2.162,-0.612l0.612,0l-0.244,-0.734c-0.041,0 -0.041,-0.041 -0.041,-0.082c0,-0.04 -0.041,-0.122 -0.041,-0.204c-0.041,0.082 -0.041,0.123 -0.041,0.164c0,0.04 -0.041,0.081 -0.041,0.122l-0.204,0.734Zm-0.816,0.857l0.694,-2.203l0.734,-0.041l0.857,2.163l-0.612,0.04l-0.122,-0.408l-0.857,0.041l-0.082,0.408l-0.612,0Zm1.551,-2.937c-0.041,0.122 -0.082,0.204 -0.123,0.285c-0.04,0.041 -0.122,0.082 -0.204,0.082l-0.04,0c-0.041,0 -0.041,0 -0.082,0l-0.122,-0.041c-0.041,0 -0.082,-0.041 -0.082,-0.041c-0.041,0 -0.082,0.041 -0.082,0.041c-0.04,0.041 -0.04,0.041 -0.081,0.082l-0.163,0.04c0.04,-0.163 0.04,-0.244 0.122,-0.285c0.041,-0.082 0.122,-0.123 0.204,-0.123l0.041,0c0,0 0.041,0.041 0.081,0.041l0.123,0.041l0.081,0c0.041,0 0.082,0 0.082,-0.041c0.041,-0.041 0.041,-0.041 0.082,-0.081l0.163,0Zm3.305,2.04c-0.041,0.163 -0.082,0.326 -0.163,0.448c-0.041,0.123 -0.164,0.245 -0.286,0.327c-0.122,0.122 -0.245,0.163 -0.408,0.204c-0.163,0.041 -0.286,0.041 -0.449,0.041c-0.163,-0.041 -0.285,-0.082 -0.449,-0.164c-0.122,-0.04 -0.244,-0.163 -0.326,-0.285c-0.122,-0.123 -0.163,-0.245 -0.204,-0.408c-0.041,-0.123 -0.082,-0.286 -0.041,-0.449c0,-0.122 0.041,-0.286 0.123,-0.408c0.081,-0.122 0.204,-0.245 0.326,-0.326c0.122,-0.123 0.245,-0.164 0.408,-0.204c0.122,-0.041 0.286,-0.082 0.449,-0.041c0.163,0 0.285,0.081 0.449,0.122c0.122,0.082 0.244,0.204 0.326,0.327c0.082,0.122 0.163,0.244 0.204,0.367c0.041,0.163 0.041,0.326 0.041,0.449Zm-1.265,0.53c0.163,0 0.326,-0.041 0.449,-0.163c0.122,-0.082 0.204,-0.245 0.204,-0.408c0.041,-0.204 0,-0.367 -0.082,-0.49c-0.122,-0.122 -0.245,-0.204 -0.408,-0.245c-0.163,0 -0.285,0.041 -0.408,0.123c-0.122,0.122 -0.204,0.285 -0.245,0.449c0,0.204 0.041,0.367 0.123,0.489c0.081,0.123 0.204,0.204 0.367,0.245Zm2.978,1.02l-0.53,-0.163l0.571,-2.122l0.612,0.204c0.245,0.041 0.408,0.123 0.49,0.163c0.081,0.041 0.163,0.123 0.204,0.164c0.041,0.081 0.081,0.204 0.122,0.326c0,0.082 0,0.204 -0.041,0.326c-0.04,0.123 -0.081,0.245 -0.163,0.327c-0.041,0.081 -0.122,0.122 -0.245,0.163c-0.081,0.041 -0.163,0.041 -0.244,0.041c-0.082,0 -0.204,-0.041 -0.368,-0.082l-0.122,0l-0.082,-0.041l-0.204,0.694Zm0.327,-1.183l0.122,0.041c0.123,0.04 0.204,0.04 0.286,0.04c0.081,-0.04 0.122,-0.081 0.122,-0.163c0.041,-0.122 0.041,-0.163 0,-0.245c-0.041,-0.04 -0.163,-0.081 -0.285,-0.122l-0.123,-0.041l-0.122,0.49Zm0.979,1.591l0.816,-2.04l1.265,0.53l-0.204,0.449l-0.694,-0.285l-0.163,0.326l0.694,0.286l-0.164,0.408l-0.693,-0.245l-0.123,0.326l0.694,0.286l-0.163,0.489l-1.265,-0.53Zm1.632,0.653l1.102,-1.877l0.367,0.204c0.326,0.163 0.49,0.326 0.612,0.408c0.122,0.122 0.204,0.204 0.245,0.326c0.081,0.164 0.081,0.327 0.081,0.49c0,0.163 -0.081,0.326 -0.163,0.49c-0.081,0.163 -0.204,0.326 -0.367,0.408c-0.123,0.081 -0.286,0.163 -0.449,0.163c-0.122,0 -0.245,0 -0.367,-0.041c-0.163,-0.041 -0.327,-0.122 -0.571,-0.285l-0.123,-0.041l-0.367,-0.245Zm0.734,-0.123l0.082,0.041c0.204,0.123 0.408,0.163 0.53,0.163c0.164,-0.04 0.286,-0.163 0.368,-0.326c0.122,-0.204 0.122,-0.367 0.081,-0.49c-0.041,-0.122 -0.163,-0.244 -0.367,-0.367l-0.082,-0.081l-0.612,1.06Zm1.265,1.347l1.306,-1.795l0.49,0.367c0.204,0.122 0.326,0.245 0.408,0.326c0.04,0.082 0.081,0.164 0.122,0.245c0.041,0.082 0.041,0.163 0.041,0.286c-0.041,0.081 -0.082,0.204 -0.163,0.285c-0.082,0.123 -0.204,0.204 -0.327,0.245c-0.122,0.041 -0.285,0.041 -0.408,-0.041l-0.041,1.061l-0.53,-0.367l0.082,-0.979l-0.49,0.693l-0.49,-0.326Zm1.143,-0.612l0.081,0.041c0.123,0.081 0.204,0.122 0.286,0.122c0.082,0 0.122,-0.041 0.163,-0.122c0.082,-0.082 0.123,-0.163 0.082,-0.245c0,-0.082 -0.082,-0.122 -0.163,-0.204l-0.123,-0.082l-0.326,0.49Zm2.856,2.53c-0.123,0.122 -0.245,0.204 -0.367,0.244c-0.164,0.082 -0.286,0.082 -0.449,0.082c-0.163,0.041 -0.286,0 -0.449,-0.082c-0.122,-0.04 -0.286,-0.122 -0.367,-0.244c-0.123,-0.082 -0.204,-0.204 -0.286,-0.368c-0.041,-0.122 -0.081,-0.285 -0.081,-0.448c0,-0.123 0,-0.286 0.04,-0.449c0.082,-0.123 0.164,-0.245 0.245,-0.367c0.123,-0.123 0.245,-0.204 0.367,-0.245c0.164,-0.082 0.286,-0.082 0.449,-0.082c0.163,-0.041 0.327,0 0.449,0.041c0.163,0.082 0.286,0.163 0.408,0.286c0.082,0.081 0.204,0.204 0.245,0.367c0.081,0.122 0.122,0.285 0.122,0.449c0,0.122 -0.041,0.285 -0.081,0.408c-0.041,0.163 -0.123,0.285 -0.245,0.408Zm-1.306,-0.368c0.123,0.123 0.286,0.164 0.449,0.164c0.163,0 0.286,-0.082 0.408,-0.204c0.122,-0.164 0.204,-0.286 0.204,-0.449c0,-0.163 -0.041,-0.327 -0.163,-0.408c-0.123,-0.123 -0.245,-0.163 -0.408,-0.163c-0.163,0 -0.327,0.081 -0.449,0.204c-0.122,0.163 -0.204,0.285 -0.204,0.448c0,0.164 0.041,0.327 0.163,0.408Zm1.428,2.163l1.795,-1.265l0.245,0.367c0.204,0.286 0.327,0.49 0.367,0.612c0.082,0.123 0.082,0.286 0.082,0.408c0.041,0.163 0,0.327 -0.082,0.449c-0.081,0.163 -0.204,0.286 -0.367,0.408c-0.163,0.122 -0.326,0.163 -0.489,0.204c-0.164,0.041 -0.327,0.041 -0.49,-0.041c-0.122,-0.041 -0.245,-0.122 -0.326,-0.204c-0.123,-0.081 -0.245,-0.245 -0.408,-0.489l-0.082,-0.082l-0.245,-0.367Zm0.735,0.204l0.04,0.081c0.164,0.204 0.286,0.286 0.449,0.327c0.123,0.041 0.286,0 0.449,-0.123c0.163,-0.122 0.286,-0.244 0.286,-0.408c0,-0.163 -0.041,-0.326 -0.164,-0.489l-0.081,-0.082l-0.979,0.694Zm0.571,1.754l1.917,-1.101l0.653,1.142l-0.408,0.245l-0.367,-0.653l-0.326,0.204l0.326,0.612l-0.367,0.245l-0.367,-0.612l-0.327,0.163l0.367,0.653l-0.408,0.245l-0.693,-1.143Zm1.917,2.244c-0.04,0.123 -0.081,0.204 -0.122,0.327c0,0.081 0,0.163 0.041,0.245c0.041,0.081 0.081,0.122 0.122,0.163c0.041,0.041 0.123,0.041 0.163,0.041c0.082,-0.041 0.123,-0.082 0.164,-0.164c0,-0.04 0,-0.163 0,-0.285c-0.041,-0.245 0,-0.408 0.04,-0.531c0.041,-0.122 0.164,-0.204 0.286,-0.245c0.204,-0.081 0.408,-0.081 0.571,0c0.164,0.082 0.286,0.205 0.368,0.449c0.081,0.082 0.081,0.204 0.081,0.327c0.041,0.122 0,0.204 0,0.326l-0.489,0c0.04,-0.081 0.04,-0.163 0.04,-0.245c0,-0.081 0,-0.163 0,-0.204c-0.04,-0.081 -0.081,-0.122 -0.122,-0.163c-0.041,-0.041 -0.123,-0.041 -0.163,0c-0.041,0 -0.082,0.041 -0.082,0.082c-0.041,0.041 -0.041,0.122 0,0.245l0,0.04c0,0.245 0,0.408 -0.041,0.531c-0.041,0.081 -0.081,0.122 -0.122,0.163c-0.082,0.082 -0.163,0.122 -0.245,0.122c-0.204,0.123 -0.408,0.082 -0.612,0c-0.163,-0.081 -0.326,-0.244 -0.408,-0.489c-0.041,-0.123 -0.082,-0.286 -0.082,-0.408c0,-0.123 0.041,-0.286 0.082,-0.408l0.53,0.081Zm-0.081,1.836l2.081,-0.612l0.367,1.306l-0.449,0.122l-0.204,-0.734l-0.367,0.122l0.204,0.694l-0.449,0.122l-0.204,-0.693l-0.367,0.081l0.204,0.735l-0.449,0.163l-0.367,-1.306Zm2.203,2.244c-0.081,0.041 -0.122,0.082 -0.163,0.082c0.041,0 0.082,0.041 0.163,0.041c0,0.041 0,0.041 0.041,0.041l0.53,0.204l0.082,0.693l-1.142,-0.612l-1.021,0.939l-0.081,-0.653l0.571,-0.449c0.041,-0.041 0.082,-0.041 0.082,-0.082c0.041,0 0.081,0 0.122,-0.04c-0.041,0 -0.081,0 -0.122,0c-0.041,0 -0.041,-0.041 -0.082,-0.041l-0.694,-0.286l-0.081,-0.693l1.224,0.693l0.979,-0.857l0.082,0.694l-0.49,0.326Zm-1.51,1.918l1.673,-0.041l0,-0.489l0.531,-0.041l0.041,1.591l-0.531,0l0,-0.49l-1.673,0.041l-0.041,-0.571Zm0.98,3.631c-0.163,0 -0.286,-0.04 -0.449,-0.122c-0.123,-0.041 -0.245,-0.163 -0.327,-0.245c-0.122,-0.122 -0.204,-0.285 -0.244,-0.408c-0.041,-0.163 -0.041,-0.326 -0.041,-0.449c0,-0.163 0.041,-0.326 0.122,-0.449c0.082,-0.163 0.163,-0.285 0.286,-0.367c0.122,-0.122 0.245,-0.163 0.367,-0.245c0.163,-0.04 0.327,-0.04 0.449,-0.04c0.163,0 0.326,0.04 0.449,0.122c0.122,0.082 0.245,0.163 0.367,0.286c0.082,0.122 0.163,0.244 0.204,0.408c0.041,0.122 0.082,0.285 0.041,0.449c0,0.163 -0.041,0.285 -0.123,0.448c-0.04,0.123 -0.163,0.245 -0.285,0.368c-0.082,0.081 -0.245,0.163 -0.367,0.204c-0.164,0.04 -0.286,0.081 -0.449,0.04Zm-0.572,-1.183c0,0.163 0.041,0.286 0.164,0.408c0.122,0.123 0.285,0.163 0.449,0.204c0.204,0 0.326,-0.041 0.489,-0.122c0.123,-0.123 0.204,-0.245 0.204,-0.408c0,-0.163 -0.041,-0.327 -0.163,-0.408c-0.122,-0.123 -0.245,-0.204 -0.449,-0.204c-0.163,-0.041 -0.326,0 -0.449,0.122c-0.163,0.082 -0.204,0.204 -0.245,0.408Z" style="fill:#1f293a;fill-rule:nonzero;"/><path d="M19.87,34.477c-0.53,-4.203 -1.061,-8.405 -1.591,-12.648c3.427,-1.347 6.936,-1.51 10.526,-0.409c3.795,-2.121 6.937,-2.162 9.874,-1.632c0.694,4.203 1.428,8.405 2.122,12.608c-3.223,-0.204 -6.936,0.449 -11.016,1.795c-3.305,0.163 -6.61,0.245 -9.915,0.286Z" style="fill:#1f293a;fill-rule:nonzero;stroke:#fefefe;stroke-width:0.12px;"/><path d="M20.36,34.11c-0.531,-3.999 -1.02,-7.997 -1.551,-12.037c3.264,-0.938 6.488,-0.734 9.915,0.164c3.59,-2 6.691,-2.612 9.506,-2.081c0.653,3.998 1.347,7.956 2,11.954c-3.06,-0.204 -6.569,0.449 -10.445,1.714c-3.142,0.163 -6.284,0.245 -9.425,0.286Z" style="fill:#1f293a;fill-rule:nonzero;stroke:#fefefe;stroke-width:0.12px;"/><path d="M37.741,20.849c-2.407,-0.408 -5.304,-0.122 -9.017,1.388c-3.468,-0.613 -6.528,-0.531 -9.303,0.163c0.449,3.59 0.857,7.221 1.306,10.812c3.142,-0.49 6.161,-0.367 9.058,0.612c3.264,-1.591 6.405,-2.326 9.425,-2.244c-0.49,-3.591 -0.98,-7.14 -1.469,-10.731Z" style="fill:#1f293a;fill-rule:nonzero;stroke:#fefefe;stroke-width:0.12px;"/><path d="M20.196,24.44c2.857,-0.735 5.549,-0.939 8.038,-0.286" style="fill:#1f293a;fill-rule:nonzero;stroke:#fefefe;stroke-width:0.33px;stroke-linecap:round;"/><path d="M20.36,25.99c2.815,-0.734 5.508,-0.938 7.997,-0.245" style="fill:#1f293a;fill-rule:nonzero;stroke:#fefefe;stroke-width:0.33px;stroke-linecap:round;"/><path d="M20.564,27.663c2.815,-0.775 5.508,-0.938 8.037,-0.286" style="fill:#1f293a;fill-rule:nonzero;stroke:#fefefe;stroke-width:0.33px;stroke-linecap:round;"/><path d="M20.686,29.213c2.815,-0.775 5.508,-0.938 8.038,-0.285" style="fill:#1f293a;fill-rule:nonzero;stroke:#fefefe;stroke-width:0.33px;stroke-linecap:round;"/><path d="M21.461,30.886c2.53,-0.693 4.937,-0.857 7.14,-0.244" style="fill:#1f293a;fill-rule:nonzero;stroke:#fefefe;stroke-width:0.33px;stroke-linecap:round;"/><path d="M36.598,23.42c-2.692,-0.286 -5.181,-0.082 -7.344,0.897" style="fill:#1f293a;fill-rule:nonzero;stroke:#fefefe;stroke-width:0.33px;stroke-linecap:round;"/><path d="M36.762,25.093c-2.693,-0.286 -5.182,-0.082 -7.385,0.897" style="fill:#1f293a;fill-rule:nonzero;stroke:#fefefe;stroke-width:0.33px;stroke-linecap:round;"/><path d="M37.047,26.684c-2.693,-0.286 -5.181,-0.082 -7.385,0.857" style="fill:#1f293a;fill-rule:nonzero;stroke:#fefefe;stroke-width:0.33px;stroke-linecap:round;"/><path d="M37.17,28.316c-2.612,-0.286 -5.019,-0.082 -7.141,0.857" style="fill:#1f293a;fill-rule:nonzero;stroke:#fefefe;stroke-width:0.33px;stroke-linecap:round;"/><path d="M37.374,29.744c-2.612,-0.286 -5.06,-0.082 -7.222,0.857" style="fill:#1f293a;fill-rule:nonzero;stroke:#fefefe;stroke-width:0.33px;stroke-linecap:round;"/><path d="M27.663,33.09c0.286,-0.041 0.694,0 0.979,0c0.775,-0.939 0.898,-1.673 0.204,-3.305c-0.367,-0.694 -0.408,-1.714 -0.367,-2.448c-0.408,0.489 -0.571,1.305 -0.408,2.284c0.082,1.143 -0.326,1.388 -0.53,1.877c-0.286,0.612 -0.327,1.184 0.122,1.592Z" style="fill:#1f293a;stroke:#fefefe;stroke-width:0.12px;"/><path d="M28.316,29.785c0.122,1.469 -0.531,1.632 -0.735,2.203c-0.571,1.877 2.775,0.857 0.735,-2.203Z" style="fill:#1f293a;stroke:#fefefe;stroke-width:0.12px;"/><path d="M15.096,33.416c0.327,-0.041 0.898,0.041 1.224,0.245c3.509,-2.04 6.773,-1.51 9.915,0.326c0.979,-0.041 1.958,-0.081 2.938,-0.122c0.081,1.061 -4.325,2.244 -6.12,2.774c-1.796,0.367 -3.346,0.163 -4.693,-0.449c-1.428,-1.02 -2.284,-1.55 -2.978,-1.999c0,-0.245 -0.286,-0.53 -0.286,-0.775Z" style="fill:#1f293a;stroke:#fefefe;stroke-width:0.12px;"/><path d="M21.42,33.008c-1.754,-0.122 -3.223,0.245 -3.223,0.775c-0.041,0.571 1.347,1.061 3.101,1.183c1.755,0.082 3.183,-0.244 3.223,-0.816c0.041,-0.53 -1.387,-1.06 -3.101,-1.142Z" style="fill:#1f293a;stroke:#fefefe;stroke-width:0.12px;"/><path d="M26.113,35.701c-0.572,0.285 -1.143,0.612 -1.673,0.897c-0.286,0.49 -0.775,0.898 -1.795,1.184c-1.021,0.612 -2.081,0.693 -3.224,0.285c-0.163,-0.408 -0.612,-0.489 -1.101,-0.612c0.367,-0.367 0.285,-0.775 0.081,-1.224l0.082,0.041l0.081,0l0.041,0.041l0.082,0.041l0.122,0.04l0.041,0l0.163,0.082l0.041,0l0.082,0.041l0.122,0.041l0.163,0l0.041,0.04c0.041,0 0.082,0 0.122,0.041l0.164,0l0.04,0.041l0.164,0l0,0.041l0.244,0l0.041,0.041l0.286,0l0,0.04l1.469,0l0.081,-0.04l0.327,0l0,-0.041l0.245,0l0.081,-0.041l0.082,0l0.081,-0.041l0.164,0l0.04,-0.041l0.123,0l0,-0.04l0.122,0l0,-0.041l0.123,0l0.04,-0.041l0.123,0l0,-0.041l0.163,0l0.041,-0.041l0.081,0l0.041,-0.04l0.082,0l0.041,-0.041l0.122,0l0.041,-0.041l0.041,0l0.04,-0.041l0.123,0l0.041,-0.041l0.204,-0.04l0.04,0l0.041,-0.041l0.082,0l0.041,-0.041l0.122,0l0,-0.041l0.082,0l0.04,-0.041l0.123,0l0.041,-0.04l0.081,0l0.041,-0.041l0.082,0l0.04,-0.041l0.082,0l0.041,-0.041l0.081,0l0.041,-0.041l0.123,0l0.04,-0.04l0.041,0l0.082,-0.041l0.041,0Z" style="fill:#1f293a;stroke:#fefefe;stroke-width:0.12px;"/><path d="M17.871,35.864c0.857,0.49 0.897,1.591 0.367,1.714c-0.938,0.122 -0.938,-1.714 -1.958,-1.347c-0.123,-0.285 -0.286,-0.612 -0.408,-0.897c0.734,0.04 1.387,0.204 1.999,0.53Z" style="fill:#1f293a;stroke:#fefefe;stroke-width:0.12px;"/><path d="M19.421,38.067c0.082,0.204 0.163,0.449 0.163,0.694c1.02,0.245 1.877,0.326 2.53,0.081c0,-0.285 0.163,-0.612 0.367,-0.979c-0.979,0.531 -1.999,0.571 -3.06,0.204Z" style="fill:#1f293a;stroke:#fefefe;stroke-width:0.12px;"/><path d="M19.38,38.72c1.224,0.326 2.244,0.408 2.897,0.041" style="fill:#1f293a;stroke:#fefefe;stroke-width:0.12px;"/><path d="M22.114,38.842c-0.653,0.245 -1.51,0.164 -2.53,-0.081c0,0.204 0,0.408 -0.081,0.612c1.101,0.49 1.917,0.367 2.693,0c-0.082,-0.163 -0.123,-0.327 -0.082,-0.531Z" style="fill:#1f293a;stroke:#fefefe;stroke-width:0.12px;"/><path d="M22.196,39.373c0.408,0.286 2.244,1.02 0.897,1.836c-0.53,0.245 -1.101,0.367 -1.713,0.449l-0.939,-0.653c-0.53,-0.408 -1.061,-0.857 -1.55,-1.306l0.612,-0.326c1.101,0.49 1.917,0.367 2.693,0Z" style="fill:#1f293a;stroke:#fefefe;stroke-width:0.12px;"/><path d="M29.417,11.995c9.425,0 17.055,7.63 17.055,17.055c0,9.384 -7.63,17.014 -17.055,17.014c-9.384,0 -17.014,-7.63 -17.014,-17.014c0,-9.425 7.63,-17.055 17.014,-17.055Zm0,0.735c9.017,0 16.321,7.303 16.321,16.32c0,8.976 -7.304,16.28 -16.321,16.28c-8.976,0 -16.279,-7.304 -16.279,-16.28c0,-9.017 7.303,-16.32 16.279,-16.32Z" style="fill:#1f293a;"/><path d="M27.214,33.09l1.836,0c0.041,0 0.082,0.04 0.082,0.122c0,0.041 -0.041,0.082 -0.082,0.082l-1.836,0c-0.081,0 -0.122,-0.041 -0.122,-0.082c0,-0.082 0.041,-0.122 0.122,-0.122Z" style="fill:#1f293a;stroke:#fefefe;stroke-width:0.12px;"/><path d="M27.01,33.334l2.122,0c0.081,0 0.122,0.041 0.122,0.082c0,0.082 -0.041,0.122 -0.122,0.122l-2.122,0c-0.041,0 -0.081,-0.04 -0.081,-0.122c0,-0.041 0.04,-0.082 0.081,-0.082Z" style="fill:#1f293a;stroke:#fefefe;stroke-width:0.12px;"/><path d="M27.01,33.579l2.203,0c0.041,0 0.082,0.041 0.082,0.082c0,0.081 -0.041,0.122 -0.082,0.122l-2.203,0c-0.041,0 -0.081,-0.041 -0.081,-0.122c0,-0.041 0.04,-0.082 0.081,-0.082Z" style="fill:#1f293a;stroke:#fefefe;stroke-width:0.12px;"/><path d="M21.38,33.824c1.346,0.082 2.448,0.408 2.448,0.734c0,0.327 -1.102,0.49 -2.448,0.449c-1.306,-0.081 -2.408,-0.408 -2.408,-0.734c0,-0.327 1.102,-0.531 2.408,-0.449Z" style="fill:#1f293a;stroke:#fefefe;stroke-width:0.12px;"/></g></svg>