<?xml version="1.0" encoding="UTF-8" standalone="no"?><!DOCTYPE svg PUBLIC "-//W3C//DTD SVG 1.1//EN" "http://www.w3.org/Graphics/SVG/1.1/DTD/svg11.dtd"><svg width="100%" height="100%" viewBox="0 0 200 47" version="1.1" xmlns="http://www.w3.org/2000/svg" xmlns:xlink="http://www.w3.org/1999/xlink" xml:space="preserve" xmlns:serif="http://www.serif.com/" style="fill-rule:evenodd;clip-rule:evenodd;stroke-linejoin:round;stroke-miterlimit:1.41421;"><g><path d="M52.356,8.159l-0.667,0l-9.822,25.559c-0.934,2.525 -2.178,3.426 -3.245,3.697l0,0.811c0.8,-0.09 1.689,-0.135 3.111,-0.135c1.467,0 3.2,0.045 4.756,0.135l0,-0.811c-2.356,-0.091 -3.6,-0.722 -3.6,-2.57c0,-0.856 0.267,-1.983 0.844,-3.426l1.689,-4.508l10.045,0l2.577,6.942c0.312,0.857 0.489,1.488 0.489,1.984c0,1.172 -0.933,1.487 -2.977,1.578l0,0.811c1.2,-0.09 3.2,-0.135 5.333,-0.135c1.6,0 3.333,0.045 4.489,0.135l0,-0.811c-0.889,-0.045 -2.045,-0.586 -2.889,-2.705l-10.133,-26.551Zm2.8,17.941l-9.423,0l4.8,-12.622l4.623,12.622Zm22.088,-17.761c-1.333,0.091 -3.377,0.136 -5.288,0.136c-2.178,0 -4.178,-0.045 -5.334,-0.136l0,0.857c2.8,0.135 3.378,0.541 3.378,3.606l0,19.293c0,5.861 -0.133,7.934 -0.711,9.692c-0.756,2.254 -2.578,3.606 -5.022,3.606c-0.711,0 -2.089,-0.135 -2.667,-0.676c1.067,-0.225 1.778,-0.946 1.778,-2.163c0,-1.443 -1.022,-2.299 -2.311,-2.299c-1.289,0 -2.178,0.946 -2.178,2.253c0,1.172 0.622,2.209 1.955,2.885c0.756,0.406 1.956,0.767 3.512,0.767c4.755,0 7.866,-2.975 8.8,-6.852c0.666,-2.84 0.711,-7.528 0.711,-11.044l0,-15.462c0,-3.065 0.533,-3.471 3.377,-3.606l0,-0.857Zm14.534,-0.18l-0.667,0l-9.822,25.559c-0.933,2.525 -2.178,3.426 -3.245,3.697l0,0.811c0.8,-0.09 1.689,-0.135 3.112,-0.135c1.466,0 3.2,0.045 4.755,0.135l0,-0.811c-2.355,-0.091 -3.6,-0.722 -3.6,-2.57c0,-0.856 0.267,-1.983 0.845,-3.426l1.688,-4.508l10.045,0l2.578,6.942c0.311,0.857 0.489,1.488 0.489,1.984c0,1.172 -0.934,1.487 -2.978,1.578l0,0.811c1.2,-0.09 3.2,-0.135 5.333,-0.135c1.6,0 3.333,0.045 4.489,0.135l0,-0.811c-0.889,-0.045 -2.044,-0.586 -2.889,-2.705l-10.133,-26.551Zm2.8,17.941l-9.422,0l4.8,-12.622l4.622,12.622Zm24.666,-4.192l5.823,-8.835c1.511,-2.299 2.977,-3.652 4.711,-3.877l0,-0.857c-0.845,0.091 -2.134,0.136 -3.556,0.136c-1.466,0 -3.2,-0.045 -4.8,-0.136l0,0.857c2.089,0.045 3.245,0.451 3.245,1.668c0,0.901 -0.578,2.209 -1.823,4.057l-4.088,6.221l-6.489,-10.053c-0.223,-0.36 -0.356,-0.676 -0.356,-0.946c0,-0.586 0.8,-0.902 2.8,-0.902l0,-0.902c-1.555,0.091 -3.644,0.181 -5.867,0.181c-1.422,0 -2.888,-0.136 -3.6,-0.181l0,0.902c1.245,0.09 1.734,0.451 2.8,2.119l8.134,12.667l-6.267,9.511c-1.555,2.299 -2.978,3.606 -4.711,3.877l0,0.811c0.844,-0.09 2.133,-0.135 3.556,-0.135c1.466,0 4.044,0.045 5.6,0.135l0,-0.811c-2.223,-0.091 -3.689,-0.541 -3.689,-2.029c0,-0.856 0.489,-2.073 1.555,-3.741l4.534,-6.762l7.111,11.044c0.177,0.271 0.266,0.541 0.266,0.766c0,0.541 -0.889,0.677 -2.933,0.677l0,0.856c1.111,-0.045 3.6,-0.18 5.867,-0.18c1.422,0 2.844,0.135 3.555,0.18l0,-0.856c-1.244,-0.091 -1.733,-0.496 -2.755,-2.119l-8.623,-13.343Z" style="fill:#fff;fill-rule:nonzero;"/><path d="M155.022,12.982l0.978,0l0,3.877l-0.978,0l0,-0.406c-0.178,0.181 -0.355,0.316 -0.578,0.406c-0.177,0.09 -0.4,0.09 -0.577,0.09c-0.534,0 -0.934,-0.18 -1.289,-0.586c-0.4,-0.36 -0.578,-0.856 -0.578,-1.442c0,-0.586 0.178,-1.082 0.533,-1.443c0.356,-0.405 0.8,-0.586 1.289,-0.586c0.222,0 0.445,0.045 0.622,0.136c0.223,0.09 0.4,0.225 0.578,0.36l0,-0.406Zm-1.022,0.812c-0.267,0 -0.533,0.09 -0.711,0.315c-0.222,0.226 -0.311,0.496 -0.311,0.812c0,0.315 0.089,0.631 0.311,0.811c0.178,0.226 0.444,0.361 0.711,0.361c0.311,0 0.578,-0.135 0.756,-0.316c0.222,-0.225 0.311,-0.496 0.311,-0.856c0,-0.361 -0.089,-0.631 -0.311,-0.812c-0.178,-0.225 -0.445,-0.315 -0.756,-0.315Zm5.778,-2.299l0.978,0l0,5.364l-0.978,0l0,-0.406c-0.178,0.181 -0.356,0.316 -0.534,0.406c-0.222,0.09 -0.4,0.09 -0.622,0.09c-0.489,0 -0.933,-0.18 -1.289,-0.586c-0.355,-0.36 -0.533,-0.856 -0.533,-1.442c0,-0.586 0.178,-1.082 0.489,-1.443c0.355,-0.405 0.8,-0.586 1.289,-0.586c0.222,0 0.444,0.045 0.666,0.136c0.178,0.09 0.4,0.225 0.534,0.405l0,-1.938Zm-0.978,2.299c-0.311,0 -0.578,0.09 -0.756,0.315c-0.222,0.226 -0.311,0.496 -0.311,0.812c0,0.315 0.089,0.631 0.311,0.811c0.223,0.226 0.445,0.361 0.756,0.361c0.311,0 0.533,-0.135 0.756,-0.316c0.177,-0.225 0.266,-0.496 0.266,-0.856c0,-0.361 -0.089,-0.631 -0.266,-0.812c-0.223,-0.225 -0.489,-0.315 -0.756,-0.315Zm2.533,-0.812l0.978,0l0.978,2.299l0.933,-2.299l0.978,0l-1.644,3.877l-0.623,0l-1.6,-3.877Zm7.289,0l0.934,0l0,3.877l-0.934,0l0,-0.406c-0.222,0.181 -0.4,0.316 -0.578,0.406c-0.177,0.09 -0.4,0.09 -0.622,0.09c-0.489,0 -0.933,-0.18 -1.289,-0.586c-0.355,-0.36 -0.533,-0.856 -0.533,-1.442c0,-0.586 0.178,-1.082 0.533,-1.443c0.356,-0.405 0.756,-0.586 1.245,-0.586c0.266,0 0.489,0.045 0.666,0.136c0.223,0.09 0.4,0.225 0.578,0.36l0,-0.406Zm-1.022,0.812c-0.311,0 -0.533,0.09 -0.756,0.315c-0.177,0.226 -0.266,0.496 -0.266,0.812c0,0.315 0.089,0.631 0.266,0.811c0.223,0.226 0.445,0.361 0.756,0.361c0.311,0 0.533,-0.135 0.756,-0.316c0.177,-0.225 0.311,-0.496 0.311,-0.856c0,-0.361 -0.134,-0.631 -0.311,-0.812c-0.223,-0.225 -0.445,-0.315 -0.756,-0.315Zm2.933,-0.812l0.978,0l0,0.406c0.222,-0.18 0.4,-0.315 0.578,-0.406c0.178,-0.045 0.355,-0.09 0.533,-0.09c0.4,0 0.711,0.136 0.978,0.406c0.222,0.225 0.356,0.541 0.356,0.992l0,2.569l-0.978,0l0,-1.668c0,-0.496 0,-0.811 -0.045,-0.946c-0.044,-0.136 -0.133,-0.271 -0.222,-0.361c-0.089,-0.045 -0.222,-0.09 -0.355,-0.09c-0.223,0 -0.4,0.045 -0.534,0.18c-0.133,0.135 -0.222,0.316 -0.266,0.541c-0.045,0.135 -0.045,0.406 -0.045,0.811l0,1.533l-0.978,0l0,-3.877Zm8.089,0.812l-0.8,0.406c-0.133,-0.136 -0.311,-0.271 -0.444,-0.316c-0.134,-0.045 -0.311,-0.09 -0.489,-0.09c-0.4,0 -0.667,0.09 -0.889,0.315c-0.222,0.226 -0.356,0.496 -0.356,0.857c0,0.315 0.134,0.586 0.356,0.811c0.178,0.181 0.489,0.316 0.844,0.316c0.4,0 0.756,-0.181 0.978,-0.451l0.756,0.496c-0.4,0.541 -0.978,0.811 -1.734,0.811c-0.666,0 -1.2,-0.18 -1.6,-0.586c-0.355,-0.405 -0.577,-0.856 -0.577,-1.442c0,-0.361 0.133,-0.721 0.311,-1.037c0.178,-0.316 0.444,-0.541 0.755,-0.721c0.356,-0.181 0.711,-0.271 1.111,-0.271c0.4,0 0.756,0.09 1.023,0.226c0.311,0.135 0.577,0.36 0.755,0.676Zm4.711,1.397l-3.066,0c0.044,0.271 0.133,0.496 0.355,0.676c0.178,0.181 0.445,0.226 0.711,0.226c0.356,0 0.667,-0.09 0.934,-0.361l0.8,0.361c-0.178,0.315 -0.445,0.541 -0.711,0.676c-0.267,0.135 -0.623,0.18 -1.023,0.18c-0.577,0 -1.066,-0.18 -1.466,-0.541c-0.356,-0.405 -0.534,-0.901 -0.534,-1.442c0,-0.586 0.178,-1.082 0.534,-1.488c0.4,-0.405 0.844,-0.586 1.422,-0.586c0.622,0 1.111,0.181 1.467,0.586c0.4,0.406 0.577,0.902 0.577,1.533l0,0.18Zm-0.933,-0.766c-0.089,-0.18 -0.222,-0.361 -0.4,-0.496c-0.178,-0.135 -0.4,-0.225 -0.667,-0.225c-0.266,0 -0.489,0.09 -0.666,0.225c-0.134,0.09 -0.267,0.271 -0.356,0.496l2.089,0Zm4.578,-2.93l0.933,0l0,5.364l-0.933,0l0,-0.406c-0.222,0.181 -0.4,0.316 -0.578,0.406c-0.178,0.09 -0.4,0.09 -0.622,0.09c-0.489,0 -0.934,-0.18 -1.289,-0.586c-0.356,-0.36 -0.533,-0.856 -0.533,-1.442c0,-0.586 0.177,-1.082 0.533,-1.443c0.355,-0.405 0.755,-0.586 1.244,-0.586c0.267,0 0.445,0.045 0.667,0.136c0.222,0.09 0.4,0.225 0.578,0.405l0,-1.938Zm-1.022,2.299c-0.312,0 -0.534,0.09 -0.756,0.315c-0.178,0.226 -0.311,0.496 -0.311,0.812c0,0.315 0.133,0.631 0.311,0.811c0.222,0.226 0.444,0.361 0.756,0.361c0.311,0 0.533,-0.135 0.755,-0.316c0.178,-0.225 0.311,-0.496 0.311,-0.856c0,-0.361 -0.133,-0.631 -0.311,-0.812c-0.222,-0.225 -0.444,-0.315 -0.755,-0.315Zm-33.645,6.626l0.933,0l0,1.443l0.578,0l0,0.856l-0.578,0l0,3.02l-0.933,0l0,-3.02l-0.489,0l0,-0.856l0.489,0l0,-1.443Zm5.867,3.652l-3.067,0c0.045,0.27 0.178,0.495 0.356,0.676c0.177,0.18 0.444,0.225 0.711,0.225c0.4,0 0.666,-0.09 0.933,-0.36l0.8,0.36c-0.178,0.316 -0.444,0.541 -0.711,0.676c-0.267,0.136 -0.622,0.181 -0.978,0.181c-0.622,0 -1.111,-0.181 -1.466,-0.541c-0.4,-0.406 -0.578,-0.902 -0.578,-1.443c0,-0.586 0.178,-1.082 0.578,-1.487c0.355,-0.406 0.844,-0.586 1.422,-0.586c0.578,0 1.066,0.18 1.466,0.586c0.356,0.405 0.534,0.901 0.534,1.532l0,0.181Zm-0.934,-0.767c-0.088,-0.18 -0.177,-0.36 -0.4,-0.496c-0.177,-0.135 -0.4,-0.225 -0.622,-0.225c-0.266,0 -0.533,0.09 -0.711,0.225c-0.133,0.136 -0.267,0.271 -0.355,0.496l2.088,0Zm5.512,-0.631l-0.8,0.451c-0.178,-0.18 -0.312,-0.271 -0.489,-0.361c-0.134,-0.045 -0.311,-0.09 -0.489,-0.09c-0.356,0 -0.667,0.09 -0.889,0.316c-0.222,0.225 -0.311,0.496 -0.311,0.856c0,0.316 0.089,0.586 0.311,0.812c0.222,0.18 0.489,0.315 0.844,0.315c0.445,0 0.756,-0.18 1.023,-0.451l0.755,0.496c-0.444,0.541 -1.022,0.812 -1.778,0.812c-0.666,0 -1.2,-0.181 -1.555,-0.586c-0.4,-0.406 -0.578,-0.857 -0.578,-1.398c0,-0.406 0.089,-0.721 0.267,-1.082c0.177,-0.315 0.444,-0.541 0.8,-0.721c0.311,-0.18 0.666,-0.27 1.111,-0.27c0.355,0 0.711,0.09 1.022,0.225c0.311,0.135 0.533,0.361 0.756,0.676Zm0.844,-2.299l0.978,0l0,1.893c0.178,-0.18 0.355,-0.315 0.578,-0.36c0.177,-0.09 0.355,-0.135 0.577,-0.135c0.356,0 0.667,0.135 0.934,0.405c0.222,0.226 0.355,0.541 0.355,0.992l0,2.569l-0.978,0l0,-1.667c0,-0.451 0,-0.767 -0.044,-0.947c-0.044,-0.135 -0.133,-0.271 -0.222,-0.361c-0.089,-0.045 -0.222,-0.09 -0.356,-0.09c-0.222,0 -0.4,0.045 -0.533,0.18c-0.133,0.136 -0.222,0.316 -0.267,0.541c-0.044,0.136 -0.044,0.361 -0.044,0.812l0,1.532l-0.978,0l0,-5.364Zm4.356,1.488l0.933,0l0,0.405c0.222,-0.18 0.444,-0.315 0.622,-0.405c0.178,-0.045 0.356,-0.09 0.533,-0.09c0.356,0 0.712,0.135 0.978,0.405c0.222,0.226 0.311,0.541 0.311,0.992l0,2.569l-0.933,0l0,-1.667c0,-0.496 -0.044,-0.812 -0.089,-0.947c-0.044,-0.135 -0.089,-0.271 -0.222,-0.361c-0.089,-0.045 -0.222,-0.09 -0.356,-0.09c-0.177,0 -0.355,0.045 -0.489,0.18c-0.133,0.136 -0.266,0.316 -0.311,0.541c0,0.136 -0.044,0.406 -0.044,0.812l0,1.532l-0.933,0l0,-3.876Zm6.133,-0.09c0.355,0 0.711,0.09 1.022,0.27c0.311,0.18 0.578,0.451 0.756,0.766c0.177,0.316 0.266,0.631 0.266,0.992c0,0.361 -0.089,0.721 -0.266,1.037c-0.223,0.315 -0.445,0.541 -0.756,0.721c-0.311,0.18 -0.667,0.271 -1.022,0.271c-0.578,0 -1.022,-0.181 -1.422,-0.586c-0.4,-0.406 -0.578,-0.857 -0.578,-1.443c0,-0.586 0.222,-1.082 0.667,-1.487c0.355,-0.361 0.8,-0.541 1.333,-0.541Zm0,0.901c-0.311,0 -0.533,0.135 -0.756,0.316c-0.177,0.225 -0.266,0.496 -0.266,0.811c0,0.361 0.089,0.631 0.266,0.812c0.223,0.225 0.445,0.315 0.756,0.315c0.311,0 0.533,-0.09 0.755,-0.315c0.178,-0.181 0.312,-0.451 0.312,-0.812c0,-0.315 -0.134,-0.586 -0.312,-0.811c-0.177,-0.181 -0.444,-0.316 -0.755,-0.316Zm2.711,-2.299l0.978,0l0,5.364l-0.978,0l0,-5.364Zm3.644,1.398c0.356,0 0.712,0.09 1.023,0.27c0.311,0.18 0.577,0.451 0.755,0.766c0.178,0.316 0.267,0.631 0.267,0.992c0,0.361 -0.089,0.721 -0.267,1.037c-0.222,0.315 -0.444,0.541 -0.755,0.721c-0.311,0.18 -0.667,0.271 -1.023,0.271c-0.577,0 -1.022,-0.181 -1.422,-0.586c-0.4,-0.406 -0.578,-0.857 -0.578,-1.443c0,-0.586 0.223,-1.082 0.667,-1.487c0.356,-0.361 0.8,-0.541 1.333,-0.541Zm0,0.901c-0.311,0 -0.533,0.135 -0.755,0.316c-0.178,0.225 -0.267,0.496 -0.267,0.811c0,0.361 0.089,0.631 0.267,0.812c0.222,0.225 0.444,0.315 0.755,0.315c0.312,0 0.534,-0.09 0.756,-0.315c0.178,-0.181 0.311,-0.451 0.311,-0.812c0,-0.315 -0.133,-0.586 -0.311,-0.811c-0.178,-0.181 -0.444,-0.316 -0.756,-0.316Zm5.645,-0.811l0.978,0l0,3.336c0,0.631 -0.134,1.126 -0.4,1.442c-0.356,0.406 -0.889,0.631 -1.6,0.631c-0.356,0 -0.667,-0.045 -0.934,-0.135c-0.266,-0.09 -0.489,-0.226 -0.666,-0.451c-0.178,-0.18 -0.311,-0.406 -0.4,-0.631l1.066,0c0.089,0.09 0.223,0.18 0.4,0.225c0.134,0.045 0.311,0.091 0.489,0.091c0.267,0 0.489,-0.046 0.622,-0.136c0.178,-0.09 0.312,-0.18 0.356,-0.315c0.044,-0.135 0.089,-0.316 0.089,-0.631c-0.178,0.135 -0.356,0.27 -0.533,0.36c-0.178,0.09 -0.4,0.09 -0.623,0.09c-0.533,0 -0.977,-0.18 -1.333,-0.54c-0.356,-0.406 -0.533,-0.857 -0.533,-1.443c0,-0.631 0.222,-1.127 0.577,-1.488c0.356,-0.315 0.756,-0.495 1.245,-0.495c0.222,0 0.4,0.045 0.622,0.135c0.178,0.045 0.4,0.18 0.578,0.406l0,-0.451Zm-0.978,0.811c-0.311,0 -0.578,0.135 -0.755,0.316c-0.223,0.225 -0.312,0.45 -0.312,0.766c0,0.316 0.089,0.586 0.312,0.811c0.177,0.181 0.444,0.316 0.755,0.316c0.311,0 0.533,-0.135 0.756,-0.316c0.177,-0.225 0.266,-0.45 0.266,-0.811c0,-0.316 -0.089,-0.586 -0.266,-0.766c-0.223,-0.226 -0.489,-0.316 -0.756,-0.316Zm3.289,-2.389c0.178,0 0.311,0.045 0.444,0.18c0.134,0.091 0.178,0.271 0.178,0.451c0,0.18 -0.044,0.316 -0.178,0.451c-0.133,0.09 -0.266,0.18 -0.444,0.18c-0.178,0 -0.311,-0.09 -0.444,-0.225c-0.089,-0.09 -0.178,-0.271 -0.178,-0.451c0,-0.135 0.089,-0.315 0.178,-0.406c0.133,-0.135 0.266,-0.18 0.444,-0.18Zm-0.489,1.578l0.978,0l0,3.876l-0.978,0l0,-3.876Zm5.6,0.811l-0.8,0.451c-0.133,-0.18 -0.311,-0.271 -0.444,-0.361c-0.134,-0.045 -0.311,-0.09 -0.534,-0.09c-0.355,0 -0.622,0.09 -0.844,0.316c-0.222,0.225 -0.356,0.496 -0.356,0.856c0,0.316 0.134,0.586 0.311,0.812c0.223,0.18 0.489,0.315 0.845,0.315c0.444,0 0.755,-0.18 1.022,-0.451l0.756,0.496c-0.4,0.541 -0.978,0.812 -1.734,0.812c-0.666,0 -1.2,-0.181 -1.6,-0.586c-0.4,-0.406 -0.577,-0.857 -0.577,-1.398c0,-0.406 0.088,-0.721 0.266,-1.082c0.222,-0.315 0.445,-0.541 0.8,-0.721c0.311,-0.18 0.711,-0.27 1.111,-0.27c0.4,0 0.711,0.09 1.023,0.225c0.311,0.135 0.577,0.361 0.755,0.676Zm3.689,-0.811l0.978,0l0,3.876l-0.978,0l0,-0.405c-0.178,0.18 -0.356,0.315 -0.533,0.405c-0.223,0.091 -0.4,0.091 -0.623,0.091c-0.488,0 -0.933,-0.181 -1.288,-0.541c-0.356,-0.406 -0.534,-0.902 -0.534,-1.488c0,-0.586 0.134,-1.082 0.489,-1.442c0.356,-0.406 0.8,-0.586 1.289,-0.586c0.222,0 0.444,0.045 0.667,0.135c0.177,0.09 0.355,0.225 0.533,0.406l0,-0.451Zm-0.978,0.811c-0.311,0 -0.578,0.09 -0.755,0.316c-0.223,0.225 -0.311,0.496 -0.311,0.811c0,0.316 0.088,0.631 0.311,0.812c0.177,0.225 0.444,0.36 0.755,0.36c0.267,0 0.534,-0.135 0.756,-0.315c0.178,-0.226 0.266,-0.496 0.266,-0.857c0,-0.361 -0.088,-0.631 -0.266,-0.811c-0.222,-0.226 -0.489,-0.316 -0.756,-0.316Zm2.8,-2.299l0.978,0l0,5.364l-0.978,0l0,-5.364Zm-44.489,10.909l-0.577,0.631c-0.267,-0.27 -0.489,-0.36 -0.667,-0.36c-0.133,0 -0.178,0 -0.267,0.045c-0.044,0.045 -0.089,0.09 -0.089,0.18c0,0.045 0.045,0.09 0.045,0.135c0.044,0.045 0.133,0.09 0.311,0.18l0.355,0.181c0.356,0.18 0.623,0.36 0.756,0.586c0.133,0.18 0.222,0.405 0.222,0.676c0,0.315 -0.133,0.631 -0.4,0.856c-0.222,0.226 -0.578,0.316 -0.978,0.316c-0.577,0 -1.022,-0.18 -1.377,-0.631l0.622,-0.676c0.089,0.135 0.222,0.27 0.4,0.315c0.133,0.09 0.267,0.135 0.4,0.135c0.133,0 0.222,-0.045 0.311,-0.09c0.089,-0.045 0.089,-0.135 0.089,-0.225c0,-0.135 -0.133,-0.271 -0.4,-0.406l-0.311,-0.18c-0.622,-0.316 -0.934,-0.721 -0.934,-1.172c0,-0.316 0.089,-0.586 0.356,-0.811c0.222,-0.226 0.533,-0.316 0.889,-0.316c0.222,0 0.489,0.045 0.711,0.18c0.178,0.09 0.4,0.271 0.533,0.451Zm2.623,-0.631c0.4,0 0.711,0.09 1.022,0.27c0.355,0.181 0.578,0.451 0.755,0.767c0.178,0.315 0.267,0.631 0.267,0.991c0,0.361 -0.089,0.722 -0.267,1.037c-0.177,0.316 -0.4,0.586 -0.711,0.767c-0.311,0.135 -0.666,0.225 -1.066,0.225c-0.534,0 -1.023,-0.18 -1.378,-0.586c-0.4,-0.361 -0.578,-0.857 -0.578,-1.443c0,-0.586 0.178,-1.081 0.622,-1.487c0.4,-0.361 0.845,-0.541 1.334,-0.541Zm0.044,0.902c-0.311,0 -0.578,0.135 -0.756,0.315c-0.222,0.225 -0.311,0.496 -0.311,0.811c0,0.361 0.089,0.632 0.311,0.812c0.178,0.225 0.445,0.315 0.756,0.315c0.267,0 0.533,-0.09 0.756,-0.315c0.177,-0.18 0.266,-0.451 0.266,-0.812c0,-0.315 -0.089,-0.586 -0.266,-0.811c-0.223,-0.18 -0.445,-0.315 -0.756,-0.315Zm2.711,-2.299l0.933,0l0,5.364l-0.933,0l0,-5.364Zm1.822,1.487l0.978,0l0,1.893c0,0.361 0,0.586 0.045,0.722c0.044,0.18 0.133,0.27 0.266,0.36c0.089,0.045 0.222,0.09 0.4,0.09c0.134,0 0.311,-0.045 0.4,-0.09c0.134,-0.09 0.178,-0.18 0.267,-0.36c0.044,-0.091 0.044,-0.361 0.044,-0.722l0,-1.893l0.978,0l0,1.668c0,0.676 -0.089,1.127 -0.178,1.352c-0.133,0.316 -0.311,0.541 -0.577,0.722c-0.223,0.18 -0.578,0.225 -0.934,0.225c-0.444,0 -0.8,-0.09 -1.022,-0.27c-0.267,-0.181 -0.444,-0.451 -0.578,-0.812c-0.044,-0.225 -0.089,-0.631 -0.089,-1.262l0,-1.623Zm4.445,-1.442l0.933,0l0,1.442l0.578,0l0,0.857l-0.578,0l0,3.02l-0.933,0l0,-3.02l-0.489,0l0,-0.857l0.489,0l0,-1.442Zm2.444,-0.136c0.134,0 0.311,0.045 0.4,0.181c0.134,0.135 0.178,0.27 0.178,0.45c0,0.181 -0.044,0.316 -0.178,0.451c-0.089,0.09 -0.222,0.181 -0.4,0.181c-0.178,0 -0.311,-0.091 -0.444,-0.226c-0.134,-0.09 -0.178,-0.27 -0.178,-0.451c0,-0.135 0.044,-0.315 0.178,-0.405c0.133,-0.136 0.266,-0.181 0.444,-0.181Zm-0.489,1.578l0.934,0l0,3.877l-0.934,0l0,-3.877Zm3.645,-0.09c0.355,0 0.666,0.09 1.022,0.27c0.311,0.181 0.533,0.451 0.711,0.767c0.178,0.315 0.267,0.631 0.267,0.991c0,0.361 -0.089,0.722 -0.267,1.037c-0.178,0.316 -0.4,0.586 -0.711,0.767c-0.311,0.135 -0.667,0.225 -1.022,0.225c-0.578,0 -1.022,-0.18 -1.422,-0.586c-0.4,-0.361 -0.578,-0.857 -0.578,-1.443c0,-0.586 0.222,-1.081 0.666,-1.487c0.356,-0.361 0.8,-0.541 1.334,-0.541Zm0,0.902c-0.311,0 -0.534,0.135 -0.756,0.315c-0.178,0.225 -0.311,0.496 -0.311,0.811c0,0.361 0.133,0.632 0.311,0.812c0.178,0.225 0.445,0.315 0.756,0.315c0.311,0 0.533,-0.09 0.755,-0.315c0.178,-0.18 0.267,-0.451 0.267,-0.812c0,-0.315 -0.089,-0.586 -0.267,-0.811c-0.222,-0.18 -0.444,-0.315 -0.755,-0.315Zm2.8,-0.812l0.978,0l0,0.406c0.222,-0.18 0.4,-0.316 0.577,-0.406c0.178,-0.045 0.356,-0.09 0.534,-0.09c0.4,0 0.711,0.135 0.977,0.406c0.223,0.225 0.356,0.541 0.356,0.991l0,2.57l-0.978,0l0,-1.668c0,-0.496 0,-0.766 -0.044,-0.947c-0.045,-0.135 -0.134,-0.27 -0.222,-0.36c-0.089,-0.045 -0.223,-0.09 -0.4,-0.09c-0.178,0 -0.356,0.045 -0.489,0.18c-0.134,0.135 -0.223,0.315 -0.267,0.541c-0.044,0.135 -0.044,0.405 -0.044,0.811l0,1.533l-0.978,0l0,-3.877Zm6.666,0.541l-0.577,0.631c-0.223,-0.27 -0.445,-0.36 -0.667,-0.36c-0.089,0 -0.178,0 -0.222,0.045c-0.089,0.045 -0.134,0.09 -0.134,0.18c0,0.045 0.045,0.09 0.089,0.135c0.045,0.045 0.134,0.09 0.267,0.18l0.356,0.181c0.355,0.18 0.622,0.36 0.755,0.586c0.133,0.18 0.222,0.405 0.222,0.676c0,0.315 -0.133,0.631 -0.355,0.856c-0.267,0.226 -0.622,0.316 -1.022,0.316c-0.578,0 -1.023,-0.18 -1.334,-0.631l0.578,-0.676c0.133,0.135 0.267,0.27 0.4,0.315c0.133,0.09 0.267,0.135 0.4,0.135c0.133,0 0.222,-0.045 0.311,-0.09c0.089,-0.045 0.133,-0.135 0.133,-0.225c0,-0.135 -0.133,-0.271 -0.444,-0.406l-0.311,-0.18c-0.622,-0.316 -0.933,-0.721 -0.933,-1.172c0,-0.316 0.133,-0.586 0.355,-0.811c0.222,-0.226 0.533,-0.316 0.889,-0.316c0.267,0 0.489,0.045 0.711,0.18c0.222,0.09 0.4,0.271 0.533,0.451Z" style="fill:#fff;fill-rule:nonzero;"/><rect x="142.933" y="0" width="0.8" height="46.205" style="fill:#fff;"/><path d="M134,11.765l0,-3.02l-1.067,0l0,-0.586l2.845,0l0,0.586l-1.067,0l0,3.02l-0.711,0Zm2.222,0l0,-3.606l1.111,0l0.623,2.479l0.666,-2.479l1.067,0l0,3.606l-0.667,0l0,-2.84l-0.711,2.84l-0.711,0l-0.667,-2.84l-0.044,2.84l-0.667,0Z" style="fill:#fff;fill-rule:nonzero;"/><path d="M14.844,38.271l7.423,-7.528l7.422,-7.528l-7.422,-7.528l-7.423,-7.528l-7.422,7.528l-7.422,7.528l14.844,15.056Zm0,-29.391l4.978,9.647l4.978,9.602l-19.911,0l4.978,-9.602l4.977,-9.647Z" style="fill:#fff;"/></g></svg>