<?xml version="1.0" encoding="UTF-8" standalone="no"?><!DOCTYPE svg PUBLIC "-//W3C//DTD SVG 1.1//EN" "http://www.w3.org/Graphics/SVG/1.1/DTD/svg11.dtd"><svg width="100%" height="100%" viewBox="0 0 47 63" version="1.1" xmlns="http://www.w3.org/2000/svg" xmlns:xlink="http://www.w3.org/1999/xlink" xml:space="preserve" xmlns:serif="http://www.serif.com/" style="fill-rule:evenodd;clip-rule:evenodd;stroke-miterlimit:1.41421;"><g><g><g><path d="M5.238,0.954l36.966,0c0.857,0 1.591,0.694 1.591,1.591l0,45.901c0,0.857 -0.734,1.592 -1.591,1.592l-36.966,0c-0.897,0 -1.632,-0.735 -1.632,-1.592l0,-45.901c0,-0.897 0.735,-1.591 1.632,-1.591Z" style="fill:#1f293a;stroke:#fefefe;stroke-width:1.1px;"/><path d="M4.749,59.299c0.367,0 0.734,-0.081 1.02,-0.285c0.489,-0.327 0.612,-0.857 0.612,-1.143c0,-0.571 -0.204,-0.979 -1.02,-1.632l-0.204,-0.163c-0.653,-0.49 -0.857,-0.734 -0.857,-1.142c0,-0.49 0.408,-0.816 0.857,-0.816c0.652,0 0.816,0.285 0.856,0.367c0.041,0.081 0.123,0.285 0.123,0.367c0,0.041 0,0.082 0.041,0.082c0.04,0 0.04,-0.041 0.04,-0.164c0,-0.489 0.041,-0.693 0.041,-0.734c0,-0.041 0,-0.041 -0.081,-0.041c-0.041,0 -0.123,0 -0.245,-0.041c-0.163,-0.04 -0.367,-0.081 -0.612,-0.081c-0.898,0 -1.469,0.53 -1.469,1.265c0,0.448 0.204,0.897 0.898,1.509l0.326,0.245c0.612,0.49 0.816,0.775 0.816,1.224c0,0.449 -0.326,0.939 -1.02,0.939c-0.449,0 -0.898,-0.204 -1.02,-0.694c0,-0.122 0,-0.204 0,-0.286c0,-0.04 0,-0.081 -0.041,-0.081c-0.041,0 -0.082,0.041 -0.082,0.122c0,0.123 -0.04,0.408 -0.04,0.735c0,0.204 0.04,0.204 0.122,0.244c0.286,0.164 0.612,0.204 0.939,0.204Zm2.325,-2.692c0,1.224 0.775,2.692 2.652,2.692c1.673,0 2.775,-1.264 2.775,-2.815c0,-1.632 -1.143,-2.611 -2.734,-2.611c-1.877,0 -2.693,1.591 -2.693,2.734Zm0.653,-0.204c0,-1.51 0.857,-2.285 1.999,-2.285c1.102,0 2.122,0.897 2.122,2.57c0,1.999 -1.306,2.367 -1.918,2.367c-1.224,0 -2.203,-1.061 -2.203,-2.652Zm5.712,0.612c0,0.979 0.245,1.468 0.612,1.795c0.49,0.449 1.183,0.489 1.428,0.489c0.367,0 0.898,-0.081 1.387,-0.489c0.572,-0.49 0.653,-1.347 0.653,-2.081l0,-0.734c0,-1.102 0,-1.265 0,-1.51c0.041,-0.245 0.082,-0.327 0.286,-0.367c0.081,-0.041 0.122,-0.041 0.163,-0.041c0,0 0.041,0 0.041,-0.041c0,-0.041 -0.041,-0.041 -0.123,-0.041l-1.305,0c-0.082,0 -0.082,0 -0.082,0.041c0,0.041 0,0.041 0.041,0.041c0.041,0 0.163,0 0.245,0.041c0.204,0.04 0.285,0.122 0.285,0.367l0,2.366c0,0.694 -0.081,1.306 -0.408,1.673c-0.244,0.327 -0.652,0.531 -1.06,0.531c-0.408,0 -0.694,-0.082 -1.061,-0.408c-0.286,-0.286 -0.49,-0.694 -0.49,-1.714l0,-0.938c0,-1.102 0,-1.265 0,-1.51c0,-0.245 0.082,-0.367 0.245,-0.367c0.082,-0.041 0.122,-0.041 0.163,-0.041c0.041,0 0.082,0 0.082,-0.041c0,-0.041 -0.041,-0.041 -0.123,-0.041l-1.468,0c-0.082,0 -0.123,0 -0.123,0.041c0,0.041 0.041,0.041 0.082,0.041c0.041,0 0.163,0 0.204,0.041c0.245,0.04 0.285,0.122 0.326,0.367l0,2.53Zm5.835,1.876c1.06,-1.591 2.081,-3.141 3.101,-4.733c0.04,-0.04 0.04,-0.081 0.04,-0.081c0,-0.041 -0.04,-0.082 -0.163,-0.082l-1.918,0c-0.204,0 -0.53,0 -1.224,0c-0.163,0 -0.204,-0.041 -0.285,-0.041c-0.041,0 -0.041,0 -0.041,0.123c-0.041,0.204 -0.163,0.816 -0.163,0.897c0,0.082 0,0.082 0.041,0.082c0.04,0 0.081,0 0.081,-0.122c0.041,-0.123 0.163,-0.408 0.408,-0.531c0.204,-0.122 0.653,-0.122 0.979,-0.122l1.51,0c-0.979,1.55 -1.999,3.101 -3.019,4.651c-0.082,0.123 -0.123,0.163 -0.123,0.204c0,0.041 0.041,0.041 0.123,0.041c1.224,0 2.366,0.041 3.55,0.041c0.163,0 0.163,0 0.204,-0.163c0.04,-0.204 0.122,-0.612 0.122,-0.816c0,-0.123 0,-0.164 -0.041,-0.164c-0.041,0 -0.041,0.041 -0.081,0.123c0,0.081 -0.082,0.285 -0.123,0.367c-0.163,0.204 -0.367,0.326 -1.101,0.326l-1.877,0Zm3.753,-0.448c-0.122,0.367 -0.244,0.612 -0.571,0.652c-0.041,0 -0.163,0 -0.204,0c-0.041,0 -0.041,0.041 -0.041,0.041c0,0.041 0.041,0.082 0.123,0.082c0.326,0 0.693,-0.041 0.775,-0.041c0.082,0 0.367,0.041 0.53,0.041c0.082,0 0.123,-0.041 0.123,-0.082c0,0 -0.041,-0.041 -0.082,-0.041l-0.081,0c-0.123,0 -0.245,-0.04 -0.245,-0.204c0,-0.122 0.041,-0.285 0.081,-0.448l0.408,-1.224c0.041,-0.041 0.041,-0.041 0.082,-0.041l1.469,0c0.041,0 0.081,0 0.081,0.041l0.653,1.672c0.041,0.123 0,0.204 -0.041,0.204c-0.04,0 -0.081,0 -0.081,0.041c0,0.041 0.081,0.041 0.245,0.041c0.448,0.041 0.979,0.041 1.06,0.041c0.082,0 0.164,-0.041 0.164,-0.082c0,-0.041 -0.041,-0.041 -0.082,-0.041c-0.082,0 -0.163,0 -0.286,-0.04c-0.122,-0.041 -0.326,-0.123 -0.571,-0.735c-0.449,-1.061 -1.509,-3.917 -1.632,-4.202c-0.081,-0.204 -0.122,-0.245 -0.163,-0.245c-0.041,0 -0.041,0.041 -0.122,0.285l-1.592,4.285Zm0.98,-1.51c-0.041,0 -0.041,-0.041 -0.041,-0.082l0.612,-1.836c0.041,-0.122 0.081,-0.122 0.122,0l0.653,1.836c0,0.041 0,0.082 -0.041,0.082l-1.305,0Zm5.997,0.286c0,0.652 0,1.183 -0.04,1.468c0,0.204 -0.041,0.368 -0.164,0.408c-0.081,0 -0.163,0 -0.245,0c-0.04,0 -0.04,0.041 -0.04,0.041c0,0.041 0.04,0.082 0.122,0.082c0.204,0 0.653,-0.041 0.653,-0.041c0.041,0 0.449,0.041 0.857,0.041c0.041,0 0.081,-0.041 0.081,-0.082c0,0 0,-0.041 -0.04,-0.041c-0.082,0 -0.204,0 -0.327,0c-0.204,-0.04 -0.245,-0.204 -0.245,-0.408c-0.04,-0.285 -0.04,-0.816 -0.04,-1.468l0,-0.164c0,-0.04 0,-0.081 0.04,-0.081l0.857,0.041c0.041,0 0.041,0 0.082,0.04c0.122,0.164 0.449,0.612 0.734,1.02c0.408,0.49 0.653,0.857 0.939,0.98c0.204,0.122 0.367,0.163 0.734,0.163l0.49,0c0.163,0 0.204,-0.041 0.204,-0.082c0,0 -0.041,-0.041 -0.082,-0.041c-0.041,0 -0.122,0 -0.286,0c-0.163,-0.04 -0.448,-0.122 -0.816,-0.489c-0.408,-0.449 -0.897,-1.061 -1.428,-1.795c0.612,-0.572 0.816,-1.061 0.816,-1.592c0,-0.489 -0.285,-0.816 -0.489,-0.938c-0.367,-0.245 -0.816,-0.286 -1.265,-0.286c-0.204,0 -0.734,0 -0.816,0c0,0 -0.449,0 -0.775,0c-0.082,0 -0.082,0 -0.082,0.041c0,0.041 0,0.041 0.041,0.041c0.041,0 0.163,0 0.245,0.041c0.204,0.04 0.285,0.122 0.285,0.367l0,2.734Zm0.572,-2.897c0,-0.041 0,-0.082 0.04,-0.082c0.082,0 0.245,-0.041 0.49,-0.041c0.734,0 1.183,0.531 1.183,1.387c0,0.531 -0.204,0.898 -0.449,1.061c-0.122,0.123 -0.326,0.123 -0.489,0.123c-0.327,0 -0.612,-0.041 -0.735,-0.082c-0.04,-0.041 -0.04,-0.081 -0.04,-0.081l0,-2.285Zm4.324,2.897c0,0.652 0,1.183 -0.04,1.468c-0.041,0.204 -0.082,0.368 -0.204,0.408c-0.082,0 -0.164,0 -0.204,0c-0.041,0 -0.082,0.041 -0.082,0.041c0,0.041 0.041,0.082 0.122,0.082c0.123,0 0.286,-0.041 0.408,-0.041c0.164,0 0.245,0 0.286,0c0.082,0 0.245,0 0.53,0.041c0.286,0 0.653,0 1.184,0c0.244,0 0.326,0 0.367,-0.163c0.041,-0.164 0.081,-0.612 0.081,-0.694c0,-0.041 0,-0.082 -0.04,-0.082c-0.041,0 -0.041,0.041 -0.082,0.082c-0.041,0.286 -0.122,0.449 -0.286,0.53c-0.204,0.041 -0.489,0.041 -0.652,0.041c-0.694,0 -0.816,-0.081 -0.816,-0.53c0,-0.163 0,-0.979 0,-1.183l0,-0.612c0,-0.041 0,-0.041 0.04,-0.041c0.123,0 0.816,0 0.98,0c0.285,0.041 0.326,0.163 0.367,0.245c0.041,0.081 0.041,0.163 0.041,0.244c0,0.041 0,0.041 0.04,0.041c0.041,0 0.041,-0.041 0.041,-0.122c0,-0.041 0,-0.286 0.041,-0.449c0,-0.204 0.041,-0.326 0.041,-0.367c0,-0.041 0,-0.041 -0.041,-0.041c0,0 -0.041,0 -0.082,0.082c-0.081,0.04 -0.163,0.081 -0.326,0.081c-0.163,0 -1.02,0 -1.102,0c-0.04,0 -0.04,0 -0.04,-0.041l0,-1.917c0,-0.041 0,-0.082 0.04,-0.082c0.082,0 0.816,0 0.939,0.041c0.367,0.041 0.449,0.122 0.489,0.245c0.041,0.081 0.041,0.163 0.041,0.244c0,0.041 0,0.082 0.082,0.082c0,0 0.041,-0.041 0.041,-0.082c0,-0.081 0,-0.367 0.04,-0.448c0,-0.204 0.041,-0.286 0.041,-0.327c0,-0.041 0,-0.081 -0.041,-0.081c-0.04,0 -0.04,0.04 -0.081,0.04c-0.082,0.041 -0.163,0.041 -0.286,0.041c-0.163,0 -1.55,0 -1.591,0l-0.286,0c-0.163,0 -0.326,0 -0.489,0c-0.082,0 -0.123,0 -0.123,0.041c0,0.041 0.041,0.041 0.041,0.041c0.082,0 0.204,0 0.245,0.041c0.245,0.04 0.286,0.122 0.286,0.367c0.04,0.245 0.04,0.408 0.04,1.51l0,1.224Zm4.448,-1.224c0,-1.102 0,-1.265 0,-1.51c0.041,-0.245 0.081,-0.367 0.285,-0.367c0.082,-0.041 0.123,-0.041 0.164,-0.041c0,0 0.04,0 0.04,-0.041c0,-0.041 -0.04,-0.041 -0.122,-0.041l-1.347,0c-0.081,0 -0.122,0 -0.122,0.041c0,0.041 0.041,0.041 0.041,0.041c0.081,0 0.163,0 0.245,0.041c0.122,0.04 0.204,0.122 0.204,0.367c0.041,0.245 0.041,0.408 0.041,1.51l0,1.224c0,0.652 0,1.183 -0.041,1.468c-0.041,0.204 -0.082,0.368 -0.204,0.408c-0.082,0 -0.164,0 -0.204,0c-0.041,0 -0.041,0.041 -0.041,0.041c0,0.041 0,0.082 0.081,0.082c0.205,0 0.653,-0.041 0.694,-0.041c0.041,0 0.449,0.041 0.857,0.041c0.082,0 0.082,-0.041 0.082,-0.082c0,0 0,-0.041 -0.041,-0.041c-0.082,0 -0.204,0 -0.327,0c-0.204,-0.04 -0.244,-0.204 -0.244,-0.408c-0.041,-0.285 -0.041,-0.816 -0.041,-1.468l0,-1.224Zm2.611,3.304c0.367,0 0.734,-0.081 1.02,-0.285c0.49,-0.327 0.612,-0.857 0.612,-1.143c0,-0.571 -0.204,-0.979 -1.02,-1.632l-0.204,-0.163c-0.653,-0.49 -0.816,-0.734 -0.816,-1.142c0,-0.49 0.367,-0.816 0.816,-0.816c0.653,0 0.857,0.285 0.898,0.367c0.04,0.081 0.081,0.285 0.081,0.367c0,0.041 0,0.082 0.041,0.082c0.041,0 0.041,-0.041 0.041,-0.164c0,-0.489 0.041,-0.693 0.041,-0.734c0,-0.041 0,-0.041 -0.082,-0.041c-0.041,0 -0.082,0 -0.245,-0.041c-0.163,-0.04 -0.367,-0.081 -0.612,-0.081c-0.897,0 -1.428,0.53 -1.428,1.265c0,0.448 0.163,0.897 0.898,1.509l0.285,0.245c0.612,0.49 0.816,0.775 0.816,1.224c0,0.449 -0.326,0.939 -0.979,0.939c-0.489,0 -0.938,-0.204 -1.061,-0.694c0,-0.122 0,-0.204 0,-0.286c0,-0.04 0,-0.081 -0.04,-0.081c-0.041,0 -0.041,0.041 -0.082,0.122c0,0.123 0,0.408 0,0.735c0,0.204 0,0.204 0.082,0.244c0.285,0.164 0.612,0.204 0.938,0.204Z" style="fill:#1f293a;fill-rule:nonzero;"/><path d="M28.658,60.85l0,0.245l-0.082,0c0,-0.041 -0.041,-0.082 -0.041,-0.123c-0.04,-0.041 -0.04,-0.041 -0.081,-0.081c-0.041,0 -0.082,0 -0.123,0c-0.04,0 -0.122,0 -0.163,0.04c-0.041,0.041 -0.081,0.123 -0.122,0.204c0,0.082 -0.041,0.164 -0.041,0.286c0,0.122 0.041,0.245 0.041,0.326c0.041,0.082 0.081,0.123 0.122,0.164c0.041,0.04 0.082,0.081 0.163,0.081c0.041,0 0.082,0 0.123,-0.041c0.041,0 0.041,-0.04 0.081,-0.04c0,-0.041 0.041,-0.082 0.041,-0.164l0.082,0l0,0.286c-0.041,0 -0.082,0 -0.163,0.041c-0.041,0 -0.123,0 -0.204,0c-0.123,0 -0.245,-0.041 -0.327,-0.163c-0.081,-0.082 -0.122,-0.245 -0.122,-0.449c0,-0.163 0,-0.245 0.041,-0.367c0.04,-0.082 0.122,-0.164 0.204,-0.204c0.081,-0.082 0.163,-0.082 0.285,-0.082c0.041,0 0.082,0 0.163,0c0.041,0 0.082,0 0.123,0.041Zm1.02,1.224c-0.082,0 -0.123,0 -0.204,-0.041c-0.041,-0.041 -0.082,-0.082 -0.123,-0.122c-0.081,-0.041 -0.081,-0.123 -0.122,-0.164c0,-0.081 -0.041,-0.204 -0.041,-0.285c0,-0.163 0.041,-0.286 0.082,-0.367c0.041,-0.082 0.081,-0.164 0.163,-0.204c0.082,-0.082 0.163,-0.082 0.286,-0.082c0.081,0 0.163,0 0.245,0.082c0.081,0.04 0.122,0.081 0.163,0.204c0.041,0.081 0.081,0.204 0.081,0.326c0,0.122 -0.04,0.245 -0.081,0.367c-0.041,0.082 -0.082,0.163 -0.163,0.204c-0.082,0.041 -0.164,0.082 -0.286,0.082Zm-0.286,-0.653c0,0.204 0,0.326 0.082,0.408c0.041,0.122 0.122,0.163 0.245,0.163c0.04,0 0.122,-0.041 0.163,-0.081c0.041,-0.041 0.082,-0.082 0.082,-0.164c0.04,-0.081 0.04,-0.163 0.04,-0.285c0,-0.123 0,-0.245 -0.04,-0.327c-0.041,-0.081 -0.041,-0.163 -0.123,-0.204c-0.041,-0.04 -0.082,-0.04 -0.163,-0.04c-0.041,0 -0.082,0 -0.123,0.04c-0.04,0 -0.081,0.041 -0.081,0.082c-0.041,0.082 -0.041,0.122 -0.082,0.204c0,0.041 0,0.122 0,0.204Zm2.081,0.122c0,0.041 0.041,0.082 0.041,0.123c0.041,0.041 0.041,0.041 0.041,0.081l0.041,0c0,-0.04 -0.041,-0.122 -0.041,-0.204c0,-0.122 0,-0.204 0,-0.326l0,-0.163c0,-0.041 0,-0.082 0,-0.082c0,-0.041 0,-0.041 0,-0.081l-0.041,0c0,0 0,-0.041 -0.041,-0.041l0,-0.041l0.327,0l0,0.041c-0.041,0 -0.041,0.041 -0.082,0.041c0,0.04 -0.041,0.04 -0.041,0.04l0,1.143l-0.122,0l-0.49,-0.857c-0.041,-0.041 -0.041,-0.082 -0.081,-0.122c0,-0.041 0,-0.041 0,-0.082l-0.041,0l0,0.816c0,0.041 0,0.082 0.041,0.082l0,0.04c0,0 0,0.041 0.04,0.041l0.041,0l0,0.082l-0.326,0l0,-0.082c0.041,0 0.041,0 0.081,0c0,-0.041 0,-0.041 0,-0.081c0.041,0 0.041,-0.041 0.041,-0.082l0,-0.775c0,-0.041 0,-0.082 -0.041,-0.082c0,-0.041 0,-0.041 0,-0.081l-0.04,0c0,0 0,-0.041 -0.041,-0.041l0,-0.041l0.285,0l0.449,0.734Zm0.939,0.245c0,0.041 0.04,0.082 0.04,0.123c0.041,0 0.041,0.04 0.082,0.04c0.041,0.041 0.082,0.041 0.122,0.041c0.082,0 0.123,-0.041 0.164,-0.041c0.04,-0.04 0.081,-0.122 0.081,-0.163c0,-0.081 -0.041,-0.081 -0.041,-0.122c0,-0.041 -0.04,-0.082 -0.081,-0.082c-0.041,-0.041 -0.082,-0.081 -0.163,-0.122c-0.082,-0.041 -0.123,-0.041 -0.164,-0.082c-0.04,-0.041 -0.081,-0.081 -0.081,-0.122c-0.041,-0.041 -0.041,-0.082 -0.041,-0.123c0,-0.081 0,-0.122 0.041,-0.163c0.041,-0.081 0.081,-0.081 0.163,-0.122c0.041,-0.041 0.122,-0.041 0.204,-0.041c0.041,0 0.082,0 0.122,0c0.041,0 0.123,0 0.164,0.041l0,0.245l-0.082,0c0,-0.041 -0.041,-0.123 -0.041,-0.123c-0.041,-0.041 -0.041,-0.041 -0.081,-0.081c-0.041,0 -0.082,0 -0.123,0c-0.041,0 -0.081,0 -0.081,0c-0.041,0.04 -0.082,0.04 -0.082,0.081c-0.041,0.041 -0.041,0.082 -0.041,0.123c0,0.04 0,0.04 0.041,0.081c0,0.041 0.041,0.082 0.041,0.082c0.041,0.041 0.081,0.081 0.163,0.081c0.082,0.041 0.122,0.082 0.163,0.123c0.041,0.041 0.082,0.081 0.123,0.122c0,0.041 0.04,0.082 0.04,0.123c0,0.081 -0.04,0.122 -0.04,0.163c-0.041,0.041 -0.041,0.081 -0.082,0.122c-0.041,0.041 -0.082,0.041 -0.122,0.041c-0.041,0.041 -0.123,0.041 -0.164,0.041c-0.081,0 -0.204,-0.041 -0.326,-0.041l0,-0.245l0.082,0Zm1.101,-0.979l0.979,0l0,0.326l-0.081,0c-0.041,-0.04 -0.041,-0.081 -0.041,-0.122c-0.041,-0.041 -0.041,-0.041 -0.041,-0.082c-0.041,0 -0.041,0 -0.041,-0.04c-0.04,0 -0.04,0 -0.081,0l-0.123,0l0,1.02c0,0.04 0,0.04 0.041,0.04l0,0.041c0.041,0 0.041,0 0.082,0l0,0.082l-0.408,0l0,-0.082l0.081,0l0,-0.041l0.041,-0.04c0,-0.041 0,-0.041 0,-0.082l0,-0.938l-0.122,0c-0.041,0 -0.041,0 -0.082,0l-0.041,0.04c0,0.041 -0.04,0.041 -0.04,0.082c0,0.041 -0.041,0.082 -0.041,0.122l-0.082,0l0,-0.326Zm1.755,0.694l0,0.448c0,0.041 0.04,0.041 0.04,0.041l0.041,0l0,0.082l-0.367,0l0,-0.082c0.041,0 0.082,0 0.082,0c0,-0.041 0,-0.041 0.04,-0.081c0,0 0,-0.041 0,-0.082l0,-0.775c0,-0.041 0,-0.082 0,-0.082c-0.04,-0.041 -0.04,-0.041 -0.04,-0.081l-0.041,0c0,0 0,-0.041 -0.041,-0.041l0,-0.041l0.449,0c0.163,0 0.245,0.041 0.326,0.082c0.082,0.04 0.082,0.122 0.082,0.244c0,0.082 0,0.164 -0.041,0.204c-0.041,0.082 -0.122,0.123 -0.204,0.123l0,0.041c0.041,0 0.041,0.04 0.082,0.04c0.04,0.041 0.04,0.082 0.081,0.123l0.082,0.163c0.041,0.041 0.041,0.082 0.081,0.122c0,0 0,0.041 0.041,0.041c0,0 0.041,0 0.082,0l0,0.082l-0.286,0c0,-0.041 -0.041,-0.082 -0.041,-0.123c-0.04,-0.04 -0.04,-0.081 -0.081,-0.122l-0.082,-0.122c0,-0.082 -0.041,-0.082 -0.041,-0.123c0,-0.041 -0.04,-0.041 -0.04,-0.041c0,0 -0.041,0 -0.041,-0.04c0,0 -0.041,0 -0.082,0l-0.081,0Zm0,-0.612l0,0.53l0.204,0c0.04,0 0.081,0 0.122,-0.041c0,0 0.041,-0.041 0.041,-0.081c0.041,-0.041 0.041,-0.082 0.041,-0.123c0,-0.081 0,-0.122 -0.041,-0.163c0,-0.041 -0.041,-0.082 -0.082,-0.082c-0.041,-0.04 -0.081,-0.04 -0.163,-0.04c-0.041,0 -0.082,0 -0.122,0Zm2.08,0.734c0,0.082 -0.04,0.122 -0.04,0.163c0,0.041 -0.041,0.082 -0.041,0.123c-0.041,0.04 -0.041,0.081 -0.082,0.081c-0.041,0.041 -0.081,0.041 -0.122,0.041c-0.041,0.041 -0.082,0.041 -0.163,0.041c-0.041,0 -0.123,0 -0.164,-0.041c-0.081,0 -0.122,-0.041 -0.122,-0.082c-0.041,-0.04 -0.082,-0.081 -0.082,-0.122c-0.04,-0.041 -0.04,-0.122 -0.04,-0.204l0,-0.571c0,-0.041 0,-0.082 0,-0.123l0,-0.04l-0.041,0l-0.041,-0.041l0,-0.041l0.367,0l0,0.041c-0.041,0 -0.041,0.041 -0.081,0.041l0,0.04c-0.041,0.041 -0.041,0.082 -0.041,0.123l0,0.612c0,0.081 0.041,0.122 0.041,0.163c0,0.041 0.04,0.082 0.04,0.082c0.041,0.04 0.041,0.04 0.082,0.081c0.041,0 0.082,0 0.122,0c0.041,0 0.082,0 0.123,-0.041c0,0 0.041,-0.04 0.081,-0.04c0,-0.041 0,-0.082 0.041,-0.123c0,-0.041 0,-0.122 0,-0.163l0,-0.571c0,-0.082 0,-0.082 0,-0.123l-0.041,-0.04c0,0 -0.04,0 -0.081,-0.041l0,-0.041l0.367,0l0,0.041c-0.041,0.041 -0.041,0.041 -0.082,0.041l0,0.734Zm0.572,-0.816l0.979,0l0,0.326l-0.122,0c0,-0.04 0,-0.081 -0.041,-0.122c0,-0.041 0,-0.041 -0.041,-0.082l-0.041,-0.04c0,0 -0.041,0 -0.081,0l-0.082,0l0,1.06c0,0.041 0.041,0.041 0.041,0.041c0,0 0.041,0 0.081,0l0,0.082l-0.408,0l0,-0.082l0.082,0l0,-0.041l0,-0.04c0,-0.041 0.041,-0.041 0.041,-0.082l0,-0.938l-0.123,0c-0.041,0 -0.081,0 -0.081,0l-0.041,0.04c-0.041,0.041 -0.041,0.041 -0.041,0.082c-0.041,0.041 -0.041,0.082 -0.041,0.122l-0.081,0l0,-0.326Zm1.917,1.265c-0.081,0 -0.122,0 -0.204,-0.041c-0.04,-0.041 -0.122,-0.082 -0.163,-0.122c-0.041,-0.041 -0.041,-0.123 -0.081,-0.164c-0.041,-0.081 -0.041,-0.204 -0.041,-0.285c0,-0.163 0.041,-0.286 0.081,-0.367c0.041,-0.082 0.082,-0.164 0.164,-0.204c0.081,-0.082 0.163,-0.082 0.244,-0.082c0.123,0 0.204,0 0.286,0.082c0.082,0.04 0.122,0.081 0.163,0.204c0.041,0.081 0.082,0.204 0.082,0.326c0,0.122 -0.041,0.245 -0.082,0.367c-0.041,0.082 -0.081,0.163 -0.163,0.204c-0.082,0.041 -0.163,0.082 -0.286,0.082Zm-0.285,-0.653c0,0.204 0,0.326 0.081,0.408c0.041,0.122 0.123,0.163 0.245,0.163c0.041,0 0.082,-0.041 0.163,-0.081c0.041,-0.041 0.082,-0.082 0.082,-0.164c0.041,-0.081 0.041,-0.163 0.041,-0.285c0,-0.123 0,-0.245 -0.041,-0.327c-0.041,-0.081 -0.082,-0.163 -0.122,-0.204c-0.041,-0.04 -0.082,-0.04 -0.164,-0.04c-0.04,0 -0.081,0 -0.122,0.04c-0.041,0 -0.082,0.041 -0.082,0.082c-0.04,0.082 -0.081,0.122 -0.081,0.204c0,0.041 0,0.122 0,0.204Zm1.632,0.082l0,0.448c0,0.041 0.041,0.041 0.041,0.041l0.04,0l0,0.082l-0.367,0l0,-0.082c0.041,0 0.041,0 0.082,0c0,-0.041 0,-0.041 0,-0.081c0,0 0.041,-0.041 0.041,-0.082l0,-0.775c0,-0.041 -0.041,-0.082 -0.041,-0.082c0,-0.041 0,-0.041 0,-0.081l-0.041,0c0,0 0,-0.041 -0.041,-0.041l0,-0.041l0.449,0c0.122,0 0.245,0.041 0.326,0.082c0.041,0.04 0.082,0.122 0.082,0.244c0,0.082 0,0.164 -0.041,0.204c-0.081,0.082 -0.122,0.123 -0.204,0.123l0,0.041c0,0 0.041,0.04 0.082,0.04c0.041,0.041 0.041,0.082 0.081,0.123l0.082,0.163c0.041,0.041 0.041,0.082 0.082,0.122c0,0 0,0.041 0.04,0.041l0.041,0l0,0.082l-0.245,0c0,-0.041 -0.04,-0.082 -0.04,-0.123c-0.041,-0.04 -0.041,-0.081 -0.082,-0.122l-0.082,-0.122c0,-0.082 -0.04,-0.082 -0.04,-0.123l-0.041,-0.041c-0.041,0 -0.041,0 -0.041,-0.04c-0.041,0 -0.041,0 -0.082,0l-0.081,0Zm0,-0.612l0,0.53l0.204,0c0.041,0 0.081,0 0.122,-0.041c0,0 0.041,-0.041 0.041,-0.081c0.041,-0.041 0.041,-0.082 0.041,-0.123c0,-0.081 0,-0.122 -0.041,-0.163c0,-0.041 -0.041,-0.082 -0.082,-0.082c-0.04,-0.04 -0.081,-0.04 -0.163,-0.04c-0.041,0 -0.081,0 -0.122,0Zm1.795,1.183l0,-0.082c0.041,0 0.041,0 0.082,0l0.04,-0.041l0,-0.04c0,-0.041 0,-0.041 0,-0.082c0,0 -0.04,-0.041 -0.04,-0.082l-0.041,-0.122l-0.408,0l-0.041,0.122c0,0.041 0,0.082 0,0.082c-0.041,0.041 -0.041,0.041 -0.041,0.082c0,0.04 0.041,0.04 0.041,0.081c0.041,0 0.041,0 0.082,0l0,0.082l-0.368,0l0,-0.082c0,0 0.041,0 0.082,-0.041c0,-0.04 0.041,-0.081 0.082,-0.163l0.367,-0.979l0.122,0l0.327,1.02c0,0.041 0.04,0.082 0.04,0.082c0,0.04 0,0.04 0.041,0.081l0.041,0l0,0.082l-0.408,0Zm-0.326,-0.49l0.367,0l-0.163,-0.612l-0.204,0.612Z" style="fill:#1f293a;fill-rule:nonzero;"/><path d="M15.846,30.78c0.98,0 1.959,-0.123 2.856,-0.408c0,1.305 -0.04,2.366 -0.122,3.1c-0.122,0.898 -0.286,1.592 -0.938,1.714c-0.286,0.082 -0.653,0.122 -0.939,0.122c-0.163,0 -0.245,0.082 -0.245,0.204c0,0.164 0.164,0.245 0.49,0.245c0.938,0 2.938,-0.122 2.978,-0.122c0.123,0 2.122,0.122 3.836,0.122c0.326,0 0.489,-0.122 0.489,-0.245c0,-0.122 -0.04,-0.204 -0.244,-0.204c-0.286,0 -0.98,-0.04 -1.428,-0.122c-0.939,-0.122 -1.102,-0.816 -1.184,-1.714c-0.122,-0.979 -0.163,-2.57 -0.163,-4.529c1.061,-0.979 1.591,-2.203 1.836,-3.223l2.203,0.041c0.204,0 0.286,0.041 0.408,0.163c0.653,0.816 2.122,2.897 3.428,4.652c1.754,2.325 2.856,3.876 4.202,4.569c0.816,0.449 1.591,0.612 3.346,0.612l2.244,0c0.53,0 0.734,-0.081 0.734,-0.245c0,-0.122 -0.122,-0.204 -0.285,-0.204c-0.163,0 -0.612,0 -1.224,-0.081c-0.776,-0.123 -2.122,-0.49 -3.795,-2.244c-1.836,-1.959 -3.957,-4.733 -6.528,-8.038c2.815,-2.57 3.795,-4.896 3.795,-7.222c0,-2.121 -1.388,-3.672 -2.163,-4.243c-1.632,-1.183 -3.754,-1.387 -5.712,-1.387c-0.979,0 -3.346,0.122 -3.672,0.122c-0.163,0 -2.163,-0.122 -3.55,-0.122c-0.326,0 -0.489,0.081 -0.489,0.285c0,0.123 0.122,0.164 0.244,0.164c0.286,0 0.816,0.04 1.061,0.122c1.02,0.204 1.265,0.694 1.347,1.754c0.04,0.612 0.04,1.184 0.04,2.571l-0.04,-0.041l-0.898,-0.694c-2.978,-2.325 -3.794,-3.468 -3.794,-5.263c0,-2.285 1.672,-3.59 3.835,-3.59c2.897,0 3.713,1.305 3.917,1.632c0.204,0.367 0.367,1.183 0.408,1.55c0.041,0.286 0.041,0.408 0.245,0.408c0.163,0 0.204,-0.204 0.204,-0.694c0,-2.121 0.163,-3.182 0.163,-3.304c0,-0.164 -0.082,-0.245 -0.327,-0.245c-0.244,0 -0.489,-0.041 -1.101,-0.163c-0.776,-0.164 -1.673,-0.286 -2.897,-0.286c-3.999,0 -6.488,2.285 -6.488,5.63c0,2.122 0.776,4.04 4.081,6.773l1.387,1.143c0.489,0.408 0.938,0.816 1.305,1.142l0,8.201c-0.612,0.286 -1.305,0.449 -2.162,0.449c-2.122,0 -4.162,-0.857 -4.651,-3.182c-0.082,-0.449 -0.082,-0.857 -0.082,-1.143c0,-0.285 -0.041,-0.367 -0.204,-0.367c-0.163,0 -0.245,0.163 -0.245,0.49c-0.041,0.53 -0.163,1.754 -0.163,3.345c0,0.816 0.041,0.939 0.449,1.184c1.306,0.612 2.734,0.816 4.202,0.816Zm7.345,-6.08c0.04,-0.163 0.04,-0.285 0.04,-0.408c0,-1.754 -0.448,-3.264 -1.999,-5.018l0,-5.59c0,-0.204 0.082,-0.326 0.245,-0.367c0.326,-0.123 1.142,-0.204 2.081,-0.204c3.345,0 5.426,2.325 5.426,6.242c0,2.408 -0.816,4.08 -1.917,4.815c-0.735,0.53 -1.592,0.612 -2.326,0.612c-0.53,0 -1.061,-0.041 -1.55,-0.082Z" style="fill:#fff;"/><path d="M1.321,41.061l44.31,0c0.204,0 0.408,0.164 0.408,0.368l0,3.672c0,0.204 -0.204,0.367 -0.408,0.367l-44.31,0c-0.204,0 -0.367,-0.163 -0.367,-0.367l0,-3.672c0,-0.204 0.163,-0.368 0.367,-0.368Z" style="fill:#1f293a;stroke:#fefefe;stroke-width:1.1px;"/></g></g></g></svg>