<?xml version="1.0" encoding="UTF-8" standalone="no"?><!DOCTYPE svg PUBLIC "-//W3C//DTD SVG 1.1//EN" "http://www.w3.org/Graphics/SVG/1.1/DTD/svg11.dtd"><svg width="100%" height="100%" viewBox="0 0 58 61" version="1.1" xmlns="http://www.w3.org/2000/svg" xmlns:xlink="http://www.w3.org/1999/xlink" xml:space="preserve" xmlns:serif="http://www.serif.com/" style="fill-rule:evenodd;clip-rule:evenodd;stroke-linejoin:round;stroke-miterlimit:1.41421;"><g><path d="M27.297,45.167l0.041,-45.004l-27.133,-0.081c-0.286,3.182 -0.286,33.66 0.082,35.945c0.775,4.57 4.528,8.242 8.976,9.017c2.285,0.408 15.504,0.408 18.034,0.123Z" style="fill:#1f293a;"/><path d="M57.204,21.339l0.163,-21.257l-28.397,-0.082l0,21.42c2.529,0.327 26.439,0.327 28.234,-0.081Z" style="fill:#1f293a;"/><path d="M47.86,44.963l1.918,-0.164c1.469,0 7.181,-3.427 7.059,-8.731c0.163,-4.162 0.163,-8.446 0.122,-12.648l-27.949,0l0,21.665l18.85,-0.122Z" style="fill:#1f293a;"/><path d="M8.61,51.736l1.142,0l0,5.018c0,0.857 -0.081,1.551 -0.285,2.04c-0.204,0.531 -0.571,0.939 -1.061,1.265c-0.53,0.326 -1.183,0.49 -2.04,0.49c-0.816,0 -1.469,-0.164 -1.959,-0.449c-0.53,-0.245 -0.897,-0.653 -1.101,-1.183c-0.245,-0.531 -0.327,-1.265 -0.327,-2.163l0,-5.018l1.143,0l0,4.977c0,0.776 0.041,1.306 0.204,1.673c0.122,0.367 0.367,0.653 0.693,0.816c0.368,0.204 0.776,0.286 1.265,0.286c0.816,0 1.428,-0.163 1.796,-0.571c0.326,-0.368 0.53,-1.102 0.53,-2.204l0,-4.977Zm2.693,5.875l1.061,-0.082c0.04,0.408 0.163,0.776 0.367,1.061c0.163,0.286 0.449,0.49 0.857,0.653c0.408,0.204 0.816,0.286 1.346,0.286c0.408,0 0.816,-0.082 1.143,-0.204c0.326,-0.123 0.571,-0.327 0.734,-0.531c0.163,-0.245 0.245,-0.489 0.245,-0.734c0,-0.286 -0.082,-0.531 -0.245,-0.735c-0.122,-0.204 -0.408,-0.367 -0.775,-0.489c-0.204,-0.082 -0.735,-0.245 -1.51,-0.449c-0.816,-0.163 -1.387,-0.367 -1.673,-0.531c-0.449,-0.204 -0.734,-0.489 -0.938,-0.816c-0.204,-0.285 -0.286,-0.652 -0.286,-1.06c0,-0.449 0.123,-0.857 0.367,-1.224c0.245,-0.368 0.612,-0.653 1.061,-0.857c0.49,-0.204 1.02,-0.286 1.591,-0.286c0.653,0 1.225,0.082 1.714,0.286c0.49,0.204 0.857,0.53 1.102,0.897c0.285,0.408 0.408,0.857 0.449,1.388l-1.102,0.081c-0.041,-0.53 -0.245,-0.979 -0.612,-1.224c-0.326,-0.285 -0.816,-0.449 -1.51,-0.449c-0.693,0 -1.183,0.123 -1.509,0.408c-0.327,0.245 -0.449,0.531 -0.449,0.898c0,0.326 0.081,0.571 0.326,0.775c0.204,0.204 0.775,0.408 1.714,0.612c0.938,0.204 1.591,0.408 1.918,0.571c0.489,0.204 0.856,0.49 1.101,0.857c0.245,0.368 0.367,0.776 0.367,1.224c0,0.49 -0.122,0.898 -0.408,1.306c-0.244,0.408 -0.612,0.734 -1.101,0.938c-0.49,0.245 -1.061,0.368 -1.673,0.368c-0.775,0 -1.428,-0.123 -1.959,-0.368c-0.53,-0.204 -0.938,-0.571 -1.264,-1.02c-0.286,-0.448 -0.449,-0.979 -0.449,-1.55Zm8.609,2.774l0,-8.649l1.142,0l0,8.649l-1.142,0Zm3.101,0l0,-8.649l3.264,0c0.653,0 1.183,0.081 1.591,0.244c0.408,0.204 0.694,0.449 0.938,0.816c0.204,0.368 0.327,0.776 0.327,1.143c0,0.367 -0.082,0.734 -0.286,1.061c-0.204,0.326 -0.489,0.571 -0.897,0.775c0.489,0.163 0.897,0.408 1.183,0.816c0.285,0.367 0.449,0.775 0.449,1.306c0,0.408 -0.123,0.775 -0.286,1.101c-0.163,0.367 -0.367,0.612 -0.612,0.816c-0.245,0.204 -0.571,0.327 -0.938,0.449c-0.408,0.082 -0.857,0.122 -1.428,0.122l-3.305,0Zm1.183,-5.018l1.836,0c0.53,0 0.898,-0.041 1.102,-0.082c0.285,-0.081 0.53,-0.245 0.652,-0.449c0.164,-0.204 0.245,-0.448 0.245,-0.734c0,-0.286 -0.081,-0.571 -0.204,-0.775c-0.163,-0.204 -0.367,-0.367 -0.612,-0.449c-0.245,-0.082 -0.693,-0.122 -1.305,-0.122l-1.714,0l0,2.611Zm0,3.998l2.122,0c0.367,0 0.652,0 0.775,-0.04c0.285,-0.041 0.489,-0.123 0.693,-0.245c0.164,-0.082 0.327,-0.245 0.408,-0.449c0.123,-0.245 0.204,-0.49 0.204,-0.734c0,-0.327 -0.081,-0.612 -0.285,-0.857c-0.163,-0.245 -0.367,-0.408 -0.653,-0.49c-0.326,-0.122 -0.734,-0.163 -1.265,-0.163l-1.999,0l0,2.978Zm6.977,1.02l0,-8.649l3.835,0c0.775,0 1.347,0.081 1.755,0.244c0.408,0.164 0.693,0.408 0.938,0.816c0.245,0.408 0.367,0.816 0.367,1.306c0,0.612 -0.204,1.142 -0.612,1.55c-0.367,0.408 -0.979,0.694 -1.836,0.816c0.327,0.123 0.531,0.286 0.694,0.409c0.367,0.326 0.653,0.693 0.938,1.142l1.51,2.366l-1.428,0l-1.143,-1.795c-0.326,-0.53 -0.612,-0.938 -0.816,-1.183c-0.204,-0.286 -0.408,-0.49 -0.571,-0.571c-0.163,-0.123 -0.367,-0.204 -0.53,-0.245c-0.123,-0.041 -0.327,-0.041 -0.653,-0.041l-1.306,0l0,3.835l-1.142,0Zm1.142,-4.814l2.448,0c0.531,0 0.939,-0.082 1.224,-0.163c0.286,-0.123 0.531,-0.286 0.653,-0.531c0.163,-0.245 0.245,-0.489 0.245,-0.775c0,-0.408 -0.163,-0.734 -0.449,-1.02c-0.285,-0.245 -0.775,-0.408 -1.387,-0.408l-2.734,0l0,2.897Zm6.61,4.814l3.305,-8.649l1.265,0l3.509,8.649l-1.306,0l-0.979,-2.611l-3.672,0l-0.939,2.611l-1.183,0Zm2.489,-3.549l2.938,0l-0.898,-2.408c-0.286,-0.734 -0.49,-1.305 -0.612,-1.795c-0.122,0.571 -0.286,1.102 -0.49,1.673l-0.938,2.53Zm6.12,0.775l1.102,-0.082c0.04,0.408 0.163,0.776 0.326,1.061c0.204,0.286 0.49,0.49 0.898,0.653c0.367,0.204 0.816,0.286 1.305,0.286c0.449,0 0.816,-0.082 1.184,-0.204c0.326,-0.123 0.571,-0.327 0.734,-0.531c0.163,-0.245 0.245,-0.489 0.245,-0.734c0,-0.286 -0.082,-0.531 -0.245,-0.735c-0.163,-0.204 -0.408,-0.367 -0.775,-0.489c-0.245,-0.082 -0.735,-0.245 -1.551,-0.449c-0.775,-0.163 -1.346,-0.367 -1.673,-0.531c-0.408,-0.204 -0.693,-0.489 -0.897,-0.816c-0.204,-0.285 -0.327,-0.652 -0.327,-1.06c0,-0.449 0.123,-0.857 0.368,-1.224c0.244,-0.368 0.612,-0.653 1.101,-0.857c0.49,-0.204 1.02,-0.286 1.592,-0.286c0.652,0 1.183,0.082 1.672,0.286c0.49,0.204 0.898,0.53 1.143,0.897c0.285,0.408 0.408,0.857 0.449,1.388l-1.102,0.081c-0.082,-0.53 -0.286,-0.979 -0.612,-1.224c-0.326,-0.285 -0.857,-0.449 -1.51,-0.449c-0.693,0 -1.183,0.123 -1.509,0.408c-0.327,0.245 -0.49,0.531 -0.49,0.898c0,0.326 0.122,0.571 0.326,0.775c0.245,0.204 0.817,0.408 1.755,0.612c0.938,0.204 1.55,0.408 1.918,0.571c0.489,0.204 0.856,0.49 1.101,0.857c0.245,0.368 0.367,0.776 0.367,1.224c0,0.49 -0.122,0.898 -0.408,1.306c-0.244,0.408 -0.652,0.734 -1.142,0.938c-0.49,0.245 -1.02,0.368 -1.673,0.368c-0.775,0 -1.428,-0.123 -1.958,-0.368c-0.531,-0.204 -0.939,-0.571 -1.224,-1.02c-0.327,-0.448 -0.449,-0.979 -0.49,-1.55Z" style="fill:#1f293a;fill-rule:nonzero;"/></g></svg>