<?xml version="1.0" encoding="UTF-8" standalone="no"?><!DOCTYPE svg PUBLIC "-//W3C//DTD SVG 1.1//EN" "http://www.w3.org/Graphics/SVG/1.1/DTD/svg11.dtd"><svg width="100%" height="100%" viewBox="0 0 999 264" version="1.1" xmlns="http://www.w3.org/2000/svg" xmlns:xlink="http://www.w3.org/1999/xlink" xml:space="preserve" xmlns:serif="http://www.serif.com/" style="fill-rule:evenodd;clip-rule:evenodd;stroke-linejoin:round;stroke-miterlimit:1.41421;"><path d="M169.213,60.068l-24.814,-30.025l24.814,-30.043l645.874,0l24.815,30.043l-24.815,30.025l-645.874,0Z" style="fill:#67C6BC;fill-opacity:0.462745;"/><path d="M40.891,211.273l-29.562,-30.025l29.562,-30.043l769.449,0l29.562,30.043l-29.562,30.025l-769.449,0Z" style="fill:#67C6BC;fill-opacity:0.462745;"/><path d="M82.91,162.526l-30.623,-30.025l30.623,-30.043l797.058,0l30.623,30.043l-30.623,30.025l-797.058,0Z" style="fill:#67C6BC;fill-opacity:0.462745;"/><path d="M35.621,111.85l-35.621,-30.024l35.621,-30.043l927.16,0l35.621,30.043l-35.621,30.024l-927.16,0Z" style="fill:#67C6BC;fill-opacity:0.462745;"/><path d="M174.888,263.055l-30.489,-30.024l30.489,-30.043l793.584,0l30.489,30.043l-30.489,30.024l-793.584,0Z" style="fill:#67C6BC;fill-opacity:0.462745;"/></svg>
