<?xml version="1.0" encoding="UTF-8" standalone="no"?><!DOCTYPE svg PUBLIC "-//W3C//DTD SVG 1.1//EN" "http://www.w3.org/Graphics/SVG/1.1/DTD/svg11.dtd"><svg width="100%" height="100%" viewBox="0 0 91 135" version="1.1" xmlns="http://www.w3.org/2000/svg" xmlns:xlink="http://www.w3.org/1999/xlink" xml:space="preserve" xmlns:serif="http://www.serif.com/" style="fill-rule:evenodd;clip-rule:evenodd;stroke-linejoin:round;stroke-miterlimit:1.41421;"><g><path d="M22.925,82.298l44.956,0c12.973,-7.918 20.705,-21.69 20.705,-36.897c0,-23.815 -19.372,-43.188 -43.187,-43.188c-23.815,0 -43.189,19.373 -43.189,43.188c0,15.202 7.739,28.974 20.715,36.897Zm45.264,2.214l-45.572,0c-0.201,0 -0.398,-0.055 -0.572,-0.16c-13.598,-8.178 -22.045,-23.104 -22.045,-38.951c0,-25.033 20.364,-45.401 45.399,-45.401c25.034,0 45.401,20.368 45.401,45.401c0,16.092 -8.241,30.655 -22.041,38.951c-0.171,0.105 -0.369,0.16 -0.57,0.16Z" style="fill:#5d82e1;fill-rule:nonzero;"/><path d="M29.443,120.689l31.924,0l0,-36.177l-31.924,0l0,36.177Zm33.032,2.214l-34.14,0c-0.611,0 -1.106,-0.495 -1.106,-1.106l0,-38.393c0,-0.611 0.495,-1.106 1.106,-1.106l34.14,0c0.611,0 1.106,0.495 1.106,1.106l0,38.393c0,0.611 -0.495,1.106 -1.106,1.106Z" style="fill:#5d82e1;fill-rule:nonzero;"/><path d="M77.611,84.512l-64.411,0c-0.61,0 -1.106,-0.496 -1.106,-1.108c0,-0.611 0.496,-1.106 1.106,-1.106l64.411,0c0.613,0 1.108,0.495 1.108,1.106c0,0.612 -0.495,1.108 -1.108,1.108Z" style="fill:#5d82e1;fill-rule:nonzero;"/><path d="M69.071,98.513l-47.34,0c-0.609,0 -1.105,-0.495 -1.105,-1.106c0,-0.612 0.496,-1.107 1.105,-1.107l47.34,0c0.61,0 1.106,0.495 1.106,1.107c0,0.611 -0.496,1.106 -1.106,1.106Z" style="fill:#5d82e1;fill-rule:nonzero;"/><path d="M69.071,109.284l-47.34,0c-0.609,0 -1.105,-0.495 -1.105,-1.106c0,-0.611 0.496,-1.106 1.105,-1.106l47.34,0c0.61,0 1.106,0.495 1.106,1.106c0,0.611 -0.496,1.106 -1.106,1.106Z" style="fill:#5d82e1;fill-rule:nonzero;"/><path d="M37.255,122.903c-0.061,0.405 -0.092,0.82 -0.092,1.226c0,4.548 3.693,8.248 8.236,8.248c4.542,0 8.236,-3.7 8.236,-8.248c0,-0.416 -0.029,-0.825 -0.087,-1.226l-16.293,0Zm8.144,11.686c-5.762,0 -10.449,-4.692 -10.449,-10.46c0,-0.889 0.112,-1.767 0.333,-2.613c0.129,-0.485 0.567,-0.827 1.07,-0.827l18.095,0c0.504,0 0.943,0.342 1.07,0.827c0.22,0.837 0.33,1.717 0.33,2.613c0,5.768 -4.689,10.46 -10.449,10.46Z" style="fill:#5d82e1;fill-rule:nonzero;"/><path d="M48.012,64.521c0.437,0 0.837,0.259 1.014,0.664l3.248,7.45l2.666,-0.71l-0.91,-8.084c-0.055,-0.478 0.207,-0.936 0.646,-1.135c1.48,-0.66 2.889,-1.477 4.189,-2.421c0.389,-0.284 0.922,-0.282 1.308,0.004l6.538,4.845l1.951,-1.962l-4.83,-6.526c-0.287,-0.388 -0.289,-0.915 -0.006,-1.306c0.956,-1.322 1.769,-2.734 2.415,-4.198c0.198,-0.442 0.644,-0.707 1.139,-0.649l8.081,0.923l0.548,-2.067l-7.457,-3.256c-0.444,-0.196 -0.71,-0.653 -0.659,-1.133c0.172,-1.565 0.176,-3.19 0.009,-4.828c-0.048,-0.478 0.218,-0.934 0.66,-1.125l7.447,-3.239l-0.712,-2.675l-8.088,0.924c-0.495,0.058 -0.947,-0.211 -1.139,-0.658c-0.628,-1.443 -1.44,-2.85 -2.411,-4.185c-0.284,-0.39 -0.283,-0.921 0.005,-1.309l4.837,-6.541l-1.95,-1.951l-6.543,4.83c-0.388,0.284 -0.919,0.285 -1.31,0.001c-1.286,-0.939 -2.693,-1.747 -4.18,-2.402c-0.444,-0.194 -0.708,-0.653 -0.653,-1.136l0.915,-8.085l-2.666,-0.72l-3.248,7.461c-0.194,0.442 -0.655,0.695 -1.133,0.658c-1.621,-0.175 -3.253,-0.177 -4.825,-0.002c-0.497,0.058 -0.944,-0.214 -1.136,-0.658l-3.243,-7.459l-2.671,0.72l0.915,8.085c0.057,0.483 -0.211,0.944 -0.653,1.138c-1.489,0.651 -2.89,1.463 -4.166,2.409c-0.392,0.292 -0.926,0.291 -1.317,0.001l-6.547,-4.841l-1.953,1.953l4.828,6.541c0.288,0.386 0.291,0.915 0.009,1.305c-0.939,1.291 -1.749,2.702 -2.412,4.195c-0.196,0.443 -0.644,0.703 -1.137,0.65l-8.078,-0.924l-0.556,2.066l7.453,3.241c0.443,0.192 0.71,0.646 0.66,1.124c-0.165,1.634 -0.165,3.263 0,4.846c0.05,0.479 -0.216,0.937 -0.66,1.128l-7.453,3.242l0.716,2.676l8.085,-0.923c0.498,-0.058 0.942,0.209 1.136,0.649c0.657,1.479 1.468,2.884 2.411,4.179c0.282,0.389 0.282,0.92 -0.005,1.308l-4.839,6.543l1.957,1.962l6.546,-4.845c0.392,-0.291 0.928,-0.29 1.319,0.001c1.264,0.945 2.664,1.756 4.163,2.414c0.444,0.196 0.708,0.655 0.653,1.135l-0.908,8.086l2.662,0.71l3.25,-7.45c0.194,-0.442 0.641,-0.696 1.135,-0.657c1.529,0.169 3.155,0.169 4.828,0c0.037,-0.005 0.075,-0.007 0.112,-0.007Zm-8.692,10.535c-0.093,0 -0.189,-0.014 -0.286,-0.038l-4.499,-1.201c-0.53,-0.141 -0.875,-0.648 -0.814,-1.192l0.926,-8.236c-1.118,-0.538 -2.183,-1.155 -3.182,-1.843l-6.665,4.934c-0.438,0.327 -1.05,0.281 -1.441,-0.107l-3.301,-3.314c-0.386,-0.387 -0.43,-0.999 -0.105,-1.438l4.928,-6.666c-0.684,-1.008 -1.298,-2.072 -1.83,-3.176l-8.24,0.943c-0.544,0.059 -1.051,-0.285 -1.194,-0.812l-1.208,-4.519c-0.141,-0.527 0.124,-1.08 0.626,-1.298l7.598,-3.305c-0.087,-1.212 -0.085,-2.442 0.002,-3.677l-7.6,-3.304c-0.502,-0.217 -0.769,-0.77 -0.626,-1.301l1.048,-3.908c0.143,-0.527 0.64,-0.88 1.195,-0.81l8.23,0.941c0.538,-1.113 1.15,-2.181 1.833,-3.19l-4.924,-6.667c-0.325,-0.439 -0.279,-1.052 0.109,-1.438l3.3,-3.3c0.388,-0.388 1.003,-0.434 1.44,-0.106l6.665,4.931c1.002,-0.689 2.068,-1.305 3.182,-1.84l-0.932,-8.234c-0.062,-0.543 0.282,-1.05 0.809,-1.192l4.51,-1.217c0.526,-0.143 1.082,0.126 1.3,0.628l3.306,7.6c1.211,-0.092 2.44,-0.092 3.678,0.001l3.309,-7.603c0.22,-0.5 0.776,-0.764 1.302,-0.626l4.505,1.217c0.529,0.142 0.872,0.649 0.811,1.192l-0.932,8.234c1.109,0.535 2.176,1.145 3.183,1.829l6.669,-4.921c0.441,-0.324 1.051,-0.278 1.439,0.108l3.294,3.301c0.388,0.386 0.432,0.999 0.107,1.437l-4.929,6.666c0.701,1.031 1.317,2.099 1.84,3.19l8.239,-0.941c0.538,-0.061 1.055,0.283 1.194,0.813l1.2,4.517c0.141,0.529 -0.126,1.081 -0.628,1.298l-7.59,3.303c0.087,1.236 0.087,2.465 -0.003,3.666l7.595,3.317c0.501,0.22 0.767,0.769 0.626,1.299l-1.036,3.907c-0.142,0.531 -0.657,0.88 -1.195,0.814l-8.237,-0.943c-0.531,1.099 -1.145,2.168 -1.838,3.19l4.922,6.652c0.327,0.437 0.281,1.05 -0.104,1.436l-3.297,3.314c-0.386,0.388 -1.004,0.434 -1.441,0.109l-6.664,-4.937c-1.012,0.685 -2.079,1.301 -3.183,1.841l0.929,8.239c0.061,0.546 -0.284,1.053 -0.815,1.194l-4.505,1.201c-0.526,0.14 -1.079,-0.127 -1.298,-0.626l-3.311,-7.594c-1.259,0.09 -2.482,0.09 -3.673,0.005l-3.309,7.589c-0.178,0.41 -0.583,0.664 -1.014,0.664Z" style="fill:#5d82e1;fill-rule:nonzero;"/><path d="M45.399,27.193c-8.306,0 -15.062,6.756 -15.062,15.06c0,8.308 6.756,15.063 15.062,15.063c8.309,0 15.07,-6.755 15.07,-15.063c0,-8.304 -6.761,-15.06 -15.07,-15.06Zm0,32.337c-9.526,0 -17.275,-7.75 -17.275,-17.277c0,-9.524 7.749,-17.271 17.275,-17.271c9.529,0 17.283,7.747 17.283,17.271c0,9.527 -7.754,17.277 -17.283,17.277Z" style="fill:#5d82e1;fill-rule:nonzero;"/><path d="M45.399,27.193c-3.888,0 -7.169,6.897 -7.169,15.06c0,8.166 3.281,15.063 7.169,15.063c3.889,0 7.174,-6.897 7.174,-15.063c0,-8.163 -3.285,-15.06 -7.174,-15.06Zm0,32.337c-5.26,0 -9.383,-7.59 -9.383,-17.277c0,-9.684 4.123,-17.271 9.383,-17.271c5.264,0 9.388,7.587 9.388,17.271c0,9.687 -4.124,17.277 -9.388,17.277Z" style="fill:#5d82e1;fill-rule:nonzero;"/><path d="M61.575,43.359l-32.343,0c-0.613,0 -1.108,-0.495 -1.108,-1.106c0,-0.611 0.495,-1.106 1.108,-1.106l32.343,0c0.612,0 1.107,0.495 1.107,1.106c0,0.611 -0.495,1.106 -1.107,1.106Z" style="fill:#5d82e1;fill-rule:nonzero;"/><path d="M45.399,59.53c-0.613,0 -1.108,-0.495 -1.108,-1.106l0,-32.336c0,-0.611 0.495,-1.106 1.108,-1.106c0.611,0 1.106,0.495 1.106,1.106l0,32.336c0,0.611 -0.495,1.106 -1.106,1.106Z" style="fill:#5d82e1;fill-rule:nonzero;"/><path d="M45.436,36.083c-4.496,0 -9.006,-0.756 -13.496,-2.27c-0.578,-0.196 -0.89,-0.822 -0.696,-1.402c0.196,-0.577 0.817,-0.886 1.404,-0.694c8.508,2.868 17.088,2.87 25.504,0.002c0.578,-0.196 1.208,0.11 1.403,0.689c0.198,0.578 -0.11,1.206 -0.689,1.403c-4.445,1.515 -8.93,2.272 -13.43,2.272Z" style="fill:#5d82e1;fill-rule:nonzero;"/><path d="M32.294,52.493c-0.463,0 -0.895,-0.291 -1.05,-0.753c-0.194,-0.581 0.119,-1.207 0.698,-1.401c8.974,-3.009 18.032,-3.009 26.921,0.002c0.58,0.194 0.888,0.822 0.692,1.402c-0.195,0.578 -0.821,0.888 -1.401,0.691c-8.417,-2.848 -17,-2.848 -25.508,0.001c-0.119,0.041 -0.236,0.058 -0.352,0.058Z" style="fill:#5d82e1;fill-rule:nonzero;"/></g></svg>