<?xml version="1.0" encoding="UTF-8" standalone="no"?><!DOCTYPE svg PUBLIC "-//W3C//DTD SVG 1.1//EN" "http://www.w3.org/Graphics/SVG/1.1/DTD/svg11.dtd"><svg width="100%" height="100%" viewBox="0 0 92 121" version="1.1" xmlns="http://www.w3.org/2000/svg" xmlns:xlink="http://www.w3.org/1999/xlink" xml:space="preserve" xmlns:serif="http://www.serif.com/" style="fill-rule:evenodd;clip-rule:evenodd;stroke-linejoin:round;stroke-miterlimit:1.41421;"><path d="M38.887,120.396l-38.161,0c-0.339,0 -0.613,-0.275 -0.613,-0.613l0,-37.343c0,-0.339 0.274,-0.613 0.613,-0.613l38.161,0c0.339,0 0.613,0.274 0.613,0.613l0,37.343c0,0.338 -0.274,0.613 -0.613,0.613Zm10.184,-49.623l0,-5.969c0,-1.467 1.194,-2.661 2.661,-2.661l8.978,0c1.425,0 2.584,1.159 2.584,2.584l0,13.498c0,0.267 0.217,0.484 0.484,0.484l7.306,0l0,-2.024c0,-1.925 1.158,-3.585 2.814,-4.318l0,-1.156c0,-0.242 0.196,-0.438 0.438,-0.438l3.218,0c0.242,0 0.438,0.196 0.438,0.438l0,1.132c1.685,0.721 2.869,2.396 2.869,4.342l0,4.363l4.023,0c1.24,0 2.25,1.009 2.25,2.249l0,20.447l3.165,0c0.339,0 0.613,0.274 0.613,0.613l0,15.337c0,0.339 -0.274,0.613 -0.613,0.613l-49.653,0c-0.339,0 -0.613,-0.274 -0.613,-0.613l0,-23.434c0,-0.338 0.274,-0.613 0.613,-0.613l4.712,0l0,-19.148c0,-1.902 1.177,-3.535 2.841,-4.207l0,-1.081c0,-0.242 0.196,-0.438 0.438,-0.438l0.434,0Zm-47.732,48.397l36.935,0l0,-36.117l-36.935,0l0,36.117Zm74.269,-14.2l-10.471,0c-0.339,0 -0.613,-0.275 -0.613,-0.613l0,-7.484l-23.265,0l0,22.208l48.428,0l0,-14.111l-13.35,0c-0.065,0.003 -0.13,0.004 -0.196,0.004l-0.337,0c-0.066,0 -0.131,-0.001 -0.196,-0.004Zm-52.433,10.379c-0.339,0 -0.613,-0.274 -0.613,-0.613l0,-2.946c0,-0.338 0.274,-0.613 0.613,-0.613c0.338,0 0.613,0.275 0.613,0.613l0,2.946c0,0.339 -0.275,0.613 -0.613,0.613Zm-15.441,0c-0.339,0 -0.613,-0.274 -0.613,-0.613l0,-2.946c0,-0.338 0.274,-0.613 0.613,-0.613c0.338,0 0.613,0.275 0.613,0.613l0,2.946c0,0.339 -0.275,0.613 -0.613,0.613Zm23.161,0c-0.338,0 -0.613,-0.274 -0.613,-0.613l0,-2.946c0,-0.338 0.275,-0.613 0.613,-0.613c0.339,0 0.613,0.275 0.613,0.613l0,2.946c0,0.339 -0.274,0.613 -0.613,0.613Zm-15.441,0c-0.338,0 -0.613,-0.274 -0.613,-0.613l0,-2.946c0,-0.338 0.275,-0.613 0.613,-0.613c0.339,0 0.613,0.275 0.613,0.613l0,2.946c0,0.339 -0.274,0.613 -0.613,0.613Zm15.441,-5.591c-0.338,0 -0.613,-0.275 -0.613,-0.613l0,-9.146c0,-0.338 0.275,-0.613 0.613,-0.613c0.339,0 0.613,0.275 0.613,0.613l0,9.146c0,0.338 -0.274,0.613 -0.613,0.613Zm-15.441,0c-0.338,0 -0.613,-0.275 -0.613,-0.613l0,-9.146c0,-0.338 0.275,-0.613 0.613,-0.613c0.339,0 0.613,0.275 0.613,0.613l0,9.146c0,0.338 -0.274,0.613 -0.613,0.613Zm-7.72,0c-0.339,0 -0.613,-0.275 -0.613,-0.613l0,-9.146c0,-0.338 0.274,-0.613 0.613,-0.613c0.338,0 0.613,0.275 0.613,0.613l0,9.146c0,0.338 -0.275,0.613 -0.613,0.613Zm15.441,0c-0.339,0 -0.613,-0.275 -0.613,-0.613l0,-9.146c0,-0.338 0.274,-0.613 0.613,-0.613c0.338,0 0.613,0.275 0.613,0.613l0,9.146c0,0.338 -0.275,0.613 -0.613,0.613Zm57.686,-27.834l0,0.508l3.913,0c0.529,0 0.959,0.431 0.959,0.96l0,20.352l0.525,0l0,-20.447c0,-0.757 -0.616,-1.373 -1.374,-1.373l-4.023,0Zm0,1.384l0,16.946c0,1.381 -0.596,2.626 -1.545,3.49l5.542,0l0,-20.352c0,-0.047 -0.038,-0.084 -0.084,-0.084l-3.913,0Zm-4.72,-10.117l-0.337,0c-1.927,0 -3.494,1.567 -3.494,3.494l0,23.569c0,1.87 1.476,3.402 3.325,3.49l0.674,0c1.849,-0.088 3.326,-1.62 3.326,-3.49l0,-23.569c0,-1.927 -1.567,-3.494 -3.494,-3.494Zm-21.006,5.535l0,16.921l10.002,0c0.338,0 0.613,0.275 0.613,0.613l0,7.484l6.879,0c-0.949,-0.864 -1.545,-2.109 -1.545,-3.49l0,-13.524l-11.457,0c-1.389,0 -2.52,-1.13 -2.52,-2.52l0,-5.471c0,-0.007 -0.006,-0.013 -0.013,-0.013l-1.959,0Zm-4.534,-5.535l-0.709,0c-1.824,0 -3.308,1.484 -3.308,3.308l0,19.148l7.325,0l0,-19.148c0,-1.824 -1.484,-3.308 -3.308,-3.308Zm-16.789,20.769l-28.02,0c-0.338,0 -0.613,-0.275 -0.613,-0.613l0,-4.63c0,-0.338 0.275,-0.613 0.613,-0.613l28.02,0c0.339,0 0.613,0.275 0.613,0.613l0,4.63c0,0.338 -0.274,0.613 -0.613,0.613Zm-0.613,-4.63l-26.794,0l0,3.404l26.794,0l0,-3.404Zm21.936,-12.052l0,0.573l1.959,0c0.49,0 0.889,0.398 0.889,0.888l0,5.471c0,0.907 0.738,1.645 1.644,1.645l11.457,0l0,-0.584l-11.365,0c-0.606,0 -1.099,-0.493 -1.099,-1.1l0,-5.363c0,-0.844 -0.686,-1.53 -1.53,-1.53l-1.955,0Zm15.949,3.857l-7.512,0c-1.488,0 -2.699,-1.211 -2.699,-2.699l0,-13.521c0,-0.193 -0.157,-0.351 -0.351,-0.351l-8.748,0c-0.176,0 -0.32,0.144 -0.32,0.32l0,5.889l0.402,0c0.241,0 0.437,0.196 0.437,0.438l0,1.081c1.636,0.661 2.802,2.25 2.841,4.11l1.956,0c1.326,0 2.405,1.08 2.405,2.406l0,5.363c0,0.124 0.101,0.224 0.224,0.224l11.365,0l0,-3.26Zm-64.773,0.269l-0.012,0c-0.338,-0.006 -0.607,-0.285 -0.601,-0.624l0.8,-43.244l-0.706,0c-0.338,0 -0.613,-0.275 -0.613,-0.613l0,-4.458c0,-0.338 0.275,-0.613 0.613,-0.613l0.817,0l0.126,-6.368c0.007,-0.334 0.279,-0.601 0.613,-0.601l12.983,0c0.334,0 0.606,0.267 0.613,0.601l0.125,6.368l0.809,0c0.339,0 0.613,0.275 0.613,0.613l0,4.458c0,0.338 -0.274,0.613 -0.613,0.613l-0.697,0l0.849,43.244c0.006,0.338 -0.263,0.618 -0.601,0.624l-0.012,0c-0.333,0 -0.606,-0.266 -0.613,-0.6l-0.543,-27.656l-12.826,0l-0.511,27.655c-0.007,0.335 -0.28,0.601 -0.613,0.601Zm54.399,-18.385l-8.978,0c-0.984,0 -1.785,0.801 -1.785,1.785l0,5.969l0.632,0l0,-5.889c0,-0.659 0.536,-1.195 1.195,-1.195l8.748,0c0.677,0 1.227,0.549 1.227,1.226l0,13.521c0,1.005 0.818,1.823 1.823,1.823l7.512,0l0,-0.674l-7.306,0c-0.75,0 -1.36,-0.611 -1.36,-1.36l0,-13.498c0,-0.942 -0.766,-1.708 -1.708,-1.708Zm16.407,9.047l0,-0.417l-2.343,0l0,0.429c0.331,-0.074 0.676,-0.113 1.03,-0.113l0.337,0c0.334,0 0.661,0.035 0.976,0.101Zm-25.699,-0.028l0,-0.389l-2.343,0l0,0.389c0.265,-0.048 0.538,-0.073 0.817,-0.073l0.709,0c0.279,0 0.552,0.025 0.817,0.073Zm4.713,-13.436c-0.048,0 -0.087,-0.039 -0.087,-0.087l0,-1.051c0,-0.049 0.039,-0.088 0.087,-0.088c0.049,0 0.088,0.039 0.088,0.088l0,1.051c0,0.048 -0.039,0.087 -0.088,0.087Zm0,-2.101c-0.048,0 -0.087,-0.04 -0.087,-0.088l0,-1.051c0,-0.048 0.039,-0.087 0.087,-0.087c0.049,0 0.088,0.039 0.088,0.087l0,1.051c0,0.048 -0.039,0.088 -0.088,0.088Zm0,-2.102c-0.048,0 -0.087,-0.04 -0.087,-0.088l0,-1.051c0,-0.048 0.039,-0.087 0.087,-0.087c0.049,0 0.088,0.039 0.088,0.087l0,1.051c0,0.048 -0.039,0.088 -0.088,0.088Zm0,-2.102c-0.048,0 -0.087,-0.039 -0.087,-0.087l0,-1.051c0,-0.048 0.039,-0.088 0.087,-0.088c0.049,0 0.088,0.04 0.088,0.088l0,1.051c0,0.048 -0.039,0.087 -0.088,0.087Zm-36.12,-5.942l-12.334,0l-0.131,5.568l12.54,0l-0.075,-5.568Zm59.743,3.724l0.597,0.625c0.279,0.293 -0.163,0.736 -0.443,0.444c-0.362,-0.379 -0.724,-0.759 -1.087,-1.138c-0.118,-0.123 -0.123,-0.32 0,-0.443c0.402,-0.401 0.805,-0.802 1.207,-1.203c0.286,-0.285 0.729,0.158 0.443,0.443c-0.216,0.215 -0.431,0.43 -0.648,0.645l5.43,0c0.852,0 0.542,-1.027 0.235,-1.445c-0.328,-0.446 -0.656,-0.892 -0.984,-1.338c-0.605,-0.822 -1.209,-1.644 -1.814,-2.465c-0.239,-0.327 0.305,-0.638 0.541,-0.317c0.72,0.978 1.439,1.957 2.159,2.935c0.59,0.802 1.81,2.199 0.517,3.045c-0.387,0.254 -0.805,0.212 -1.245,0.212l-4.908,0Zm-23.623,0.117c-0.048,0 -0.087,-0.04 -0.087,-0.088l0,-1.051c0,-0.048 0.039,-0.087 0.087,-0.087c0.049,0 0.088,0.039 0.088,0.087l0,1.051c0,0.048 -0.039,0.088 -0.088,0.088Zm15.764,-0.112c-0.352,0 -0.789,0.056 -1.119,-0.091c-0.751,-0.334 -1.045,-1.33 -0.557,-2.012l0.712,-0.997c0.577,-0.807 1.154,-1.614 1.731,-2.421c-0.296,0.074 -0.593,0.147 -0.89,0.22c-0.392,0.097 -0.559,-0.508 -0.167,-0.604c0.582,-0.144 1.163,-0.287 1.744,-0.431c0.157,-0.039 0.351,0.048 0.385,0.219c0.105,0.521 0.209,1.043 0.313,1.564c0.079,0.395 -0.525,0.563 -0.604,0.167c-0.06,-0.3 -0.12,-0.601 -0.18,-0.901l-1.522,2.128c-0.299,0.418 -0.597,0.836 -0.896,1.253c-0.332,0.464 -0.317,1.28 0.433,1.28l5.921,0c0.404,0 0.404,0.626 0,0.626l-5.304,0Zm-15.764,-1.99c-0.048,0 -0.087,-0.039 -0.087,-0.088l0,-1.051c0,-0.048 0.039,-0.087 0.087,-0.087c0.049,0 0.088,0.039 0.088,0.087l0,1.051c0,0.049 -0.039,0.088 -0.088,0.088Zm0,-2.102c-0.048,0 -0.087,-0.039 -0.087,-0.087l0,-1.051c0,-0.048 0.039,-0.088 0.087,-0.088c0.049,0 0.088,0.04 0.088,0.088l0,1.051c0,0.048 -0.039,0.087 -0.088,0.087Zm-36.401,-19.883l-11.781,0l-0.126,6.368c-0.006,0.334 -0.279,0.601 -0.613,0.601l-0.805,0l0,3.232l0.718,0c0.164,0 0.321,0.066 0.437,0.183c0.115,0.118 0.178,0.277 0.175,0.441l-0.151,8.196l12.52,0l-0.161,-8.195c-0.004,-0.165 0.059,-0.324 0.175,-0.441c0.115,-0.118 0.273,-0.184 0.437,-0.184l0.71,0l0,-3.232l-0.797,0c-0.334,0 -0.606,-0.267 -0.613,-0.601l-0.125,-6.368Zm36.401,17.782c-0.048,0 -0.087,-0.04 -0.087,-0.088l0,-1.051c0,-0.048 0.039,-0.087 0.087,-0.087c0.049,0 0.088,0.039 0.088,0.087l0,1.051c0,0.048 -0.039,0.088 -0.088,0.088Zm23.895,-3.426c0.467,0.627 0.933,1.255 1.399,1.882c-0.325,-0.05 -0.651,-0.101 -0.977,-0.151c-0.395,-0.06 -0.565,0.543 -0.166,0.605c0.561,0.086 1.123,0.173 1.684,0.259c0.155,0.024 0.353,-0.037 0.385,-0.219c0.091,-0.516 0.182,-1.033 0.273,-1.549c0.069,-0.395 -0.535,-0.564 -0.605,-0.167c-0.046,0.263 -0.092,0.527 -0.139,0.79c-0.51,-0.687 -1.021,-1.374 -1.532,-2.061c-0.594,-0.8 -1.206,-2.051 -2.349,-2.024c-1.024,0.025 -1.666,1.434 -2.162,2.16c-0.583,0.854 -1.166,1.709 -1.749,2.563c-0.228,0.334 0.315,0.648 0.541,0.316c0.469,-0.686 0.937,-1.372 1.405,-2.059c0.316,-0.461 0.631,-0.923 0.946,-1.385c0.221,-0.323 0.409,-0.681 0.753,-0.887c0.888,-0.532 1.901,1.4 2.293,1.927Zm-23.895,1.324c-0.048,0 -0.087,-0.039 -0.087,-0.087l0,-1.051c0,-0.048 0.039,-0.088 0.087,-0.088c0.049,0 0.088,0.04 0.088,0.088l0,1.051c0,0.048 -0.039,0.087 -0.088,0.087Zm0,-2.101c-0.048,0 -0.087,-0.04 -0.087,-0.088l0,-1.051c0,-0.048 0.039,-0.087 0.087,-0.087c0.049,0 0.088,0.039 0.088,0.087l0,1.051c0,0.048 -0.039,0.088 -0.088,0.088Zm0,-2.102c-0.048,0 -0.087,-0.039 -0.087,-0.088l0,-1.051c0,-0.048 0.039,-0.087 0.087,-0.087c0.049,0 0.088,0.039 0.088,0.087l0,1.051c0,0.049 -0.039,0.088 -0.088,0.088Zm0,-2.102c-0.048,0 -0.087,-0.039 -0.087,-0.087l0,-1.051c0,-0.048 0.039,-0.088 0.087,-0.088c0.049,0 0.088,0.04 0.088,0.088l0,1.051c0,0.048 -0.039,0.087 -0.088,0.087Zm0,-2.101c-0.048,0 -0.087,-0.04 -0.087,-0.088l0,-1.051c0,-0.048 0.039,-0.087 0.087,-0.087c0.049,0 0.088,0.039 0.088,0.087l0,1.051c0,0.048 -0.039,0.088 -0.088,0.088Zm0,-2.102c-0.048,0 -0.087,-0.039 -0.087,-0.087l0,-1.051c0,-0.049 0.039,-0.088 0.087,-0.088c0.049,0 0.088,0.039 0.088,0.088l0,1.051c0,0.048 -0.039,0.087 -0.088,0.087Zm0,-2.102c-0.048,0 -0.087,-0.039 -0.087,-0.087l0,-1.051c0,-0.048 0.039,-0.087 0.087,-0.087c0.049,0 0.088,0.039 0.088,0.087l0,1.051c0,0.048 -0.039,0.087 -0.088,0.087Zm0,-2.101c-0.048,0 -0.087,-0.04 -0.087,-0.088l0,-1.051c0,-0.048 0.039,-0.087 0.087,-0.087c0.049,0 0.088,0.039 0.088,0.087l0,1.051c0,0.048 -0.039,0.088 -0.088,0.088Zm-8.336,-0.732l-0.003,0l-1.384,-0.008c-0.242,-0.002 -0.436,-0.199 -0.435,-0.441l0.004,-0.652c-0.239,-0.049 -0.47,-0.112 -0.693,-0.189l-0.329,0.561c-0.122,0.209 -0.39,0.279 -0.599,0.156l-1.193,-0.7c-0.209,-0.123 -0.279,-0.391 -0.157,-0.599l0.328,-0.559c-0.179,-0.158 -0.344,-0.326 -0.504,-0.513l-0.564,0.32c-0.21,0.119 -0.478,0.045 -0.597,-0.165l-0.682,-1.204c-0.058,-0.101 -0.072,-0.221 -0.041,-0.333c0.031,-0.112 0.105,-0.207 0.206,-0.264l0.565,-0.32c-0.079,-0.234 -0.138,-0.462 -0.182,-0.696l-0.648,-0.006c-0.116,-0.001 -0.227,-0.048 -0.308,-0.131c-0.081,-0.083 -0.126,-0.195 -0.125,-0.31l0.012,-1.384c0.002,-0.242 0.209,-0.435 0.442,-0.434l0.646,0.006c0.048,-0.237 0.111,-0.463 0.194,-0.694l-0.557,-0.329c-0.209,-0.123 -0.277,-0.392 -0.154,-0.6l0.703,-1.191c0.059,-0.1 0.156,-0.173 0.268,-0.202c0.113,-0.028 0.232,-0.012 0.332,0.047l0.559,0.33c0.16,-0.181 0.329,-0.345 0.513,-0.502l-0.318,-0.566c-0.057,-0.101 -0.071,-0.221 -0.04,-0.333c0.031,-0.111 0.106,-0.206 0.207,-0.263l1.206,-0.679c0.102,-0.057 0.221,-0.071 0.333,-0.04c0.112,0.032 0.207,0.106 0.263,0.207l0.321,0.569c0.207,-0.067 0.418,-0.122 0.627,-0.165l0,-0.652c0,-0.242 0.196,-0.438 0.437,-0.438l1.384,0c0.242,0 0.438,0.196 0.438,0.438l0,0.65c0.237,0.047 0.467,0.109 0.694,0.186l0.326,-0.562c0.121,-0.21 0.389,-0.281 0.598,-0.16l1.197,0.693c0.101,0.058 0.174,0.154 0.204,0.266c0.03,0.112 0.014,0.232 -0.044,0.332l-0.325,0.562c0.184,0.161 0.351,0.327 0.508,0.509l0.562,-0.323c0.21,-0.121 0.478,-0.049 0.598,0.161l0.69,1.2c0.057,0.101 0.073,0.22 0.043,0.332c-0.03,0.112 -0.104,0.208 -0.205,0.266l-0.564,0.324c0.075,0.224 0.136,0.455 0.183,0.694l0.652,0.002c0.116,0 0.227,0.047 0.309,0.129c0.082,0.083 0.128,0.194 0.127,0.31l-0.004,1.384c0,0.242 -0.201,0.431 -0.439,0.437l-0.652,-0.002c-0.048,0.237 -0.111,0.469 -0.187,0.693l0.562,0.327c0.209,0.122 0.28,0.39 0.158,0.599l-0.697,1.196c-0.058,0.1 -0.154,0.173 -0.266,0.203c-0.112,0.029 -0.232,0.013 -0.332,-0.045l-0.562,-0.328c-0.158,0.179 -0.327,0.346 -0.511,0.505l0.323,0.565c0.057,0.101 0.073,0.221 0.042,0.333c-0.031,0.112 -0.104,0.207 -0.205,0.265l-1.203,0.686c-0.21,0.119 -0.477,0.046 -0.597,-0.164l-0.322,-0.565c-0.225,0.073 -0.458,0.134 -0.694,0.181l-0.004,0.652c-0.001,0.116 -0.048,0.227 -0.131,0.308c-0.081,0.082 -0.192,0.127 -0.307,0.127Zm-0.401,-12.49l-0.508,0l0,0.583c0,0.22 -0.163,0.406 -0.381,0.435c-0.374,0.049 -0.787,0.157 -1.162,0.305c-0.203,0.079 -0.435,-0.003 -0.542,-0.193l-0.286,-0.509l-0.443,0.249l0.287,0.509c0.107,0.192 0.056,0.434 -0.121,0.566c-0.351,0.261 -0.627,0.532 -0.895,0.877c-0.136,0.174 -0.379,0.22 -0.569,0.108l-0.502,-0.297l-0.259,0.438l0.503,0.297c0.19,0.112 0.266,0.348 0.179,0.551c-0.181,0.417 -0.278,0.766 -0.335,1.203c-0.029,0.22 -0.21,0.387 -0.438,0.382l-0.584,-0.006l-0.005,0.509l0.584,0.005c0.221,0.002 0.406,0.169 0.431,0.388c0.047,0.418 0.144,0.792 0.314,1.213c0.083,0.204 0.001,0.437 -0.19,0.545l-0.508,0.288l0.251,0.442l0.508,-0.288c0.192,-0.108 0.434,-0.057 0.566,0.119c0.27,0.359 0.54,0.634 0.878,0.891c0.176,0.134 0.224,0.379 0.112,0.57l-0.296,0.503l0.439,0.258l0.295,-0.504c0.112,-0.19 0.347,-0.268 0.55,-0.181c0.371,0.159 0.779,0.271 1.212,0.333c0.217,0.031 0.377,0.217 0.376,0.436l-0.004,0.584l0.508,0.003l0.004,-0.584c0.001,-0.219 0.164,-0.403 0.381,-0.432c0.407,-0.053 0.83,-0.162 1.195,-0.308c0.075,-0.036 0.16,-0.05 0.245,-0.039c0.147,0.019 0.271,0.11 0.335,0.237l0.278,0.487l0.441,-0.252l-0.289,-0.507c-0.109,-0.191 -0.059,-0.433 0.115,-0.566c0.351,-0.266 0.634,-0.547 0.892,-0.883c0.134,-0.175 0.378,-0.223 0.568,-0.112l0.504,0.294l0.256,-0.439l-0.504,-0.294c-0.191,-0.111 -0.269,-0.346 -0.183,-0.548c0.158,-0.374 0.269,-0.783 0.329,-1.214c0.03,-0.216 0.216,-0.377 0.434,-0.377c0,0 0.001,0 0.001,0l0.584,0.002l0.001,-0.509l-0.583,-0.001c-0.219,-0.001 -0.404,-0.163 -0.433,-0.38c-0.058,-0.433 -0.166,-0.842 -0.322,-1.215c-0.084,-0.204 -0.005,-0.438 0.186,-0.548l0.506,-0.291l-0.253,-0.441l-0.506,0.291c-0.191,0.11 -0.435,0.06 -0.568,-0.116c-0.259,-0.343 -0.532,-0.617 -0.885,-0.887c-0.174,-0.134 -0.223,-0.377 -0.112,-0.567l0.292,-0.505l-0.44,-0.255l-0.292,0.505c-0.111,0.191 -0.346,0.27 -0.548,0.185c-0.388,-0.162 -0.783,-0.268 -1.207,-0.325c-0.007,-0.001 -0.014,-0.002 -0.021,-0.003c-0.221,-0.037 -0.377,-0.234 -0.366,-0.453l0,-0.562Zm8.737,11.12c-0.048,0 -0.087,-0.039 -0.087,-0.087l0,-1.051c0,-0.048 0.039,-0.088 0.087,-0.088c0.049,0 0.088,0.04 0.088,0.088l0,1.051c0,0.048 -0.039,0.087 -0.088,0.087Zm-9.025,-1.646c-2.014,0 -3.652,-1.638 -3.652,-3.652c0,-2.013 1.638,-3.652 3.652,-3.652c2.014,0 3.652,1.639 3.652,3.652c0,2.014 -1.638,3.652 -3.652,3.652Zm9.025,-0.455c-0.048,0 -0.087,-0.04 -0.087,-0.088l0,-1.051c0,-0.048 0.039,-0.087 0.087,-0.087c0.049,0 0.088,0.039 0.088,0.087l0,1.051c0,0.048 -0.039,0.088 -0.088,0.088Zm-9.025,-5.973c-1.531,0 -2.776,1.245 -2.776,2.776c0,1.531 1.245,2.777 2.776,2.777c1.531,0 2.776,-1.246 2.776,-2.777c0,-1.531 -1.245,-2.776 -2.776,-2.776Zm13.865,2.397l-0.003,0l-2.029,-0.012c-0.116,-0.001 -0.227,-0.048 -0.308,-0.131c-0.082,-0.082 -0.127,-0.194 -0.127,-0.31l0.007,-1.124c-0.456,-0.086 -0.895,-0.206 -1.311,-0.359l-0.568,0.968c-0.122,0.209 -0.39,0.279 -0.599,0.156l-1.75,-1.026c-0.1,-0.059 -0.173,-0.155 -0.202,-0.268c-0.029,-0.112 -0.012,-0.232 0.046,-0.332l0.567,-0.965c-0.348,-0.292 -0.656,-0.606 -0.954,-0.97l-0.975,0.552c-0.21,0.12 -0.478,0.046 -0.597,-0.165l-1,-1.765c-0.057,-0.101 -0.072,-0.22 -0.041,-0.332c0.031,-0.112 0.105,-0.207 0.206,-0.264l0.976,-0.554c-0.16,-0.446 -0.27,-0.87 -0.343,-1.316l-1.119,-0.01c-0.242,-0.002 -0.436,-0.2 -0.434,-0.441l0.018,-2.029c0.001,-0.117 0.048,-0.227 0.131,-0.309c0.083,-0.081 0.189,-0.127 0.311,-0.125l1.119,0.01c0.08,-0.454 0.197,-0.872 0.365,-1.311l-0.964,-0.569c-0.1,-0.06 -0.172,-0.156 -0.201,-0.268c-0.029,-0.113 -0.012,-0.232 0.047,-0.332l1.032,-1.747c0.059,-0.1 0.156,-0.172 0.268,-0.201c0.112,-0.029 0.232,-0.012 0.332,0.047l0.965,0.57c0.299,-0.351 0.613,-0.659 0.972,-0.951l-0.55,-0.977c-0.119,-0.211 -0.044,-0.478 0.167,-0.596l1.768,-0.995c0.101,-0.057 0.221,-0.072 0.333,-0.04c0.111,0.031 0.206,0.105 0.263,0.207l0.552,0.98c0.402,-0.138 0.814,-0.246 1.218,-0.321l0,-1.123c0,-0.242 0.196,-0.438 0.438,-0.438l2.029,0c0.242,0 0.438,0.196 0.438,0.438l0,1.122c0.452,0.081 0.886,0.197 1.313,0.352l0.562,-0.971c0.058,-0.1 0.154,-0.174 0.266,-0.204c0.112,-0.029 0.231,-0.014 0.332,0.044l1.756,1.017c0.209,0.121 0.281,0.389 0.159,0.598l-0.561,0.97c0.358,0.3 0.668,0.611 0.961,0.963l0.971,-0.558c0.21,-0.121 0.477,-0.048 0.598,0.161l1.011,1.759c0.12,0.21 0.048,0.478 -0.162,0.598l-0.973,0.559c0.149,0.418 0.266,0.857 0.347,1.314l1.124,0.003c0.242,0.001 0.437,0.198 0.437,0.439l-0.006,2.029c-0.001,0.116 -0.047,0.227 -0.13,0.31c-0.082,0.081 -0.201,0.125 -0.31,0.127l-1.124,-0.004c-0.084,0.455 -0.202,0.894 -0.355,1.312l0.97,0.565c0.1,0.059 0.174,0.154 0.203,0.267c0.03,0.112 0.014,0.231 -0.045,0.332l-1.021,1.753c-0.122,0.209 -0.39,0.279 -0.599,0.158l-0.969,-0.565c-0.292,0.344 -0.612,0.66 -0.966,0.956l0.556,0.975c0.12,0.21 0.047,0.478 -0.163,0.597l-1.762,1.006c-0.101,0.057 -0.221,0.072 -0.333,0.042c-0.112,-0.031 -0.207,-0.105 -0.264,-0.206l-0.557,-0.974c-0.42,0.146 -0.865,0.262 -1.315,0.342l-0.006,1.125c-0.002,0.24 -0.198,0.435 -0.438,0.435Zm-1.588,-0.886l1.152,0.008l0.007,-1.06c0.001,-0.219 0.164,-0.404 0.381,-0.432c0.616,-0.08 1.256,-0.246 1.808,-0.468c0.078,-0.039 0.168,-0.054 0.257,-0.04c0.146,0.021 0.268,0.113 0.33,0.239l0.512,0.897l1.001,-0.571l-0.525,-0.921c-0.109,-0.191 -0.06,-0.432 0.115,-0.565c0.529,-0.403 0.957,-0.826 1.346,-1.333c0.134,-0.175 0.378,-0.223 0.568,-0.112l0.915,0.534l0.581,-0.997l-0.916,-0.534c-0.19,-0.11 -0.268,-0.345 -0.182,-0.548c0.239,-0.565 0.405,-1.181 0.496,-1.83c0.03,-0.216 0.216,-0.378 0.434,-0.378c0,0 0.001,0 0.001,0l1.06,0.004l0.003,-1.153l-1.059,-0.004c-0.219,0 -0.404,-0.162 -0.433,-0.379c-0.088,-0.653 -0.251,-1.27 -0.485,-1.833c-0.085,-0.204 -0.005,-0.438 0.186,-0.548l0.918,-0.528l-0.574,-1l-0.919,0.528c-0.191,0.11 -0.435,0.06 -0.568,-0.116c-0.391,-0.518 -0.803,-0.931 -1.336,-1.34c-0.174,-0.134 -0.223,-0.376 -0.112,-0.567l0.53,-0.917l-0.998,-0.577l-0.531,0.917c-0.11,0.19 -0.345,0.27 -0.548,0.184c-0.585,-0.245 -1.182,-0.405 -1.822,-0.49c-0.007,0 -0.015,-0.001 -0.022,-0.003c-0.223,-0.037 -0.379,-0.236 -0.366,-0.458l0,-1.033l-1.153,0l0,1.059c0,0.226 -0.17,0.412 -0.389,0.436c-0.563,0.074 -1.182,0.237 -1.744,0.458c-0.203,0.08 -0.434,-0.002 -0.542,-0.193l-0.519,-0.923l-1.005,0.565l0.519,0.924c0.109,0.192 0.057,0.434 -0.119,0.566c-0.531,0.395 -0.948,0.803 -1.353,1.323c-0.135,0.174 -0.379,0.221 -0.568,0.109l-0.913,-0.539l-0.586,0.992l0.912,0.54c0.19,0.112 0.267,0.348 0.179,0.551c-0.273,0.63 -0.42,1.158 -0.506,1.819c-0.029,0.219 -0.224,0.386 -0.438,0.381l-1.06,-0.01l-0.011,1.154l1.061,0.009c0.221,0.002 0.406,0.169 0.431,0.389c0.07,0.63 0.217,1.195 0.474,1.831c0.082,0.203 0.001,0.437 -0.19,0.545l-0.922,0.523l0.568,1.003l0.922,-0.523c0.192,-0.108 0.434,-0.058 0.567,0.119c0.407,0.542 0.816,0.957 1.325,1.346c0.177,0.134 0.225,0.379 0.113,0.57l-0.537,0.914l0.995,0.583l0.536,-0.914c0.112,-0.19 0.347,-0.267 0.55,-0.181c0.56,0.24 1.175,0.409 1.828,0.503c0.217,0.031 0.377,0.217 0.376,0.436l-0.006,1.059Zm0.578,-3.535c-2.84,0 -5.15,-2.31 -5.15,-5.15c0,-2.839 2.31,-5.149 5.15,-5.149c2.839,0 5.15,2.31 5.15,5.149c0,2.84 -2.311,5.15 -5.15,5.15Zm0,-9.424c-2.357,0 -4.274,1.918 -4.274,4.274c0,2.357 1.917,4.274 4.274,4.274c2.357,0 4.274,-1.917 4.274,-4.274c0,-2.356 -1.917,-4.274 -4.274,-4.274Z" style="fill:#5d82e1;fill-rule:nonzero;stroke:#5d82e1;stroke-width:0.23px;"/></svg>