<?xml version="1.0" encoding="UTF-8" standalone="no"?><!DOCTYPE svg PUBLIC "-//W3C//DTD SVG 1.1//EN" "http://www.w3.org/Graphics/SVG/1.1/DTD/svg11.dtd"><svg width="100%" height="100%" viewBox="0 0 250 58" version="1.1" xmlns="http://www.w3.org/2000/svg" xmlns:xlink="http://www.w3.org/1999/xlink" xml:space="preserve" xmlns:serif="http://www.serif.com/" style="fill-rule:evenodd;clip-rule:evenodd;stroke-linejoin:round;stroke-miterlimit:1.41421;"><path d="M65.444,10.199l-0.833,0l-12.278,31.949c-1.166,3.155 -2.722,4.282 -4.055,4.62l0,1.015c1,-0.113 2.111,-0.169 3.889,-0.169c1.833,0 4,0.056 5.944,0.169l0,-1.015c-2.944,-0.112 -4.5,-0.901 -4.5,-3.211c0,-1.071 0.333,-2.48 1.056,-4.283l2.111,-5.635l12.555,0l3.223,8.678c0.388,1.07 0.611,1.859 0.611,2.479c0,1.465 -1.167,1.86 -3.723,1.972l0,1.015c1.5,-0.113 4,-0.169 6.667,-0.169c2,0 4.167,0.056 5.611,0.169l0,-1.015c-1.111,-0.056 -2.555,-0.732 -3.611,-3.381l-12.667,-33.188Zm3.5,22.426l-11.777,0l6,-15.777l5.777,15.777Zm27.612,-22.201c-1.667,0.113 -4.223,0.169 -6.612,0.169c-2.722,0 -5.222,-0.056 -6.666,-0.169l0,1.071c3.5,0.169 4.222,0.676 4.222,4.508l0,24.116c0,7.325 -0.167,9.917 -0.889,12.115c-0.944,2.817 -3.222,4.508 -6.278,4.508c-0.889,0 -2.611,-0.169 -3.333,-0.845c1.333,-0.282 2.222,-1.184 2.222,-2.705c0,-1.803 -1.278,-2.874 -2.889,-2.874c-1.611,0 -2.722,1.183 -2.722,2.818c0,1.465 0.778,2.761 2.445,3.606c0.944,0.507 2.444,0.958 4.388,0.958c5.945,0 9.834,-3.719 11,-8.565c0.834,-3.55 0.889,-9.41 0.889,-13.805l0,-19.327c0,-3.832 0.667,-4.339 4.223,-4.508l0,-1.071Zm18.166,-0.225l-0.833,0l-12.278,31.949c-1.167,3.155 -2.722,4.282 -4.055,4.62l0,1.015c1,-0.113 2.111,-0.169 3.888,-0.169c1.834,0 4,0.056 5.945,0.169l0,-1.015c-2.945,-0.112 -4.5,-0.901 -4.5,-3.211c0,-1.071 0.333,-2.48 1.055,-4.283l2.112,-5.635l12.555,0l3.222,8.678c0.389,1.07 0.611,1.859 0.611,2.479c0,1.465 -1.166,1.86 -3.722,1.972l0,1.015c1.5,-0.113 4,-0.169 6.667,-0.169c2,0 4.167,0.056 5.611,0.169l0,-1.015c-1.111,-0.056 -2.556,-0.732 -3.611,-3.381l-12.667,-33.188Zm3.5,22.426l-11.778,0l6,-15.777l5.778,15.777Zm30.834,-5.24l7.277,-11.044c1.889,-2.874 3.723,-4.564 5.889,-4.846l0,-1.071c-1.055,0.113 -2.666,0.169 -4.444,0.169c-1.834,0 -4,-0.056 -6,-0.169l0,1.071c2.611,0.056 4.055,0.563 4.055,2.085c0,1.127 -0.722,2.761 -2.277,5.071l-5.112,7.776l-8.111,-12.566c-0.277,-0.45 -0.444,-0.845 -0.444,-1.183c0,-0.732 1,-1.127 3.5,-1.127l0,-1.127c-1.945,0.113 -4.556,0.226 -7.333,0.226c-1.778,0 -3.612,-0.169 -4.5,-0.226l0,1.127c1.555,0.113 2.166,0.564 3.5,2.649l10.166,15.833l-7.833,11.889c-1.945,2.874 -3.722,4.508 -5.889,4.846l0,1.015c1.056,-0.113 2.667,-0.169 4.444,-0.169c1.834,0 5.056,0.056 7,0.169l0,-1.015c-2.777,-0.112 -4.611,-0.676 -4.611,-2.535c0,-1.071 0.611,-2.592 1.945,-4.677l5.666,-8.452l8.889,13.805c0.223,0.338 0.334,0.676 0.334,0.958c0,0.676 -1.111,0.845 -3.667,0.845l0,1.071c1.389,-0.057 4.5,-0.226 7.333,-0.226c1.778,0 3.556,0.169 4.445,0.226l0,-1.071c-1.556,-0.113 -2.167,-0.62 -3.445,-2.648l-10.777,-16.679Z" style="fill:#00566f;fill-rule:nonzero;"/><path d="M193.778,16.228l1.222,0l0,4.846l-1.222,0l0,-0.507c-0.222,0.225 -0.445,0.394 -0.722,0.507c-0.223,0.113 -0.5,0.113 -0.723,0.113c-0.666,0 -1.166,-0.226 -1.611,-0.733c-0.5,-0.451 -0.722,-1.071 -0.722,-1.803c0,-0.733 0.222,-1.352 0.667,-1.803c0.444,-0.507 1,-0.733 1.611,-0.733c0.278,0 0.555,0.057 0.778,0.169c0.277,0.113 0.5,0.282 0.722,0.451l0,-0.507Zm-1.278,1.014c-0.333,0 -0.667,0.113 -0.889,0.395c-0.278,0.281 -0.389,0.62 -0.389,1.014c0,0.394 0.111,0.789 0.389,1.014c0.222,0.282 0.556,0.451 0.889,0.451c0.389,0 0.722,-0.169 0.944,-0.394c0.278,-0.282 0.389,-0.62 0.389,-1.071c0,-0.451 -0.111,-0.789 -0.389,-1.014c-0.222,-0.282 -0.555,-0.395 -0.944,-0.395Zm7.222,-2.873l1.222,0l0,6.705l-1.222,0l0,-0.507c-0.222,0.225 -0.444,0.394 -0.666,0.507c-0.278,0.113 -0.5,0.113 -0.778,0.113c-0.611,0 -1.167,-0.226 -1.611,-0.733c-0.445,-0.451 -0.667,-1.071 -0.667,-1.803c0,-0.733 0.222,-1.352 0.611,-1.803c0.445,-0.507 1,-0.733 1.611,-0.733c0.278,0 0.556,0.057 0.834,0.169c0.222,0.113 0.5,0.282 0.666,0.508l0,-2.423Zm-1.222,2.873c-0.389,0 -0.722,0.113 -0.944,0.395c-0.278,0.281 -0.389,0.62 -0.389,1.014c0,0.394 0.111,0.789 0.389,1.014c0.277,0.282 0.555,0.451 0.944,0.451c0.389,0 0.667,-0.169 0.944,-0.394c0.223,-0.282 0.334,-0.62 0.334,-1.071c0,-0.451 -0.111,-0.789 -0.334,-1.014c-0.277,-0.282 -0.611,-0.395 -0.944,-0.395Zm3.167,-1.014l1.222,0l1.222,2.874l1.167,-2.874l1.222,0l-2.056,4.846l-0.777,0l-2,-4.846Zm9.111,0l1.166,0l0,4.846l-1.166,0l0,-0.507c-0.278,0.225 -0.5,0.394 -0.722,0.507c-0.223,0.113 -0.5,0.113 -0.778,0.113c-0.611,0 -1.167,-0.226 -1.611,-0.733c-0.445,-0.451 -0.667,-1.071 -0.667,-1.803c0,-0.733 0.222,-1.352 0.667,-1.803c0.444,-0.507 0.944,-0.733 1.555,-0.733c0.334,0 0.611,0.057 0.834,0.169c0.277,0.113 0.5,0.282 0.722,0.451l0,-0.507Zm-1.278,1.014c-0.389,0 -0.667,0.113 -0.944,0.395c-0.223,0.281 -0.334,0.62 -0.334,1.014c0,0.394 0.111,0.789 0.334,1.014c0.277,0.282 0.555,0.451 0.944,0.451c0.389,0 0.667,-0.169 0.944,-0.394c0.223,-0.282 0.389,-0.62 0.389,-1.071c0,-0.451 -0.166,-0.789 -0.389,-1.014c-0.277,-0.282 -0.555,-0.395 -0.944,-0.395Zm3.667,-1.014l1.222,0l0,0.507c0.278,-0.225 0.5,-0.394 0.722,-0.507c0.222,-0.056 0.445,-0.113 0.667,-0.113c0.5,0 0.889,0.169 1.222,0.507c0.278,0.282 0.444,0.677 0.444,1.24l0,3.212l-1.222,0l0,-2.085c0,-0.62 0,-1.014 -0.055,-1.183c-0.056,-0.169 -0.167,-0.338 -0.278,-0.451c-0.111,-0.056 -0.278,-0.113 -0.445,-0.113c-0.277,0 -0.5,0.057 -0.666,0.226c-0.167,0.169 -0.278,0.394 -0.334,0.676c-0.055,0.169 -0.055,0.507 -0.055,1.014l0,1.916l-1.222,0l0,-4.846Zm10.111,1.014l-1,0.507c-0.167,-0.169 -0.389,-0.338 -0.556,-0.394c-0.166,-0.056 -0.389,-0.113 -0.611,-0.113c-0.5,0 -0.833,0.113 -1.111,0.395c-0.278,0.281 -0.444,0.62 -0.444,1.07c0,0.395 0.166,0.733 0.444,1.015c0.222,0.225 0.611,0.394 1.056,0.394c0.5,0 0.944,-0.225 1.222,-0.563l0.944,0.619c-0.5,0.677 -1.222,1.015 -2.166,1.015c-0.834,0 -1.5,-0.226 -2,-0.733c-0.445,-0.507 -0.723,-1.071 -0.723,-1.803c0,-0.451 0.167,-0.902 0.389,-1.296c0.222,-0.394 0.556,-0.676 0.945,-0.902c0.444,-0.225 0.889,-0.338 1.389,-0.338c0.5,0 0.944,0.113 1.277,0.282c0.389,0.169 0.723,0.451 0.945,0.845Zm5.889,1.747l-3.834,0c0.056,0.338 0.167,0.62 0.445,0.845c0.222,0.226 0.555,0.282 0.889,0.282c0.444,0 0.833,-0.113 1.166,-0.451l1,0.451c-0.222,0.394 -0.555,0.676 -0.889,0.845c-0.333,0.169 -0.777,0.226 -1.277,0.226c-0.723,0 -1.334,-0.226 -1.834,-0.677c-0.444,-0.507 -0.666,-1.127 -0.666,-1.803c0,-0.732 0.222,-1.352 0.666,-1.859c0.5,-0.507 1.056,-0.733 1.778,-0.733c0.778,0 1.389,0.226 1.833,0.733c0.5,0.507 0.723,1.127 0.723,1.916l0,0.225Zm-1.167,-0.958c-0.111,-0.225 -0.278,-0.451 -0.5,-0.62c-0.222,-0.169 -0.5,-0.281 -0.833,-0.281c-0.334,0 -0.611,0.112 -0.834,0.281c-0.166,0.113 -0.333,0.338 -0.444,0.62l2.611,0Zm5.722,-3.662l1.167,0l0,6.705l-1.167,0l0,-0.507c-0.278,0.225 -0.5,0.394 -0.722,0.507c-0.222,0.113 -0.5,0.113 -0.778,0.113c-0.611,0 -1.166,-0.226 -1.611,-0.733c-0.444,-0.451 -0.667,-1.071 -0.667,-1.803c0,-0.733 0.223,-1.352 0.667,-1.803c0.445,-0.507 0.945,-0.733 1.556,-0.733c0.333,0 0.555,0.057 0.833,0.169c0.278,0.113 0.5,0.282 0.722,0.508l0,-2.423Zm-1.278,2.873c-0.388,0 -0.666,0.113 -0.944,0.395c-0.222,0.281 -0.389,0.62 -0.389,1.014c0,0.394 0.167,0.789 0.389,1.014c0.278,0.282 0.556,0.451 0.944,0.451c0.389,0 0.667,-0.169 0.945,-0.394c0.222,-0.282 0.389,-0.62 0.389,-1.071c0,-0.451 -0.167,-0.789 -0.389,-1.014c-0.278,-0.282 -0.556,-0.395 -0.945,-0.395Zm-42.055,8.283l1.167,0l0,1.803l0.722,0l0,1.071l-0.722,0l0,3.775l-1.167,0l0,-3.775l-0.611,0l0,-1.071l0.611,0l0,-1.803Zm7.333,4.564l-3.833,0c0.055,0.339 0.222,0.62 0.444,0.846c0.223,0.225 0.556,0.281 0.889,0.281c0.5,0 0.834,-0.112 1.167,-0.45l1,0.45c-0.222,0.395 -0.556,0.677 -0.889,0.846c-0.333,0.169 -0.778,0.225 -1.222,0.225c-0.778,0 -1.389,-0.225 -1.834,-0.676c-0.5,-0.507 -0.722,-1.127 -0.722,-1.803c0,-0.733 0.222,-1.353 0.722,-1.86c0.445,-0.507 1.056,-0.732 1.778,-0.732c0.722,0 1.334,0.225 1.834,0.732c0.444,0.507 0.666,1.127 0.666,1.916l0,0.225Zm-1.166,-0.957c-0.112,-0.226 -0.223,-0.451 -0.5,-0.62c-0.223,-0.169 -0.5,-0.282 -0.778,-0.282c-0.334,0 -0.667,0.113 -0.889,0.282c-0.167,0.169 -0.333,0.338 -0.445,0.62l2.612,0Zm6.888,-0.789l-1,0.563c-0.222,-0.225 -0.388,-0.338 -0.611,-0.451c-0.166,-0.056 -0.389,-0.112 -0.611,-0.112c-0.444,0 -0.833,0.112 -1.111,0.394c-0.278,0.282 -0.389,0.62 -0.389,1.071c0,0.394 0.111,0.732 0.389,1.014c0.278,0.225 0.611,0.394 1.056,0.394c0.555,0 0.944,-0.225 1.277,-0.563l0.945,0.62c-0.556,0.676 -1.278,1.014 -2.222,1.014c-0.834,0 -1.5,-0.225 -1.945,-0.732c-0.5,-0.508 -0.722,-1.071 -0.722,-1.747c0,-0.507 0.111,-0.902 0.333,-1.353c0.223,-0.394 0.556,-0.676 1,-0.901c0.389,-0.226 0.834,-0.338 1.389,-0.338c0.445,0 0.889,0.112 1.278,0.282c0.389,0.169 0.667,0.45 0.944,0.845Zm1.056,-2.874l1.222,0l0,2.367c0.222,-0.226 0.445,-0.395 0.722,-0.451c0.223,-0.113 0.445,-0.169 0.723,-0.169c0.444,0 0.833,0.169 1.166,0.507c0.278,0.282 0.445,0.676 0.445,1.24l0,3.211l-1.222,0l0,-2.085c0,-0.563 0,-0.957 -0.056,-1.183c-0.056,-0.169 -0.167,-0.338 -0.278,-0.451c-0.111,-0.056 -0.278,-0.112 -0.444,-0.112c-0.278,0 -0.5,0.056 -0.667,0.225c-0.167,0.169 -0.278,0.395 -0.333,0.676c-0.056,0.169 -0.056,0.451 -0.056,1.015l0,1.915l-1.222,0l0,-6.705Zm5.444,1.859l1.167,0l0,0.508c0.278,-0.226 0.556,-0.395 0.778,-0.508c0.222,-0.056 0.444,-0.112 0.667,-0.112c0.444,0 0.888,0.169 1.222,0.507c0.278,0.282 0.389,0.676 0.389,1.24l0,3.211l-1.167,0l0,-2.085c0,-0.619 -0.056,-1.014 -0.111,-1.183c-0.056,-0.169 -0.111,-0.338 -0.278,-0.451c-0.111,-0.056 -0.278,-0.112 -0.444,-0.112c-0.223,0 -0.445,0.056 -0.611,0.225c-0.167,0.169 -0.334,0.395 -0.389,0.676c0,0.169 -0.056,0.507 -0.056,1.015l0,1.915l-1.167,0l0,-4.846Zm7.667,-0.112c0.445,0 0.889,0.112 1.278,0.338c0.389,0.225 0.722,0.563 0.944,0.958c0.223,0.394 0.334,0.789 0.334,1.239c0,0.451 -0.111,0.902 -0.334,1.296c-0.277,0.395 -0.555,0.677 -0.944,0.902c-0.389,0.225 -0.833,0.338 -1.278,0.338c-0.722,0 -1.278,-0.225 -1.778,-0.732c-0.5,-0.508 -0.722,-1.071 -0.722,-1.804c0,-0.732 0.278,-1.352 0.833,-1.859c0.445,-0.451 1,-0.676 1.667,-0.676Zm0,1.127c-0.389,0 -0.667,0.169 -0.944,0.394c-0.223,0.282 -0.334,0.62 -0.334,1.014c0,0.451 0.111,0.789 0.334,1.015c0.277,0.281 0.555,0.394 0.944,0.394c0.389,0 0.667,-0.113 0.945,-0.394c0.222,-0.226 0.388,-0.564 0.388,-1.015c0,-0.394 -0.166,-0.732 -0.388,-1.014c-0.223,-0.225 -0.556,-0.394 -0.945,-0.394Zm3.389,-2.874l1.222,0l0,6.705l-1.222,0l0,-6.705Zm4.556,1.747c0.444,0 0.888,0.112 1.277,0.338c0.389,0.225 0.723,0.563 0.945,0.958c0.222,0.394 0.333,0.789 0.333,1.239c0,0.451 -0.111,0.902 -0.333,1.296c-0.278,0.395 -0.556,0.677 -0.945,0.902c-0.389,0.225 -0.833,0.338 -1.277,0.338c-0.723,0 -1.278,-0.225 -1.778,-0.732c-0.5,-0.508 -0.722,-1.071 -0.722,-1.804c0,-0.732 0.277,-1.352 0.833,-1.859c0.444,-0.451 1,-0.676 1.667,-0.676Zm0,1.127c-0.389,0 -0.667,0.169 -0.945,0.394c-0.222,0.282 -0.333,0.62 -0.333,1.014c0,0.451 0.111,0.789 0.333,1.015c0.278,0.281 0.556,0.394 0.945,0.394c0.388,0 0.666,-0.113 0.944,-0.394c0.222,-0.226 0.389,-0.564 0.389,-1.015c0,-0.394 -0.167,-0.732 -0.389,-1.014c-0.222,-0.225 -0.556,-0.394 -0.944,-0.394Zm7.055,-1.015l1.222,0l0,4.17c0,0.789 -0.166,1.409 -0.5,1.803c-0.444,0.507 -1.111,0.789 -2,0.789c-0.444,0 -0.833,-0.056 -1.166,-0.169c-0.334,-0.113 -0.611,-0.282 -0.834,-0.563c-0.222,-0.226 -0.389,-0.507 -0.5,-0.789l1.334,0c0.111,0.112 0.277,0.225 0.5,0.282c0.166,0.056 0.389,0.112 0.611,0.112c0.333,0 0.611,-0.056 0.778,-0.169c0.222,-0.113 0.388,-0.225 0.444,-0.394c0.056,-0.169 0.111,-0.395 0.111,-0.789c-0.222,0.169 -0.444,0.338 -0.667,0.451c-0.222,0.112 -0.5,0.112 -0.777,0.112c-0.667,0 -1.223,-0.225 -1.667,-0.676c-0.444,-0.507 -0.667,-1.07 -0.667,-1.803c0,-0.789 0.278,-1.409 0.723,-1.859c0.444,-0.395 0.944,-0.62 1.555,-0.62c0.278,0 0.5,0.056 0.778,0.169c0.222,0.056 0.5,0.225 0.722,0.507l0,-0.564Zm-1.222,1.015c-0.389,0 -0.722,0.169 -0.945,0.394c-0.277,0.282 -0.388,0.564 -0.388,0.958c0,0.394 0.111,0.733 0.388,1.014c0.223,0.226 0.556,0.395 0.945,0.395c0.389,0 0.667,-0.169 0.944,-0.395c0.223,-0.281 0.334,-0.563 0.334,-1.014c0,-0.394 -0.111,-0.732 -0.334,-0.958c-0.277,-0.282 -0.611,-0.394 -0.944,-0.394Zm4.111,-2.987c0.222,0 0.389,0.057 0.556,0.226c0.166,0.112 0.222,0.338 0.222,0.563c0,0.226 -0.056,0.395 -0.222,0.564c-0.167,0.112 -0.334,0.225 -0.556,0.225c-0.222,0 -0.389,-0.113 -0.556,-0.282c-0.111,-0.112 -0.222,-0.338 -0.222,-0.563c0,-0.169 0.111,-0.395 0.222,-0.507c0.167,-0.169 0.334,-0.226 0.556,-0.226Zm-0.611,1.972l1.222,0l0,4.846l-1.222,0l0,-4.846Zm7,1.015l-1,0.563c-0.167,-0.225 -0.389,-0.338 -0.556,-0.451c-0.166,-0.056 -0.389,-0.112 -0.666,-0.112c-0.445,0 -0.778,0.112 -1.056,0.394c-0.278,0.282 -0.444,0.62 -0.444,1.071c0,0.394 0.166,0.732 0.389,1.014c0.277,0.225 0.611,0.394 1.055,0.394c0.556,0 0.945,-0.225 1.278,-0.563l0.944,0.62c-0.5,0.676 -1.222,1.014 -2.166,1.014c-0.834,0 -1.5,-0.225 -2,-0.732c-0.5,-0.508 -0.723,-1.071 -0.723,-1.747c0,-0.507 0.112,-0.902 0.334,-1.353c0.278,-0.394 0.555,-0.676 1,-0.901c0.389,-0.226 0.889,-0.338 1.389,-0.338c0.5,0 0.889,0.112 1.277,0.282c0.389,0.169 0.723,0.45 0.945,0.845Zm4.611,-1.015l1.222,0l0,4.846l-1.222,0l0,-0.507c-0.222,0.226 -0.444,0.395 -0.667,0.507c-0.277,0.113 -0.5,0.113 -0.777,0.113c-0.612,0 -1.167,-0.225 -1.612,-0.676c-0.444,-0.507 -0.666,-1.127 -0.666,-1.86c0,-0.732 0.166,-1.352 0.611,-1.803c0.444,-0.507 1,-0.732 1.611,-0.732c0.278,0 0.556,0.056 0.833,0.169c0.223,0.113 0.445,0.282 0.667,0.507l0,-0.564Zm-1.222,1.015c-0.389,0 -0.722,0.112 -0.945,0.394c-0.277,0.282 -0.389,0.62 -0.389,1.014c0,0.395 0.112,0.789 0.389,1.015c0.223,0.281 0.556,0.45 0.945,0.45c0.333,0 0.666,-0.169 0.944,-0.394c0.222,-0.282 0.334,-0.62 0.334,-1.071c0,-0.45 -0.112,-0.788 -0.334,-1.014c-0.278,-0.282 -0.611,-0.394 -0.944,-0.394Zm3.5,-2.874l1.222,0l0,6.705l-1.222,0l0,-6.705Zm-55.611,13.636l-0.723,0.789c-0.333,-0.338 -0.611,-0.451 -0.833,-0.451c-0.167,0 -0.222,0 -0.333,0.056c-0.056,0.057 -0.111,0.113 -0.111,0.226c0,0.056 0.055,0.113 0.055,0.169c0.056,0.056 0.167,0.113 0.389,0.225l0.445,0.226c0.444,0.225 0.777,0.45 0.944,0.732c0.167,0.226 0.278,0.507 0.278,0.845c0,0.395 -0.167,0.789 -0.5,1.071c-0.278,0.282 -0.722,0.394 -1.222,0.394c-0.723,0 -1.278,-0.225 -1.723,-0.788l0.778,-0.846c0.111,0.169 0.278,0.338 0.5,0.395c0.167,0.113 0.333,0.169 0.5,0.169c0.167,0 0.278,-0.056 0.389,-0.113c0.111,-0.056 0.111,-0.169 0.111,-0.282c0,-0.169 -0.167,-0.338 -0.5,-0.507l-0.389,-0.225c-0.778,-0.395 -1.166,-0.902 -1.166,-1.465c0,-0.395 0.111,-0.733 0.444,-1.014c0.278,-0.282 0.667,-0.395 1.111,-0.395c0.278,0 0.611,0.057 0.889,0.226c0.222,0.112 0.5,0.338 0.667,0.563Zm3.277,-0.789c0.5,0 0.889,0.113 1.278,0.338c0.445,0.226 0.722,0.564 0.945,0.958c0.222,0.395 0.333,0.789 0.333,1.24c0,0.451 -0.111,0.901 -0.333,1.296c-0.223,0.394 -0.5,0.732 -0.889,0.958c-0.389,0.169 -0.834,0.281 -1.334,0.281c-0.666,0 -1.277,-0.225 -1.722,-0.732c-0.5,-0.451 -0.722,-1.071 -0.722,-1.803c0,-0.733 0.222,-1.353 0.778,-1.86c0.5,-0.45 1.055,-0.676 1.666,-0.676Zm0.056,1.127c-0.389,0 -0.722,0.169 -0.944,0.395c-0.278,0.281 -0.389,0.619 -0.389,1.014c0,0.451 0.111,0.789 0.389,1.014c0.222,0.282 0.555,0.395 0.944,0.395c0.333,0 0.667,-0.113 0.944,-0.395c0.223,-0.225 0.334,-0.563 0.334,-1.014c0,-0.395 -0.111,-0.733 -0.334,-1.014c-0.277,-0.226 -0.555,-0.395 -0.944,-0.395Zm3.389,-2.874l1.167,0l0,6.706l-1.167,0l0,-6.706Zm2.278,1.86l1.222,0l0,2.366c0,0.451 0,0.733 0.055,0.902c0.056,0.225 0.167,0.338 0.334,0.451c0.111,0.056 0.278,0.113 0.5,0.113c0.166,0 0.389,-0.057 0.5,-0.113c0.166,-0.113 0.222,-0.226 0.333,-0.451c0.056,-0.113 0.056,-0.451 0.056,-0.902l0,-2.366l1.222,0l0,2.085c0,0.845 -0.111,1.408 -0.222,1.69c-0.167,0.395 -0.389,0.676 -0.723,0.902c-0.277,0.225 -0.722,0.281 -1.166,0.281c-0.556,0 -1,-0.112 -1.278,-0.338c-0.333,-0.225 -0.556,-0.563 -0.722,-1.014c-0.056,-0.282 -0.111,-0.789 -0.111,-1.578l0,-2.028Zm5.555,-1.803l1.167,0l0,1.803l0.722,0l0,1.07l-0.722,0l0,3.776l-1.167,0l0,-3.776l-0.611,0l0,-1.07l0.611,0l0,-1.803Zm3.056,-0.169c0.166,0 0.389,0.056 0.5,0.225c0.166,0.169 0.222,0.338 0.222,0.564c0,0.225 -0.056,0.394 -0.222,0.563c-0.111,0.113 -0.278,0.225 -0.5,0.225c-0.222,0 -0.389,-0.112 -0.556,-0.281c-0.166,-0.113 -0.222,-0.338 -0.222,-0.564c0,-0.169 0.056,-0.394 0.222,-0.507c0.167,-0.169 0.334,-0.225 0.556,-0.225Zm-0.611,1.972l1.166,0l0,4.846l-1.166,0l0,-4.846Zm4.555,-0.113c0.445,0 0.834,0.113 1.278,0.338c0.389,0.226 0.667,0.564 0.889,0.958c0.222,0.395 0.333,0.789 0.333,1.24c0,0.451 -0.111,0.901 -0.333,1.296c-0.222,0.394 -0.5,0.732 -0.889,0.958c-0.389,0.169 -0.833,0.281 -1.278,0.281c-0.722,0 -1.278,-0.225 -1.778,-0.732c-0.5,-0.451 -0.722,-1.071 -0.722,-1.803c0,-0.733 0.278,-1.353 0.834,-1.86c0.444,-0.45 1,-0.676 1.666,-0.676Zm0,1.127c-0.389,0 -0.666,0.169 -0.944,0.395c-0.222,0.281 -0.389,0.619 -0.389,1.014c0,0.451 0.167,0.789 0.389,1.014c0.222,0.282 0.555,0.395 0.944,0.395c0.389,0 0.667,-0.113 0.945,-0.395c0.222,-0.225 0.333,-0.563 0.333,-1.014c0,-0.395 -0.111,-0.733 -0.333,-1.014c-0.278,-0.226 -0.556,-0.395 -0.945,-0.395Zm3.5,-1.014l1.222,0l0,0.507c0.278,-0.225 0.5,-0.394 0.723,-0.507c0.222,-0.056 0.444,-0.113 0.666,-0.113c0.5,0 0.889,0.169 1.223,0.507c0.277,0.282 0.444,0.676 0.444,1.24l0,3.212l-1.222,0l0,-2.085c0,-0.62 0,-0.958 -0.056,-1.183c-0.055,-0.169 -0.166,-0.338 -0.278,-0.451c-0.111,-0.057 -0.277,-0.113 -0.5,-0.113c-0.222,0 -0.444,0.056 -0.611,0.226c-0.166,0.169 -0.277,0.394 -0.333,0.676c-0.056,0.169 -0.056,0.507 -0.056,1.014l0,1.916l-1.222,0l0,-4.846Zm8.334,0.676l-0.723,0.789c-0.277,-0.338 -0.555,-0.451 -0.833,-0.451c-0.111,0 -0.222,0 -0.278,0.056c-0.111,0.057 -0.166,0.113 -0.166,0.226c0,0.056 0.055,0.113 0.111,0.169c0.055,0.056 0.166,0.113 0.333,0.225l0.444,0.226c0.445,0.225 0.778,0.45 0.945,0.732c0.167,0.226 0.278,0.507 0.278,0.845c0,0.395 -0.167,0.789 -0.445,1.071c-0.333,0.282 -0.778,0.394 -1.278,0.394c-0.722,0 -1.277,-0.225 -1.666,-0.788l0.722,-0.846c0.167,0.169 0.333,0.338 0.5,0.395c0.167,0.113 0.333,0.169 0.5,0.169c0.167,0 0.278,-0.056 0.389,-0.113c0.111,-0.056 0.167,-0.169 0.167,-0.282c0,-0.169 -0.167,-0.338 -0.556,-0.507l-0.389,-0.225c-0.778,-0.395 -1.167,-0.902 -1.167,-1.465c0,-0.395 0.167,-0.733 0.445,-1.014c0.278,-0.282 0.667,-0.395 1.111,-0.395c0.333,0 0.611,0.057 0.889,0.226c0.278,0.112 0.5,0.338 0.667,0.563Z" style="fill:#00566f;fill-rule:nonzero;"/><rect x="178.667" y="0" width="1" height="57.756" style="fill:#00566f;"/><path d="M167.5,14.707l0,-3.776l-1.333,0l0,-0.732l3.555,0l0,0.732l-1.333,0l0,3.776l-0.889,0Zm2.778,0l0,-4.508l1.389,0l0.777,3.099l0.834,-3.099l1.333,0l0,4.508l-0.833,0l0,-3.55l-0.889,3.55l-0.889,0l-0.833,-3.55l-0.056,3.55l-0.833,0Z" style="fill:#00566f;fill-rule:nonzero;"/><path d="M18.556,47.839l9.277,-9.41l9.278,-9.41l-9.278,-9.41l-9.277,-9.41l-9.278,9.41l-9.278,9.41l18.556,18.82Zm0,-36.739l6.222,12.059l6.222,12.002l-24.889,0l6.222,-12.002l6.223,-12.059Z" style="fill:#f5811e;"/><path d="M18.556,11.1l6.222,12.059l6.222,12.002l-24.889,0l6.222,-12.002l6.223,-12.059Z" style="fill:#fefefe;"/><path d="M6.111,35.161l6.222,-12.002l6.223,-12.059l0,-0.901l-9.278,9.41l-9.278,9.41l18.556,18.82l0,-12.678l-12.445,0Z" style="fill:#f26b20;"/><path d="M18.556,35.161l0,-24.061l-6.223,12.059l-6.222,12.002l12.445,0Z" style="fill:#e5e6e7;"/></svg>