<?xml version="1.0" encoding="UTF-8" standalone="no"?><!DOCTYPE svg PUBLIC "-//W3C//DTD SVG 1.1//EN" "http://www.w3.org/Graphics/SVG/1.1/DTD/svg11.dtd"><svg width="100%" height="100%" viewBox="0 0 102 102" version="1.1" xmlns="http://www.w3.org/2000/svg" xmlns:xlink="http://www.w3.org/1999/xlink" xml:space="preserve" xmlns:serif="http://www.serif.com/" style="fill-rule:evenodd;clip-rule:evenodd;stroke-linejoin:round;stroke-miterlimit:1.41421;"><g><path d="M67.906,61.462l6.752,6.753l1.607,-1.608l-6.752,-6.752l-1.607,1.607Zm6.752,8.399c-0.181,0 -0.355,-0.071 -0.482,-0.199l-7.717,-7.717c-0.128,-0.128 -0.2,-0.302 -0.2,-0.483c0,-0.181 0.072,-0.354 0.2,-0.482l2.572,-2.572c0.266,-0.266 0.698,-0.266 0.965,0l7.716,7.717c0.267,0.266 0.267,0.698 0,0.964l-2.572,2.573c-0.128,0.128 -0.301,0.199 -0.482,0.199Z" style="fill:#5d82e1;fill-rule:nonzero;stroke:#5d82e1;stroke-width:1px;"/><path d="M39.939,85.932l-4.651,4.651l10.249,10.249l4.651,-4.652l-10.249,-10.248Z" style="fill:none;stroke:#5d82e1;stroke-width:1.5px;"/><path d="M60.557,85.812l15.896,-15.896l-10.249,-10.249l-15.896,15.896l10.249,10.249Z" style="fill:none;stroke:#5d82e1;stroke-width:1.5px;"/><path d="M66.057,65.803c-0.333,0.333 -0.873,0.333 -1.206,0c-0.333,-0.333 -0.333,-0.873 0,-1.206c0.333,-0.333 0.873,-0.333 1.206,0c0.333,0.333 0.333,0.873 0,1.206Z" style="fill:#5d82e1;fill-rule:nonzero;stroke:#5d82e1;stroke-width:1px;"/><path d="M71.105,75.66c-0.174,0 -0.349,-0.067 -0.482,-0.2l-9.963,-9.963c-0.267,-0.266 -0.267,-0.698 0,-0.964c0.266,-0.267 0.698,-0.267 0.964,0l9.963,9.963c0.267,0.266 0.267,0.698 0,0.964c-0.133,0.133 -0.307,0.2 -0.482,0.2Z" style="fill:#5d82e1;fill-rule:nonzero;stroke:#5d82e1;stroke-width:1px;"/><path d="M36.791,81.391l13.599,13.599c0.44,0.44 1.207,0.44 1.647,0c0.22,-0.22 0.342,-0.513 0.342,-0.824c0,-0.311 -0.122,-0.604 -0.342,-0.824c-0.133,-0.133 -0.199,-0.308 -0.199,-0.482c0,-0.175 0.066,-0.349 0.199,-0.483c0.267,-0.266 0.699,-0.266 0.965,0c0.454,0.455 1.194,0.455 1.648,0c0.22,-0.22 0.341,-0.512 0.341,-0.824c0,-0.311 -0.121,-0.603 -0.341,-0.823c-0.134,-0.134 -0.2,-0.308 -0.2,-0.483c0,-0.174 0.066,-0.349 0.2,-0.482c0.266,-0.266 0.698,-0.266 0.964,0c0.455,0.455 1.194,0.454 1.648,-0.001c0.455,-0.454 0.455,-1.193 0.001,-1.647c-0.134,-0.133 -0.2,-0.308 -0.2,-0.483c0,-0.174 0.066,-0.349 0.2,-0.482c0.265,-0.266 0.698,-0.266 0.964,0l1.553,1.553c0.44,0.44 1.207,0.44 1.648,0c0.22,-0.22 0.341,-0.512 0.341,-0.824c0,-0.311 -0.121,-0.604 -0.341,-0.824l-11.26,-11.26c-0.267,-0.266 -0.267,-0.698 -0.001,-0.965l1.849,-1.849l-2.23,-2.229l-6.83,-0.446l-7.219,7.219l1.054,3.864Zm14.422,15.304c-0.675,0 -1.311,-0.263 -1.788,-0.741l-13.727,-13.726c-0.084,-0.084 -0.144,-0.189 -0.175,-0.303l-1.206,-4.421c-0.065,-0.236 0.002,-0.489 0.175,-0.662l7.717,-7.717c0.139,-0.139 0.332,-0.209 0.527,-0.198l7.395,0.482c0.166,0.011 0.321,0.082 0.438,0.199l2.893,2.893c0.267,0.266 0.267,0.698 0.001,0.965l-1.848,1.849l10.777,10.778c0.987,0.986 0.987,2.59 0,3.577c-0.974,0.974 -2.554,0.986 -3.542,0.033c-0.118,0.376 -0.326,0.729 -0.623,1.026c-0.514,0.515 -1.195,0.764 -1.873,0.738c0.001,0.029 0.002,0.058 0.002,0.086c0,0.676 -0.264,1.311 -0.742,1.788c-0.497,0.499 -1.17,0.769 -1.873,0.74c0.001,0.029 0.002,0.056 0.002,0.085c0,0.675 -0.264,1.311 -0.741,1.788c-0.478,0.478 -1.113,0.741 -1.789,0.741Z" style="fill:#5d82e1;fill-rule:nonzero;stroke:#5d82e1;stroke-width:1px;"/><path d="M33.367,74.752l1.608,1.608l6.752,-6.753l-1.608,-1.607l-6.752,6.752Zm1.608,3.254c-0.181,0 -0.355,-0.072 -0.483,-0.199l-2.572,-2.573c-0.266,-0.266 -0.266,-0.698 0,-0.964l7.717,-7.717c0.267,-0.267 0.698,-0.267 0.964,0l2.573,2.572c0.128,0.128 0.2,0.301 0.2,0.482c0,0.181 -0.072,0.355 -0.2,0.482l-7.717,7.718c-0.128,0.127 -0.301,0.199 -0.482,0.199Z" style="fill:#5d82e1;fill-rule:nonzero;stroke:#5d82e1;stroke-width:1px;"/><path d="M16.165,61.046l15.483,15.483l10.249,-10.249l-15.484,-15.483l-10.248,10.249Z" style="fill:none;stroke:#5d82e1;stroke-width:1.5px;"/><path d="M5.574,50.456l-4.824,-4.824l10.249,-10.25l4.824,4.825l-10.249,10.249Z" style="fill:none;stroke:#5d82e1;stroke-width:1.5px;"/><path d="M58.016,88.588c-0.174,0 -0.349,-0.066 -0.482,-0.2l-2.372,-2.372c-0.266,-0.266 -0.266,-0.697 0,-0.964c0.266,-0.266 0.698,-0.266 0.965,0l2.371,2.372c0.267,0.266 0.267,0.698 0,0.964c-0.133,0.134 -0.308,0.2 -0.482,0.2Z" style="fill:#5d82e1;fill-rule:nonzero;stroke:#5d82e1;stroke-width:1px;"/><path d="M55.404,91.2c-0.175,0 -0.349,-0.066 -0.483,-0.199l-2.371,-2.372c-0.267,-0.266 -0.267,-0.698 0,-0.965c0.266,-0.266 0.697,-0.266 0.964,0l2.372,2.372c0.266,0.266 0.266,0.698 0,0.965c-0.133,0.133 -0.308,0.199 -0.482,0.199Z" style="fill:#5d82e1;fill-rule:nonzero;stroke:#5d82e1;stroke-width:1px;"/><path d="M52.791,93.813c-0.175,0 -0.349,-0.067 -0.482,-0.2l-2.372,-2.372c-0.267,-0.266 -0.267,-0.698 0,-0.964c0.266,-0.267 0.698,-0.267 0.965,0l2.371,2.371c0.266,0.267 0.266,0.699 0,0.965c-0.133,0.133 -0.307,0.2 -0.482,0.2Z" style="fill:#5d82e1;fill-rule:nonzero;stroke:#5d82e1;stroke-width:1px;"/><path d="M35.779,66.151c-0.333,-0.333 -0.333,-0.873 0,-1.206c0.333,-0.333 0.872,-0.333 1.205,0c0.333,0.333 0.333,0.873 0,1.206c-0.333,0.333 -0.872,0.333 -1.205,0Z" style="fill:#5d82e1;fill-rule:nonzero;stroke:#5d82e1;stroke-width:1px;"/><path d="M14.439,58.23l-1.55,1.55c-0.454,0.455 -0.454,1.194 0,1.648c0.44,0.44 1.208,0.44 1.648,0l11.26,-11.26c0.128,-0.128 0.302,-0.2 0.483,-0.2c0.181,0 0.354,0.072 0.482,0.2l1.849,1.849l2.229,-2.231l0.446,-6.83l-7.218,-7.219l-3.865,1.055l-13.599,13.598c-0.219,0.22 -0.341,0.512 -0.341,0.824c0,0.311 0.122,0.603 0.341,0.824c0.455,0.454 1.194,0.454 1.648,0c0.267,-0.267 0.699,-0.267 0.965,0c0.133,0.133 0.2,0.307 0.2,0.482c0,0.175 -0.067,0.349 -0.2,0.482c-0.454,0.455 -0.454,1.194 0,1.648c0.454,0.454 1.193,0.454 1.648,0c0.266,-0.266 0.698,-0.266 0.964,0c0.134,0.133 0.2,0.308 0.2,0.483c0,0.174 -0.066,0.348 -0.2,0.482c-0.22,0.22 -0.341,0.512 -0.341,0.824c0,0.31 0.121,0.603 0.342,0.824c0.454,0.454 1.193,0.454 1.648,0c0.266,-0.267 0.698,-0.267 0.964,0c0.266,0.266 0.266,0.697 0,0.964c-0.001,0.001 -0.002,0.002 -0.003,0.003Zm-0.726,4.904c-0.676,0 -1.311,-0.264 -1.789,-0.741c-0.974,-0.975 -0.985,-2.554 -0.033,-3.543c-0.376,-0.118 -0.729,-0.326 -1.026,-0.623c-0.478,-0.478 -0.741,-1.113 -0.741,-1.788c0,-0.029 0,-0.058 0.001,-0.086c-0.676,0.024 -1.358,-0.224 -1.873,-0.738c-0.514,-0.515 -0.76,-1.198 -0.738,-1.873c-0.7,0.023 -1.376,-0.242 -1.874,-0.74c-0.478,-0.478 -0.741,-1.113 -0.741,-1.788c0,-0.676 0.263,-1.311 0.741,-1.789l13.727,-13.727c0.083,-0.083 0.188,-0.144 0.302,-0.175l4.422,-1.206c0.235,-0.064 0.488,0.003 0.662,0.176l7.716,7.717c0.139,0.139 0.211,0.331 0.199,0.526l-0.483,7.395c-0.01,0.166 -0.081,0.322 -0.198,0.439l-2.894,2.893c-0.128,0.128 -0.301,0.2 -0.482,0.2c-0.181,0 -0.354,-0.072 -0.482,-0.2l-1.849,-1.848l-10.779,10.778c-0.478,0.477 -1.112,0.741 -1.788,0.741Z" style="fill:#5d82e1;fill-rule:nonzero;stroke:#5d82e1;stroke-width:1px;"/><path d="M25.235,34.975l6.752,6.752l1.607,-1.607l-6.751,-6.753l-1.608,1.608Zm6.752,8.399c-0.181,0 -0.355,-0.072 -0.482,-0.2l-7.717,-7.717c-0.128,-0.128 -0.2,-0.301 -0.2,-0.482c0,-0.181 0.072,-0.354 0.2,-0.482l2.572,-2.572c0.266,-0.267 0.698,-0.267 0.965,0l7.717,7.716c0.266,0.267 0.266,0.698 0,0.965l-2.573,2.572c-0.128,0.128 -0.301,0.2 -0.482,0.2Z" style="fill:#5d82e1;fill-rule:nonzero;stroke:#5d82e1;stroke-width:1px;"/><path d="M61.248,15.963l4.964,-4.964l-10.249,-10.249l-4.964,4.964l10.249,10.249Z" style="fill:none;stroke:#5d82e1;stroke-width:1.5px;"/><path d="M40.628,16.085l-15.614,15.615l10.248,10.249l15.615,-15.615l-10.249,-10.249Z" style="fill:none;stroke:#5d82e1;stroke-width:1.5px;"/><path d="M13.688,58.698c-0.174,0 -0.349,-0.066 -0.482,-0.2c-0.266,-0.266 -0.266,-0.698 0,-0.964l2.372,-2.372c0.267,-0.266 0.699,-0.266 0.964,0c0.267,0.267 0.267,0.698 0,0.965l-2.371,2.371c-0.134,0.134 -0.308,0.2 -0.483,0.2Z" style="fill:#5d82e1;fill-rule:nonzero;stroke:#5d82e1;stroke-width:1px;"/><path d="M11.076,56.086c-0.175,0 -0.349,-0.067 -0.482,-0.2c-0.267,-0.266 -0.267,-0.698 0,-0.965l2.371,-2.371c0.267,-0.267 0.699,-0.267 0.965,0c0.266,0.266 0.266,0.698 0,0.965l-2.372,2.371c-0.133,0.133 -0.308,0.2 -0.482,0.2Z" style="fill:#5d82e1;fill-rule:nonzero;stroke:#5d82e1;stroke-width:1px;"/><path d="M8.463,53.474c-0.174,0 -0.349,-0.067 -0.482,-0.201c-0.266,-0.266 -0.266,-0.697 0,-0.964l2.372,-2.371c0.266,-0.267 0.698,-0.267 0.965,0c0.266,0.266 0.266,0.697 0,0.964l-2.372,2.371c-0.133,0.134 -0.308,0.201 -0.483,0.201Z" style="fill:#5d82e1;fill-rule:nonzero;stroke:#5d82e1;stroke-width:1px;"/><path d="M58.754,8.889c-0.174,0 -0.348,-0.066 -0.482,-0.199c-0.266,-0.267 -0.266,-0.699 0,-0.965l1.447,-1.447c0.267,-0.266 0.699,-0.266 0.965,0c0.266,0.267 0.266,0.699 0,0.965l-1.447,1.447c-0.133,0.133 -0.308,0.199 -0.483,0.199Z" style="fill:#5d82e1;fill-rule:nonzero;stroke:#5d82e1;stroke-width:1px;"/><path d="M41.418,26.226c-0.174,0 -0.349,-0.067 -0.482,-0.201c-0.266,-0.266 -0.266,-0.697 0,-0.964l2.89,-2.889c0.266,-0.267 0.698,-0.267 0.964,0c0.266,0.266 0.266,0.698 0,0.965l-2.89,2.888c-0.133,0.134 -0.307,0.201 -0.482,0.201Zm-5.778,5.778c-0.175,0 -0.35,-0.067 -0.483,-0.199c-0.266,-0.267 -0.266,-0.699 0,-0.965l2.89,-2.889c0.266,-0.267 0.698,-0.267 0.964,0c0.266,0.266 0.266,0.698 0,0.964l-2.889,2.89c-0.133,0.132 -0.308,0.199 -0.482,0.199Z" style="fill:#5d82e1;fill-rule:nonzero;stroke:#5d82e1;stroke-width:1px;"/><path d="M31.303,36.341c-0.174,0 -0.348,-0.066 -0.482,-0.2c-0.266,-0.267 -0.266,-0.698 0,-0.964l1.447,-1.448c0.266,-0.266 0.698,-0.266 0.965,0c0.266,0.267 0.266,0.699 0,0.965l-1.447,1.447c-0.133,0.134 -0.308,0.2 -0.483,0.2Z" style="fill:#5d82e1;fill-rule:nonzero;stroke:#5d82e1;stroke-width:1px;"/><path d="M51.714,30.828l6.83,0.446l7.219,-7.219l-1.054,-3.864l-13.598,-13.599c-0.455,-0.454 -1.194,-0.454 -1.648,0c-0.455,0.455 -0.455,1.194 0,1.648c0.133,0.134 0.199,0.308 0.199,0.483c0,0.174 -0.066,0.349 -0.199,0.482c-0.267,0.267 -0.699,0.266 -0.965,0c-0.44,-0.44 -1.208,-0.44 -1.648,0c-0.454,0.454 -0.454,1.193 0,1.648c0.133,0.133 0.2,0.307 0.2,0.482c0,0.174 -0.067,0.349 -0.2,0.482c-0.266,0.266 -0.699,0.266 -0.964,0c-0.455,-0.454 -1.194,-0.454 -1.648,0c-0.221,0.221 -0.341,0.513 -0.341,0.824c0,0.31 0.12,0.602 0.338,0.822l0.003,0.002c0.266,0.267 0.266,0.698 0,0.965c-0.266,0.266 -0.698,0.266 -0.965,0c-0.001,-0.001 -0.002,-0.002 -0.003,-0.003l-1.55,-1.551c-0.454,-0.454 -1.193,-0.454 -1.648,0c-0.22,0.221 -0.341,0.513 -0.341,0.824c0,0.312 0.121,0.604 0.341,0.825l11.261,11.26c0.266,0.267 0.266,0.698 0,0.964l-1.849,1.849l2.23,2.23Zm7.095,1.828c-0.015,0 -0.03,0 -0.045,0l-7.395,-0.483c-0.166,-0.011 -0.321,-0.081 -0.438,-0.198l-2.894,-2.894c-0.267,-0.267 -0.267,-0.698 0,-0.965l1.848,-1.849l-10.777,-10.778c-0.987,-0.986 -0.987,-2.591 0,-3.577c0.974,-0.974 2.552,-0.986 3.541,-0.035c0.121,-0.382 0.332,-0.732 0.624,-1.024c0.515,-0.515 1.194,-0.757 1.874,-0.739c-0.022,-0.675 0.224,-1.359 0.739,-1.874c0.497,-0.498 1.168,-0.764 1.874,-0.74c-0.023,-0.675 0.223,-1.358 0.738,-1.873l0,0c0.986,-0.985 2.591,-0.986 3.577,0l13.727,13.727c0.084,0.084 0.144,0.189 0.175,0.303l1.206,4.421c0.064,0.236 -0.002,0.489 -0.175,0.662l-7.717,7.717c-0.129,0.128 -0.302,0.199 -0.482,0.199Z" style="fill:#5d82e1;fill-rule:nonzero;stroke:#5d82e1;stroke-width:1px;"/><path d="M59.773,31.975l1.608,1.607l6.752,-6.752l-1.608,-1.608l-6.752,6.753Zm1.608,3.254c-0.175,0 -0.35,-0.067 -0.482,-0.2l-2.573,-2.572c-0.128,-0.128 -0.2,-0.302 -0.2,-0.482c0,-0.181 0.072,-0.355 0.2,-0.483l7.717,-7.717c0.128,-0.128 0.301,-0.2 0.482,-0.2c0.181,0 0.355,0.072 0.483,0.2l2.572,2.573c0.266,0.266 0.266,0.698 0,0.964l-7.717,7.717c-0.133,0.133 -0.308,0.2 -0.482,0.2Z" style="fill:#5d82e1;fill-rule:nonzero;stroke:#5d82e1;stroke-width:1px;"/><path d="M85.677,61.375l4.824,4.825l10.249,-10.249l-4.824,-4.825l-10.249,10.249Z" style="fill:none;stroke:#5d82e1;stroke-width:1.5px;"/><path d="M75.227,50.925l-15.73,-15.73l10.249,-10.249l15.73,15.73l-10.249,10.249Z" style="fill:none;stroke:#5d82e1;stroke-width:1.5px;"/><path d="M45.856,16.73c-0.175,0 -0.349,-0.067 -0.483,-0.2l-2.371,-2.372c-0.267,-0.266 -0.267,-0.698 0,-0.965c0.266,-0.266 0.698,-0.266 0.964,0l2.372,2.372c0.266,0.267 0.266,0.698 0,0.965c-0.133,0.133 -0.308,0.2 -0.482,0.2Z" style="fill:#5d82e1;fill-rule:nonzero;stroke:#5d82e1;stroke-width:1px;"/><path d="M48.468,14.117c-0.174,0 -0.349,-0.066 -0.482,-0.2l-2.372,-2.371c-0.266,-0.267 -0.266,-0.698 0,-0.965c0.266,-0.266 0.699,-0.266 0.965,0l2.371,2.372c0.267,0.267 0.267,0.698 0,0.964c-0.132,0.134 -0.307,0.2 -0.482,0.2Z" style="fill:#5d82e1;fill-rule:nonzero;stroke:#5d82e1;stroke-width:1px;"/><path d="M51.081,11.505c-0.175,0 -0.349,-0.067 -0.483,-0.2l-2.371,-2.372c-0.267,-0.266 -0.267,-0.698 0,-0.964c0.266,-0.267 0.698,-0.267 0.964,0l2.372,2.371c0.266,0.267 0.266,0.699 0,0.965c-0.133,0.133 -0.308,0.2 -0.482,0.2Z" style="fill:#5d82e1;fill-rule:nonzero;stroke:#5d82e1;stroke-width:1px;"/><path d="M65.721,35.431c0.333,0.333 0.333,0.873 0,1.206c-0.333,0.333 -0.872,0.333 -1.205,0c-0.333,-0.333 -0.333,-0.873 0,-1.206c0.333,-0.333 0.872,-0.333 1.205,0Z" style="fill:#5d82e1;fill-rule:nonzero;stroke:#5d82e1;stroke-width:1px;"/><path d="M67.762,39.066c0.333,0.333 0.333,0.873 0,1.206c-0.333,0.333 -0.873,0.333 -1.206,0c-0.333,-0.333 -0.333,-0.873 0,-1.206c0.333,-0.333 0.873,-0.333 1.206,0Z" style="fill:#5d82e1;fill-rule:nonzero;stroke:#5d82e1;stroke-width:1px;"/><path d="M70.214,58.626l7.219,7.219l3.864,-1.054l13.599,-13.599c0.219,-0.22 0.341,-0.513 0.341,-0.824c0,-0.311 -0.122,-0.604 -0.341,-0.824c-0.455,-0.454 -1.195,-0.454 -1.649,0c-0.266,0.267 -0.698,0.267 -0.964,0c-0.133,-0.133 -0.2,-0.308 -0.2,-0.482c0,-0.174 0.067,-0.349 0.2,-0.482c0.22,-0.221 0.341,-0.513 0.341,-0.824c0,-0.311 -0.121,-0.604 -0.341,-0.824c-0.454,-0.454 -1.193,-0.454 -1.648,0c-0.266,0.266 -0.698,0.266 -0.964,0c-0.134,-0.133 -0.2,-0.308 -0.2,-0.482c0,-0.175 0.066,-0.35 0.2,-0.483c0.454,-0.454 0.454,-1.193 0,-1.647c-0.455,-0.455 -1.194,-0.455 -1.649,0c-0.265,0.266 -0.697,0.266 -0.964,0c-0.266,-0.267 -0.266,-0.699 0,-0.965l1.553,-1.553c0.22,-0.221 0.341,-0.513 0.341,-0.824c0,-0.312 -0.121,-0.604 -0.341,-0.824c-0.455,-0.454 -1.194,-0.454 -1.648,0l-11.26,11.26c-0.267,0.267 -0.699,0.267 -0.965,0l-1.849,-1.848l-2.229,2.229l-0.446,6.831Zm7.016,8.663c-0.179,0 -0.353,-0.07 -0.482,-0.2l-7.717,-7.717c-0.139,-0.139 -0.211,-0.331 -0.199,-0.526l0.483,-7.396c0.01,-0.165 0.081,-0.321 0.198,-0.438l2.894,-2.893c0.266,-0.267 0.698,-0.267 0.964,0l1.849,1.849l10.779,-10.779c0.986,-0.986 2.59,-0.986 3.577,0c0.477,0.478 0.74,1.113 0.74,1.789c0,0.659 -0.25,1.28 -0.707,1.754c0.376,0.118 0.729,0.326 1.026,0.623c0.515,0.515 0.761,1.198 0.738,1.874c0.681,-0.023 1.36,0.223 1.874,0.738c0.478,0.478 0.741,1.113 0.741,1.789c0,0.028 0,0.057 -0.001,0.085c0.669,-0.027 1.358,0.224 1.873,0.739c0.986,0.986 0.986,2.59 0,3.577l-13.727,13.727c-0.083,0.083 -0.188,0.144 -0.302,0.175l-4.422,1.206c-0.059,0.016 -0.119,0.024 -0.179,0.024Z" style="fill:#5d82e1;fill-rule:nonzero;stroke:#5d82e1;stroke-width:1px;"/><path d="M85.44,46.619c-0.174,0 -0.349,-0.066 -0.482,-0.199c-0.267,-0.267 -0.267,-0.699 0,-0.965l2.371,-2.372c0.266,-0.266 0.699,-0.266 0.965,0c0.266,0.267 0.266,0.699 0,0.965l-2.372,2.372c-0.133,0.133 -0.308,0.199 -0.482,0.199Z" style="fill:#5d82e1;fill-rule:nonzero;stroke:#5d82e1;stroke-width:1px;"/><path d="M88.052,49.232c-0.174,0 -0.349,-0.067 -0.482,-0.2c-0.266,-0.267 -0.266,-0.698 0,-0.964l2.372,-2.372c0.266,-0.266 0.698,-0.266 0.964,0c0.267,0.266 0.267,0.698 0,0.964l-2.371,2.372c-0.133,0.133 -0.308,0.2 -0.483,0.2Z" style="fill:#5d82e1;fill-rule:nonzero;stroke:#5d82e1;stroke-width:1px;"/><path d="M90.665,51.845c-0.175,0 -0.35,-0.067 -0.483,-0.201c-0.266,-0.266 -0.266,-0.697 0,-0.964l2.372,-2.371c0.267,-0.267 0.699,-0.267 0.965,0c0.267,0.266 0.267,0.697 0,0.964l-2.372,2.371c-0.133,0.134 -0.308,0.201 -0.482,0.201Z" style="fill:#5d82e1;fill-rule:nonzero;stroke:#5d82e1;stroke-width:1px;"/></g></svg>