<?xml version="1.0" encoding="UTF-8" standalone="no"?><!DOCTYPE svg PUBLIC "-//W3C//DTD SVG 1.1//EN" "http://www.w3.org/Graphics/SVG/1.1/DTD/svg11.dtd"><svg width="100%" height="100%" viewBox="0 0 175 74" version="1.1" xmlns="http://www.w3.org/2000/svg" xmlns:xlink="http://www.w3.org/1999/xlink" xml:space="preserve" xmlns:serif="http://www.serif.com/" style="fill-rule:evenodd;clip-rule:evenodd;stroke-linejoin:round;stroke-miterlimit:1.41421;"><path d="M22.254,73.579c-0.037,0 -0.074,-0.002 -0.111,-0.004c-0.83,-0.053 -1.511,-0.718 -1.584,-1.547l-2.403,-26.843l-0.995,2.709c-0.251,0.682 -0.908,1.14 -1.635,1.141l-14.528,0.015l-0.001,0c-0.55,0 -0.996,-0.446 -0.997,-0.996c-0.001,-0.552 0.446,-0.998 0.996,-0.999l14.353,-0.014l2.468,-6.717c0.161,-0.438 0.601,-0.707 1.067,-0.645c0.463,0.062 0.821,0.435 0.863,0.9l2.457,27.455l3.862,-59.93c0.034,-0.523 0.467,-0.931 0.991,-0.933l0.005,0c0.522,0 0.956,0.403 0.994,0.925l2.599,35.618l2.136,-9.615c0.101,-0.454 0.503,-0.779 0.968,-0.781l0.005,0c0.464,0 0.866,0.319 0.972,0.77l3.037,13.003l12.085,-0.013l3.065,-25.54c0.06,-0.501 0.485,-0.878 0.989,-0.878l0.005,0c0.507,0.002 0.931,0.384 0.987,0.888l3.327,30.158l2.4,-12.621c0.087,-0.452 0.472,-0.787 0.932,-0.809c0.472,-0.024 0.876,0.274 1.005,0.716l2.3,7.868l13.534,-0.012c-1.39,-1.251 -2.817,-2.54 -4.186,-3.847c-1.588,-1.524 -3.423,-3.357 -5.009,-5.417c-1.766,-2.284 -2.896,-4.455 -3.453,-6.633c-0.124,-0.53 -0.269,-1.203 -0.327,-1.889c-0.059,-0.612 -0.074,-1.238 -0.046,-1.903c0.055,-1.305 0.266,-2.563 0.626,-3.737c0.353,-1.19 0.876,-2.356 1.551,-3.453c0.65,-1.059 1.456,-2.049 2.395,-2.94c0.961,-0.898 1.998,-1.643 3.087,-2.221c1.077,-0.586 2.27,-1.042 3.538,-1.348c0.198,-0.053 0.407,-0.093 0.609,-0.132c0.095,-0.019 0.191,-0.037 0.286,-0.057c0.025,-0.006 0.051,-0.01 0.076,-0.014c0.099,-0.013 0.198,-0.029 0.297,-0.044c0.201,-0.031 0.408,-0.064 0.628,-0.082c0.284,-0.03 0.587,-0.062 0.92,-0.073c0.309,-0.021 0.578,-0.018 0.838,-0.015l0.102,0.002c0.016,0 0.032,0 0.049,0.002c0.709,0.042 1.3,0.13 1.915,0.284c0.579,0.143 1.206,0.36 1.811,0.626c2.3,1.015 4.233,2.652 5.594,3.945c0.769,-0.811 1.518,-1.516 2.275,-2.144c1.128,-0.928 2.169,-1.619 3.186,-2.116c1.237,-0.616 2.497,-0.979 3.736,-1.076c1.23,-0.086 2.517,0 3.836,0.254c2.568,0.504 4.933,1.662 6.846,3.35c1.934,1.687 3.392,3.882 4.213,6.344c0.4,1.175 0.653,2.44 0.749,3.753c0.096,1.376 0.003,2.64 -0.285,3.866c-0.486,2.165 -1.563,4.398 -3.292,6.815c-1.555,2.159 -3.325,4.073 -4.851,5.662c-1.346,1.396 -2.749,2.777 -4.105,4.113l-0.034,0.033l10.437,-0.009l1.51,-4.217c0.155,-0.43 0.584,-0.699 1.034,-0.656c0.454,0.043 0.821,0.389 0.891,0.84l2.384,15.46l1.519,-23.599c0.032,-0.492 0.419,-0.887 0.909,-0.929c0.491,-0.044 0.94,0.28 1.056,0.76l3.04,12.631l9.194,-0.019l3.15,-8.574c0.161,-0.438 0.6,-0.706 1.067,-0.645c0.462,0.062 0.82,0.435 0.862,0.9l2.058,22.983l3.915,-60.749c0.034,-0.523 0.467,-0.931 0.991,-0.933l0.004,0c0.522,0 0.957,0.403 0.995,0.925l2.895,39.677l1.859,-8.369c0.101,-0.454 0.502,-0.778 0.967,-0.781l0.007,0c0.462,0 0.864,0.318 0.971,0.769l3.476,14.769l16.005,0c0.551,0 0.997,0.446 0.997,0.997c0,0.551 -0.446,0.997 -0.997,0.997l-16.795,0c-0.463,0 -0.865,-0.318 -0.971,-0.769l-2.658,-11.293l-2.302,10.366c-0.061,0.274 -0.234,0.518 -0.472,0.666c-0.235,0.147 -0.522,0.195 -0.792,0.133c-0.457,-0.103 -0.793,-0.499 -0.819,-0.968l-2.304,-31.574l-3.668,56.911c-0.04,0.645 -0.599,1.141 -1.245,1.096c-0.584,-0.039 -1.043,-0.488 -1.094,-1.068l-2.613,-29.18l-1.804,4.91c-0.174,0.476 -0.633,0.797 -1.142,0.797l-10.338,0.021c-0.572,0 -1.063,-0.387 -1.196,-0.941l-1.641,-6.814l-1.52,23.612c-0.047,0.703 -0.666,1.229 -1.353,1.19c-0.592,-0.037 -1.088,-0.49 -1.179,-1.077l-2.791,-18.1l-0.348,0.975c-0.185,0.515 -0.677,0.861 -1.224,0.864l-12.69,0.011c-0.725,0 -1.315,-0.589 -1.316,-1.313c0,-0.508 0.295,-0.975 0.754,-1.191l0.959,-0.946c1.348,-1.327 2.741,-2.699 4.068,-4.076c1.477,-1.536 3.187,-3.386 4.667,-5.441c1.569,-2.193 2.541,-4.188 2.969,-6.098c0.244,-1.039 0.321,-2.108 0.24,-3.277c-0.084,-1.141 -0.303,-2.239 -0.65,-3.259c-0.71,-2.131 -1.968,-4.025 -3.638,-5.482c-1.652,-1.457 -3.695,-2.456 -5.912,-2.892c-1.145,-0.22 -2.259,-0.295 -3.308,-0.222c-0.961,0.075 -2.001,0.378 -3.001,0.876c-0.893,0.436 -1.78,1.028 -2.798,1.865c-0.825,0.684 -1.647,1.476 -2.509,2.42c-0.51,0.558 -1.378,0.598 -1.936,0.088c-0.013,-0.011 -0.027,-0.024 -0.04,-0.038c-1.995,-1.954 -3.729,-3.22 -5.458,-3.984c-0.501,-0.22 -1.016,-0.399 -1.489,-0.516c-0.493,-0.124 -0.951,-0.191 -1.529,-0.227l-0.08,-0.001c-0.245,-0.003 -0.457,-0.006 -0.689,0.011c-0.014,0.001 -0.027,0.002 -0.041,0.002c-0.269,0.008 -0.53,0.035 -0.807,0.064c-0.006,0.001 -0.022,0.003 -0.028,0.003c-0.149,0.013 -0.313,0.038 -0.487,0.066c-0.101,0.015 -0.202,0.031 -0.303,0.045c-0.096,0.02 -0.192,0.039 -0.288,0.057c-0.177,0.034 -0.344,0.066 -0.497,0.107c-1.119,0.271 -2.149,0.664 -3.082,1.171c-0.944,0.501 -1.838,1.145 -2.665,1.918c-0.807,0.765 -1.503,1.618 -2.062,2.531c-0.585,0.95 -1.036,1.953 -1.341,2.985c-0.314,1.02 -0.495,2.109 -0.543,3.246c-0.025,0.573 -0.012,1.108 0.039,1.638c0.038,0.446 0.123,0.935 0.278,1.594c0.484,1.89 1.498,3.823 3.095,5.889c1.507,1.958 3.276,3.724 4.809,5.195c1.451,1.386 2.981,2.761 4.46,4.092l0.507,0.456c0.507,0.223 0.856,0.732 0.856,1.306l0,0.1c0.001,0.379 -0.147,0.738 -0.417,1.008c-0.394,0.395 -1.007,0.525 -1.527,0.319l-15.02,0.014c-0.635,0 -1.204,-0.426 -1.384,-1.035l-1.253,-4.29l-2.281,11.987c-0.151,0.796 -0.921,1.321 -1.718,1.169c-0.639,-0.122 -1.115,-0.638 -1.186,-1.284l-2.761,-25.027l-2.081,17.345c-0.092,0.771 -0.748,1.353 -1.526,1.353l-12.843,0.013c-0.724,0 -1.344,-0.493 -1.51,-1.197l-2.122,-9.085l-1.798,8.096c-0.19,0.851 -1.037,1.387 -1.886,1.201c-0.674,-0.15 -1.182,-0.736 -1.234,-1.427l-1.748,-23.956l-3.175,49.27c-0.029,0.453 -0.233,0.867 -0.574,1.168c-0.313,0.274 -0.707,0.423 -1.12,0.423" style="fill:#5d82e1;fill-rule:nonzero;"/></svg>