<?xml version="1.0" encoding="UTF-8" standalone="no"?><!DOCTYPE svg PUBLIC "-//W3C//DTD SVG 1.1//EN" "http://www.w3.org/Graphics/SVG/1.1/DTD/svg11.dtd"><svg width="100%" height="100%" viewBox="0 0 100 57" version="1.1" xmlns="http://www.w3.org/2000/svg" xmlns:xlink="http://www.w3.org/1999/xlink" xml:space="preserve" xmlns:serif="http://www.serif.com/" style="fill-rule:evenodd;clip-rule:evenodd;stroke-linejoin:round;stroke-miterlimit:1.41421;"><g><path d="M2.586,48.866c0.289,-12.239 5.19,-23.702 13.877,-32.389c8.958,-8.958 20.869,-13.891 33.537,-13.891c12.669,0 24.579,4.933 33.537,13.891c8.687,8.687 13.589,20.15 13.878,32.389l2.585,0c-0.289,-12.929 -5.459,-25.042 -14.634,-34.217c-9.447,-9.447 -22.007,-14.649 -35.366,-14.649c-13.359,0 -25.919,5.202 -35.365,14.649c-9.176,9.175 -14.346,21.288 -14.635,34.217l2.586,0Z" style="fill:#fff;fill-rule:nonzero;"/><rect x="49.636" y="5.36" width="0.728" height="7.969" style="fill:#fff;fill-rule:nonzero;"/><path d="M82.162,32.107l-0.364,-0.63l6.901,-3.985l0.364,0.63l-6.901,3.985Z" style="fill:#fff;fill-rule:nonzero;"/><path d="M68.779,18.458l-0.629,-0.364l3.984,-6.902l0.63,0.364l-3.985,6.902Z" style="fill:#fff;fill-rule:nonzero;"/><path d="M17.839,32.107l-6.902,-3.985l0.364,-0.63l6.902,3.985l-0.364,0.63Z" style="fill:#fff;fill-rule:nonzero;"/><path d="M31.221,18.458l-3.985,-6.902l0.63,-0.364l3.985,6.902l-0.63,0.364Z" style="fill:#fff;fill-rule:nonzero;"/><path d="M45.265,8.679l-0.319,-3.035l0.723,-0.077l0.32,3.036l-0.724,0.076Z" style="fill:#fff;fill-rule:nonzero;"/><path d="M40.944,9.401l-0.634,-2.986l0.712,-0.15l0.634,2.986l-0.712,0.15Z" style="fill:#fff;fill-rule:nonzero;"/><path d="M36.724,10.572l-0.943,-2.903l0.692,-0.225l0.943,2.904l-0.692,0.224Z" style="fill:#fff;fill-rule:nonzero;"/><path d="M32.648,12.177l-1.24,-2.788l0.665,-0.296l1.24,2.789l-0.665,0.295Z" style="fill:#fff;fill-rule:nonzero;"/><path d="M54.735,8.679l-0.723,-0.076l0.319,-3.036l0.723,0.077l-0.319,3.035Z" style="fill:#fff;fill-rule:nonzero;"/><path d="M59.056,9.401l-0.712,-0.15l0.634,-2.986l0.712,0.15l-0.634,2.986Z" style="fill:#fff;fill-rule:nonzero;"/><path d="M63.277,10.572l-0.692,-0.224l0.942,-2.904l0.692,0.225l-0.942,2.903Z" style="fill:#fff;fill-rule:nonzero;"/><path d="M67.353,12.177l-0.666,-0.295l1.24,-2.789l0.665,0.296l-1.239,2.788Z" style="fill:#fff;fill-rule:nonzero;"/><path d="M91.652,46.243l-0.077,-0.723l3.036,-0.319l0.077,0.723l-3.036,0.319Z" style="fill:#fff;fill-rule:nonzero;"/><path d="M91.004,41.911l-0.15,-0.712l2.986,-0.634l0.15,0.712l-2.986,0.634Z" style="fill:#fff;fill-rule:nonzero;"/><path d="M89.907,37.67l-0.224,-0.692l2.903,-0.942l0.224,0.692l-2.903,0.942Z" style="fill:#fff;fill-rule:nonzero;"/><path d="M88.373,33.567l-0.295,-0.665l2.789,-1.24l0.295,0.666l-2.789,1.239Z" style="fill:#fff;fill-rule:nonzero;"/><path d="M25.44,16.376l-1.769,-2.486l0.593,-0.422l1.769,2.486l-0.593,0.422Z" style="fill:#fff;fill-rule:nonzero;"/><path d="M22.033,19.13l-2.02,-2.289l0.546,-0.482l2.02,2.288l-0.546,0.483Z" style="fill:#fff;fill-rule:nonzero;"/><path d="M18.933,22.223l-2.247,-2.065l0.491,-0.536l2.248,2.065l-0.492,0.536Z" style="fill:#fff;fill-rule:nonzero;"/><path d="M16.172,25.625l-2.45,-1.82l0.433,-0.584l2.451,1.819l-0.434,0.585Z" style="fill:#fff;fill-rule:nonzero;"/><path d="M84.301,26.288l-0.422,-0.593l2.487,-1.77l0.422,0.592l-2.487,1.771Z" style="fill:#fff;fill-rule:nonzero;"/><path d="M81.607,22.833l-0.481,-0.546l2.288,-2.019l0.482,0.545l-2.289,2.02Z" style="fill:#fff;fill-rule:nonzero;"/><path d="M78.568,19.679l-0.536,-0.491l2.065,-2.248l0.536,0.492l-2.065,2.247Z" style="fill:#fff;fill-rule:nonzero;"/><path d="M75.215,16.861l-0.584,-0.434l1.819,-2.45l0.584,0.433l-1.819,2.451Z" style="fill:#fff;fill-rule:nonzero;"/><path d="M8.348,46.243l-3.035,-0.319l0.077,-0.723l3.035,0.319l-0.077,0.723Z" style="fill:#fff;fill-rule:nonzero;"/><path d="M8.996,41.911l-2.986,-0.634l0.151,-0.712l2.986,0.634l-0.151,0.712Z" style="fill:#fff;fill-rule:nonzero;"/><path d="M10.093,37.67l-2.903,-0.942l0.224,-0.692l2.904,0.942l-0.225,0.692Z" style="fill:#fff;fill-rule:nonzero;"/><path d="M11.627,33.567l-2.789,-1.239l0.296,-0.666l2.789,1.24l-0.296,0.665Z" style="fill:#fff;fill-rule:nonzero;"/><path d="M50.32,49.291c-0.799,0 -1.446,-0.648 -1.446,-1.447c0,-0.798 0.647,-1.446 1.446,-1.446c0.799,0 1.447,0.648 1.447,1.446c0,0.799 -0.648,1.447 -1.447,1.447Zm0,-4.484c-1.677,0 -3.037,1.36 -3.037,3.037c0,1.678 1.36,3.038 3.037,3.038c1.678,0 3.038,-1.36 3.038,-3.038c0,-1.677 -1.36,-3.037 -3.038,-3.037Z" style="fill:#fff;fill-rule:nonzero;"/><path d="M52.717,45.983l13.007,-30.103l-15.396,28.928c0.972,0.002 1.834,0.462 2.389,1.175Z" style="fill:#fff;fill-rule:nonzero;"/><path d="M47.805,49.547l-2.981,5.601l2.097,0l1.085,1.736l2.6,-6.017c-0.094,0.009 -0.189,0.015 -0.286,0.015c-1.046,0 -1.968,-0.529 -2.515,-1.335Z" style="fill:#fff;fill-rule:nonzero;"/></g></svg>