<?xml version="1.0" encoding="UTF-8" standalone="no"?><!DOCTYPE svg PUBLIC "-//W3C//DTD SVG 1.1//EN" "http://www.w3.org/Graphics/SVG/1.1/DTD/svg11.dtd"><svg width="100%" height="100%" viewBox="0 0 91 67" version="1.1" xmlns="http://www.w3.org/2000/svg" xmlns:xlink="http://www.w3.org/1999/xlink" xml:space="preserve" xmlns:serif="http://www.serif.com/" style="fill-rule:evenodd;clip-rule:evenodd;stroke-linejoin:round;stroke-miterlimit:1.41421;"><g><path d="M74.158,66.793c-7.856,0 -14.713,-5.574 -16.302,-13.255c-0.084,-0.403 0.175,-0.798 0.579,-0.882c0.405,-0.079 0.798,0.177 0.882,0.58c1.447,6.991 7.689,12.065 14.841,12.065c8.353,0 15.151,-6.798 15.151,-15.155c0,-8.351 -6.798,-15.145 -15.151,-15.145c-1.127,0 -2.235,0.12 -3.293,0.357c-0.404,0.09 -0.801,-0.163 -0.891,-0.565c-0.091,-0.402 0.162,-0.801 0.565,-0.891c1.165,-0.26 2.383,-0.394 3.619,-0.394c9.176,0 16.642,7.464 16.642,16.638c0,9.179 -7.466,16.647 -16.642,16.647Z" style="fill:#5d82e1;fill-rule:nonzero;"/><path d="M74.158,66.793c-3.604,0 -6.6,-5.486 -7.283,-13.341c-0.036,-0.411 0.267,-0.773 0.678,-0.808c0.397,-0.046 0.773,0.268 0.808,0.678c0.595,6.829 3.087,11.979 5.797,11.979c2.863,0 5.929,-6.089 5.929,-15.155c0,-9.06 -3.066,-15.145 -5.929,-15.145c-1.219,0 -2.219,1.071 -2.843,1.968c-0.235,0.338 -0.702,0.42 -1.039,0.187c-0.338,-0.235 -0.422,-0.7 -0.187,-1.038c1.187,-1.708 2.594,-2.61 4.069,-2.61c4.162,0 7.421,7.309 7.421,16.638c0,9.335 -3.259,16.647 -7.421,16.647Z" style="fill:#5d82e1;fill-rule:nonzero;"/><path d="M1.492,52.64l68.464,0l0,-51.147l-68.464,0l0,51.147Zm69.21,1.493l-69.956,0c-0.412,0 -0.746,-0.334 -0.746,-0.746l0,-52.641c0,-0.412 0.334,-0.746 0.746,-0.746l69.956,0c0.412,0 0.746,0.334 0.746,0.746l0,52.641c0,0.412 -0.334,0.746 -0.746,0.746Z" style="fill:#5d82e1;fill-rule:nonzero;"/><path d="M22.077,37.795l2.199,0l0,-11.274l-2.199,0l0,11.274Zm2.945,1.492l-3.691,0c-0.411,0 -0.745,-0.334 -0.745,-0.746l0,-12.766c0,-0.412 0.334,-0.746 0.745,-0.746l3.691,0c0.412,0 0.746,0.334 0.746,0.746l0,12.766c0,0.412 -0.334,0.746 -0.746,0.746Z" style="fill:#5d82e1;fill-rule:nonzero;"/><path d="M28.386,37.795l2.199,0l0,-13.845l-2.199,0l0,13.845Zm2.945,1.492l-3.691,0c-0.411,0 -0.745,-0.334 -0.745,-0.746l0,-15.337c0,-0.413 0.334,-0.747 0.745,-0.747l3.691,0c0.412,0 0.746,0.334 0.746,0.747l0,15.337c0,0.412 -0.334,0.746 -0.746,0.746Z" style="fill:#5d82e1;fill-rule:nonzero;"/><path d="M34.695,37.795l2.2,0l0,-10.206l-2.2,0l0,10.206Zm2.946,1.492l-3.69,0c-0.412,0 -0.747,-0.334 -0.747,-0.746l0,-11.698c0,-0.413 0.335,-0.747 0.747,-0.747l3.69,0c0.412,0 0.746,0.334 0.746,0.747l0,11.698c0,0.412 -0.334,0.746 -0.746,0.746Z" style="fill:#5d82e1;fill-rule:nonzero;"/><path d="M41.009,37.795l2.196,0l0,-3.599l-2.196,0l0,3.599Zm2.941,1.492l-3.685,0c-0.412,0 -0.747,-0.334 -0.747,-0.746l0,-5.091c0,-0.413 0.335,-0.747 0.747,-0.747l3.685,0c0.412,0 0.746,0.334 0.746,0.747l0,5.091c0,0.412 -0.334,0.746 -0.746,0.746Z" style="fill:#5d82e1;fill-rule:nonzero;"/><path d="M47.319,37.795l2.199,0l0,-10.102l-2.199,0l0,10.102Zm2.945,1.492l-3.69,0c-0.412,0 -0.746,-0.334 -0.746,-0.746l0,-11.594c0,-0.413 0.334,-0.747 0.746,-0.747l3.69,0c0.412,0 0.746,0.334 0.746,0.747l0,11.594c0,0.412 -0.334,0.746 -0.746,0.746Z" style="fill:#5d82e1;fill-rule:nonzero;"/><path d="M55.669,42.538l-39.936,0c-0.412,0 -0.746,-0.334 -0.746,-0.746c0,-0.412 0.334,-0.746 0.746,-0.746l39.936,0c0.412,0 0.746,0.334 0.746,0.746c0,0.412 -0.334,0.746 -0.746,0.746Z" style="fill:#5d82e1;fill-rule:nonzero;"/><path d="M70.702,13.318l-69.956,0c-0.412,0 -0.746,-0.334 -0.746,-0.746c0,-0.412 0.334,-0.746 0.746,-0.746l69.956,0c0.412,0 0.746,0.334 0.746,0.746c0,0.412 -0.334,0.746 -0.746,0.746Z" style="fill:#5d82e1;fill-rule:nonzero;"/><path d="M7.813,5.289c-0.688,0 -1.246,0.557 -1.246,1.24c0,0.684 0.558,1.24 1.246,1.24c0.688,0 1.247,-0.556 1.247,-1.24c0,-0.683 -0.559,-1.24 -1.247,-1.24Zm0,3.973c-1.509,0 -2.739,-1.226 -2.739,-2.733c0,-1.506 1.23,-2.732 2.739,-2.732c1.509,0 2.738,1.226 2.738,2.732c0,1.507 -1.229,2.733 -2.738,2.733Z" style="fill:#5d82e1;fill-rule:nonzero;"/><path d="M16.443,5.289c-0.687,0 -1.245,0.557 -1.245,1.24c0,0.684 0.558,1.24 1.245,1.24c0.684,0 1.241,-0.556 1.241,-1.24c0,-0.683 -0.557,-1.24 -1.241,-1.24Zm0,3.973c-1.509,0 -2.737,-1.226 -2.737,-2.733c0,-1.506 1.228,-2.732 2.737,-2.732c1.507,0 2.732,1.226 2.732,2.732c0,1.507 -1.225,2.733 -2.732,2.733Z" style="fill:#5d82e1;fill-rule:nonzero;"/><path d="M70.702,7.276l-38.859,0c-0.412,0 -0.746,-0.334 -0.746,-0.747c0,-0.412 0.334,-0.746 0.746,-0.746l38.859,0c0.412,0 0.746,0.334 0.746,0.746c0,0.413 -0.334,0.747 -0.746,0.747Z" style="fill:#5d82e1;fill-rule:nonzero;"/><path d="M74.158,66.793c-0.412,0 -0.746,-0.334 -0.746,-0.746l0,-31.792c0,-0.413 0.334,-0.747 0.746,-0.747c0.412,0 0.746,0.334 0.746,0.747l0,31.792c0,0.412 -0.334,0.746 -0.746,0.746Z" style="fill:#5d82e1;fill-rule:nonzero;"/><path d="M90.054,50.893l-19.352,0c-0.412,0 -0.746,-0.334 -0.746,-0.747c0,-0.412 0.334,-0.746 0.746,-0.746l19.352,0c0.412,0 0.746,0.334 0.746,0.746c0,0.413 -0.334,0.747 -0.746,0.747Z" style="fill:#5d82e1;fill-rule:nonzero;"/><path d="M73.896,43.89c-1.092,0 -2.175,-0.04 -3.251,-0.121c-0.41,-0.032 -0.718,-0.39 -0.687,-0.8c0.031,-0.411 0.387,-0.718 0.8,-0.689c5.264,0.403 10.751,-0.216 16.308,-1.831c0.393,-0.114 0.809,0.113 0.924,0.509c0.115,0.395 -0.113,0.81 -0.509,0.924c-4.595,1.336 -9.152,2.008 -13.585,2.008Z" style="fill:#5d82e1;fill-rule:nonzero;"/><path d="M61.037,58.721c-0.319,0 -0.613,-0.205 -0.712,-0.524c-0.123,-0.394 0.097,-0.812 0.49,-0.934c8.649,-2.698 17.371,-2.7 26.666,-0.004c0.396,0.113 0.624,0.528 0.51,0.923c-0.115,0.396 -0.528,0.626 -0.925,0.509c-9.006,-2.611 -17.447,-2.611 -25.807,-0.004c-0.074,0.023 -0.148,0.034 -0.222,0.034Z" style="fill:#5d82e1;fill-rule:nonzero;"/></g></svg>